<?xml version="1.0" encoding="utf-8"?>
<!-- Generator: Adobe Illustrator 25.1.0, SVG Export Plug-In . SVG Version: 6.00 Build 0)  -->
<svg version="1.1" id="Layer_1" xmlns="http://www.w3.org/2000/svg" xmlns:xlink="http://www.w3.org/1999/xlink" x="0px" y="0px"
	 viewBox="0 0 201 462.9" style="enable-background:new 0 0 201 462.9;" xml:space="preserve">
<style type="text/css">
	.st0{fill:#05B1FF;}
	.st1{fill:none;stroke:#FFFF00;stroke-width:4;stroke-linejoin:round;}
	.st2{fill:#FFFFFF;}
	.st3{fill:#F2CBA5;}
	.st4{fill:#534741;}
	.st5{fill:#A05A6C;}
	.st6{fill:url(#SVGID_1_);}
	.st7{fill:url(#SVGID_2_);}
	.st8{fill:url(#SVGID_3_);}
	.st9{fill:url(#SVGID_4_);}
</style>
<path class="st0" d="M59.7,112.5h81.6c4.4,0,8,3.8,8,8.5v333.3c0,4.7-3.6,8.5-8,8.5H59.7c-4.4,0-8-3.8-8-8.5V121
	C51.7,116.3,55.3,112.5,59.7,112.5z"/>
<polygon class="st1" points="51.7,196.4 100.4,260.9 149.3,196.4 "/>
<rect x="81.7" y="260.9" class="st2" width="37.5" height="25.6"/>
<ellipse class="st3" cx="100.5" cy="104.9" rx="100" ry="104.9"/>
<path class="st4" d="M197.1,78.2C185.9,33.2,146.9,0,100.4,0S14.9,33.2,3.7,78.2H197.1z"/>
<path class="st4" d="M196.9,77.1c-1.8-0.2-3.7,0.2-5.3,1.1c-2.8-1.5-6.9-1.4-9.1,0c-2.8-1.5-6.9-1.4-9.1,0c-2.8-1.5-6.8-1.4-9.1,0
	c-2.8-1.5-6.8-1.4-9.1,0c-2.8-1.5-6.8-1.4-9.1,0c-2.8-1.5-6.9-1.4-9.1,0c-2.8-1.5-6.9-1.4-9.1,0c-2.8-1.5-6.9-1.4-9.1,0
	c-2.8-1.5-6.8-1.4-9.1,0c-2.8-1.5-6.8-1.4-9.1,0c-2.8-1.5-6.8-1.4-9.1,0c-1.2-0.6-2.4-1-3.7-1.1V74H70v3.4c-0.7,0.3-1.3,0.7-1.9,1.2
	c-0.1-0.1-0.3-0.3-0.5-0.4c-2.7-1.6-5.9-1.9-8.8-0.8c-0.7-0.9-1.5-1.7-2.3-2.4c-1.2-0.8-2.5-1.2-3.9-1.4c-1.8-3.3-7.5-3.9-10.8-0.9
	c-0.2,0.2-0.3,0.3-0.5,0.5c-2-3-7.4-3.5-10.6-0.5c-0.2,0.2-0.3,0.3-0.5,0.5c-1.8-2.9-6.7-3.4-10-1.1c-2.2-1.9-6.3-2-9.1,0
	c-1.5-1.2-3.4-1.7-5.3-1.4c-3,8.5-5,17.4-5.9,26.4L0.4,97c0,3.4,0.6,6.3,1.1,6.4c0.5,0.1,0.5-2.6,2-4.4c1-1.1,2.5-1.7,4-1.5
	c0.7,0,1.3-0.2,1.9-0.5c0,3.4,0.6,6.3,1.1,6.4c0.5,0.1,0.5-2.6,2-4.4c1-1.1,2.5-1.7,4-1.5c1.5-0.1,2.9-0.8,4-1.8
	c-0.1,4,0.5,7.6,1.1,7.7c0.6,0.1,0.5-2.6,2-4.4c1-1.1,2.5-1.7,4-1.5c1.5-0.1,2.9-0.8,4-1.8c-0.2,4,0.5,7.6,1.1,7.7s0.5-2.6,2-4.4
	c1-1.1,2.5-1.7,4-1.5c3.2,0.1,7.8-5.1,11-10.8c3.1,3.6,7,6.5,9.8,6.5c1.4-0.2,2.8,0.2,4,1.1c1.5,1.3,1.5,3.3,2,3.2s0.8-1.1,0.9-2.5
	c1.2,0.8,2.6,1.3,4.1,1.4c1.4-0.2,2.8,0.2,4,1.1c1.5,1.3,1.5,3.3,2,3.2c0.5-0.1,1.2-2.7,1.1-5.7c1.2,0.8,2.6,1.3,4,1.4
	c1.4-0.2,2.8,0.2,4,1.1c1.5,1.3,1.5,3.3,2,3.2c0.5-0.1,1.3-3.2,1-6.4c0-0.1-0.1-0.4-0.1-0.8c2.3,2,4.7,3.3,6.6,3.2
	c1.4-0.2,2.8,0.2,4,1.1c1.5,1.3,1.5,3.3,2,3.2c0.5-0.1,1.1-2.1,1.1-4.7c0.6,0.2,1.3,0.4,1.9,0.4c1.4-0.2,2.8,0.2,4,1.1
	c1.5,1.3,1.5,3.3,2,3.2c0.5-0.1,1.1-2.1,1.1-4.7c0.6,0.2,1.3,0.4,1.9,0.4c1.4-0.2,2.8,0.2,4,1.1c1.5,1.3,1.5,3.3,2,3.2
	s1.1-2.1,1.1-4.7c0.6,0.2,1.3,0.4,1.9,0.4c1.4-0.2,2.8,0.2,4,1.1c1.5,1.3,1.5,3.3,2,3.2s1.1-2.1,1.1-4.7c0.6,0.2,1.3,0.4,1.9,0.4
	c1.4-0.2,2.8,0.2,4,1.1c1.5,1.3,1.5,3.3,2,3.2c0.5-0.1,1.1-2.1,1.1-4.7c0.6,0.2,1.3,0.4,1.9,0.4c1.4-0.2,2.8,0.2,4,1.1
	c1.5,1.3,1.5,3.3,2,3.2c0.5-0.1,1.1-2.1,1.1-4.7c0.6,0.2,1.3,0.4,1.9,0.4c1.4-0.2,2.8,0.2,4,1.1c1.5,1.3,1.5,3.3,2,3.2
	s1.1-2.1,1.1-4.7c0.6,0.2,1.3,0.4,1.9,0.4c1.4-0.2,2.8,0.2,4,1.1c1.5,1.3,1.5,3.3,2,3.2s1.1-2.1,1.1-4.7c0.6,0.2,1.3,0.4,1.9,0.4
	c1.4-0.2,2.8,0.2,4,1.1c1.5,1.3,1.5,3.3,2,3.2s1.1-2.1,1.1-4.7c0.6,0.2,1.3,0.4,1.9,0.4c1.4-0.2,2.8,0.2,4,1.1
	c1.5,1.3,1.5,3.3,2,3.2c0.5-0.1,1.1-2.1,1.1-4.7c0.6,0.2,1.3,0.4,1.9,0.4c1.4-0.2,2.8,0.2,4,1.1c1.5,1.3,1.5,3.3,2,3.2
	c0.5-0.1,1.1-2.1,1.1-4.7c0.6,0.2,1.3,0.4,1.9,0.4c1.4-0.2,2.8,0.2,4,1.1c0.8,0.9,1.4,1.9,1.8,3C199.9,92.5,198.8,84.7,196.9,77.1z"
	/>
<g id="装飾">
	<path class="st5" d="M124.5,171.7c0,0.1,0,0.3,0,0.4s0.1-0.2,0,0.1l-0.1,0.5c-0.1,0.4,0,0-0.1,0.2c-0.2,0.5-0.5,0.9-0.9,1.3
		c-1,1-2.2,1.9-3.5,2.4c-3.6,1.6-7.5,2.5-11.4,2.9c-4.7,0.5-9.4,0.6-14.1,0.2c-4.2-0.3-8.3-1.1-12.3-2.6c-1.5-0.6-2.9-1.4-4.1-2.5
		c-0.5-0.4-0.9-0.9-1.1-1.5c-0.1-0.1-0.2-0.5-0.1-0.2c-0.1-0.2-0.1-0.3-0.1-0.5c-0.1-0.6-0.1-0.2-0.1-0.8c0-2.1-3-2.1-3,0
		c0,3.6,2.8,6,5.6,7.4c4.1,1.9,8.4,3.1,12.8,3.5c5.1,0.6,10.2,0.7,15.3,0.2c4.5-0.3,9-1.3,13.2-3c3.3-1.4,7-3.9,7-8.1
		c0-0.9-0.7-1.6-1.5-1.6S124.5,170.8,124.5,171.7L124.5,171.7z"/>
	
		<linearGradient id="SVGID_1_" gradientUnits="userSpaceOnUse" x1="154.83" y1="275.0204" x2="154.83" y2="259.4204" gradientTransform="matrix(1 0 0 -1 -92 383.3898)">
		<stop  offset="0.29" style="stop-color:#534741"/>
		<stop  offset="0.75" style="stop-color:#CAC7C5;stop-opacity:0.31"/>
		<stop  offset="1" style="stop-color:#FFFFFF;stop-opacity:0"/>
	</linearGradient>
	<path class="st6" d="M38.7,124c0-8.6,10.8-15.6,24.2-15.6S87,115.4,87,124"/>
	<path class="st4" d="M38.7,124c-0.3-2.9,0.5-5.8,2.2-8.1c1.7-2.3,3.9-4.2,6.3-5.6c9.9-5.3,21.5-5.3,31.4,0c2.4,1.4,4.6,3.3,6.3,5.6
		c1.7,2.3,2.5,5.2,2.2,8.1c-0.5-2.6-1.8-5-3.6-6.7c-1.8-1.7-3.9-3-6.2-4c-4.6-1.9-9.4-2.8-14.3-2.8c-4.9,0-9.8,0.9-14.3,2.8
		c-2.3,0.9-4.4,2.3-6.2,4C40.4,119,39.1,121.4,38.7,124z"/>
	
		<linearGradient id="SVGID_2_" gradientUnits="userSpaceOnUse" x1="62.5" y1="324.6898" x2="62.5" y2="283.1893" gradientTransform="matrix(1 0 0 -1 0 435.8898)">
		<stop  offset="0.29" style="stop-color:#534741"/>
		<stop  offset="0.75" style="stop-color:#CAC7C5;stop-opacity:0.31"/>
		<stop  offset="1" style="stop-color:#FFFFFF;stop-opacity:0"/>
	</linearGradient>
	<ellipse class="st7" cx="62.5" cy="132" rx="14.5" ry="20.8"/>
	<path class="st4" d="M62.5,112.8c7.2,0,13,8.6,13,19.2s-5.8,19.2-13,19.2s-13-8.6-13-19.2S55.3,112.8,62.5,112.8 M62.5,109.6
		c-8.8,0-16,10-16,22.3s7.2,22.3,16,22.3s16-10,16-22.3S71.3,109.6,62.5,109.6z"/>
	<path class="st4" d="M62.5,143.1c-4.4,0-8-5.2-8-11.7s3.6-11.7,8-11.7s8,5.2,8,11.7S66.9,143.1,62.5,143.1z"/>
	<path class="st4" d="M62.5,121.4c3.5,0,6.5,4.6,6.5,10.1c0,5.5-3,10.1-6.5,10.1S56,137,56,131.5C56,126,59,121.4,62.5,121.4
		 M62.5,118.2c-5.2,0-9.5,5.9-9.5,13.3c0,7.3,4.3,13.3,9.5,13.3s9.5-5.9,9.5-13.3C72,124.1,67.7,118.2,62.5,118.2L62.5,118.2z"/>
	<path class="st2" d="M58,126.7c-1.9-0.1-3.3-1.8-3.2-3.7c0.1-2,1.7-3.5,3.5-3.4c1.8,0.1,3.2,1.7,3.2,3.6
		C61.5,125.2,59.9,126.8,58,126.7z"/>
	<path class="st2" d="M58,121.1c1,0.1,1.8,1,1.8,2.1c-0.1,1.1-1,1.9-2,1.9c-1-0.1-1.8-0.9-1.8-2C56.1,122,56.9,121.1,58,121.1
		 M58,118c-2.7,0.1-4.8,2.5-4.7,5.3c0.1,2.9,2.3,5.1,5,5c2.6-0.1,4.7-2.4,4.7-5.2C63,120.2,60.7,117.9,58,118z"/>
	
		<linearGradient id="SVGID_3_" gradientUnits="userSpaceOnUse" x1="233.96" y1="274.052" x2="233.96" y2="258.4521" gradientTransform="matrix(1 0 0 -1 -92 383.3898)">
		<stop  offset="0.29" style="stop-color:#534741"/>
		<stop  offset="0.75" style="stop-color:#CAC7C5;stop-opacity:0.31"/>
		<stop  offset="1" style="stop-color:#FFFFFF;stop-opacity:0"/>
	</linearGradient>
	<path class="st8" d="M117.8,124.9c0-8.6,10.8-15.6,24.2-15.6s24.2,7,24.2,15.6"/>
	<path class="st4" d="M117.8,124.9c-0.3-2.9,0.5-5.8,2.2-8.1c1.7-2.3,3.8-4.2,6.3-5.6c9.9-5.3,21.5-5.3,31.4,0
		c2.4,1.4,4.6,3.3,6.3,5.6c1.7,2.3,2.5,5.2,2.2,8.1c-0.5-2.6-1.8-5-3.6-6.7c-1.8-1.7-3.9-3-6.2-4c-9.2-3.7-19.4-3.7-28.7,0
		c-2.3,0.9-4.4,2.3-6.2,4C119.6,120,118.3,122.3,117.8,124.9z"/>
	
		<linearGradient id="SVGID_4_" gradientUnits="userSpaceOnUse" x1="141.63" y1="323.7215" x2="141.63" y2="282.221" gradientTransform="matrix(1 0 0 -1 0 435.8898)">
		<stop  offset="0.29" style="stop-color:#534741"/>
		<stop  offset="0.75" style="stop-color:#CAC7C5;stop-opacity:0.31"/>
		<stop  offset="1" style="stop-color:#FFFFFF;stop-opacity:0"/>
	</linearGradient>
	<ellipse class="st9" cx="141.6" cy="132.9" rx="14.5" ry="20.8"/>
	<path class="st4" d="M141.6,113.8c7.2,0,13,8.6,13,19.2s-5.8,19.2-13,19.2s-13-8.6-13-19.2S134.5,113.8,141.6,113.8 M141.6,110.6
		c-8.8,0-16,10-16,22.3s7.2,22.3,16,22.3s16-10,16-22.3S150.5,110.6,141.6,110.6z"/>
	<ellipse class="st4" cx="141.6" cy="132.4" rx="8" ry="11.7"/>
	<path class="st4" d="M141.6,122.4c3.5,0,6.5,4.6,6.5,10.1c0,5.5-3,10.1-6.5,10.1s-6.5-4.6-6.5-10.1
		C135.1,127,138.1,122.4,141.6,122.4 M141.6,119.2c-5.3,0-9.5,5.9-9.5,13.3c0,7.3,4.2,13.3,9.5,13.3s9.5-5.9,9.5-13.3
		C151.1,125.1,146.9,119.2,141.6,119.2z"/>
	<ellipse class="st2" cx="137.1" cy="124.1" rx="3.5" ry="3.6"/>
	<path class="st2" d="M137.1,122.1c1,0.1,1.8,1,1.8,2.1c-0.1,1.1-1,1.9-2,1.9c-1-0.1-1.8-0.9-1.8-2
		C135.2,123,136.1,122.1,137.1,122.1 M137.1,118.9c-2.7,0.1-4.8,2.5-4.8,5.3c0.1,2.9,2.3,5.1,5,5.1c2.6-0.1,4.8-2.4,4.8-5.2
		C142,121.2,139.8,118.9,137.1,118.9z"/>
	<path class="st4" d="M34.7,114.6c-0.3-1.6-0.3-3.3,0.2-4.8c0.1-0.4,0.3-0.8,0.4-1.2c0.2-0.4,0.3-0.8,0.5-1.1
		c0.4-0.7,0.9-1.4,1.4-2.1c2.1-2.5,4.6-4.5,7.4-6c11.2-5.6,24.1-5.6,35.3,0c2.8,1.4,5.3,3.5,7.4,6c0.5,0.6,1,1.3,1.4,2.1
		c0.2,0.4,0.4,0.7,0.5,1.1c0.2,0.4,0.3,0.8,0.4,1.2c0.5,1.5,0.6,3.2,0.2,4.8c-0.8-2.7-2.6-5.1-4.9-6.5c-2.2-1.4-4.6-2.5-7.1-3.2
		c-10.2-2.9-21-2.9-31.2,0c-2.5,0.7-4.9,1.8-7.1,3.3C37.2,109.6,35.5,111.8,34.7,114.6z"/>
	<path class="st4" d="M113.7,114.6c-0.3-1.6-0.3-3.3,0.2-4.8c0.1-0.4,0.3-0.8,0.4-1.2c0.2-0.4,0.3-0.8,0.5-1.1
		c0.4-0.7,0.9-1.4,1.4-2.1c2.1-2.5,4.6-4.5,7.4-6c11.2-5.6,24.1-5.6,35.3,0c2.8,1.4,5.3,3.5,7.4,6c0.5,0.6,1,1.3,1.4,2.1
		c0.2,0.4,0.4,0.7,0.5,1.1c0.2,0.4,0.3,0.8,0.4,1.2c0.5,1.5,0.6,3.2,0.2,4.8c-0.8-2.7-2.6-5.1-4.9-6.5c-2.2-1.4-4.6-2.5-7.1-3.2
		c-10.2-2.9-21-2.9-31.2,0c-2.5,0.7-4.9,1.8-7.1,3.3C116.2,109.6,114.5,111.8,113.7,114.6z"/>
	<ellipse class="st3" cx="62" cy="149.5" rx="21" ry="6.4"/>
	<ellipse class="st3" cx="141" cy="149.5" rx="21" ry="6.4"/>
</g>
</svg>
