<svg xmlns="http://www.w3.org/2000/svg" viewBox="0 0 201.09 462.39"><defs><style>.cls-1{fill:#895d2e;}.cls-2{fill:#ff9d00;}.cls-3,.cls-6,.cls-8{fill:none;}.cls-3{stroke:#ff0;stroke-linejoin:round;stroke-width:4px;}.cls-4{fill:#fff;}.cls-5{fill:#ffe6c8;}.cls-6,.cls-7{stroke:#593a15;}.cls-6,.cls-7,.cls-8{stroke-miterlimit:10;}.cls-7{fill:#593a15;}.cls-8{stroke:#8d2822;}</style></defs><g id="Layer_2" data-name="Layer 2"><g id="Layer_1-2" data-name="Layer 1"><path class="cls-1" d="M194.5,205.22c-6.24,7.74-8,7.82-12,16.62l-149,2.08c-13.2,0-30.44-13.39-30.44-27.11V78.59H195.74Z"/><path class="cls-2" d="M59.22,112.41h81.56a8.16,8.16,0,0,1,8,8.31V454.08a8.16,8.16,0,0,1-8,8.31H59.22a8.16,8.16,0,0,1-8-8.31V120.72A8.16,8.16,0,0,1,59.22,112.41Z"/><polygon class="cls-3" points="51.22 196.17 99.91 260.61 148.78 196.17 51.22 196.17"/><rect class="cls-4" x="81.24" y="260.57" width="37.52" height="25.55"/><ellipse class="cls-5" cx="100" cy="104.74" rx="100" ry="104.74"/><path class="cls-1" d="M196.64,78.45C185.4,33.49,146.35.32,99.91.32A96.38,96.38,0,0,0,46.13,16.74c-27,18.07-14.63,61.71,17.51,61.71Z"/><path class="cls-1" d="M199.31,115.86l-4.06-2.08a54.21,54.21,0,0,0-3.31,9.47,104.87,104.87,0,0,1-20.57-16.83l-1.05,12a209.88,209.88,0,0,1-43.06-15.22,33.08,33.08,0,0,0-1.14,12.68A204.67,204.67,0,0,1,82.7,104.43,42.88,42.88,0,0,0,87,116.56c-9.7-2.14-19.32-5.19-28-10.23S42.74,94.06,38.15,84.92c-5.5-11-6.24-23.76-6.38-36.12-.1-9.36.41-19.75,6.51-26.65l8.22-5L107.5.52,179.5,41l20,56.11"/><path class="cls-1" d="M17.22,202.69a124.47,124.47,0,0,1-7.85-28.24C7.9,164.92,9,156,5.5,147c-3.64-9.42-4.74-21.15-5-31.17C0,98.5.6,77,7.5,62.86c5.88-12,19-30.06,27-37.4,9-8.32-4.1,14.23-5,17.66-1.91,7.28-5.86,14.75-7.37,22.09a414.67,414.67,0,0,0-8.46,87.6A409.73,409.73,0,0,0,17.22,202.69Z"/><path class="cls-1" d="M182.31,77.41c2.86,28.54-2.8,57.15-3.91,85.85-.53,13.77-.08,27.93-4.72,40.84,1-8.19,5.46-15.4,9-22.81,6.82-14.52,4.28-21.49,8.82-33.22,5.63-14.55,11.19-29.77,9.17-46.6-1.86-15.59-1.29-33-12.56-43.5-4,3-6.2,8.19-6.81,13.32s.12,10.33.86,15.45"/><path class="cls-1" d="M4.14,198.36c2.34,7.47,5.28,14.83,9.74,21.17s10.55,11.64,17.76,14l-7-19.86"/><path class="cls-1" d="M194.85,200.45a20.51,20.51,0,0,1-4.35,12.85c-2.71,3.68-5.83,7.34-9.86,9.35-9.1,4.49-14.78,8.39-18.33,9.5,1.54-3.23,4.38-5.54,6.61-8.31a25.36,25.36,0,0,0,5.44-17"/><path class="cls-1" d="M174.39,217.32a57.11,57.11,0,0,1-8.52,2.14c-1.4.24-2.81.43-4.22.54H161c.19-.4.49.55.45.58a5.63,5.63,0,0,1,.55-1c1.33-1.45-.79-3.67-2.12-2.2-1,1.12-2,2.95-1.09,4.45,1,1.81,3.45,1.18,5.09,1a59.11,59.11,0,0,0,11.36-2.57c1.83-.61,1.05-3.61-.8-3Z"/><path class="cls-1" d="M159.82,215.18c-.28.47-.58.94-.88,1.4-.15.22-.3.44-.46.65,0,0-.26.36-.15.22s-.14.17-.16.22a29,29,0,0,1-2.12,2.44l-.56.55-.28.28s-.23.25-.28.25l.08-.06-.15.1c-.06,0-.4.21-.05,0q-.24.06.09,0h.2a.73.73,0,0,1,.43.32c-.18-.25.06.27,0,0a1.4,1.4,0,0,0-.11-.37c0-.14-.12-.55-.17-.82s0-.19,0,0v-.64a6.91,6.91,0,0,1,0-.91,1.53,1.53,0,0,0-1.5-1.56,1.55,1.55,0,0,0-1.5,1.56,10.55,10.55,0,0,0,.15,2.38,5.62,5.62,0,0,0,.65,2.08,2.32,2.32,0,0,0,2.52,1,4.63,4.63,0,0,0,1.92-1.26,29.39,29.39,0,0,0,5-6.3,1.59,1.59,0,0,0-.61-2.11,1.48,1.48,0,0,0-2,.54Z"/><path class="cls-1" d="M171.32,218.14a10,10,0,0,1-.95,1.73l-.11.15c-.19.29.15-.18,0,0l-.31.39c-.11.12-.43.49-.66.72s-.45.42-.68.62.19-.15,0,0l-.2.15-.39.28c-.27.17-.55.34-.83.49l-.38.2-.22.11h0l1.7.7c0-.06-.21-.39,0,0a1.08,1.08,0,0,1-.1-.27,6,6,0,0,1-.2-.6c-.11-.4-.18-.79-.26-1.2h0v-1.86c0-.09.05-.45,0,0a1.78,1.78,0,0,0-.15-1.2,1.6,1.6,0,0,0-.9-.72,1.53,1.53,0,0,0-1.85,1.09,12.39,12.39,0,0,0,0,3.44,10.6,10.6,0,0,0,.9,3,1.47,1.47,0,0,0,1.69.72,12.05,12.05,0,0,0,6.45-6.23,1.6,1.6,0,0,0-.47-2.15,1.47,1.47,0,0,0-2.07.48.47.47,0,0,1-.05.1Z"/><path class="cls-1" d="M166.57,216.82c-2.32,1.51-4.69,3-7.1,4.3-1.2.67-2.42,1.32-3.65,1.95-.06,0-.76.4-.77.38s.31.08.33.06a1.76,1.76,0,0,0,0-.33,4.83,4.83,0,0,1,.27-1c.6-1.91-2.3-2.72-2.9-.82-.54,1.72-.59,3.82,1.13,4.85s3.6-.52,5.06-1.3q4.68-2.51,9.14-5.41c1.63-1,.13-3.76-1.51-2.69Z"/><path class="cls-1" d="M150.5,218.41c-.25,1.43-.55,2.83-.9,4.21l2.21-.92-.14-.1.3.24a.63.63,0,0,1-.11-.12l.23.32a1.28,1.28,0,0,1-.11-.2l.15.38a1,1,0,0,1-.07-.28v.41a.43.43,0,0,1,0-.16l-.06.41v-.11a1.69,1.69,0,0,0-.15-1.21,1.46,1.46,0,0,0-2-.55,1.49,1.49,0,0,0-.69.93,2.53,2.53,0,0,0,1.11,2.73,1.48,1.48,0,0,0,2.06-.59,1.35,1.35,0,0,0,.14-.35q.54-2.07.9-4.2a1.78,1.78,0,0,0-.15-1.2,1.53,1.53,0,0,0-.9-.72,1.45,1.45,0,0,0-1.15.16,1.5,1.5,0,0,0-.69.92Z"/><path class="cls-1" d="M25.84,220.34c.37,2.34,2.1,4,3.85,5.4,2,1.54,4.09,2.9,6.14,4.33a1.48,1.48,0,0,0,2.06-.58,1.54,1.54,0,0,0,.2-.76l-.42-6.35a1.5,1.5,0,1,0-3,0l.42,6.35,2.26-1.35c-1.94-1.35-3.91-2.66-5.8-4.07l-.28-.21-.19-.15-.18-.15-.26-.23a9.83,9.83,0,0,1-1-1l-.22-.27c.13.17,0,0,0-.08a4.88,4.88,0,0,1-.34-.58l-.15-.32c.09.21,0,0,0-.07a4.55,4.55,0,0,1-.17-.75,1.5,1.5,0,0,0-1.84-1.09,1.63,1.63,0,0,0-1,1.92Z"/><path class="cls-1" d="M34.76,221.73v.2l0-.42a8.36,8.36,0,0,1,0,2l0-.42a8,8,0,0,1-.26,1.27l2.74-.38a18.59,18.59,0,0,0-2.09-3A1.46,1.46,0,0,0,33,221a1.61,1.61,0,0,0-.44,1.1,1.82,1.82,0,0,0,.44,1.11c.26.3.5.6.74.92l-.24-.32a16.36,16.36,0,0,1,1.12,1.72,1.47,1.47,0,0,0,1.49.75,1.53,1.53,0,0,0,1.25-1.11,11,11,0,0,0,.36-2.13,9.68,9.68,0,0,0-.13-2.15,1.52,1.52,0,0,0-.68-.94,1.47,1.47,0,0,0-1.16-.15,1.55,1.55,0,0,0-.9.71l-.15.38a1.63,1.63,0,0,0,0,.82Z"/><path class="cls-1" d="M30.3,224.29a10.22,10.22,0,0,0,2.62,2.24,7,7,0,0,0,3.3,1.13,2.38,2.38,0,0,0,2.45-2.33c0-.12,0-.23,0-.35-.13-1.44-.45-2.89-.68-4.32l-1.85,1.92a5.47,5.47,0,0,1,2.24,1.25,8.77,8.77,0,0,0,2.36,2,2.79,2.79,0,0,0,3.08-.52,2.53,2.53,0,0,0,.55-3.11c-.94-1.76-3.53-.19-2.59,1.56-.13-.23,0-.48,0-.71l.07-.1-.06.07c0-.15.29,0,0,0,.17,0,.33.09.08,0,.15.07-.14-.1-.18-.12l-.17-.14c-.25-.23-.47-.49-.7-.73a8.92,8.92,0,0,0-3.89-2.39,1.51,1.51,0,0,0-1.84,1.15,1.67,1.67,0,0,0,0,.77l.46,2.91c0,.17,0,.69.13.81h0a1.25,1.25,0,0,1,.58-.62h-.18c.28,0-.19-.07-.22-.07a7.21,7.21,0,0,1-3.43-2.38,1.46,1.46,0,0,0-2.12,0,1.63,1.63,0,0,0,0,2.2Z"/><path class="cls-1" d="M165.09,231,175,205.5c.72-1.85-2.18-2.66-2.9-.82l-9.9,25.48c-.72,1.85,2.18,2.66,2.89.82Z"/><path class="cls-6" d="M27,113.26c0-4,31-18.7,48.5-7.27"/><path class="cls-6" d="M167.27,109.91c-.12-4-31.51-17.73-48.69-5.77"/><ellipse class="cls-7" cx="60" cy="131.44" rx="11" ry="14.03"/><ellipse class="cls-7" cx="136" cy="131.44" rx="11" ry="14.03"/><path class="cls-8" d="M79.5,169c0,2.29,7.88,4.3,17.71,4.5"/><path class="cls-8" d="M117.56,166.62c-.07,4-9.17,7.1-20.34,6.89"/></g></g></svg>