<?xml version="1.0" encoding="utf-8"?>
<!-- Generator: Adobe Illustrator 25.1.0, SVG Export Plug-In . SVG Version: 6.00 Build 0)  -->
<svg version="1.1" id="Layer_1" xmlns="http://www.w3.org/2000/svg" xmlns:xlink="http://www.w3.org/1999/xlink" x="0px" y="0px"
	 viewBox="0 0 201 462.9" style="enable-background:new 0 0 201 462.9;" xml:space="preserve">
<style type="text/css">
	.st0{fill:#534741;}
	.st1{fill:#05B1FF;}
	.st2{fill:none;stroke:#FFFF00;stroke-width:4;stroke-linejoin:round;}
	.st3{fill:#FFFFFF;}
	.st4{fill:#FFE6C8;}
	.st5{fill:none;stroke:#534741;stroke-width:4;stroke-miterlimit:10;}
</style>
<rect x="3.6" y="78.7" class="st0" width="192.7" height="143.2"/>
<path class="st1" d="M59.7,112.5h81.6c4.4,0,8,3.7,8,8.3v333.7c0,4.6-3.6,8.3-8,8.3H59.7c-4.4,0-8-3.7-8-8.3V120.9
	C51.7,116.3,55.3,112.5,59.7,112.5z"/>
<polygon class="st2" points="51.7,196.4 100.4,260.9 149.3,196.4 "/>
<rect x="81.7" y="260.9" class="st3" width="37.5" height="25.6"/>
<ellipse class="st4" cx="100.5" cy="104.9" rx="100" ry="104.9"/>
<path class="st0" d="M197.1,78.2C185.9,33.2,146.9,0,100.4,0S14.9,33.2,3.7,78.2H197.1z"/>
<path class="st0" d="M5,77.5h23c0.5,0,1,0.5,1,1v153c0,0.6-0.4,1-1,1H5c-0.5,0-1-0.5-1-1v-153C4,78,4.4,77.5,5,77.5z"/>
<path class="st0" d="M172,77.5h24c0.5,0,1,0.5,1,1v153c0,0.6-0.4,1-1,1h-24c-0.5,0-1-0.5-1-1v-153C171,78,171.4,77.5,172,77.5z"/>
<ellipse class="st0" cx="4.5" cy="154.5" rx="4.5" ry="75.9"/>
<ellipse class="st0" cx="196.5" cy="155" rx="4.5" ry="77.5"/>
<g id="装飾">
	<path class="st5" d="M77.1,105.7c-4.6-3.4-10.2-5-15.8-4.4c-3.7,0.4-6.3,1.8-9.2,3.3c-5.1,2.7-9.6,6.5-13.1,11.1"/>
	<ellipse class="st0" cx="61.5" cy="113.8" rx="12.1" ry="12.6"/>
	<path class="st5" d="M122.6,105.4c4.6-3.4,10.2-5,15.8-4.4c3.7,0.4,6.3,1.8,9.2,3.3c5.1,2.7,9.6,6.5,13.2,11.1"/>
	<ellipse class="st0" cx="138.2" cy="113.5" rx="12.1" ry="12.6"/>
	<ellipse class="st5" cx="35.5" cy="132.1" rx="1.5" ry="1.6"/>
	<path class="st5" d="M88,163.8c0.2,0.3,5.3,7.9,14,7.3c7.5-0.5,11.5-6.6,12-7.3"/>
	<path class="st5" d="M123,82.7c13.6,0,19.9,0.5,23,1l6,1l0,0l6,2.1"/>
	<path class="st5" d="M75.6,83.4c-13.6,0-19.9,0.5-23,1l-6,1l0,0l-6,2.1"/>
	<polygon class="st4" points="159.8,54.6 148.5,80.1 171,80.1 	"/>
</g>
</svg>
