<?xml version="1.0" encoding="utf-8"?>
<!-- Generator: Adobe Illustrator 25.1.0, SVG Export Plug-In . SVG Version: 6.00 Build 0)  -->
<svg version="1.1" id="Layer_1" xmlns="http://www.w3.org/2000/svg" xmlns:xlink="http://www.w3.org/1999/xlink" x="0px" y="0px"
	 viewBox="0 0 200.8 462.9" style="enable-background:new 0 0 200.8 462.9;" xml:space="preserve">
<style type="text/css">
	.st0{fill:#FF9D00;}
	.st1{fill:none;stroke:#FFFF00;stroke-width:4;stroke-linejoin:round;}
	.st2{fill:#FFFFFF;}
	.st3{fill:#FFE6C8;}
	.st4{fill:#534741;}
	.st5{fill:none;stroke:#534741;stroke-miterlimit:10;}
	.st6{fill:none;stroke:#534741;stroke-width:1.5;stroke-miterlimit:10;}
	.st7{fill:#534741;stroke:#534741;stroke-width:2;stroke-miterlimit:10;}
	.st8{fill:none;stroke:#534741;stroke-width:5;stroke-miterlimit:10;}
	.st9{fill:none;stroke:#534741;stroke-width:0.75;stroke-miterlimit:10;}
	.st10{opacity:5.000000e-02;fill:#0F0414;enable-background:new    ;}
</style>
<path class="st0" d="M59.3,112.5h81.6c4.4,0,8,3.8,8,8.5v333.3c0,4.7-3.6,8.5-8,8.5H59.3c-4.4,0-8-3.8-8-8.5V121
	C51.3,116.3,54.9,112.5,59.3,112.5z"/>
<polygon class="st1" points="51.3,196.4 100,260.9 148.9,196.4 "/>
<rect x="81.4" y="260.9" class="st2" width="37.5" height="25.6"/>
<ellipse class="st3" cx="100.1" cy="104.9" rx="100" ry="104.9"/>
<path class="st4" d="M196.8,78.2C185.5,33.2,146.5,0,100,0S14.5,33.2,3.3,78.2H196.8z"/>
<g id="装飾">
	<path class="st5" d="M89.6,161.2c0-17,21-17,21,0"/>
	<path class="st4" d="M131,34.6c-3.4,0-6.8,0.6-10,1.9c10.7,4.3,18.5,18.5,18.5,35.3c0,16.1-7.2,29.8-17.1,34.8
		c2.8,0.9,5.8,1.4,8.7,1.4c17.5,0,31.6-16.4,31.6-36.7S148.5,34.6,131,34.6z"/>
	<path class="st4" d="M182.2,56.9c-1.9,0-3.7,0.7-5.2,1.9c5.5,4.3,9.6,18.5,9.6,35.3c0,16.1-3.7,29.8-8.9,34.8
		c1.4,0.9,2.9,1.4,4.5,1.4c9.1,0,16.4-16.4,16.4-36.7S191.3,56.9,182.2,56.9z"/>
	<path class="st4" d="M177.9,52.7c-2.1,0-4.2,0.7-5.9,1.9c6.3,4.3,10.9,18.5,10.9,35.3c0,16.1-4.2,29.8-10.1,34.8
		c1.6,0.9,3.4,1.4,5.2,1.4c10.3,0,18.7-16.4,18.7-36.7S188.2,52.7,177.9,52.7z"/>
	<path class="st4" d="M171.9,47.4c-2.1,0-4.2,0.7-5.9,1.9c6.3,4.3,10.9,18.5,10.9,35.3c0,16.1-4.2,29.8-10.1,34.8
		c1.6,0.9,3.4,1.4,5.2,1.4c10.3,0,18.7-16.4,18.7-36.7S182.2,47.4,171.9,47.4z"/>
	<path class="st4" d="M151.5,48.7c-2,0.5-3.9,1.6-5.4,3.2c7,2.7,14.5,15.5,18,31.9c3.3,15.7,2,30.1-2.7,36.3
		c1.7,0.5,3.6,0.6,5.3,0.2c10.1-2.4,14.9-20.4,10.7-40.2S161.6,46.3,151.5,48.7z"/>
	<path class="st4" d="M189.1,64.6c-1.2,0.2-2.3,1-2.9,2.1c3.5,4.1,6.6,18.1,7.5,34.9c0.9,16.1-0.6,29.9-3.4,35
		c0.7,0.8,1.7,1.3,2.7,1.3c5.3-0.3,8.7-17,7.6-37.2S194.4,64.3,189.1,64.6z"/>
	<path class="st4" d="M19.1,48.9c1.2,0.4,2.1,1.3,2.6,2.5c-4,3.5-9.1,16.8-12.5,33.3c-3.2,15.8-3.8,29.7-1.8,35.1
		c-0.8,0.7-1.8,1-2.9,0.8c-5.2-1.2-6.1-18.2-2.1-38S13.9,47.7,19.1,48.9z"/>
	<path class="st4" d="M22.1,47.8c1.2,0.4,2.1,1.3,2.6,2.5c-4,3.5-9.1,16.8-12.5,33.3c-3.2,15.8-3.8,29.7-1.8,35.1
		c-0.8,0.7-1.8,1-2.9,0.8c-5.2-1.2-6.1-18.2-2.1-38S16.9,46.7,22.1,47.8z"/>
	<path class="st4" d="M121,34.6c-3.4,0-6.8,0.6-10,1.9c10.6,4.3,18.5,18.5,18.5,35.3c0,16.1-7.2,29.8-17.1,34.8
		c2.8,0.9,5.8,1.4,8.7,1.4c17.5,0,31.6-16.4,31.6-36.7S138.5,34.6,121,34.6z"/>
	<path class="st4" d="M103,34.6c-3.4,0-6.8,0.6-10,1.9c10.6,4.3,18.5,18.5,18.5,35.3c0,16.1-7.2,29.8-17.1,34.8
		c2.8,0.9,5.8,1.4,8.7,1.4c17.5,0,31.6-16.4,31.6-36.7S120.5,34.6,103,34.6z"/>
	<path class="st4" d="M85,34.6c-3.4,0-6.8,0.6-10,1.9C85.7,40.8,93.5,55,93.5,71.8c0,16.1-7.2,29.8-17.1,34.8
		c2.8,0.9,5.8,1.4,8.7,1.4c17.5,0,31.6-16.4,31.6-36.7S102.5,34.6,85,34.6z"/>
	<path class="st4" d="M52,32.5c-3.4,0-6.8,0.6-10,1.9c10.6,4.3,18.5,18.5,18.5,35.3c0,16.1-7.2,29.8-17.1,34.8
		c2.8,0.9,5.8,1.4,8.7,1.4c17.5,0,31.6-16.4,31.6-36.7S69.5,32.5,52,32.5z"/>
	<path class="st4" d="M36,48.4c-3.4,0-6.8,0.5-10,1.5c10.6,3.5,18.5,15,18.5,28.7c0,13.1-7.2,24.2-17.1,28.2
		c2.8,0.8,5.8,1.2,8.7,1.2c17.5,0,31.6-13.3,31.6-29.8S53.5,48.4,36,48.4z"/>
	<path class="st4" d="M26,48.4c-3.4,0-6.8,0.5-10,1.5c10.7,3.5,18.5,15,18.5,28.7c0,13.1-7.2,24.2-17.1,28.2
		c2.8,0.8,5.8,1.2,8.7,1.2c17.5,0,31.6-13.3,31.6-29.8S43.5,48.4,26,48.4z"/>
	<path class="st4" d="M76.9,35.6c-2.1,0-4.2,0.7-5.9,1.9c6.3,4.3,10.9,18.5,10.9,35.3c0,16.1-4.2,29.8-10.1,34.8
		c1.6,0.9,3.4,1.4,5.2,1.4c10.3,0,18.7-16.4,18.7-36.7S87.3,35.6,76.9,35.6z"/>
	<path class="st4" d="M19.9,54.8c-2,0-4.1,0.5-5.9,1.3c6.3,3,10.9,12.9,10.9,24.6c0,11.2-4.2,20.8-10.1,24.2c1.7,0.6,3.4,1,5.2,1
		c10.3,0,18.7-11.4,18.7-25.5S30.2,54.8,19.9,54.8z"/>
	<path class="st4" d="M12,68.6c-1.7,0-3.4,0.4-5,1.1c5.3,2.4,9.2,10.2,9.2,19.5c0,8.9-3.6,16.4-8.5,19.2c1.4,0.5,2.8,0.8,4.3,0.8
		c8.7,0,15.7-9.1,15.7-20.3S20.6,68.6,12,68.6z"/>
	<path class="st4" d="M8,72.9c-1.1,0-2.1,0.3-3,0.9c3.2,2,5.6,8.6,5.6,16.4c0,7.4-2.2,13.8-5.2,16.1c0.8,0.4,1.7,0.7,2.7,0.7
		c5.3,0,9.6-7.6,9.6-17S13.3,72.9,8,72.9z"/>
	<path class="st6" d="M122.3,129.8c-4.7-13.3,37.3-29.3,43.8-4.9"/>
	<ellipse class="st7" cx="140.1" cy="122.4" rx="7.5" ry="8"/>
	<path class="st8" d="M118,106.3c0,0,42.1-13.5,51.2-4"/>
	<path class="st9" d="M132,115.7c10.5-5.6,24.7-10.1,33.3,2.9"/>
	<path class="st10" d="M123.6,130.4c15.2,11.4,29.9,11.4,44,0H123.6z"/>
	<path class="st6" d="M77.4,129.8c4.7-13.3-37.3-29.3-43.8-4.9"/>
	<ellipse class="st7" cx="59.6" cy="122.4" rx="7.5" ry="8"/>
	<path class="st8" d="M81.8,106.3c0,0-42.1-13.5-51.2-4"/>
	<path class="st9" d="M67.8,115.7c-10.5-5.6-24.6-10.1-33.3,2.9"/>
	<path class="st10" d="M76.1,130.4c-15.2,11.4-29.9,11.4-44,0H76.1z"/>
	<path class="st5" d="M83.6,180.4c0,7.4,33,8.5,33,0"/>
</g>
</svg>
