<?xml version="1.0" encoding="utf-8"?>
<!-- Generator: Adobe Illustrator 25.1.0, SVG Export Plug-In . SVG Version: 6.00 Build 0)  -->
<svg version="1.1" id="Layer_1" xmlns="http://www.w3.org/2000/svg" xmlns:xlink="http://www.w3.org/1999/xlink" x="0px" y="0px"
	 viewBox="0 0 213.1 463.9" style="enable-background:new 0 0 213.1 463.9;" xml:space="preserve">
<style type="text/css">
	.st0{fill:#FF9D00;}
	.st1{fill:none;stroke:#FFFF00;stroke-width:4;stroke-linejoin:round;}
	.st2{fill:#FFFFFF;}
	.st3{fill:#FFE6C8;}
	.st4{fill:#1A1A1A;}
	.st5{fill:none;stroke:#191919;stroke-miterlimit:10;}
	.st6{fill:#191919;}
	.st7{fill:none;stroke:#000000;stroke-miterlimit:10;}
</style>
<path class="st0" d="M64,116.8h81.6c4.4,0,8,3.8,8,8.4v330.2c0,4.7-3.6,8.4-8,8.4H64c-4.4,0-8-3.8-8-8.4V125.2
	C56,120.6,59.5,116.8,64,116.8z"/>
<polygon class="st1" points="56,199.9 104.7,263.8 153.5,199.9 "/>
<rect x="86" y="263.7" class="st2" width="37.5" height="25.3"/>
<ellipse class="st3" cx="104.7" cy="109.2" rx="100" ry="103.9"/>
<ellipse class="st4" cx="130.7" cy="111.8" rx="10.5" ry="11.1"/>
<ellipse class="st4" cx="78.7" cy="113.9" rx="10.5" ry="11.1"/>
<path class="st5" d="M105.3,144.7c2.4-9.6-1.6-15.6-1.6-15.6"/>
<path class="st5" d="M118.1,163.5c0,0-20.2,9-23.9,2"/>
<path class="st6" d="M104.8,5.2C54.6,4.7,10.5,44.1,3.7,96.7c-1,7.8,9,11.2,11.5,3.3c6.4-20.3,18.2-38.1,34-51.5
	c7.7-6.6,16.3-11.9,25.5-15.9c11.5-4.9,23.8-6.7,35.6-10.3l-7.3-7.7c-3.3,11.5-17.4,12.9-26.8,14.5c-12.2,2.1-24,6.3-34.8,12.6
	c-5.8,3.3-1.8,14.2,4.6,11.5c20.7-9,41.9-16.7,63.5-23l-5.8-1.6c4.4,4.5-1.4,10.4-5.2,12.4c-6.3,3.3-13.9,4.4-20.7,6.1
	C62,50.9,46.1,53.5,30,54.8l5.1,9.5c5.4-9.3,18.3-10.4,27.5-12.4l40.9-8.8c7.5-1.6,4.3-13.7-3.2-12.1c-15.6,3.4-31.2,6.6-46.8,10
	C42.5,43.5,31.2,47.2,24.9,58c-2.2,3.8,0.6,9.8,5.1,9.5c17.1-1.4,34.1-4.1,50.9-8.1c12.7-3,30.1-5.6,35-20.6
	c1.9-6,1.3-13.2-2.9-17.9c-5.2-5.8-15.3,0-21.4,2C75,28.1,58.7,34.2,42.7,41.2l4.6,11.5c6.5-3.8,13.3-6.8,20.4-8.9
	c6.7-1.9,13.5-2.6,20.2-4.1c11.6-2.6,22.8-9.1,26.4-21.7c0.8-3.4-1.1-6.8-4.3-7.7c-1-0.3-2-0.3-3,0c-12.8,4-26,6-38.4,11.5
	C37.8,35.7,14.2,63,3.7,96.6l11.5,3.3c6.1-47.3,44.2-82.7,89.6-82.3C112.5,17.7,112.5,5.2,104.8,5.2L104.8,5.2z"/>
<path class="st6" d="M112.4,18.8c19.8-2.1,39.3,9.2,53.9,22.4c14,12.6,24.6,28.8,31.1,46.9c2.6,7.5,14.1,4.2,11.5-3.3
	c-7.2-20.8-19.3-39.2-35.3-53.5c-16.6-14.8-38.7-27.4-61.1-25.1C104.8,7.1,104.7,19.6,112.4,18.8L112.4,18.8z"/>
<path class="st6" d="M111.7,8.1l-4.1-0.8l2.6,10.5c0.2-0.7,0.8-1.3,1.5-1.4c6.9-0.6,7.8-9.7,1.6-12.3C85.7-7.6,57.2,7.6,36.8,26.9
	C17.5,45.1,0.9,71,3.4,99.4c0.7,8,12.6,8.1,11.9,0C13.1,74.7,27.3,53.1,44,37c17.7-17.1,42-31,66.2-20.8l1.6-12.3
	c-4,0.3-7.4,1.7-9.9,5.1s-2.3,9.6,2.6,10.5l4.1,0.8C116.1,21.6,119.3,9.5,111.7,8.1L111.7,8.1z"/>
<path class="st6" d="M114.8,32c8.5-2.4,16.4,1.9,23.5,6.5c7,4.6,13.7,9.6,20.3,14.8c13,10.1,25,21.7,32.6,36.9
	c3.2,6.3,12.6,2,10.9-4.8c-5.8-22.4-19.2-41.9-37.6-54.5c-20.2-13.8-45.6-17.6-68.8-11.6c-6.7,1.7-4.9,12,1.6,12.3l36,1.9l-1.6-12.3
	c-16.6,3.7-33.5,6.3-50.4,7.6v12.6C99.9,39,118.8,40.2,137,45l1.6-12.3c-20.3,2.7-40.7,3.3-61.1,1.8L79,46.9
	c16.5-3.9,33.5-5.1,50.3-3.5l-3-11.7c-10,5.9-21.4,8.5-32.4,11.7L58.5,53.5c-10.9,3.2-22.6,5.4-33.2,9.7c-4.3,1.5-7.5,5.3-8.6,9.9
	c-1.3,4.7-2.6,8.7-6.4,11.7l7.2,9.9c7.4-7.8,17.1-11.8,27-14.9c11.6-3.7,23.3-6.8,35-10.2l74-21.3c7.4-2.1,4.2-14.2-3.2-12.1
	L72.3,58.5c-21.4,6.2-47,10.1-63.4,27.2c-4.6,4.8,1.7,14.3,7.2,9.9c3.6-2.7,6.6-6.1,8.8-10.1c1.8-3.5,1.9-9.6,5.4-11
	c11.3-4.3,23.6-6.8,35.1-10.1l34.5-9.9c11.1-3.2,22.3-6.1,32.3-12.1c5.5-3.3,2.6-11.2-3-11.7c-17.9-1.6-36-0.3-53.5,4
	c-6.9,1.6-4.8,11.8,1.6,12.3c20.4,1.5,40.9,0.9,61.1-1.8c6.2-0.8,8.7-10.4,1.6-12.3c-19.2-5.2-39.2-6.6-58.9-4.2
	c-7.4,0.9-7.8,13.2,0,12.6c18-1.4,35.9-4.1,53.6-8.1c6.8-1.5,4.9-12-1.6-12.3l-36-1.9l1.6,12.3c40.3-10.2,81,15.2,91.8,57.4
	l10.9-4.8c-8.9-17.6-23.1-30.8-38.2-42.4c-14.5-11.2-32.4-27-51.6-21.5C104.3,22,107.4,34.1,114.8,32L114.8,32z"/>
<path class="st6" d="M123.5,43.6C95,59,63.2,66.2,31.3,64.5c-7.7-0.4-7.6,12.2,0,12.6c34,1.6,67.9-6.2,98.1-22.6
	C136.3,50.7,130.3,39.9,123.5,43.6L123.5,43.6z"/>
<path class="st6" d="M127.9,39.9c-6.2,16.6-25.9,21-40.7,24c-18.7,3.7-37.7,4.7-56.6,3.2c-7.6-0.6-7.6,11.9,0,12.5
	c21.9,1.8,44,0.1,65.4-4.8c18.1-4.2,36.1-12.2,43.4-31.6C142.2,35.7,130.7,32.4,127.9,39.9L127.9,39.9z"/>
<path class="st6" d="M135.4,53.6c4.3,2.7,11.1,6.5,11.7,12.5c0.6,6.4,10.4,9.2,11.7,1.7c1.7-10.4-3.9-17.8-11.3-23.9l-5.8,10.5
	c10.7,4.4,18.8,13.3,23.6,24.2l8.1-8.6c-5.8-4.2-9.5-10.6-15.2-15s-12.3-6.7-18.8-9.1l1.4,11.5c-1.9,1.4-2.6,0.1-0.3,2.4
	c1,1.1,2,2.1,2.9,3.2c1.8,2.3,3.4,4.8,4.7,7.4l9.4-7.6l-10.6-12.6l-8.4,8.9c4.1,3.9,7.6,8.4,10.5,13.4c2.9,5,4.1,10.8,6.9,15.7
	c3,5.3,8.9,4.6,14,4.7c6.8,0.2,13.6,0.9,20.3,2.1c6.1,1.1,11.3-8.4,4.6-11.5l-9.8-4.5l-4.4-2c-0.8-0.4-4.9-1.7-5.3-2.5l0.1,0.8
	c0.3-0.6,0.6-1.2,1-1.7c1-1.2,0.1-1.4-2.7-0.4l1.2,1.2c1.1,1.3,2.3,2.5,3.6,3.7l1.1,1.3c0.9,2.1,2.5,2.4,4.7,0.7l-3,11.7
	c5.3-0.1,10.6,0.2,15.9,0.9l-1.6-12.3c-10.7,2.3-21.6,1.3-32.3,0.2c-7.6-0.7-7.6,11.8,0,12.6c11.9,1.1,23.7,1.9,35.5-0.7
	c7.2-1.6,4.5-11.5-1.6-12.3c-5.3-0.7-10.6-1-15.9-0.9c-6.1,0.2-7.9,8.3-3,11.7c7.2,5.1,15.9-2.6,14.6-10.9c-0.7-4.9-4-8.6-7.2-12
	c-2.9-3.1-6-7-10.5-7c-7.4,0-13.6,10.9-11.5,18c1.4,4.6,5.3,6.2,9.2,8l16,7.4l4.5-11.4c-5.9-1.1-11.8-1.9-17.8-2.3
	c-2.6-0.2-6-0.9-8.6-0.4h-1.9c1,1.7,1.2,1.9,0.7,0.6c-0.3-1.4-0.8-2.8-1.4-4.1c-3.9-10.1-9.9-19.2-17.5-26.7
	c-5.6-5.6-13.5,2.9-8.4,8.9l10.6,12.5c4.6,5.4,12.6-1.5,9.4-7.6c-3.6-6.9-14.3-24.2-23.6-17.5c-2.8,1.8-3.7,5.7-2,8.7
	c0.8,1.3,2,2.3,3.5,2.8c6.1,2.2,12.3,4.4,17.2,9s8.6,9.9,14,13.8s10.4-3.4,8.1-8.6c-6.1-14-17.2-24.3-30.7-30
	c-5.4-2.3-10.4,6.7-5.8,10.5c3.2,2.6,9.1,6.7,8.2,11.7l11.7,1.7c-1.1-11.2-8.9-17.9-17.6-23.3C134.8,38.6,128.9,49.5,135.4,53.6
	L135.4,53.6z"/>
<path class="st6" d="M129.8,47.3c-5.7,12.1-18.4,16.1-30.3,17.2c-14.2,1.3-28.6,1.2-42.9,1.7c-7.6,0.3-7.7,12.8,0,12.6
	c16.5-0.6,33.5,0,49.9-2.6c13.6-2.1,27.3-9,33.6-22.5C143.5,46.4,133.2,40,129.8,47.3L129.8,47.3z"/>
<path class="st6" d="M61.2,65.3C42.6,70,25.1,78.2,9.3,89.4c-6.3,4.5-0.4,15.4,6,10.8c14.9-10.7,31.5-18.4,49-22.8
	C71.7,75.5,68.6,63.4,61.2,65.3L61.2,65.3z"/>
<path class="st4" d="M124.6,54.3c1,13-13.8,16.1-23.2,17c-13,1.2-26.1,1.5-39.1,3.4C40.2,77.8,17.4,85.9,3,104.8l10.2,4.4
	c0-18.9,1.8-46.1,22.9-52.1c7.4-2.1,4.2-14.2-3.2-12.1C5.9,52.8,1.2,84.3,1.2,109.3c0,5,6.8,8.8,10.2,4.4
	c16.5-21.6,43.4-26.4,68.1-28.3c12.6-1,26.8-0.1,38.8-4.9c10.3-4.1,19.2-13.8,18.2-26.2C135.9,46.3,124,46.3,124.6,54.3L124.6,54.3z
	"/>
<path class="st4" d="M114.1,17.4c17.6-8.3,36.9,2,49.5,15.1c13.5,14,23.6,31.8,31.4,49.9c3.1,7.4,13.4,1,10.3-6.3
	c-15.8-37-52.1-90.7-97.1-69.5C101.1,9.8,107.1,20.6,114.1,17.4L114.1,17.4z"/>
<path class="st4" d="M184.2,76.3c3.1,2.7,5.8,5.8,8.2,9.2c1.5,2.2,5.2,7.1,5,9.9l1.7-4.4c1.7-0.7,1.4-0.9-0.8-0.7l-3.7-0.3l-6.5-0.4
	l-14-1c-3.2-0.2-6.9,0.2-8.3-3.4c-1.3-3.4-1-7.5-2.3-11c-5.8-16.2-21.2-23.4-35.4-29.3c-7.1-3-10.2,9.1-3.2,12.1
	c10.4,4.4,23.6,9.8,27.6,22c1.9,5.7,1.1,11.9,5.3,16.6c4,4.5,9.8,5.1,15.3,5.5c6.9,0.5,13.7,0.9,20.6,1.4c5.3,0.4,12.5,1.8,15.1-4.6
	c2-5.1-2-11.6-4.4-15.8c-3.2-5.5-7.1-10.4-11.8-14.5C186.9,62.2,178.4,71.1,184.2,76.3L184.2,76.3z"/>
<path class="st4" d="M203.6,96.9c7.7,0,7.7-12.6,0-12.6S196,96.9,203.6,96.9z"/>
<path class="st4" d="M128.1,62.5c11.9,6.9,21.4,17.7,27.1,30.7c3.2,7.3,13.5,0.9,10.3-6.3c-6.6-14.9-17.6-27.3-31.3-35.2
	C127.4,47.7,121.4,58.6,128.1,62.5L128.1,62.5z"/>
<path class="st4" d="M127.2,64.9c3,11.2-39.1,10.9-44.9,10.8c-17.1-0.3-34.1-1.5-50.9,2.2c-7.5,1.6-4.3,13.7,3.2,12.1
	C55,85.6,76,89.1,96.7,88.2c13.7-0.6,48.1-3.8,42-26.6C136.6,53.8,125.1,57.1,127.2,64.9L127.2,64.9z"/>
<path class="st4" d="M25.9,73.9c-2.5,13.2-4.7,26.5-6.7,39.8l8.3-2.3l-8.8-10l-1,8.3c0.7-1,2-1.4,3.1-0.9l-4.3-7.9
	c-1.9,3.4-4.4,6.4-7.4,8.8c-5.1,4.2,2,11.6,7.1,7.5c3.6-3,6.7-6.7,8.9-10.9c2-3.7-0.6-7.6-4.3-7.9c-2.9-0.3-5.8,0.6-8.1,2.4
	c-2.7,2-3.3,5.6-1,8.3l8.8,10c2.4,2.7,7.8,1.6,8.4-2.3c2-13.3,4.2-26.6,6.7-39.8C36.8,70.1,27.1,67.2,25.9,73.9L25.9,73.9z"/>
<path class="st4" d="M40.9,79.7C35,84.8,30,90.8,26,97.5c-3.4,5.8,5.2,11.1,8.6,5.3c3.6-6,8.1-11.2,13.3-15.6c2.1-1.8,1.8-5.6,0-7.5
	C45.9,77.5,42.9,77.9,40.9,79.7L40.9,79.7z"/>
<path class="st4" d="M27.8,85.8l-1.4,19.4c-0.5,6.8,9.5,6.7,10,0l1.4-19.4C38.3,79,28.3,79,27.8,85.8z"/>
<path class="st4" d="M133.5,62.8c-4.1,3.6-8.9,6.4-14,8.1c-6.1,2.1-3.5,12.3,2.6,10.2c6.7-2.3,13-6,18.4-10.9
	C145.5,65.8,138.4,58.4,133.5,62.8L133.5,62.8z"/>
<path class="st4" d="M134.2,67.9c-0.6-0.9,0.4-0.5-1.1,0.4c-0.9,0.6-1.8,1.1-2.7,1.5c-2.4,1.2-4.9,2.3-7.4,3.2
	c-4.5,1.7-9.1,3.1-13.8,4.2c-9.6,2.2-19.3,3.6-29.1,4.3c-19.4,1.7-38.9,2.4-57.9,6.9c-6.3,1.5-3.6,11.6,2.7,10.2
	c22.9-5.4,46.5-4.9,69.8-8.1c8.8-1.2,60.5-9.6,48.2-28C139.1,57.1,130.5,62.4,134.2,67.9L134.2,67.9z"/>
<path class="st4" d="M124.3,71.2v1.6c0,1.4,0.5,2.7,1.5,3.7c1,0.9,2.2,1.5,3.5,1.5c1.3,0,2.6-0.6,3.5-1.5c0.9-1,1.4-2.3,1.5-3.7
	v-1.6c0-1.4-0.5-2.7-1.5-3.7c-0.4-0.5-1-0.9-1.6-1.1c-0.6-0.3-1.3-0.5-1.9-0.5c-1.3,0-2.6,0.6-3.5,1.5
	C124.9,68.5,124.4,69.8,124.3,71.2L124.3,71.2z"/>
<path class="st4" d="M132.6,64.9c3.2,9.5-9.7,12.7-15.9,14.4c-9.6,2.6-19.2,4.7-29,6.4c-19.4,3.3-39,4.7-58.7,4.3
	c-6.4-0.1-6.4,10.4,0,10.5c23.7,0.4,47.5-1.7,70.8-6.5c10.5-2.1,22.5-3.9,32-9.1c7.8-4.3,13.5-13.5,10.4-22.9
	C140.1,55.7,130.4,58.4,132.6,64.9L132.6,64.9z"/>
<path class="st4" d="M53.8,89.1c-10.6,3.9-21.4,7.1-32.4,9.6c-6.3,1.5-3.6,11.6,2.7,10.2c11-2.5,21.8-5.7,32.4-9.6
	C62.5,97.1,59.9,86.9,53.8,89.1z"/>
<path class="st4" d="M131.3,77.7c11.4,5.1,22.2,11.5,32.4,18.9c5.3,3.9,10.3-5.3,5-9.1c-10.2-7.4-21-13.8-32.4-18.9
	C130.5,65.9,125.4,75,131.3,77.7L131.3,77.7z"/>
<path class="st4" d="M133.4,80.8c5.5,1.7,9.9,6.1,14.4,9.8l14.2,11.6c5,4.1,12.1-3.3,7.1-7.5l-17.2-14c-5-4-9.7-8.1-15.8-10
	S127.3,78.9,133.4,80.8L133.4,80.8z"/>
<path class="st4" d="M164.7,101.9c12.4,2.1,24.9,3.5,37.4,4.3c6.4,0.4,6.4-10.2,0-10.5c-11.6-0.7-23.3-2-34.8-3.9
	C161.1,90.6,158.4,100.8,164.7,101.9L164.7,101.9z"/>
<path class="st4" d="M165.4,102.3h13c6.4,0,6.4-10.5,0-10.5h-13C158.9,91.8,158.9,102.3,165.4,102.3L165.4,102.3z"/>
<path class="st4" d="M16,122.5c6.4,0,6.4-10.5,0-10.5S9.5,122.5,16,122.5z"/>
<path class="st4" d="M14.9,116.5V114c0-5.5-6.6-6.9-9.3-2.7c-1,1.6-1.6,3.4-1.6,5.4c-0.4,6.8,9.4,6.7,10,0c0.5-5.6,0.2-11.2-1-16.7
	c-1.2-5.7-10.4-4.6-9.8,1.4l0.7,7.9c0.1,1.1,1,5.1,0.6,5.9l3-2.4l-1,0.2l3.8,0.5c-0.6-0.4-0.3-9.2-0.2-10.8
	c0.1-3.9,0.6-7.8,1.4-11.6c1.6-7.8,4.6-15.3,8.8-22c3.5-5.7-5.1-11-8.6-5.3C3.2,77.4-0.9,93.5,0.2,109.7c0.4,5.5,2.1,16.1,9.9,13.3
	c7.3-2.7,3.6-15.8,3.1-21.5l-9.8,1.4c0.9,4.6,1.2,9.3,0.7,13.9h10h0.2l-9.3-2.7v2.4C4.9,123.3,14.9,123.3,14.9,116.5L14.9,116.5z"/>
<path class="st4" d="M22.5,105.2v11.3c0,6.8,10,6.8,10,0v-11.3C32.5,98.4,22.5,98.4,22.5,105.2z"/>
<path class="st4" d="M24.9,104.3l0.8,9.7c0.1,2.9,2.3,5.2,5,5.3c2.5,0,5.2-2.4,5-5.3l-0.8-9.7c-0.1-2.9-2.3-5.2-5-5.3
	C27.4,99.1,24.7,101.5,24.9,104.3z"/>
<path class="st4" d="M36,103.5c-1.6,2.3-2.6,4.9-3.1,7.7c-0.2,0.8,0.2,1.7,1,1.9c0.8,0.2,1.6-0.2,1.8-1.1c0.2-1.3,0.5-2.6,1-3.8
	l0.1-0.2l0.2-0.5c0.1-0.3,0.2-0.5,0.4-0.8c0.3-0.6,0.6-1.2,1-1.7c0.4-0.8,0.2-1.7-0.5-2.2C37.2,102.6,36.4,102.8,36,103.5L36,103.5z
	"/>
<path class="st4" d="M40.7,98.3c-1.2,3.9-3.2,7.6-5.9,10.5c-0.6,0.6-0.6,1.6,0,2.2c0.6,0.6,1.5,0.6,2.1,0c3.1-3.4,5.3-7.5,6.7-11.9
	c0.2-0.8-0.2-1.7-1-2C41.8,96.9,41,97.4,40.7,98.3C40.7,98.2,40.7,98.3,40.7,98.3L40.7,98.3z"/>
<path class="st4" d="M40.9,101.3c-3,4.2-6.3,8.1-10,11.6c-0.6,0.6-0.6,1.6,0,2.2c0.6,0.6,1.5,0.6,2.1,0c3.9-3.7,7.4-7.8,10.4-12.2
	c0.4-0.8,0.2-1.7-0.5-2.2C42.2,100.3,41.3,100.6,40.9,101.3L40.9,101.3z"/>
<path class="st4" d="M39.8,101.9c0.1,4.8-1.3,9.6-4.2,13.4c-0.6,0.6-0.6,1.6,0,2.2c0.6,0.6,1.5,0.6,2.1,0c3.4-4.4,5.2-10,5.1-15.6
	C42.7,99.9,39.7,99.9,39.8,101.9z"/>
<path class="st4" d="M38.2,106.3c-0.1,0.8-0.3,1.6-0.7,2.4c0-0.1,0.1-0.2,0,0l-0.1,0.3c-0.1,0.2-0.2,0.4-0.3,0.5
	c-0.2,0.4-0.4,0.7-0.6,1.1c-0.1,0.2-0.2,0.3-0.3,0.5c0.2-0.3,0,0,0,0l-0.2,0.2c-0.3,0.3-0.5,0.6-0.8,0.9l-0.4,0.4l-0.2,0.2
	c0,0-0.4,0.3-0.1,0c-0.3,0.2-0.6,0.5-1,0.7c-0.7,0.5-0.9,1.4-0.5,2.2c0.4,0.7,1.3,0.9,2,0.5c3.1-2,5.3-5.3,6-9c0.2-0.8-0.2-1.7-1-2
	c-0.8-0.3-1.6,0.2-1.9,1C38.2,106.2,38.2,106.3,38.2,106.3L38.2,106.3z"/>
<path class="st4" d="M38.4,109.1l-0.2,0.3c-0.2,0.2,0.2-0.3-0.1,0.1l-0.4,0.5c-0.3,0.4-0.6,0.7-1,1.1s-0.7,0.7-1,1.1
	c-0.2,0.2-0.3,0.3-0.5,0.5c-0.2,0.1-0.3,0.3-0.2,0.2l-0.2,0.2c-0.7,0.6-1.5,1.1-2.3,1.5c-0.8,0.5-1.6,0.8-2.4,1.1
	c-0.8,0.3-1.2,1.2-1,2c0.2,0.8,1,1.2,1.7,1c4-1.5,7.6-4.3,10.1-7.9c0.4-0.8,0.2-1.7-0.5-2.2C39.7,108.2,38.8,108.5,38.4,109.1
	L38.4,109.1z"/>
<path class="st4" d="M40.2,112.2c-3.4,3-7.4,5-11.7,5.9c-0.8,0.3-1.2,1.1-1,1.9c0.2,0.8,1.1,1.3,1.8,1.1c4.8-1.1,9.3-3.4,13-6.7
	c0.6-0.6,0.6-1.6,0-2.2C41.8,111.5,40.9,111.5,40.2,112.2L40.2,112.2z"/>
<path class="st4" d="M40.3,112.8c1.7-4.5,4.3-8.6,7.7-11.9l-2.5-1.5c-1.3,4.4-3.7,8.4-7.1,11.3l2.4,1.9c3-4.9,7.1-9.1,11.8-12.2
	l-1.8-2.5L40.4,108l2.1,2.2l3.6-4.7c0.6-0.6,0.6-1.6,0-2.2c-0.6-0.6-1.5-0.6-2.1,0l-3.6,4.7c-0.6,0.6-0.6,1.6,0,2.2
	c0.6,0.6,1.5,0.6,2.1,0l10.3-10.1c0.6-0.6,0.6-1.6,0-2.2c-0.5-0.5-1.2-0.6-1.8-0.2c-5.1,3.4-9.5,8-12.8,13.3c-0.4,0.7-0.2,1.6,0.4,2
	c0.6,0.5,1.5,0.4,2-0.1c3.8-3.3,6.5-7.7,7.9-12.7c0.2-0.9-0.3-1.7-1.1-1.9c-0.5-0.1-1,0-1.4,0.4c-3.8,3.7-6.7,8.2-8.5,13.3
	c-0.2,0.8,0.2,1.7,1,1.9C39.3,114.1,40.1,113.7,40.3,112.8L40.3,112.8z"/>
<path class="st4" d="M39.2,115.9c6.6-5.4,13.8-10.1,21.3-14.1c1.7-0.9,0.2-3.6-1.5-2.7c-7.7,4.1-15.1,9-21.9,14.6
	c-0.6,0.6-0.6,1.6,0,2.2C37.7,116.5,38.6,116.5,39.2,115.9L39.2,115.9z"/>
<path class="st4" d="M42,103.5c6.7,0.2,13.4-0.3,20-1.4l-0.8-3l-19.4,5.4c-1.9,0.5-1.1,3.4,0.8,3c10.6-1.9,21-5.2,30.9-9.7
	c1.8-0.8,0.2-3.5-1.5-2.7c-9.7,4.4-19.8,7.5-30.2,9.4l0.8,3l19.4-5.4c1.9-0.5,1.1-3.4-0.8-3c-6.4,1-12.8,1.4-19.2,1.3
	C40.1,100.3,40.1,103.5,42,103.5L42,103.5z"/>
<path class="st4" d="M27.1,115.3c-1.4,1.9-3.1,3.5-5,4.8l2.1,0.6l-1.3-3.2c-0.7-1.5-2.7-0.6-2.8,0.8c-0.1,0.3-0.1,0.6-0.1,0.9
	c-0.1,0.1,0,0.1,0.1,0.1c0.3,0,0.5,0.2,0.6,0.7c-0.1-1.6-2.7-2.3-3-0.4l-0.9,6.2l2.9,0.4c0.2-3-0.5-5.9-1.9-8.4
	c-0.4-0.8-1.4-1-2.1-0.5c-0.3,0.2-0.6,0.5-0.7,0.9l-0.7,3.8l2.8-0.4l-1.7-2.8c-0.4-0.8-1.4-1-2.1-0.5c-0.2,0.1-0.4,0.3-0.5,0.5
	c-1.4,2.6-1.8,5.7-1.2,8.6c0.2,0.8,1.1,1.3,1.9,1.1c0.6-0.2,1.1-0.8,1.1-1.5l-0.2-6.1c-0.1-1.5-2.1-2.3-2.8-0.8
	c-1.2,2.5-1.2,5.5,0.1,8c0.7,1.4,2.8,0.7,2.8-0.8c0-3.3-0.7-6.5-2-9.4c-0.7-1.5-2.7-0.6-2.8,0.8c-0.3,3.4-0.5,6.9-0.7,10.3l2.9-0.4
	l-2.9-10.4c-0.2-0.8-1.1-1.3-1.9-1.1c-0.5,0.2-0.9,0.6-1,1.1c-0.7,2.8-0.9,5.8-0.4,8.7l2.9-0.8l-0.9-5.6c-0.3-1.8-3-1.3-3,0.4
	L4.7,131c0,1.7,2.7,2.3,3,0.4c1-6.7,0.9-13.5-0.4-20.2c-0.4-2-3.3-1.1-2.9,0.8c1.1,6.1,1.2,12.3,0.3,18.5l3,0.4l-0.3-10.1l-2.9,0.4
	l0.9,5.6c0.2,0.8,1,1.4,1.8,1.2c0.8-0.2,1.3-1.1,1.1-1.9c0,0,0-0.1,0-0.1c-0.3-2.4-0.1-4.7,0.4-7H5.9l2.9,10.4
	c0.1,0.9,0.9,1.5,1.7,1.4c0.8-0.1,1.4-0.9,1.3-1.8l0,0c0.2-3.4,0.4-6.9,0.7-10.3l-2.8,0.8c1.1,2.4,1.7,5.1,1.7,7.8l2.8-0.8
	c-0.7-1.5-0.7-3.3-0.1-4.8l-2.8-0.8l0.2,6.1l3-0.4c-0.4-2.1-0.1-4.3,0.9-6.2h-2.6l1.7,2.8c0.7,1.1,2.5,1.1,2.8-0.4l0.7-3.8l-2.7,0.4
	c1.2,2.1,1.7,4.5,1.5,6.9c-0.1,1.8,2.7,2.2,3,0.4l0.9-6.2l-2.9-0.4c0.1,1.4,1.3,2.5,2.6,2.5c0.2,0,0.4-0.1,0.6-0.1
	c1.7-0.5,2.1-2.4,2.2-4l-2.8,0.8l1.3,3.2c0.4,0.7,1.3,1,2,0.6c2.1-1.5,4-3.2,5.6-5.3C30.6,116.1,28.5,113.8,27.1,115.3L27.1,115.3z"
	/>
<path class="st4" d="M15.3,121.7c-1.4,0.8-2.3,2.4-2.2,4.1c0,0.9,0.7,1.6,1.5,1.6c0.7,0,1.2-0.5,1.4-1.1l1.6-5.9l-2.5,0.7
	c0.6,0.6,1.1,1.3,1.4,2.1c0.2,0.6,0.7,1,1.2,1.1c0.6,0.1,1.2-0.2,1.5-0.8l4.1-6.8l-2.8-0.8l0.3,7.5c0,0.9,0.7,1.6,1.6,1.6
	c0.4,0,0.7-0.2,1-0.4l3-3.6c0.6-0.6,0.6-1.6,0-2.2c-0.6-0.6-1.5-0.6-2.1,0l-3,3.6l2.6,1.1l-0.3-7.5c0-0.9-0.7-1.6-1.5-1.5
	c-0.5,0-1,0.3-1.2,0.7l-4.1,6.8l2.7,0.4c-0.5-1.3-1.2-2.5-2.2-3.5c-0.6-0.6-1.6-0.6-2.1,0c-0.2,0.2-0.3,0.4-0.4,0.7l-1.6,5.9l3,0.4
	c0-0.1,0-0.2,0-0.3s0-0.2,0-0.1c0-0.1,0.1-0.2,0.1-0.3c-0.1,0.2,0,0,0.1-0.1c0.1-0.1,0.2-0.3,0.1-0.2l0.1-0.1c0.2-0.2-0.1,0.1,0,0
	l0.3-0.2c0.7-0.4,0.9-1.4,0.5-2.2C16.9,121.6,16,121.3,15.3,121.7L15.3,121.7z"/>
<path class="st4" d="M17.9,116.9l-2.6,14.8l2.9,0.4c-0.1-6.2-0.5-12.4-1.1-18.5c-0.2-1.6-2.6-2.3-3-0.4c-1.6,8.1-2.3,16.3-2.1,24.5
	c0,0.9,0.7,1.6,1.5,1.6s1.5-0.7,1.5-1.6v-12.4c0-0.9-0.7-1.6-1.5-1.6s-1.5,0.7-1.5,1.6v12.4h3c-0.2-8,0.5-15.9,2-23.7l-3-0.4
	c0.6,6.1,1,12.3,1.1,18.5c0,1.7,2.6,2.2,3,0.4l2.6-14.8C21.1,115.8,18.2,114.9,17.9,116.9L17.9,116.9z"/>
<path class="st4" d="M33.6,115.5l-4.8,8.1l2.7,1.2c0.9-2.7,2.2-5.3,3.8-7.6l-2.6-1.6c-1.7,2.7-3.8,5.1-6.1,7.1l2.5,0.7
	c0,0.1,0.1-0.2,0.1-0.2l-1.2-2.9L16.2,126c-1.2,0.6-0.8,2.6,0.4,2.9c3.8,1,7.9,0.1,11-2.5c1.4-1.1-0.4-3.4-1.8-2.5l-7.9,5l2.2,1.8
	c0.5-1.6,1.5-2.9,2.8-3.7l-2-2.1c-2,3.6-4.4,7-7.2,10l2.1,2.2c4.6-5.8,10.7-10.3,17.5-12.8c1.8-0.7,1-3.7-0.8-3
	c-7.3,2.7-13.8,7.4-18.8,13.6c-1.2,1.5,0.8,3.7,2.1,2.2c3-3.2,5.6-6.8,7.7-10.7c0.4-0.8,0.1-1.7-0.7-2.1c-0.4-0.2-0.9-0.2-1.3,0
	c-2,1.3-3.5,3.3-4.2,5.6c-0.2,0.9,0.3,1.7,1.1,1.9c0.4,0.1,0.8,0.1,1.1-0.2l7.9-5l-1.8-2.5c-2.3,1.8-5.3,2.5-8.1,1.7l0.4,2.9
	l11.9-5.6c1.5-0.7,0.4-3.5-1.2-2.9c-1.6,0.6-2.6,2.3-2.2,4.1c0.2,1.3,1.7,1.4,2.5,0.7c2.6-2.2,4.8-4.8,6.6-7.8
	c1.1-1.7-1.5-3.2-2.6-1.6c-1.8,2.5-3.2,5.3-4.2,8.2c-0.6,1.7,1.9,2.7,2.7,1.2l4.8-8.1C37.2,115.3,34.6,113.7,33.6,115.5L33.6,115.5z
	"/>
<path class="st4" d="M23.2,127.6c2.3,0.5,4.8,0.3,7-0.7c0.4-0.1,0.7-0.4,0.9-0.7c0.2-0.4,0.3-0.8,0.2-1.2c-0.2-0.8-1.1-1.3-1.8-1.1
	c-0.5,0.2-1,0.4-1.5,0.5c-0.2,0.1-0.5,0.1-0.8,0.2c-0.1,0-0.2,0-0.3,0c0.4,0,0,0-0.1,0c-0.5,0-1,0-1.5,0l-0.8-0.1
	c-0.4,0,0.3,0.1,0,0l-0.4-0.1c-0.8-0.2-1.6,0.3-1.8,1.1C22,126.5,22.5,127.4,23.2,127.6L23.2,127.6z"/>
<path class="st4" d="M36.3,113l1.6,0.9v0.3c0,0-0.1,0.4,0,0.2c-0.1,0.3-0.3,0.5-0.5,0.6c-0.2,0.2-0.5,0.2-0.7,0.1
	c-0.2,0.1-0.4,0-0.5-0.1c-0.1-0.1-0.2-0.2-0.2-0.3c-0.2-0.2,0.1,0.2,0-0.1c-0.1-0.2,0,0.1,0,0.1c0,0.1,0,0.2,0,0.2s0,0.1,0,0
	c0,0.1,0,0.2,0,0.3s-0.1,0.5-0.1,0.7c-0.1,0.4-0.2,0.9-0.3,1.3s-0.2,0.8-0.4,1.2c-0.1,0.4,0,0,0,0.1l-0.1,0.3
	c-0.1,0.2-0.2,0.4-0.3,0.6c-0.2,0.4-0.4,0.8-0.6,1.1c-0.1,0.2-0.2,0.4-0.4,0.6l-0.2,0.3c0,0-0.2,0.3-0.1,0.1l2.5,1.5
	c0.8-3.1,1.9-6,3.3-8.8l-2.8-0.4c0.1,0.2,0.1,0.4,0.1,0.6c0,0.2,0,0.2,0,0v0.3v0.5c0,0,0,0.7,0,0.3c-0.1,0.7-0.3,1.3-0.6,1.9
	l2.7,1.2c0.4-1.3,1.1-2.4,1.9-3.4l-2.6-1.1c0-0.3,0,0.2,0,0.2s-0.1,0.3-0.1,0.4c0,0.1-0.2,0.6-0.2,0.9l-0.1,0.4c0,0.1,0,0.1,0,0
	l-0.1,0.1c-0.1,0.3-0.3,0.6-0.4,0.9c-0.4,0.8-0.1,1.7,0.6,2.2c0.6,0.3,1.3,0.2,1.7-0.2c0.6-0.8,1.2-1.5,1.9-2.1l0.2-0.2l0.1-0.1
	c0.2-0.1,0.4-0.3,0.5-0.4c0.4-0.3,0.8-0.5,1.2-0.8c0.7-0.4,1-1.4,0.6-2.1c-0.4-0.8-1.3-1.1-2-0.6c0,0-0.1,0-0.1,0.1
	c-1.8,1-3.4,2.4-4.6,4.1l2.3,1.9c0.7-1.4,1.2-2.9,1.4-4.4c0-0.6-0.4-1.2-0.9-1.4c-0.6-0.2-1.2-0.1-1.6,0.3c-1.2,1.4-2.2,3-2.7,4.8
	c-0.2,0.9,0.3,1.7,1.1,1.9c0.6,0.2,1.3-0.1,1.7-0.7c1-1.8,1.3-4,0.8-6.1c-0.2-0.8-1.1-1.3-1.9-1.1c-0.4,0.1-0.7,0.4-0.9,0.7
	c-1.5,3.1-2.7,6.3-3.6,9.6c-0.2,0.8,0.3,1.7,1.1,1.9c0.5,0.1,1.1,0,1.4-0.4c1.9-2.5,3.1-5.4,3.4-8.6c0.1-0.8-0.1-1.7-0.6-2.4
	c-0.6-0.8-1.6-0.9-2.4-0.5c-0.7,0.5-1.1,1.4-0.9,2.3c0.2,1,1.1,1.6,2.1,1.3c0,0,0,0,0.1,0c0.8-0.2,1.3-1.1,1.1-2
	c-0.2-0.8-1-1.3-1.8-1.1L36.3,113z"/>
<path class="st4" d="M43,110l-1.9,3.8l2.7,1.2c0.9-5.2,3.9-9.7,8.2-12.5c1.6-1.1,0.1-3.8-1.5-2.7c-5,3.2-8.4,8.4-9.6,14.4
	c-0.2,0.8,0.2,1.6,0.9,1.9c0.7,0.3,1.5,0,1.9-0.6l1.9-3.8C46.5,109.8,43.9,108.2,43,110z"/>
<path class="st4" d="M13.1,125.3l-1.3,2.9l2.8,0.4l-1-3.2c-0.2-0.8-1.1-1.3-1.9-1.1c-0.6,0.2-1.1,0.8-1.1,1.5v3.2
	c0,1.7,2.7,2.2,3,0.4c0.3-1.6,0-3.3-0.8-4.7c-0.5-0.7-1.4-1-2.1-0.5c-0.4,0.3-0.7,0.8-0.7,1.3l-0.2,4.1h3l0.1-3.9c0-2-2.9-2-3,0
	l-0.3,5.6l2.8-0.8c-1.2-2.6-1.6-5.5-1.2-8.3c0.2-0.8-0.3-1.7-1.1-1.9c-0.8-0.2-1.6,0.3-1.8,1.1c-1.2,3.2-1.7,6.7-1.5,10.2
	c0,0.9,0.7,1.6,1.5,1.6s1.5-0.7,1.5-1.6v-11.7c0-1.7-2.6-2.2-3-0.4c-0.8,4.7-1.3,9.5-1.6,14.2h3v-16.8h-3v10.3h3
	c-0.2-3.7-0.8-7.3-1.6-10.9c-0.2-0.8-1.1-1.3-1.9-1c-0.6,0.2-1,0.8-1.1,1.5v8.1c0,0.9,0.7,1.6,1.5,1.6s1.5-0.7,1.5-1.6v-7.1
	c0-0.9-0.7-1.6-1.5-1.6s-1.5,0.7-1.5,1.6v7.4c0,0.9,0.7,1.6,1.5,1.6c0.7,0,1.2-0.5,1.4-1.1c0.9-3.1,1.5-6.4,1.6-9.7h-3l0.1,11.3
	l3-0.4l-1.9-8.2c-0.3-1.5-2.6-1.6-2.9,0c-1.1,5.8-0.4,11.8,2,17.2c0.4,0.7,1.3,1,2,0.6c0.7-0.4,0.9-1.4,0.5-2.1
	c-2-4.6-2.6-9.8-1.7-14.8H3.5l1.9,8.2c0.1,0.9,0.9,1.5,1.7,1.4c0.8-0.1,1.4-0.9,1.3-1.8L8.3,116c0-0.9-0.7-1.6-1.5-1.6
	s-1.5,0.7-1.5,1.6c-0.2,3-0.7,5.9-1.5,8.8l2.9,0.4v-7.4h-3v7.1h3v-8.1l-3,0.4c0.8,3.3,1.3,6.7,1.5,10.1c0.1,2,3,2.1,3,0V117
	c0-0.9-0.7-1.6-1.5-1.6s-1.5,0.7-1.5,1.6v16.8c0,0.9,0.7,1.6,1.5,1.6s1.5-0.7,1.5-1.6c0.2-4.5,0.7-9,1.5-13.4l-3-0.4v11.7h3
	c-0.1-3.2,0.4-6.4,1.5-9.4l-2.9-0.8c-0.5,3.7,0,7.4,1.5,10.8c0.7,1.5,2.7,0.6,2.8-0.8l0.3-5.6h-3l-0.1,3.9c0,2,2.9,2,3,0l0.2-4.1
	l-2.8,0.8c0.4,0.7,0.6,1.5,0.5,2.2l2.9,0.4v-3.2l-2.9,0.4l1,3.2c0.4,1.2,2.2,1.7,2.7,0.4l1.3-2.9C16.6,125.2,14,123.6,13.1,125.3
	L13.1,125.3z"/>
<path class="st4" d="M7,117.2c-1.5,2.6-2.1,5.8-1.5,8.8c0.2,0.8,1.1,1.3,1.8,1.1c0.8-0.3,1.2-1.1,1-1.9l-1.8-12.7
	c-0.2-0.8-0.9-1.3-1.6-1.1c-0.7,0.1-1.3,0.8-1.3,1.5c-0.2,4.7,0.1,9.4,1,14.1l2.7-1.2c-2.1-4.7-3.1-9.8-3-15c0-2-3-2-3,0
	c-0.1,5.7,1,11.4,3.4,16.6c0.4,0.7,1.2,1,1.9,0.6c0.7-0.3,1-1.1,0.9-1.9c-0.8-4.4-1.1-8.8-0.9-13.2l-3,0.4L5.3,126l2.9-0.8
	c-0.4-2.2,0.1-4.5,1.2-6.4c1-1.7-1.6-3.3-2.6-1.6L7,117.2z"/>
<path class="st4" d="M1.7,118.9c-0.6,5.8-0.8,12.3,3.2,16.9c0.6,0.6,1.6,0.6,2.1,0c0.3-0.3,0.4-0.7,0.4-1.1
	C6.6,125,5.8,115.3,5,105.5c-0.1-1.6-2.7-2.3-2.9-0.4c-0.9,7-0.9,14.1,0.2,21.1c0.3,1.8,2.9,1.3,2.9-0.4v-13.1
	c0-0.9-0.7-1.6-1.5-1.6s-1.5,0.7-1.5,1.6v10.4l3-0.4c-3.1-8.9-2.7-18.8,1.1-27.4c0.8-1.8-1.8-3.4-2.6-1.6
	c-4.2,9.3-4.8,20.1-1.5,29.8c0.1,0.9,0.9,1.5,1.7,1.4c0.8-0.1,1.4-0.9,1.3-1.8v-10.4h-3v13.1l3-0.4c-1-6.4-1.1-13-0.2-19.5l-3-0.4
	c0.8,9.7,1.6,19.4,2.4,29.1l2.6-1.1c-3.4-3.9-2.8-9.8-2.3-14.6C4.9,116.9,1.8,116.9,1.7,118.9L1.7,118.9z"/>
<path class="st4" d="M8.4,125.3v11h3c-0.1-3.4-0.5-6.8-1.2-10.1c-0.2-0.8-0.9-1.2-1.7-1.1c-0.7,0.1-1.3,0.8-1.3,1.6
	c-0.5,4.4-0.6,8.8-0.3,13.2c0,0.9,0.7,1.6,1.5,1.6s1.5-0.7,1.5-1.6c-0.2-4.4-0.1-8.8,0.4-13.2l-3,0.4c0.6,3.1,1,6.2,1.1,9.3
	c0,0.9,0.7,1.6,1.5,1.6s1.5-0.7,1.5-1.6v-11c0-0.9-0.7-1.6-1.5-1.6S8.3,124.5,8.4,125.3L8.4,125.3z"/>
<path class="st4" d="M2.2,129c1.4,4.2,3.6,8,6.5,11.2c0.6,0.6,1.5,0.6,2.1,0c0.6-0.6,0.6-1.6,0-2.2c-1.3-1.4-2.4-2.9-3.3-4.5
	c-0.5-0.8-0.9-1.7-1.3-2.6c-0.4-0.9-0.8-1.8-1.1-2.7c-0.3-0.8-1.1-1.3-1.8-1.1C2.5,127.3,2.1,128.2,2.2,129L2.2,129z"/>
<path class="st4" d="M6.8,127.8c-0.2,3.7,0.3,7.4,1.5,11c0.3,0.8,1.1,1.3,1.8,1.1c0.8-0.3,1.2-1.1,1-1.9c-1.1-3.2-1.6-6.7-1.4-10.1
	c0-0.9-0.7-1.6-1.5-1.6C7.4,126.2,6.8,126.9,6.8,127.8L6.8,127.8z"/>
<path class="st4" d="M15,128.9c-0.6,4-1.7,7.9-3.3,11.5l2.8,0.8v-10.5c0-0.9-0.7-1.6-1.5-1.6c-0.8,0-1.5,0.7-1.5,1.6l-1.8,15.1
	c-0.2,1.8,2.6,2.1,3,0.4c0.6-2.5,0.3-5.2-0.9-7.5c-0.4-0.7-1.4-1-2.1-0.5c-0.3,0.2-0.5,0.5-0.6,0.9c-0.9,2.4-0.8,5,0.2,7.4l2.6-1.5
	l-6.6-16.1c-0.4-0.7-1.3-1-2-0.6c-0.7,0.5-0.9,1.4-0.5,2.2l6.6,16.1c0.4,0.7,1.3,1,2,0.6c0.7-0.5,0.9-1.4,0.5-2.2
	c-0.6-1.6-0.6-3.4,0.1-5l-2.7,0.4c0.8,1.5,1,3.3,0.6,5l3,0.4l1.8-15.1h-3v10.5c0,1.5,2.1,2.3,2.8,0.8c1.7-3.9,2.9-8,3.6-12.3
	c0.2-0.8-0.2-1.7-1-1.9c-0.8-0.2-1.6,0.2-1.8,1.1L15,128.9z"/>
<path class="st4" d="M157,97.9c4.8,4.4,9.2,9.4,13.1,14.8c0.7,0.9,2.5,1.1,2.7-0.4c0.7-4.3-0.4-8.7-3-12.1l-2.1,2.2
	c2.1,1.7,3.6,4,4.4,6.7c0.2,0.8,1.1,1.3,1.9,1.1c0.6-0.2,1.1-0.8,1.1-1.5l0.4-5.5l-2.8,0.8l2.4,5.2c0.4,0.8,1.4,1,2.1,0.5
	c0.3-0.2,0.6-0.5,0.7-0.9l1.4-9.2h-2.9c0.5,2.7,1.4,5.3,2.5,7.8c0.4,0.8,1.4,1,2.1,0.5c0.3-0.2,0.6-0.5,0.7-0.9c0.6-2.6,1-5.3,1.3-8
	h-3l0.2,8.4c0,1.4,2.2,2.3,2.8,0.8c1.2-2.9,2.2-5.9,2.9-9l-2.9-0.4c-0.2,4.3,0.1,8.6,0.8,12.8c0.2,1.4,2.1,1.5,2.7,0.4
	c1.3-2.5,2.3-5.2,2.8-7.9h-2.9c0.6,1.9,0.8,3.9,0.8,5.9c0,0.9,0.7,1.6,1.5,1.6c0.5,0,1-0.3,1.3-0.8c1.3-2.3,2-5,2.1-7.7h-3l0.4,5.6
	c0,0.9,0.7,1.6,1.6,1.6c0.4,0,0.7-0.2,1-0.4c1.6-1.5,2.5-3.8,2.5-6.1c0-0.9-0.7-1.6-1.5-1.6s-1.5,0.7-1.5,1.6v6.1c0,2.1,2.8,2,3,0
	c0.2-2.4,0.9-4.8,1.9-6.9l-2.8-0.8l0.2,9.1c0,0.9,0.7,1.6,1.5,1.6s1.5-0.7,1.5-1.6c0.3-2.6,0.8-5.1,1.5-7.5l-2.9-0.4l0.2,5
	c0,1.3,1.7,2.2,2.6,1.1c1.7-2.2,3.1-4.7,3.8-7.5l-2.9-0.4l0.2,5.6l3-0.4c-0.2-1-0.1-2.1,0.5-3l-2.8-0.8c0.1,2-0.3,4-1.1,5.8l2.8,0.8
	l-0.1-6.3c0-0.9-0.7-1.6-1.5-1.6s-1.5,0.7-1.5,1.6v8.2c0,0.9,0.7,1.6,1.5,1.6s1.5-0.7,1.5-1.6c0.1-3.4,0.9-6.7,2.2-9.8l-2.8-0.8
	c0.1,3.8-0.2,7.5-0.8,11.3l3,0.4c0-5,0.8-10,2.2-14.8l-2.9-0.4c0.2,6.3-0.8,12.5-3.1,18.3l3,0.4c0.4-7.2,1.8-14.4,4-21.3l-3-0.4
	c0.4,7.3-0.4,14.6-2.4,21.6l3,0.4c0.8-8,2.4-15.8,4.8-23.5l-2.9-0.4c0,7.6-1,15.2-3.1,22.5l2.9,0.4c-0.1-5.4,0.9-10.8,3-15.8l-3-0.4
	c0,6.5-1.3,13-3.7,19l2.9,0.4c0.4-8,1.8-15.8,4-23.5h-2.9c0.7,5.8,0.3,11.7-1.4,17.2l3,0.4c0.1-4.8,0.7-9.6,2-14.3l-2.9-0.8
	c-1.1,7-2.4,14-4,20.8c-0.5,2,2.4,2.8,2.9,0.8c1.6-6.9,2.9-13.8,4-20.8c0.3-2-2.4-2.8-2.9-0.8c-1.3,4.9-2,10-2.1,15.1
	c0,0.9,0.7,1.6,1.5,1.6c0.7,0,1.2-0.5,1.4-1.1c1.8-6.1,2.3-12.5,1.4-18.8c-0.2-1.6-2.5-1.4-2.9,0c-2.3,7.9-3.7,16-4.1,24.2
	c-0.1,1.9,2.4,1.9,3,0.4c2.5-6.3,3.8-13,3.8-19.8c0-1.9-2.3-2-3-0.4c-2.1,5.3-3.1,10.9-3,16.7c0,0.9,0.7,1.6,1.6,1.5
	c0.6,0,1.2-0.5,1.4-1.1c2.1-7.6,3.2-15.4,3.2-23.4c0-0.9-0.7-1.6-1.6-1.5c-0.6,0-1.2,0.5-1.4,1.1c-2.4,7.9-4,16.1-4.9,24.3
	c-0.2,1.8,2.5,2.1,3,0.4c2-7.3,2.9-14.8,2.5-22.4c0-0.9-0.7-1.6-1.6-1.5c-0.6,0-1.2,0.5-1.4,1.1c-2.3,7.1-3.6,14.6-4,22.1
	c-0.1,1.9,2.4,2,3,0.4c2.3-6.1,3.4-12.6,3.2-19.1c0-0.9-0.7-1.6-1.6-1.5c-0.6,0-1.2,0.5-1.4,1.1c-1.5,5-2.3,10.3-2.3,15.6
	c0,1.7,2.6,2.2,3,0.4c0.7-4,1-8,0.9-12.1c0-1.5-2.1-2.3-2.8-0.8c-1.6,3.6-2.5,7.5-2.6,11.4h3v-8.2h-3l0.1,6.3c0,1.5,2.1,2.3,2.8,0.8
	c1.1-2.3,1.6-4.8,1.5-7.4c0-0.9-0.7-1.6-1.6-1.5c-0.5,0-1,0.3-1.2,0.7c-0.9,1.6-1.2,3.6-0.8,5.4c0.2,0.8,1.1,1.3,1.9,1.1
	c0.6-0.2,1.1-0.8,1.1-1.5l-0.2-5.6c0-0.9-0.7-1.6-1.6-1.5c-0.6,0-1.2,0.5-1.4,1.1c-0.6,2.2-1.7,4.3-3.1,6.1l2.6,1.1l-0.2-5
	c0-0.9-0.7-1.6-1.6-1.5c-0.6,0-1.2,0.5-1.4,1.1c-0.8,2.7-1.3,5.6-1.6,8.4h3l-0.2-9.1c0-1.5-2.1-2.3-2.8-0.8
	c-1.3,2.7-2.1,5.5-2.3,8.5h3v-6.1h-3c0,1.5-0.6,2.9-1.6,3.8l2.6,1.1l-0.4-5.6c0-0.9-0.7-1.6-1.5-1.6s-1.5,0.7-1.5,1.6
	c-0.1,2.2-0.8,4.2-1.9,6.1l2.8,0.8c0-2.3-0.3-4.6-0.9-6.7c-0.4-1.4-2.6-1.6-2.9,0c-0.4,2.5-1.2,5-2.5,7.2l2.7,0.4
	c-0.6-3.9-0.8-7.9-0.7-11.9c0-0.9-0.7-1.6-1.6-1.5c-0.6,0-1.2,0.5-1.4,1.1c-0.7,2.8-1.5,5.6-2.6,8.3l2.8,0.8l-0.2-8.4
	c0-0.9-0.7-1.6-1.5-1.6s-1.5,0.7-1.5,1.6c-0.3,2.4-0.7,4.8-1.2,7.2l2.7-0.4c-1-2.2-1.8-4.6-2.2-7c-0.3-1.5-2.7-1.5-2.9,0l-1.4,9.2
	l2.7-0.4l-2.4-5.2c-0.7-1.5-2.7-0.6-2.8,0.8l-0.4,5.5l3-0.4c-1-3.2-2.8-6-5.2-8.1c-0.6-0.6-1.6-0.6-2.1,0.1c-0.5,0.6-0.5,1.5,0,2.2
	c1.9,2.6,2.7,5.8,2.2,9l2.7-0.4c-4-5.6-8.6-10.8-13.6-15.4C157.6,94.4,155.5,96.6,157,97.9L157,97.9z"/>
<path class="st4" d="M166.7,99c-1.9,3.1-1.1,7.2,1.9,9.1c0.1,0.1,0.3,0.2,0.5,0.3c0.7,0.4,1.6,0.2,2.1-0.6c0.4-0.8,0.2-1.7-0.5-2.2
	c-0.2-0.1-0.3-0.2-0.5-0.3l-0.2-0.1c-0.2-0.1,0,0,0.1,0.1c-0.1-0.1-0.2-0.2-0.4-0.4c-0.1-0.1-0.2-0.2-0.3-0.3c0.3,0.2,0.1,0.2,0,0
	c0-0.1-0.1-0.1-0.1-0.2c-0.1-0.1-0.1-0.3-0.2-0.4c0-0.1-0.1-0.2-0.1-0.2c0.2,0.4,0.1,0.2,0,0s-0.1-0.3-0.1-0.5
	c0-0.2-0.1-0.3-0.1-0.5c0-0.3,0,0.3,0,0.1c0-0.1,0-0.2,0-0.3c0-0.2,0-0.3,0-0.5c0-0.1,0-0.2,0-0.3c0-0.3-0.1,0.3,0,0.1
	s0.1-0.6,0.2-0.9s-0.1,0.3,0,0.1l0.1-0.2c0.1-0.2,0.2-0.3,0.3-0.5c0.4-0.8,0.2-1.7-0.5-2.2C168.1,98,167.2,98.2,166.7,99L166.7,99z"
	/>
<path class="st4" d="M172.6,110.5c7.2-1.7,14.6-1.9,21.9-0.7v-3.1c-5.6,1.5-11.4,2-17.2,1.5v3.2l21.5,0.4v-3.2l-24.3,1.1
	c-1.6,0.1-2.1,2.8-0.4,3.2l15.5,2.9l3.9,0.7c1.2,0.3,2.4,0.5,3.6,0.5c1-0.2,1.8-0.7,2.3-1.6c0.3-0.4,0.5-0.8,0.8-1.2
	c0.1-0.2,0.2-0.3,0.3-0.4c0.3-0.1,0.3-0.2,0-0.2l1.1-2.7h-4.8c-0.8,0-1.5,0.7-1.5,1.6c0,0.9,0.7,1.6,1.5,1.6h4.8
	c0.8,0,1.5-0.8,1.5-1.6c0-0.4-0.2-0.8-0.4-1.1c-1.5-1.6-3.7-0.7-4.8,0.9c-0.2,0.4-0.5,0.8-0.7,1.2c-0.5,0.5-0.9,0.3-1.5,0.1
	l-4.1-0.8l-16.5-3.1l-0.4,3.1l24.3-1.1c0.8,0,1.5-0.7,1.5-1.6c0-0.9-0.7-1.6-1.5-1.6l-21.5-0.4c-2,0-1.9,3,0,3.2
	c6,0.5,12.1,0,18-1.6c1.4-0.4,1.5-2.8,0-3.1c-7.8-1.4-15.7-1.2-23.4,0.7C170,108,170.8,111,172.6,110.5L172.6,110.5z"/>
<path class="st4" d="M191.4,114h6.1c0.8,0,1.5-0.7,1.5-1.6c0-0.9-0.7-1.6-1.5-1.6h-6.1c-0.8,0-1.5,0.7-1.5,1.6
	C189.9,113.3,190.6,114,191.4,114z"/>
<path class="st4" d="M197.5,114.6l2.3,1.6c0.2,0.1,0.4,0.2,0.6,0.2c0.2,0.1,0.4,0.1,0.6,0c0.8-0.2,1.3-1.1,1-1.9l-0.1-0.4
	c-0.1-0.2-0.3-0.4-0.5-0.6l-2.3-1.6c-0.2-0.1-0.4-0.2-0.6-0.2c-0.2-0.1-0.4-0.1-0.6,0c-0.4,0.1-0.7,0.4-0.9,0.7
	c-0.2,0.4-0.3,0.8-0.1,1.2l0.1,0.4C197.1,114.3,197.3,114.5,197.5,114.6z"/>
<path class="st4" d="M189.1,115.6c1.8-0.2,3.5,0.1,5.2,0.8c0.9,0.4,1.7,0.9,2.4,1.5l0.1,0.1l0.3,0.3l0.5,0.5
	c0.2,0.2,0.3,0.4,0.5,0.6l0.3,0.3c0,0,0.2,0.3,0.1,0.2c0.4,0.7,1.3,1,2,0.6c0.7-0.4,1-1.4,0.5-2.2c-2.8-3.9-7.3-6.1-12-5.7
	c-0.8,0-1.5,0.7-1.5,1.6C187.6,114.8,188.3,115.6,189.1,115.6L189.1,115.6z"/>
<path class="st4" d="M186.8,113.1c5.1,0.3,10.1,2.2,14.1,5.5c0.6,0.6,1.5,0.6,2.1,0c0.6-0.6,0.6-1.6,0-2.2
	c-4.7-3.9-10.3-6.1-16.2-6.4C184.9,109.8,184.9,113,186.8,113.1z"/>
<path class="st4" d="M173.8,112.4h7.7c0.8,0,1.5-0.7,1.5-1.6c0-0.9-0.7-1.6-1.5-1.6h-7.7c-0.8,0-1.5,0.7-1.5,1.6
	C172.3,111.7,172.9,112.4,173.8,112.4z"/>
<path class="st4" d="M192.7,114.5c0.4,1.9,1.4,3.6,2.7,4.9c0.7,0.7,1.5,1.4,2.3,2c0.7,0.7,1.6,1.2,2.5,1.5c1.1,0.3,2.2-0.1,2.9-0.9
	c0.6-0.8,1.1-1.8,1.4-2.8l2.6-6.9h-2.9c1,5,0.3,10.2-1.8,14.8l2.7,0.4c-0.8-2.5-1.1-5.1-1-7.8l-2.8,0.8c0.8,1.8,1.1,3.9,0.9,5.9
	c-0.2,0.8,0.2,1.7,1,2c0.8,0.2,1.6-0.3,1.9-1.1c0.4-2.8,0-5.8-1.2-8.3c-0.7-1.5-2.8-0.7-2.8,0.8c-0.1,2.9,0.3,5.9,1.1,8.7
	c0.2,0.8,1.1,1.3,1.9,1.1c0.4-0.1,0.7-0.4,0.9-0.7c2.5-5.3,3.3-11.4,2.1-17.2c-0.2-0.7-0.8-1.2-1.5-1.2c-0.7,0-1.2,0.5-1.4,1.2
	l-2,5.3c-0.3,0.8-0.6,1.6-0.9,2.4c-0.1,0.3-0.2,0.6-0.5,0.8c0.2-0.1,0-0.1-0.2-0.2c-1.2-0.7-2.3-1.6-3.2-2.7c-1-0.9-1.6-2.1-1.9-3.4
	c-0.2-0.9-1-1.4-1.8-1.2c-0.8,0.2-1.3,1-1.1,1.9C192.7,114.4,192.7,114.5,192.7,114.5L192.7,114.5z"/>
<path class="st4" d="M206.6,97.3c1.9,6.8,2.3,13.9,1.3,20.8l3,0.4l-0.6-8.9c0-0.9-0.7-1.6-1.5-1.6s-1.5,0.7-1.5,1.6
	c-0.1,6.1-1.2,12.2-3.1,17.9c-0.6,1.7,1.9,2.8,2.7,1.2c6-11,6.9-24.7,5.8-37.2c-0.2-3.4-1-6.6-2.2-9.8c-1.3-3.1-2.8-6.1-4.5-9
	c-3.1-5.8-6.6-11.4-10.6-16.7c-4.3-5.6-9.1-10.8-14.4-15.3c-1.5-1.3-3.6,0.9-2.1,2.2c9.1,8,16.9,17.6,22.8,28.4
	c3.1,5.6,6.6,11.2,7.7,17.7c0.8,6.2,0.9,12.4,0.3,18.6c-0.4,6.8-2.3,13.4-5.4,19.4l2.7,1.2c2-6,3-12.4,3.2-18.8h-3l0.6,8.9
	c0.1,1.7,2.7,2.3,3,0.4c1.2-7.5,0.8-15.2-1.2-22.5C209,94.5,206.1,95.4,206.6,97.3L206.6,97.3z"/>
<path class="st4" d="M198,89.3l4.2,13.6c0.2,0.8,1.1,1.3,1.9,1.1c0.3-0.1,0.6-0.4,0.8-0.7c2.6-4.4,4.2-9.4,4.5-14.5h-3l1,15.9
	c0,0.9,0.7,1.6,1.5,1.6s1.5-0.7,1.5-1.6l0.1-10.3c0-2.1-2.8-2-3,0l-1.9,18.5c-0.2,1.8,2.5,2.1,3,0.4l2.4-8.8l-3-0.4l0.2,13.2
	c0,0.9,0.7,1.6,1.5,1.6s1.5-0.7,1.5-1.6l-0.2-13.2c0-0.9-0.7-1.6-1.5-1.6c-0.7,0-1.2,0.5-1.4,1.1l-2.4,8.8l3,0.4l1.8-18.5h-3
	l-0.1,10.3h3l-1-15.9c0-0.9-0.7-1.6-1.5-1.6s-1.5,0.7-1.5,1.6c-0.3,4.6-1.8,9-4.1,12.9l2.7,0.4l-4.2-13.6
	C200.3,86.6,197.4,87.5,198,89.3L198,89.3z"/>
<path class="st6" d="M150.6,92.6c8.6,7,15,16.4,18.6,27.2c0.4,1.3,2.6,1.7,2.9,0l1.5-9.5c0.3-2-2.6-2.8-2.9-0.8l-1.5,9.5h2.9
	c-3.7-11.3-10.4-21.2-19.3-28.6C151.2,89.2,149.1,91.4,150.6,92.6L150.6,92.6z"/>
<path class="st6" d="M177.3,108.9l-3,4c-0.3,0.3-0.4,0.7-0.4,1.1c0,0.4,0.2,0.8,0.4,1.1c0.3,0.3,0.7,0.5,1.1,0.5
	c0.4,0,0.8-0.2,1.1-0.5l3-4c0.3-0.3,0.4-0.7,0.4-1.1c0-0.9-0.7-1.6-1.5-1.6c0,0,0,0,0,0C178,108.4,177.6,108.6,177.3,108.9
	L177.3,108.9z"/>
<path class="st6" d="M174.6,111.2c0,0.3-0.1,0.6-0.2,0.8c0,0.1-0.1,0.3-0.1,0.4c0,0.1-0.1,0.1-0.1,0.2c-0.1,0.2,0,0,0-0.1
	c-0.2,0.5-0.5,1-0.8,1.5c-0.1,0.1-0.4,0.5-0.1,0.1l-0.3,0.3c-0.2,0.2-0.3,0.4-0.5,0.6l-0.3,0.3l-0.1,0.1c-0.2,0.2,0.2-0.2,0.1-0.1
	c-0.1,0.1-0.5,0.3-0.7,0.5c-0.7,0.4-1,1.4-0.6,2.1c0.4,0.8,1.3,1.1,2,0.6c0,0,0.1,0,0.1-0.1c2.3-1.4,3.9-3.8,4.5-6.6
	c0.2-0.8-0.2-1.7-1-2C175.6,109.9,174.8,110.3,174.6,111.2L174.6,111.2z"/>
<path class="st6" d="M173,114.8c0.8,0,1.5-0.7,1.5-1.6c0-0.9-0.7-1.6-1.5-1.6s-1.5,0.7-1.5,1.6C171.5,114.1,172.2,114.8,173,114.8z"
	/>
<path class="st6" d="M174.8,111.7l-2.3,3.2c-0.2,0.4-0.3,0.8-0.1,1.2c0.1,0.4,0.4,0.7,0.7,0.9c0.3,0.2,0.8,0.3,1.1,0.2l0.4-0.2
	c0.2-0.1,0.4-0.3,0.5-0.6l2.3-3.2c0.2-0.4,0.3-0.8,0.1-1.2c-0.1-0.4-0.3-0.7-0.7-0.9c-0.4-0.2-0.8-0.3-1.2-0.2l-0.4,0.2
	C175.2,111.2,175,111.4,174.8,111.7L174.8,111.7z"/>
<path class="st6" d="M180.2,113.3c6.1,2.3,11.8,5.8,16.8,10.2c0.6,0.6,1.5,0.6,2.1,0c0.6-0.6,0.6-1.6,0-2.2
	c-5.4-4.8-11.5-8.5-18.2-11C179.2,109.5,178.4,112.6,180.2,113.3L180.2,113.3z"/>
<path class="st6" d="M198.8,123.2l1.5,1.6c0.1,0.2,0.3,0.3,0.5,0.3c0.2,0.1,0.4,0.1,0.6,0.1c0.4,0,0.8-0.2,1.1-0.5
	c0.3-0.3,0.4-0.7,0.4-1.1l-0.1-0.4c-0.1-0.3-0.2-0.5-0.4-0.7l-1.5-1.6c-0.1-0.2-0.3-0.3-0.5-0.3c-0.2-0.1-0.4-0.2-0.6-0.1
	c-0.2,0-0.4,0-0.6,0.1c-0.2,0.1-0.4,0.2-0.5,0.3c-0.3,0.3-0.4,0.7-0.4,1.1l0.1,0.4C198.4,122.8,198.6,123,198.8,123.2L198.8,123.2z"
	/>
<path class="st6" d="M199.5,124.8l1.5,1.6c0.1,0.2,0.3,0.3,0.5,0.3c0.2,0.1,0.4,0.1,0.6,0.1c0.2,0,0.4,0,0.6-0.1
	c0.2-0.1,0.4-0.2,0.5-0.3c0.3-0.3,0.4-0.7,0.4-1.1l0-0.4c-0.1-0.3-0.2-0.5-0.4-0.7l-1.5-1.6c-0.1-0.2-0.3-0.3-0.5-0.3
	c-0.4-0.2-0.8-0.2-1.2,0c-0.2,0.1-0.3,0.2-0.5,0.3c-0.3,0.3-0.4,0.7-0.4,1.1l0,0.4C199.2,124.4,199.3,124.6,199.5,124.8L199.5,124.8
	z"/>
<path class="st6" d="M190.5,112.7c4.8,8.1,7.4,17.4,7.4,27c0,1.5,2.2,2.3,2.8,0.8c2.9-6.6,5-13.6,6.5-20.8l-2.9-0.4
	c-0.2,3.3-1.3,6.5-3.2,9.1l2.8,0.8l-0.2-4.1h-3c0.3,2.2,0,4.5-0.8,6.6l3,0.4c0.2-2.8,0.1-5.7-0.4-8.4c-0.3-1.5-2.7-1.5-2.9,0l-1,7.6
	c-0.2,1.6,1.9,3,2.7,1.2c5.5-11,8.2-23.3,7.9-35.8l-3,0.4c1.3,9-0.5,18.2-5.2,25.9c-1,1.7,1.6,3.3,2.6,1.6c5-8.4,7-18.5,5.5-28.3
	c-0.3-1.8-3-1.3-2.9,0.4c0.3,11.9-2.3,23.6-7.5,34.2l2.7,1.2l1-7.6h-2.9c0.5,2.5,0.6,5.1,0.3,7.6c-0.2,1.9,2.4,2,2.9,0.4
	c0.8-2.4,1.1-4.9,0.9-7.4c-0.2-2-3.1-2.1-3,0l0.2,4.1c0,0.9,0.7,1.6,1.6,1.5c0.5,0,1-0.3,1.2-0.7c2.2-3.1,3.5-6.9,3.7-10.8
	c0-0.9-0.7-1.6-1.6-1.5c-0.6,0-1.2,0.5-1.4,1.1c-1.3,6.9-3.4,13.6-6.2,20l2.8,0.8c0-10.1-2.7-20-7.8-28.6
	C192.1,109.3,189.5,110.9,190.5,112.7L190.5,112.7z"/>
<path class="st6" d="M179.5,107.1c5.4,4.3,10.2,9.5,14.2,15.3l2-2.2l-14.5-10.5c-1.4-1.1-3,1.2-1.8,2.5l19.7,21.9
	c1.3,1.5,3.5-0.8,2.1-2.2L181.5,110l-1.8,2.5l14.5,10.5c1.2,0.9,2.9-0.9,2.1-2.2c-4.3-6.3-9.4-11.8-15.3-16.4
	C179.5,103.2,178,105.9,179.5,107.1L179.5,107.1z"/>
<path class="st6" d="M191.6,124.5c0.9,1.4,2.3,2.5,3.9,3c0.5,0.2,1.1,0,1.5-0.4c1.3-1.6,1.7-3.9,1-5.9l-2.8,1.2l2.5,5.3
	c0.4,0.8,1.3,1,2,0.6c0.7-0.5,0.9-1.4,0.5-2.2l-2.5-5.3c-0.4-0.8-1.3-1-2.1-0.6c-0.6,0.4-0.9,1.1-0.7,1.8c0.1,0.2,0.1,0.3,0.2,0.5
	l0.1,0.2c0,0.1,0,0.4,0,0c0,0.2,0,0.3,0,0.5s0,0.2,0,0.2c0,0,0,0.1,0,0.1c0,0.1,0,0.1,0-0.2c0,0.2-0.1,0.3-0.1,0.5
	c0,0.1,0,0.2-0.1,0.3v0.1c-0.1,0.2,0,0.1,0-0.1c-0.1,0.1-0.2,0.3-0.2,0.4l-0.1,0.2c-0.2,0.2,0.2-0.3,0,0l1.5-0.4l-0.4-0.2
	c-0.2-0.1,0.3,0.1,0,0l-0.2-0.1c-0.3-0.1-0.5-0.3-0.8-0.5c-0.2-0.1,0.2,0.2,0.1,0.1l-0.2-0.2l-0.3-0.3c-0.1-0.1-0.2-0.2-0.3-0.3
	l-0.1-0.2c0.3,0.3,0.1,0.1,0,0c-0.4-0.7-1.3-1-2.1-0.6C191.4,122.8,191.2,123.8,191.6,124.5L191.6,124.5z"/>
<path class="st6" d="M206.8,116.5c0.3,6-1.5,11.9-5.2,16.5c-0.6,0.6-0.6,1.6,0,2.2c0.6,0.6,1.5,0.6,2.1,0c4.2-5.2,6.3-11.9,6-18.8
	C209.7,114.4,206.7,114.4,206.8,116.5L206.8,116.5z"/>
<path class="st6" d="M174.9,111.6c5.2,1.6,10,4.4,14,8.3c1.4,1.4,3.5-0.9,2.1-2.2c-4.4-4.2-9.6-7.3-15.3-9.1
	c-0.8-0.2-1.6,0.3-1.8,1.2C173.7,110.5,174.1,111.3,174.9,111.6L174.9,111.6z"/>
<path class="st6" d="M46.4,107l-14.2,20.7c-0.4,0.8-0.2,1.7,0.5,2.2c0.7,0.4,1.6,0.1,2-0.6L49,108.6c0.4-0.8,0.2-1.7-0.5-2.2
	C47.7,106,46.8,106.3,46.4,107L46.4,107z"/>
<path class="st6" d="M31.3,124.2c0.7,1.9-4.8,0.5-5.4,0.4l-8.8-1.7c-0.8-0.2-1.6,0.3-1.8,1.1c-0.2,0.8,0.2,1.7,1,1.9
	c3.8,0.7,7.5,1.4,11.3,2.1c1.6,0.3,3.5,0.6,5-0.4c1.4-0.9,2.1-2.7,1.6-4.3c-0.3-0.8-1.1-1.3-1.8-1.1
	C31.6,122.5,31.1,123.3,31.3,124.2L31.3,124.2z"/>
<path class="st6" d="M28.9,121.4l-14.4,10.7c-0.7,0.5-0.9,1.4-0.5,2.2c0.4,0.7,1.3,1,2,0.6l14.4-10.7c0.7-0.5,0.9-1.4,0.5-2.1
	C30.5,121.3,29.6,121.1,28.9,121.4L28.9,121.4z"/>
<path class="st6" d="M31.2,122.9l-16.4,15.7c-1.4,1.4,0.7,3.6,2.1,2.2l16.4-15.7C34.8,123.7,32.7,121.5,31.2,122.9z"/>
<path class="st6" d="M19.4,127.1l-4.2,8.8c-0.4,0.7-0.2,1.5,0.4,2c0.6,0.5,1.5,0.5,2-0.1c3.1-3.8,6.4-7.4,9.8-11
	c1.4-1.4-0.7-3.7-2.1-2.2c-3.4,3.5-6.7,7.2-9.8,11l2.4,1.9l4.2-8.8c0.4-0.7,0.2-1.7-0.5-2.2C20.9,126,20,126.2,19.4,127.1
	C19.5,127,19.5,127,19.4,127.1L19.4,127.1z"/>
<path class="st4" d="M14.5,144.5c0.8-1.6,1.7-3.1,2.7-4.5l0.2-0.2l0,0l0.4-0.5c0.3-0.3,0.5-0.7,0.8-1c0.6-0.7,1.2-1.3,1.8-2
	c0.6-0.6,0.6-1.6,0-2.2c-0.6-0.6-1.5-0.6-2.1,0c-2.5,2.6-4.6,5.6-6.3,8.9c-0.4,0.7-0.2,1.7,0.5,2.2c0.7,0.5,1.6,0.2,2.1-0.5
	C14.5,144.5,14.5,144.5,14.5,144.5L14.5,144.5z"/>
<path class="st4" d="M5.1,127.1c-1.2-6.1-1.7-12.2-1.7-18.4c0-0.9-0.7-1.6-1.5-1.6s-1.5,0.7-1.5,1.6c0,6.4,0.6,12.9,1.8,19.2
	C2.6,129.9,5.5,129,5.1,127.1L5.1,127.1z"/>
<path class="st4" d="M210.1,101.8c7.5-15.5-2.3-29.8-10-42.6c-7.9-13.2-17.6-26.6-33.8-26.9c-7.7-0.1-7.7,12.5,0,12.7
	c11.4,0.2,18,11.6,23.4,20.6c4.7,7.9,14.8,20,10,29.8C196.2,102.6,206.6,109,210.1,101.8L210.1,101.8z"/>
<path class="st4" d="M151.1,23.3c16.4,9.1,27.3,24.9,36.7,41.3c4,7,14.4,0.6,10.4-6.3c-10.4-18.1-22.8-35.7-41-45.8
	C150.3,8.6,144.2,19.6,151.1,23.3L151.1,23.3z"/>
<path class="st4" d="M127.7,78c0,3.4-11.8,5.7-14.2,6.3c-6.2,1.6-12.6,2.8-19,3.4c-13.1,1.4-26.3,1.2-39.4,1.1
	c-7.7-0.1-7.7,12.5,0,12.7c16.7,0.2,33.5,0.3,50.1-2.5c11.2-1.8,34.5-4.9,34.6-21C139.8,69.9,127.8,69.9,127.7,78L127.7,78z"/>
<path class="st4" d="M171,113.9c7.7,0,7.7-12.7,0-12.7S163.2,113.9,171,113.9z"/>
<path class="st4" d="M177,111.9c0,0.2,0,0.5,0,0.7c0,0.1,0,0.1,0,0.2c0-0.2,0-0.2,0-0.1l-0.1,0.3c-0.1,0.5-0.2,0.9-0.4,1.4
	c0,0.1-0.1,0.3-0.1,0.4c0.1-0.2,0-0.1,0,0s-0.2,0.4-0.3,0.7c-0.2,0.4-0.5,0.8-0.7,1.2c-0.2,0.2,0.1-0.1,0,0l-0.2,0.3
	c-0.2,0.2-0.3,0.4-0.5,0.6l-0.5,0.5l-0.3,0.3c-0.2,0.2,0.2-0.1-0.1,0.1c-0.4,0.3-0.7,0.5-1.1,0.7l-0.3,0.1l-0.1,0.1
	c-0.2,0.1-0.5,0.2-0.7,0.3c-0.8,0.2-1.3,1.1-1.1,1.9c0.2,0.8,1,1.4,1.8,1.2c0,0,0.1,0,0.1,0c4.5-1.5,7.5-5.9,7.7-10.8
	c0-0.9-0.7-1.6-1.5-1.6s-1.5,0.7-1.5,1.6L177,111.9z"/>
<path class="st4" d="M171.9,119.4l-1,1.1c-0.1,0.1-0.3,0.3-0.3,0.5c-0.1,0.2-0.1,0.4-0.1,0.6c0,0.2,0,0.4,0.1,0.6
	c0.1,0.2,0.2,0.4,0.3,0.5l0.3,0.2c0.2,0.1,0.5,0.2,0.8,0.2l0.4-0.1c0.3-0.1,0.5-0.2,0.7-0.4l1-1.1c0.1-0.1,0.2-0.3,0.3-0.5
	c0.1-0.2,0.1-0.4,0.1-0.6c0-0.2,0-0.4-0.1-0.6c-0.1-0.2-0.2-0.4-0.3-0.5l-0.3-0.3c-0.2-0.1-0.5-0.2-0.8-0.2h-0.4
	C172.4,119,172.1,119.1,171.9,119.4L171.9,119.4z"/>
<path class="st4" d="M172,121c0.8,0,1.5-0.7,1.5-1.6c0-0.9-0.7-1.6-1.5-1.6s-1.5,0.7-1.5,1.6C170.5,120.3,171.2,121,172,121z"/>
<path class="st4" d="M169.2,117.8v4.8c0,0.4,0.3,0.8,0.8,0.8s0.8-0.4,0.8-0.8v-4.8c0-0.4-0.3-0.8-0.8-0.8
	C169.6,117,169.3,117.4,169.2,117.8z"/>
<path class="st4" d="M172.4,121.2l-1,1.6c-0.1,0.2-0.1,0.4-0.1,0.6c0.1,0.2,0.2,0.4,0.4,0.5c0.2,0.1,0.4,0.1,0.6,0.1
	c0.2-0.1,0.3-0.2,0.5-0.4l1-1.6c0.2-0.4,0.1-0.8-0.3-1.1c-0.2-0.1-0.4-0.1-0.6-0.1C172.6,120.9,172.5,121,172.4,121.2L172.4,121.2z"
	/>
<path class="st4" d="M172,121l-2,2.7c-0.1,0.2-0.2,0.4-0.2,0.6c0,0.2,0.1,0.4,0.2,0.6c0.3,0.3,0.8,0.3,1.1,0l2-2.7
	c0.1-0.2,0.2-0.4,0.2-0.6c0-0.2-0.1-0.4-0.2-0.6C172.8,120.7,172.3,120.7,172,121z"/>
<path class="st4" d="M171.4,121.3l-2.3,3.7c-0.3,0.5,0.2,1.4,0.9,1.2c5.1-2.1,9-6.5,10.7-12c0.3-1-1.2-1.4-1.4-0.4
	c-1.5,5-5,9-9.6,10.9l0.9,1.2l2.3-3.7C173.2,121.2,172,120.4,171.4,121.3L171.4,121.3z"/>
<path class="st4" d="M169.7,122.7v2.3l1.5-0.2c-0.4-1.1-0.6-2.2-0.7-3.4c0-1.1,0.2-2.1,0.7-3.1c0.5-0.9-0.8-1.7-1.3-0.8
	c-0.6,1.1-1,2.4-1,3.8c0.1,1.3,0.3,2.7,0.7,3.9c0.1,0.5,0.4,0.8,0.9,0.7c0.4-0.1,0.7-0.5,0.7-0.9v-2.3c0-0.4-0.3-0.8-0.8-0.8
	S169.7,122.2,169.7,122.7L169.7,122.7z"/>
<path class="st4" d="M169.2,122.1v1.6c0,0.2,0.1,0.4,0.2,0.6c0.3,0.3,0.8,0.3,1.1,0c0.1-0.1,0.2-0.3,0.2-0.6v-1.6
	c0-0.4-0.3-0.8-0.8-0.8C169.6,121.3,169.3,121.7,169.2,122.1z"/>
<path class="st7" d="M133.7,87.5c0,0,20-5.5,20,4.2"/>
<path class="st4" d="M19.6,124.2L19.6,124.2l-0.2-0.4l0,0l-0.1-0.4l0,0l0.1-0.4l0,0l0.2-0.4l0,0l0.2-0.3l0,0l0.3-0.2l0,0l0.4-0.2
	h-0.1h0.4h-0.1h0.4h-0.1l0.4,0.2l0,0l0.3,0.2l0,0l0.2,0.3l0,0l0.2,0.4l0,0v0.4c0,0,0-0.1,0-0.1l-0.1,0.4l0,0l-0.2,0.4
	c0,0,0-0.1,0-0.1l-0.2,0.3c0-0.1,0.1-0.1,0.1-0.1l-0.3,0.2c0.3-0.2,0.5-0.3,0.8-0.4l0.8-0.5l1.7-0.9c0.7-0.4,1-1.4,0.5-2.2
	c-0.4-0.7-1.3-0.9-2-0.6c-1,0.6-2.1,1.1-3.2,1.7c-0.5,0.3-0.8,0.7-1,1.3c-0.2,0.8,0.1,1.6,0.8,2c0.5,0.3,1.2,0.3,1.7,0
	c0.8-0.5,1-1.5,0.6-2.3c-0.2-0.4-0.5-0.6-0.9-0.8c-0.4-0.1-0.8-0.1-1.2,0.2C19.5,122.5,19.3,123.5,19.6,124.2L19.6,124.2z"/>
<path class="st4" d="M192.1,123.5l3.1,2.4c0.3,0.2,0.8,0.3,1.1,0.2c0.8-0.2,1.3-1.1,1.1-1.9c0,0,0,0,0,0l-0.1-0.4
	c-0.1-0.2-0.3-0.4-0.5-0.6l-3.1-2.4c-0.3-0.2-0.8-0.3-1.1-0.2c-0.4,0.1-0.7,0.4-0.9,0.7c-0.2,0.4-0.3,0.8-0.1,1.2l0.1,0.4
	C191.7,123.2,191.9,123.4,192.1,123.5L192.1,123.5z"/>
</svg>
