<?xml version="1.0" encoding="utf-8"?>
<!-- Generator: Adobe Illustrator 25.1.0, SVG Export Plug-In . SVG Version: 6.00 Build 0)  -->
<svg version="1.1" id="Layer_1" xmlns="http://www.w3.org/2000/svg" xmlns:xlink="http://www.w3.org/1999/xlink" x="0px" y="0px"
	 viewBox="0 0 200 462.9" style="enable-background:new 0 0 200 462.9;" xml:space="preserve">
<style type="text/css">
	.st0{fill:#FF9D00;}
	.st1{fill:none;stroke:#FFFF00;stroke-width:4;stroke-linejoin:round;}
	.st2{fill:#FFFFFF;}
	.st3{fill:#FFE6C8;}
	.st4{fill:none;stroke:#444444;stroke-miterlimit:10;}
	.st5{fill:#42210B;}
	.st6{stroke:#000000;stroke-miterlimit:10;}
</style>
<g id="服">
	<path class="st0" d="M59.2,112.5h81.6c4.4,0,8,3.8,8,8.5v333.3c0,4.7-3.6,8.5-8,8.5H59.2c-4.4,0-8-3.8-8-8.5V121
		C51.2,116.3,54.8,112.5,59.2,112.5z"/>
	<polygon class="st1" points="51.2,196.4 99.9,260.9 148.8,196.4 	"/>
	<rect x="81.2" y="260.9" class="st2" width="37.5" height="25.6"/>
</g>
<g id="顔">
	<ellipse class="st3" cx="100" cy="104.9" rx="100" ry="104.9"/>
</g>
<g id="髪">
	<path d="M196.6,78.2C185.4,33.2,146.4,0,99.9,0S14.4,33.2,3.2,78.2H196.6z"/>
</g>
<path id="口" class="st4" d="M78.5,169.7c16.3,8.8,32.7,8.8,49,0"/>
<path id="前髪" d="M6.3,94C6.5,89.4,7.8,85,10,81c1.9,7.2,5.6,13.8,10.6,19c2.7-8,5.2-16.1,7.5-24.3c1.4,10.3,6.5,19.7,14.3,26
	c1.9-6.3,3.9-12.7,4.2-19.3c5.1,9.9,12.1,18.6,20.5,25.5c1.7-9.3,4.5-18.4,8.3-27c3.3,10.7,9.9,19.9,18.8,26
	c0.9-9.1,1-18.3,0.4-27.4c3.9,14,16.7,22.8,28.5,30.3c0.2-10.4,0-20.7-0.5-31.1c3.2,8.5,9.1,15.6,16.7,20l2.1-14.3
	c5,6.4,11,11.8,17.8,15.8c1.7-5.9,3.2-11.8,4.4-17.8c3.8,4.8,8.3,8.9,13.4,12.2l0.2-15.4c3.9,7.7,9.4,14.4,16.1,19.5
	c-0.8-6.7-1.2-13.5-1.3-20.2c1.2,4.2,3.3,8,6.2,11.1c0.2-10-4.1-19.5-11.5-25.6c-6.6-5.4-15-7.5-23.1-9.3c-22.6-5-45.6-8.2-68.6-9.7
	c0.2-0.6,1.1,0,0.9,0.6s-0.9,0.7-1.4,0.7c-15,1.6-30.4-0.3-44.8,4.7c-4.2,1.6-8.4,3.4-12.4,5.6c-9.9,5-20.3,9.8-29.4,16.3
	C0.9,77.9,1.7,86.9,6.3,94z"/>
<g id="めがね">
	<line class="st4" x1="87.2" y1="112.8" x2="112.5" y2="112.8"/>
	<path class="st4" d="M35.8,101.6h42.5c5.1,0,9.3,4.4,9.3,9.9v24.5c0,5.4-4.1,9.9-9.3,9.9H35.8c-5.1,0-9.3-4.4-9.3-9.9v-24.5
		C26.5,106,30.6,101.6,35.8,101.6z"/>
	<path class="st4" d="M121.8,101.6h42.5c5.1,0,9.3,4.4,9.3,9.9v24.5c0,5.4-4.1,9.9-9.3,9.9h-42.5c-5.1,0-9.3-4.4-9.3-9.9v-24.5
		C112.5,106,116.6,101.6,121.8,101.6z"/>
</g>
<ellipse id="ほくろ" class="st5" cx="31" cy="142.6" rx="1.5" ry="1.6"/>
<ellipse id="ほくろ-2" class="st5" cx="69.8" cy="183.2" rx="1.5" ry="1.6"/>
<ellipse id="目" class="st6" cx="57" cy="119.2" rx="5" ry="5.3"/>
<ellipse id="目-2" class="st6" cx="144" cy="119.2" rx="5" ry="5.3"/>
</svg>
