<?xml version="1.0" encoding="utf-8"?>
<!-- Generator: Adobe Illustrator 25.1.0, SVG Export Plug-In . SVG Version: 6.00 Build 0)  -->
<svg version="1.1" id="Layer_1" xmlns="http://www.w3.org/2000/svg" xmlns:xlink="http://www.w3.org/1999/xlink" x="0px" y="0px"
	 viewBox="0 0 207.4 462.9" style="enable-background:new 0 0 207.4 462.9;" xml:space="preserve">
<style type="text/css">
	.st0{fill:#05B1FF;}
	.st1{fill:none;stroke:#FFFF00;stroke-width:4;stroke-linejoin:round;}
	.st2{fill:#FFFFFF;}
	.st3{fill:#FFE6C8;}
	.st4{fill:#282B30;}
	.st5{fill:none;stroke:#000000;stroke-width:2;stroke-linecap:round;stroke-miterlimit:10;}
	.st6{fill:#351C00;}
</style>
<path class="st0" d="M64,125.5h81.6c4.4,0,8,3.7,8,8.2v321c0,4.5-3.6,8.2-8,8.2H64c-4.4,0-8-3.7-8-8.2v-321
	C56,129.2,59.6,125.5,64,125.5z"/>
<polygon class="st1" points="56,206.2 104.7,268.4 153.5,206.2 "/>
<rect x="86" y="268.3" class="st2" width="37.5" height="24.6"/>
<ellipse class="st3" cx="105.2" cy="118.8" rx="100" ry="101"/>
<path class="st4" d="M56.8,96.8c-2.4,10.6,0.5,24.7-8.6,31.2c3-3.9,1.1-13.5-0.1-13.4l-8.7,34.6c-8.7-14.8-24.5-4.7-26.4,10.1
	c-9.4-10.7-11.3-23.8-12.8-38.8C-0.3,110,0,99.4,1.2,88.9c2-23.1,10-40.5,25.6-58.3l74.4-7.9l59.8,12.9l33.8,29.7
	c10.4,16,11.4,30.3,12.5,42.5c-0.1,10.4-0.1,28.8-3.9,37.6l-6.8,12.9c-2.9-12.9-16.4-23.7-27-7.9l-9.6-37.6c-1.9-1.8-3-4.7-3.9-7.9
	l-1-20.8c-21-30.7-45-28.2-70.4-9.9l-1,11.9c-9,7.4-17.2,19.8-25.1,33.6C56.9,114.1,56.5,106.1,56.8,96.8z"/>
<path class="st4" d="M26.9,30.6L23,43.4l172.8,23.8c-6.6-11.7-21.3-58.4-64.7-53.5c-11.9-8.4-46.9-21-72.9-8.4
	C41.2,14,36.2,20.7,26.9,30.6z"/>
<path class="st5" d="M123.2,194.5l-2.4,0.7c-10.9-0.9-21.8-0.9-32.6,0l-1.9-0.7"/>
<ellipse class="st6" cx="147.8" cy="160.6" rx="0.5" ry="0.5"/>
<ellipse class="st6" cx="68.8" cy="155.5" rx="0.5" ry="0.5"/>
<path class="st4" d="M90.4,132.4c-0.1-2-1.6-4.3-2.4-4.4c0-0.9-19.8-8.1-33,0c11.1,0.5,24.4-0.8,32.8,5.2
	C88.5,133.5,90.4,133.4,90.4,132.4z"/>
<path class="st4" d="M83.7,142.6c0,0-8.6-5.4-17.2-1.3c-8.6,4.1-0.2,13.2-0.2,13.2l16.4-1.4C86,149.7,87,146.2,83.7,142.6z"/>
<path class="st4" d="M119.1,132.4c0.1-2,1.6-4.3,2.4-4.4c0-0.9,19.8-8.1,33,0c-11.1,0.5-24.4-0.8-32.8,5.2
	C121,133.5,119.1,133.4,119.1,132.4z"/>
<path class="st4" d="M125.8,142.6c0,0,8.6-5.4,17.2-1.3c8.6,4.1,0.2,13.2,0.2,13.2l-16.4-1.4C123.5,149.7,122.5,146.2,125.8,142.6z"
	/>
<path class="st4" d="M76.2,80.2c4.6,17.5,11.7,33.4,22,47.1c1.2-27.7,7.1-47.8,15-64.6c8.8,1.7,16.5,4.7,20,12.3
	c7.5,40.5,20.1,50.3,35,47.1c-14.2,4.1-25-10.7-32-46.1c11.3,25.4,22.4,40.4,33,43l-12-50.2l-67-19.5L76.2,80.2z"/>
</svg>
