<?xml version="1.0" encoding="utf-8"?>
<!-- Generator: Adobe Illustrator 25.1.0, SVG Export Plug-In . SVG Version: 6.00 Build 0)  -->
<svg version="1.1" id="Layer_1" xmlns="http://www.w3.org/2000/svg" xmlns:xlink="http://www.w3.org/1999/xlink" x="0px" y="0px"
	 viewBox="0 0 206.1 462.9" style="enable-background:new 0 0 206.1 462.9;" xml:space="preserve">
<style type="text/css">
	.st0{fill:#FF9D00;}
	.st1{fill:none;stroke:#FFFF00;stroke-width:4;stroke-linejoin:round;}
	.st2{fill:#FFFFFF;}
	.st3{fill:#FFE6C8;}
	.st4{fill:#333333;stroke:#323333;stroke-miterlimit:10;}
	.st5{stroke:#000000;stroke-miterlimit:10;}
	.st6{stroke:#323333;stroke-miterlimit:10;}
	.st7{fill:none;stroke:#323333;stroke-miterlimit:10;}
	.st8{fill:#323333;}
</style>
<path class="st0" d="M60.5,114.7h81.6c4.4,0,8,3.8,8,8.5v331.3c0,4.7-3.6,8.5-8,8.5H60.5c-4.4,0-8-3.8-8-8.5V123.2
	C52.5,118.5,56.1,114.7,60.5,114.7z"/>
<polygon class="st1" points="52.5,198 101.2,262.2 150.1,198 "/>
<rect x="82.5" y="262.1" class="st2" width="37.5" height="25.4"/>
<ellipse class="st3" cx="101.8" cy="107.6" rx="100" ry="104.2"/>
<path d="M7.8,147.2c3,3.1,5.5,6.6,7.4,10.6l2.6-1.6c-1.9-3.2-3.4-6.6-4.5-10.1l-2.9,0.8l2.4,7.5l2.7-1.2l-3.2-6.2
	c-0.4-0.8-1.4-1-2.1-0.5c-0.6,0.4-0.8,1.1-0.7,1.7c0.9,3.1,2,6.1,3.1,9.1c0.7,1.8,3.4,1.2,2.9-0.8c-0.5-1.8-1.2-3.5-2.1-5.2
	c-0.7-1.3-3-0.8-2.8,0.8c0.4,3.2,1.6,6.1,3.7,8.5c0.6,0.6,1.6,0.6,2.1,0c0.4-0.4,0.5-1,0.4-1.5c-1-3.5-2.4-6.8-4.1-10
	c-0.7-1.3-3-0.8-2.8,0.8c0.3,2.9,1.1,5.7,2.3,8.3c0.6,1.4,3,0.8,2.8-0.8c-0.3-2.7-1.1-5.3-2.2-7.8l-2.6,1.6
	c3.8,7.1,6.6,14.7,8.2,22.7l2.9-0.8c-1-3.9-2.6-7.7-4.6-11.1c-0.4-0.7-1.4-1-2.1-0.5c-0.7,0.4-0.9,1.4-0.5,2.1l3.3,7
	c0.9,1.9,3.4,0.2,2.6-1.6c-1.7-4.1-3.2-8.3-4.4-12.5c-0.2-0.8-1.1-1.3-1.9-1c-0.8,0.2-1.2,1.1-1,1.9c0.9,3.8,2,7.5,3.3,11.1
	c0.5,1.4,2.5,1.6,2.9,0l0.3-1.4l-2.5,0.7c2.4,3.3,4,7.2,4.7,11.3l2.9-0.8c-2.2-9.1-4-18.4-5.2-27.7l-2.9,0.8
	c1.2,4.8,2.2,9.7,2.7,14.6l2.9-0.4c-1-4.6-1-9.4-0.2-14h-2.9c0.5,3.9,0.7,7.9,0.4,11.8l3-0.4c-0.5-3.6-0.6-7.3-0.3-10.9l-2.9,0.4
	c1.2,3.7,1.3,7.8,0.2,11.5l3,0.4l-0.6-10.7h-3l1,9.8c0.2,2,3.1,2.1,3,0c-0.2-2.9-0.5-5.7-0.9-8.6l-2.9,0.8
	c1.1,5.8,1.8,11.7,2.1,17.6l3-0.4c-1.3-5.8-2.3-11.6-3-17.5c-0.2-1.6-2.5-2.3-3-0.4l-1.5,6.2h2.9c-1.2-3.1-1.9-6.4-2-9.7l-3,0.4
	l1.4,5c0.2,0.8,1.1,1.3,1.9,1.1c0.5-0.2,0.9-0.6,1-1.1c1.2-5.1,2.9-10.1,5.1-14.9l-2.7-0.4c0.8,2.3,1.3,4.6,1.4,7
	c0.1,1.7,2.7,2.3,2.9,0.4l0.8-5.3l-2.9-0.4c0.2,3-0.1,6-0.9,8.9h2.9c-0.6-2.1-0.9-4.3-0.9-6.5c0-0.9-0.7-1.6-1.5-1.6
	s-1.5,0.7-1.5,1.6c-0.1,2.5-0.4,5-0.9,7.5l2.9,0.4c-0.2-4,0.1-7.9,0.8-11.9h-2.9c1,3.5,1.4,7.1,0.9,10.8h3l-0.2-8.6h-3
	c0.3,3.5,0.1,7-0.6,10.4l2.9,0.4c-1.3-13.8-1-27.8,0.9-41.5l-3-0.4c-0.3,6.7-1.1,13.3-2.5,19.8l2.9,0.8c1.2-8.4,2.6-16.7,4.4-25
	h-2.9c0.4,2.8,0.5,5.7,0.5,8.5c0,2.1,2.8,2,3,0l1.1-9.8h-3c-0.1,1.4-0.4,2.7-0.8,4l3,0.4c0.2-2.9,0.7-5.7,1.7-8.5l-2.9-0.8
	c-0.4,1.9-0.9,3.8-1.7,5.6c-0.7,1.5,1.2,3.4,2.4,1.9c4.1-5.1,8.7-9.7,13.7-13.8l-1.8-0.3l1,1.2l-0.4-1.5c-0.5,2.1-1.3,4-2.2,6
	c-0.4,0.8-2,4.7-3,4.4l1.1,1.1c-0.5-2.9,1.2-5.7,2.6-8.1c1.6-2.6,3.4-5,5.4-7.3l-2.5-1.5c-1.6,5.6-4.4,10.8-8,15.2l2.4,1.9
	c2.1-4,5.2-7.3,8.8-9.7l-2.2-1l1,3.4c0.2,0.8,1.1,1.3,1.9,1.1c0.5-0.2,0.9-0.6,1-1.1c1.1-3.1,2.4-6.1,3.7-9l-2.8-0.8
	c0.1,1.8,0.1,3.6-0.3,5.4c-0.2,0.8,0.3,1.7,1.1,2c0.8,0.2,1.6-0.3,1.8-1.1c0.8-2.9,1.8-5.7,3-8.5L50.1,87c0.3,1,0.3,2.2,0.1,3.2
	c-0.3,1.7,1.9,2.9,2.7,1.2c0.6-1.3,1.4-2.4,2.5-3.3l-2.2-1c0.3,0.9,0.3,1.8,0.2,2.7c-0.2,2,2.8,2,3,0c0.1-1.1,0.5-2.2,1.1-3.1
	l-2.6-1.6l-5.4,13.5l2.8,0.8l0.5-5.9c0.2-1.8-2.5-2.1-2.9-0.4c-0.9,3.4-1.9,6.8-3,10.1l2.9,0.4c0-2.9,0.2-5.8,0.5-8.7
	c0.2-2-2.5-2.9-2.9-0.8c-0.7,3.1-1.5,6.1-2.6,9h2.9l-1.2-5.1c-0.2-0.8-1.1-1.3-1.9-1.1c-0.1,0-0.2,0.1-0.3,0.2
	c-1.2,0.9-2.3,2-3.2,3.3c-0.4,0.7-0.9,1.3-1.5,1.8c-0.3,0.1-0.7,0.2-1,0.2c0.7-1.5-1.2-3.4-2.4-1.9l-6.7,8.1l2.5,0.7
	c-0.6-2.5-0.1-5.2,1.4-7.3l-2.8-0.8c-0.3,3.6-1.1,7.2-2.3,10.6l3,0.4c-0.4-3.4-0.4-6.8,0.1-10.2c0.2-0.9-0.3-1.7-1.1-1.9
	c-0.8-0.2-1.5,0.3-1.7,1.1l-5,12.7l2.7-0.4c-0.2-0.1-0.2-0.4-0.1-0.6l-2.7-0.4c0.5,3.4,0.6,6.9,0.2,10.3h3l0.6-5.3h-3
	c0.3,2.1,0.2,4.3-0.1,6.3l2.9,0.4l0.3-3.3h-3c-0.2,7.2-0.8,14.3-1.5,21.4c-0.2,1.8,2.5,2.1,2.9,0.4c2.8-10.2,5.4-20.4,6.6-31
	c0.2-1.8-2.7-2.2-3-0.4l-1.7,8.7h2.9l-1.5-5.2c-0.3-0.8-1.1-1.3-1.9-1.1c-0.5,0.2-0.8,0.6-1,1.1c-0.7,3.1-1.7,6.2-2.8,9.2l3,0.4
	c0-3,0.2-6,0.7-9l-2.9-0.4l-0.1,4.1c-0.1,0.9,0.5,1.7,1.3,1.8c0.8,0.1,1.6-0.5,1.7-1.4l1-4.3l-2.9-0.4l0.3,6
	c0.1,1.7,2.6,2.3,2.9,0.4l1.2-7l-2.9-0.4c0.2,2.4,0.1,4.7-0.3,7.1l3,0.4c0.1-2.7,0.3-5.4,0.8-8l-2.9-0.4c-0.1,5.2-0.4,10.4-0.9,15.6
	c-0.2,1.9,2.4,2,3,0.4l1.5-4.5l-2.9-0.4c0.1,1.8,0,3.6-0.3,5.4c-0.3,2,2.5,2.9,2.9,0.8c1-5.8,2.3-11.5,3.7-17.2l-3-0.4
	c0,4-0.1,8-0.5,11.9l3-0.4c-0.1-0.7-0.1-1.4,0.2-2.1l-2.9-0.8c-1.1,4.4-2.6,8.7-4.6,12.8l2.8,0.8c-0.6-4.5,1.9-8.7,3.4-12.7
	c1.6-4.2,2.9-8.5,4-12.9l-3-0.4l1.2,13.9l2.9-0.4l-2.3-12.6c-0.3-1.8-2.9-1.3-3,0.4c-0.2,4.5-0.2,8.9,0.1,13.4c0.1,2,3,2.1,3,0
	c0-3.7-0.2-7.4-0.6-11.1c-0.2-2-3.1-2.1-3,0l0.2,6.2l3-0.4c-0.7-2.5-1.4-5-2.3-7.5c-0.6-1.6-3-1.5-2.9,0.4v3.3
	c0,0.9,0.7,1.6,1.5,1.6s1.5-0.7,1.5-1.6v-3.9h-3c0.3,3.6,0.8,7.1,1.6,10.6c0.2,0.8,1.1,1.3,1.9,1.1c0.5-0.2,0.9-0.6,1-1.1l0.7-2.6
	l-2.7,0.4c1.2,1.8,2,3.9,2.1,6.1c0,0.9,0.7,1.6,1.6,1.6c0.4,0,0.7-0.2,1-0.4c0.8-0.9,1.2-2,1.3-3.2h-3l0.3,3.4
	c0,0.9,0.7,1.6,1.5,1.6c0.8,0,1.5-0.7,1.5-1.6l0.2-3.6h-3c-0.1,4.2,0.1,8.5,0.8,12.7c0.3,1.9,2.8,1.2,3-0.4
	c0.8-8.2,0.4-16.6-1.2-24.7c-0.3-1.7-3.1-1.4-3,0.4l1,9.9c0,0.9,0.7,1.6,1.5,1.6s1.5-0.7,1.5-1.6c0.4-4.9,0.5-9.8,0.4-14.8h-3
	l0.8,8.3c0.2,2,3.1,2.1,3,0l-0.3-7.1c-0.1-1.7-2.7-2.3-2.9-0.4c-0.2,1.2-0.5,2.4-0.9,3.6l2.7-0.4l-1.1-2.3c-0.5-0.8-1.4-1-2.1-0.5
	c-0.3,0.2-0.5,0.5-0.6,0.9l-0.4,1.2l2.9,0.4c0.2-1.3,0.6-2.5,1.3-3.6h-2.6l1.7,3.7c0.4,0.8,1.3,1,2.1,0.6c0.1-0.1,0.2-0.1,0.3-0.2
	c1.4-1.8,2.4-4,2.8-6.3h-2.9c0.3,1.7,0.3,3.4,0.2,5.1h3l-0.4-9.8c-0.1-1.7-2.6-2.3-2.9-0.4l-1.3,7.1l2.9,0.4c0-1.6,0.1-3.1,0.5-4.7
	l-2.9-0.4l0.5,6.7c-0.1,0.9,0.5,1.7,1.3,1.8c0.8,0.1,1.6-0.5,1.7-1.4l1.7-5.3l-3-0.4l0.9,8.9c0,0.9,0.7,1.6,1.5,1.6
	c0.7,0,1.2-0.5,1.4-1.1l2.4-6.6H45c0.3,1.2,0.4,2.5,0.4,3.7c0,2.1,2.8,2,3,0c0.2-1.4,0.5-2.9,1-4.2c0.5-1.7-2-2.9-2.7-1.2
	c-1.7,3.8-3,7.9-3.7,12l2.9,0.4l0.2-6.5h-3v10.4c0,1.7,2.7,2.2,2.9,0.4l0.8-5l-3-0.4c0.1,1.3,0.1,2.6-0.1,3.9
	c-0.2,1.8,2.7,2.2,2.9,0.4c0.3-1.9,0.7-3.8,1.3-5.7l-2.9-0.4c0,2.1-0.3,4.3-0.8,6.3h2.9c-0.4-1.9-0.6-3.8-0.6-5.8h-3
	c0,2.8,0.1,5.5,0.3,8.3c0.1,1.7,2.6,2.3,3,0.4l1.8-10.7l-2.9-0.4c0.1,1.1,0,2.1-0.4,3.1h2.9l-0.9-4.2c-0.4-1.7-2.4-1.3-2.9,0
	c-0.1,0.3-0.4,0.6-0.6,0.8l2,0.6c-0.9-1.5-2-3-3.1-4.4c-0.5-0.5-1.2-0.6-1.8-0.2c-1,0.6-1.9,1.5-2.5,2.5l2.1-0.6l0.2,0.5l-2.9-0.4
	c0.1,1.6,0.9,3,2.3,3.8c1.7,1,3.2-1.8,1.5-2.7c-0.4-0.2-0.7-0.6-0.8-1.1c-0.2-1.7-2.5-2.3-2.9-0.4c-0.3,1.2,0.2,2.5,1.2,3.1
	c0.7,0.4,1.6,0.1,2-0.6c0.4-0.6,0.9-1.1,1.4-1.4l-1.8-0.2c1,1.2,1.8,2.4,2.6,3.7c0.4,0.8,1.3,1,2.1,0.6c0.9-0.7,1.6-1.6,2-2.7h-2.9
	l0.9,4.2c0.4,1.7,2.4,1.3,2.9,0c0.5-1.3,0.7-2.6,0.5-3.9c-0.1-1.6-2.6-2.3-2.9-0.4l-1.9,10.8l2.9,0.4c-0.2-2.8-0.3-5.5-0.3-8.3
	c0-0.9-0.7-1.6-1.5-1.6s-1.5,0.7-1.5,1.6c0,2.2,0.2,4.5,0.7,6.6c0.2,0.8,1.1,1.3,1.9,1.1c0.5-0.2,0.9-0.6,1-1.1
	c0.6-2.4,0.9-4.8,0.9-7.2c0-0.9-0.7-1.6-1.5-1.6c-0.7,0-1.2,0.5-1.4,1.1c-0.5,1.9-1,3.8-1.3,5.7l2.9,0.4c0.1-1.3,0.2-2.6,0.1-3.9
	c-0.1-1.7-2.7-2.3-2.9-0.4l-0.8,5l2.9,0.4v-10.4c0-0.9-0.7-1.6-1.5-1.6s-1.5,0.7-1.5,1.6l-0.2,6.5c-0.1,1.8,2.6,2.2,2.9,0.4
	c0.7-3.9,1.8-7.7,3.4-11.3l-2.8-1.2c-0.5,1.6-0.9,3.3-1.1,5h3c0-1.5-0.1-3.1-0.5-4.6c-0.2-0.8-1.1-1.3-1.9-1.1
	c-0.5,0.2-0.9,0.6-1,1.1l-2.4,6.6l2.9,0.4l-0.9-8.9c0-0.9-0.7-1.6-1.6-1.5c-0.6,0-1.2,0.5-1.4,1.1l-1.7,5.3l2.9,0.4l-0.5-6.7
	c-0.1-1.7-2.5-2.3-2.9-0.4c-0.4,1.8-0.6,3.7-0.6,5.5c0,1.7,2.6,2.2,2.9,0.4l1.3-7.1L40,99.1l0.4,9.8c0,0.9,0.7,1.6,1.5,1.6
	s1.5-0.7,1.5-1.6c0.2-2,0.1-4-0.3-5.9c-0.2-0.8-1.1-1.3-1.9-1.1c-0.5,0.2-0.9,0.6-1,1.1c-0.3,1.8-1,3.5-2.1,5l2.4,0.3l-1.7-3.7
	c-0.4-0.8-1.4-1-2.1-0.5c-0.2,0.1-0.4,0.3-0.5,0.5c-1,1.6-1.5,3.3-1.7,5.2c-0.2,1.8,2.5,2,3,0.4l0.4-1.2l-2.7,0.4l1.2,2.3
	c0.4,0.8,1.4,1,2.1,0.5c0.3-0.2,0.5-0.5,0.6-0.9c0.4-1.2,0.8-2.4,0.9-3.6l-3-0.4l0.3,7.1h3l-0.8-8.3c-0.2-2-3.1-2.1-3,0
	c0.2,4.9,0,9.8-0.4,14.8h3l-1-9.9l-2.9,0.4c1.5,7.8,1.9,15.9,1.1,23.8l2.9-0.4c-0.6-3.9-0.8-7.9-0.7-11.8c0.1-2.1-2.9-2-3,0
	l-0.2,3.6h3l-0.3-3.4c0-0.9-0.7-1.6-1.5-1.6s-1.5,0.7-1.5,1.6c0,0.3-0.2,0.7-0.4,0.9l2.6,1.1c-0.1-2.8-1-5.4-2.5-7.7
	c-0.4-0.8-1.4-1-2.1-0.5c-0.3,0.2-0.5,0.5-0.6,0.9l-0.7,2.6h2.9c-0.7-3.2-1.1-6.5-1.4-9.8c-0.2-2-3-2.1-3,0v3.9h3v-3.3l-3,0.4
	c0.9,2.5,1.7,5,2.3,7.5c0.4,1.7,3,1.4,2.9-0.4l-0.2-6.2h-3c0.3,3.7,0.5,7.4,0.6,11.1h3c-0.3-4.4-0.3-8.9-0.1-13.4l-2.9,0.4l2.3,12.6
	c0.3,1.7,3.1,1.4,2.9-0.4L36.5,109c-0.1-1.7-2.5-2.3-2.9-0.4c-1.1,4.6-2.5,9-4.2,13.4c-1.6,4.2-3.9,8.5-3.3,13.1
	c0.2,1.4,2,2.4,2.8,0.8c2.1-4.3,3.8-8.8,4.9-13.5c0.2-0.9-0.3-1.7-1.1-1.9c-0.8-0.2-1.5,0.3-1.7,1.1c-0.4,1.2-0.4,2.5-0.2,3.8
	c0.3,1.9,2.8,1.2,3-0.4c0.4-4,0.5-7.9,0.5-11.9c0-0.9-0.7-1.6-1.5-1.6c-0.7,0-1.2,0.5-1.4,1.1c-1.4,5.7-2.6,11.4-3.7,17.2l2.9,0.8
	c0.4-2.1,0.5-4.2,0.4-6.2c0-0.9-0.7-1.6-1.6-1.5c-0.6,0-1.2,0.5-1.4,1.1l-1.5,4.5l2.9,0.4c0.5-5.2,0.8-10.4,0.9-15.6
	c0-1.7-2.6-2.2-2.9-0.4c-0.5,2.9-0.8,5.9-0.9,8.8c-0.1,1.8,2.6,2.2,2.9,0.4c0.5-2.6,0.6-5.3,0.4-7.9c-0.1-1.6-2.6-2.3-3-0.4l-1.2,7
	l3,0.4l-0.3-6c-0.1-1.7-2.5-2.2-2.9-0.4l-1,4.3l2.9,0.4l0.1-4.1c0-1.7-2.6-2.2-3-0.4c-0.6,3.2-0.9,6.5-0.8,9.8c0,1.9,2.3,2,2.9,0.4
	c1.2-3,2.1-6.1,2.8-9.2h-2.9l1.5,5.2c0.4,1.4,2.6,1.6,2.9,0l1.5-8.7l-3-0.4c-1.1,10.3-3.8,20.2-6.5,30.1l3,0.4
	c0.8-7.1,1.3-14.2,1.5-21.4c0.1-2.1-2.8-2-3,0l-0.3,3.3c-0.1,1.8,2.6,2.2,2.9,0.4c0.4-2.4,0.5-4.8,0.2-7.2c0-0.9-0.7-1.6-1.5-1.6
	s-1.5,0.7-1.5,1.6l-0.6,5.3c-0.2,2,2.8,2,3,0c0.4-3.7,0.3-7.4-0.3-11.1c-0.2-0.8-1.1-1.3-1.9-1.1c-0.4,0.1-0.7,0.4-0.9,0.7
	c-0.6,1.2-0.6,2.6,0.1,3.8c0.4,0.8,1.4,1,2.1,0.5c0.3-0.2,0.5-0.5,0.6-0.9l5-12.7l-2.9-0.8c-0.6,3.7-0.7,7.4-0.2,11.1
	c0,0.9,0.7,1.6,1.5,1.6c0.7,0,1.2-0.5,1.4-1.1c1.3-3.7,2.1-7.5,2.4-11.4c0.2-1.7-2-2-2.8-0.8c-1.8,2.9-2.4,6.4-1.7,9.8
	c0.2,0.8,1.1,1.3,1.9,1.1c0.2-0.1,0.5-0.2,0.6-0.4l6.7-8.1L36,101c-0.8,1.7-0.1,3.7,1.5,4.5c0.7,0.3,1.4,0.4,2.1,0.2
	c2.9-0.6,3.9-4.1,6.2-5.7l-2.2-1l1.2,5.1c0.4,1.6,2.4,1.4,2.9,0c1.1-2.9,1.9-6,2.6-9l-2.9-0.8c-0.4,3.2-0.6,6.3-0.6,9.5
	c0,0.9,0.7,1.6,1.6,1.5c0.6,0,1.2-0.5,1.4-1.1c1.2-3.3,2.2-6.7,3.1-10.1l-3-0.4l-0.5,5.9c-0.1,1.5,2.2,2.2,2.8,0.8l5.4-13.5
	c0.4-0.8,0.1-1.7-0.6-2.1c-0.7-0.4-1.6-0.2-2,0.6c-0.9,1.4-1.4,3-1.6,4.7h3c0.1-1.2,0-2.4-0.4-3.6c-0.2-0.8-1.1-1.3-1.9-1.1
	c-0.1,0-0.2,0.1-0.3,0.1c-1.5,1.2-2.7,2.7-3.6,4.4l2.8,1.2c0.4-1.6,0.3-3.3-0.1-4.9c-0.3-0.9-1.1-1.3-1.9-1.1
	c-0.3,0.1-0.6,0.4-0.8,0.7c-1.4,3-2.5,6.1-3.3,9.2l2.9,0.8c0.4-2,0.5-4.1,0.4-6.2c-0.1-1.4-2.1-2.3-2.8-0.8c-1.5,3.2-2.8,6.5-4,9.8
	h2.9l-1-3.3c-0.2-0.8-1.1-1.3-1.9-1.1c-0.1,0-0.2,0.1-0.3,0.1c-4.1,2.7-7.5,6.4-9.9,10.9c-0.8,1.5,1.2,3.3,2.4,1.9
	c4-4.8,7-10.5,8.8-16.6c0.2-0.9-0.3-1.7-1.1-1.9c-0.5-0.1-1,0-1.4,0.4c-2.4,2.7-4.5,5.6-6.4,8.8c-1.8,2.9-3.1,6.2-2.4,9.7
	c0.1,0.5,0.5,1,1,1.1c3.2,0.9,5.1-3.2,6.3-5.6c0.7-1.5,1.4-3.1,1.9-4.7c0.4-0.8,0.6-1.7,0.7-2.7c0-0.9-0.9-1.6-1.4-2.3
	c-0.5-0.5-1.2-0.6-1.8-0.3c-5.2,4.2-10,9.1-14.3,14.4l2.3,1.9c0.9-2,1.6-4.2,2-6.3c0.2-0.9-0.3-1.7-1.1-1.9
	c-0.8-0.2-1.5,0.3-1.7,1.1c-1,3-1.7,6.1-1.8,9.3c-0.1,1.9,2.4,2.1,2.9,0.4c0.5-1.6,0.8-3.2,0.9-4.9c0.2-2.1-2.8-2-3,0l-1.1,9.8h3
	c0-3.1-0.1-6.3-0.6-9.4c-0.2-1.6-2.6-1.4-2.9,0c-1.7,8.3-3.2,16.6-4.4,25c-0.3,2,2.5,2.9,2.9,0.8c1.4-6.8,2.3-13.7,2.6-20.7
	c0.1-1.8-2.7-2.2-2.9-0.4c-1.9,14-2.3,28.2-1,42.4c0.2,1.7,2.5,2.3,2.9,0.4c0.7-3.7,0.9-7.5,0.7-11.2c-0.1-2-3-2.1-3,0l0.2,8.6
	c0,2.1,2.8,2,3,0c0.5-3.9,0.1-7.9-1-11.6c-0.4-1.4-2.6-1.6-2.9,0c-0.7,4.2-1,8.4-0.9,12.7c0.1,1.7,2.6,2.2,3,0.4
	c0.6-2.7,0.9-5.5,1-8.3h-3c0,2.5,0.4,5,1,7.4c0.3,0.8,1.1,1.3,1.9,1.1c0.5-0.2,0.8-0.6,1-1.1c0.9-3.2,1.2-6.5,1-9.7
	c-0.1-1.6-2.7-2.3-3-0.4l-0.8,5.3l3,0.4c-0.2-2.7-0.7-5.3-1.5-7.9c-0.4-1.2-2.1-1.7-2.8-0.4c-2.4,5-4.2,10.2-5.5,15.6h2.9l-1.4-5
	c-0.5-1.7-3-1.4-2.9,0.4c0.1,3.6,0.8,7.2,2.1,10.6c0.5,1.3,2.5,1.7,2.9,0l1.5-6.2l-2.9-0.4c0.7,6.2,1.8,12.3,3.1,18.4
	c0.4,1.7,3,1.4,2.9-0.4c-0.4-6.2-1.1-12.3-2.2-18.4c-0.4-2-3.2-1.1-2.9,0.8c0.4,2.6,0.7,5.1,0.8,7.7h3l-1-9.8c-0.2-2-3.1-2.1-3,0
	l0.6,10.7c0,0.9,0.7,1.6,1.5,1.6c0.7,0,1.2-0.5,1.4-1.1c1.2-4.3,1.2-8.9-0.2-13.2c-0.1-0.9-0.9-1.5-1.7-1.4s-1.4,0.9-1.3,1.8l0,0
	c-0.3,3.9-0.2,7.9,0.4,11.8c0.3,1.8,2.9,1.3,2.9-0.4c0.2-4.2,0-8.5-0.6-12.7c-0.2-1.6-2.6-1.5-2.9,0c-0.9,5.2-0.9,10.5,0.2,15.7
	c0.3,1.7,3.2,1.4,2.9-0.4c-0.6-5.2-1.5-10.4-2.8-15.5c-0.5-2-3.2-1.1-2.9,0.8c1.2,9.3,3,18.6,5.2,27.7c0.5,2,3.2,1.1,2.9-0.8
	c-0.8-4.6-2.7-9-5.5-12.7c-0.6-0.6-1.6-0.6-2.1,0c-0.2,0.2-0.3,0.4-0.4,0.7l-0.3,1.4h2.9c-1.3-3.6-2.4-7.3-3.3-11.1l-2.9,0.8
	c1.3,4.5,2.9,9,4.7,13.3l2.6-1.6l-3.3-7l-2.6,1.6c1.9,3.2,3.4,6.7,4.3,10.4c0.5,2,3.3,1.1,2.9-0.8c-1.7-8.2-4.6-16.1-8.5-23.4
	c-1-1.8-3.4-0.2-2.6,1.6c0.9,1.9,1.5,4,1.8,6.1l2.8-0.8c-1-2.1-1.6-4.4-1.9-6.7l-2.8,0.8c1.6,2.9,2.9,6,3.8,9.2l2.5-1.5
	c-1.5-1.7-2.5-3.9-2.8-6.2l-2.8,0.8c0.8,1.4,1.3,2.9,1.8,4.4l2.9-0.8c-1.1-3-2.2-6.1-3.1-9.1l-2.7,1.2l3.2,6.2
	c0.8,1.6,3.3,0.5,2.8-1.2l-2.4-7.4c-0.6-1.9-3.5-1.1-2.9,0.8c1.2,3.8,2.8,7.4,4.8,10.8c0.4,0.8,1.3,1,2.1,0.6c0.7-0.4,1-1.4,0.5-2.2
	c-2-4.2-4.7-8-7.9-11.2C8.4,143.6,6.3,145.8,7.8,147.2L7.8,147.2z"/>
<path d="M22.9,158c0.8,0,1.5-0.7,1.5-1.6s-0.7-1.6-1.5-1.6s-1.5,0.7-1.5,1.6S22.1,158,22.9,158z"/>
<path d="M7.8,145.6c0.8,0,1.5-0.7,1.5-1.6s-0.7-1.6-1.5-1.6s-1.5,0.7-1.5,1.6S6.9,145.6,7.8,145.6z"/>
<path d="M10.3,151.1c0.8,0,1.5-0.7,1.5-1.6s-0.7-1.6-1.5-1.6s-1.5,0.7-1.5,1.6S9.5,151.1,10.3,151.1z"/>
<path d="M28.8,36.3c-2.3,3.5-4.1,7.2-5.5,11.2l3,0.4l0.7-7l-2.8,0.8l-0.1-0.1v-0.8v-0.1c-0.4,0.7-0.2,1.7,0.5,2.2
	c0.7,0.5,1.6,0.2,2.1-0.5c0,0,0-0.1,0.1-0.1c0.4-0.6,0.4-1.5,0-2.1c-0.4-0.6-1-0.9-1.7-0.7c-0.6,0.2-1.1,0.8-1.1,1.5l-0.7,7
	c0,0.8,0.6,1.5,1.3,1.6c0.7,0.1,1.4-0.4,1.7-1.1c1.3-3.7,3.1-7.2,5.2-10.4c0.5-0.7,0.4-1.7-0.3-2.2c-0.7-0.5-1.6-0.4-2.1,0.3
	C28.9,36.1,28.8,36.2,28.8,36.3z"/>
<path d="M149.2,33.9l6.1,2.4c1.9,0.7,3.7,1.6,5.5,2.6c0.7,0.4,1.6,0.1,2-0.6c0.3-0.6,0.2-1.3-0.2-1.8c-4-4.2-9.4-6.3-13.5-10.4
	c-0.5-0.5-1.2-0.6-1.8-0.2c-0.6,0.4-0.8,1.1-0.7,1.8c0.4,2.4,2.2,4.2,3.9,5.7c1.7,1.5,3.7,2.7,5.8,3.5c1.2,0.5,2.8,0.3,3.3-1.3
	c0.2-1.2-0.1-2.4-0.9-3.2c-1.2-1.9-2.9-3.5-4.8-4.5c-0.7-0.4-1.7-0.1-2.1,0.6c-0.2,0.4-0.2,0.8-0.1,1.2c0.5,2,1.7,3.8,3.3,4.9
	c0.7,0.4,1.6,0.1,2-0.6c0.4-0.7,0.1-1.7-0.5-2.1c-1-0.7-1.7-1.8-2-3.1l-2.2,1.8c1.3,0.6,2.5,1.5,3.4,2.7c0.2,0.3,0.4,0.6,0.6,0.9
	c0.1,0.1,0.4,0.8,0.4,0.8l0.9-1.1l-0.3-0.1l-0.5-0.2c-0.3-0.1-0.6-0.3-1-0.5c-1.4-0.7-2.7-1.6-3.8-2.6c-1.2-0.9-2.1-2.3-2.5-3.8
	l-2.5,1.5c4.1,4.1,9.5,6.2,13.5,10.4l1.8-2.4c-1.9-1.1-3.9-2.1-6-2.8l-6.3-2.5c-0.8-0.2-1.6,0.2-1.8,1.1
	C148,32.8,148.4,33.7,149.2,33.9L149.2,33.9z"/>
<path d="M148.8,109.5c-0.4,4,0.6,8,2.6,11.3c0.4,0.7,1.4,1,2.1,0.5c0.4-0.3,0.7-0.8,0.7-1.3l0.1-7.2l-3,0.4c0.7,3.4,1.7,6.8,3,10.1
	c0.6,1.5,3,1.5,3-0.4v-8c0-0.9-0.7-1.6-1.5-1.6s-1.5,0.7-1.5,1.6v6.5h3c-0.1-2-0.2-4-0.1-6h-3c0.1,3.7,0.2,7.5,0.1,11.2h3l-0.1-10.1
	c0-0.9-0.7-1.6-1.5-1.6s-1.5,0.7-1.5,1.6c0,3.2,0.1,6.4,0.3,9.6c0.1,2,3,2.1,3,0c0-1.4,0.1-2.9,0.3-4.3l-3-0.4l0.5,6.3
	c0.2,2,3,2.1,3,0l0.1-7.2c0-0.9-0.7-1.6-1.5-1.6s-1.5,0.7-1.5,1.6c-0.1,3.8,0.1,7.7,0.7,11.5c0.3,1.8,3,1.4,3-0.4
	c-0.3-6.2-0.4-12.3-0.2-18.5l-3,0.4l0.8,5.4c0.2,0.8,1.1,1.3,1.9,1.1c0.5-0.2,0.9-0.6,1-1.1c0.3-2.2,0.9-4.3,1.7-6.3h-2.6
	c1.4,2.3,2.7,4.8,3.8,7.3c0.7,1.6,2.6,0.6,2.8-0.8c0.2-2,0.2-3.9,0-5.9l-2.9,0.4c0.6,3,1.5,6,2.7,8.7c0.4,0.7,1.4,1,2.1,0.5
	c0.4-0.3,0.7-0.8,0.7-1.3c-0.2-3.6-0.9-7.2-2.1-10.6c-0.2-0.8-1.1-1.3-1.9-1.1c-0.6,0.2-1.1,0.8-1.1,1.5c-0.1,3,0.2,6.1,0.8,9
	c0.4,2,3.3,1.2,2.9-0.8c-0.5-2.7-0.8-5.5-0.7-8.2l-2.9,0.4c1.1,3.1,1.8,6.4,2,9.8l2.8-0.8c-1.1-2.5-1.9-5.2-2.4-8
	c-0.3-1.7-3.1-1.4-2.9,0.4c0.2,2,0.2,3.9,0,5.9l2.8-0.8c-1.1-2.5-2.4-5-3.8-7.3c-0.6-0.9-2.1-1.2-2.6,0c-1,2.2-1.6,4.6-2,7h2.9
	l-0.8-5.4c-0.3-1.8-2.9-1.3-2.9,0.4c-0.2,6.2-0.1,12.3,0.2,18.5l2.9-0.4c-0.5-3.5-0.7-7-0.6-10.6h-3l-0.1,7.2h3l-0.5-6.3
	c-0.1-1.6-2.6-2.3-3-0.4c-0.3,1.7-0.4,3.4-0.4,5.1h3c-0.2-3.2-0.2-6.4-0.3-9.6h-3l0.1,10.1c0,0.9,0.7,1.6,1.5,1.6s1.5-0.7,1.5-1.6
	c0.1-3.7,0-7.5-0.1-11.2c0-0.9-0.7-1.6-1.5-1.6s-1.5,0.7-1.5,1.6c0,2,0,4,0.1,6c0,0.9,0.7,1.6,1.5,1.6s1.5-0.7,1.5-1.6v-6.5h-3v8
	l2.9-0.4c-1.3-3.3-2.3-6.6-3-10.1c-0.4-1.8-2.9-1.3-3,0.4l-0.1,7.2l2.8-0.8c-1.8-2.8-2.6-6.3-2.2-9.6
	C151.9,107.6,148.9,107.6,148.8,109.5L148.8,109.5z"/>
<path d="M164.2,121.9c2.3,4.6,5.4,8.7,9,12.1c0.6,0.6,1.6,0.6,2.1-0.1c0.4-0.4,0.5-1,0.4-1.5c-0.4-3.1-1.3-6.2-2.6-9
	c-0.8-1.7-3.1-0.5-2.7,1.2c1.1,4.8,2.8,9.4,5.3,13.6c0.4,0.7,1.4,1,2.1,0.5c0.4-0.3,0.7-0.8,0.7-1.3c-0.1-4.3-2-8.2-4-11.8
	c-0.6-1.1-2.5-1.1-2.7,0.4c-0.5,3.3-0.3,6.7,0.4,10l2.8-1.2c-1.5-3.2-3.2-6.3-5.1-9.3c-0.7-1.2-3-0.9-2.8,0.8
	c0.4,4.6,1.6,9.1,3.6,13.1c0.7,1.3,3,0.8,2.8-0.8c-0.4-3.9-1-7.8-1.6-11.6l-2.9,0.8c1.1,6.2,3,12.2,5.7,17.9c0.4,0.8,1.4,1,2.1,0.5
	c0.4-0.3,0.7-0.8,0.7-1.3c0-2.6-0.3-5.2-0.8-7.7c-0.4-2-3.2-1.1-2.9,0.8c0.9,5.4,1.8,10.8,1.4,16.3l2.9-0.4c-0.9-4.9-2-9.8-3.3-14.6
	c-0.5-1.6-3.1-1.4-3,0.4c0.3,4.1,0.9,8.2,1.8,12.2c0.4,2,3.3,1.2,2.9-0.8c-0.8-3.8-1.4-7.6-1.7-11.4l-3,0.4
	c1.3,4.8,2.4,9.7,3.3,14.6c0.3,1.9,2.8,1.3,3-0.4c0.4-5.8-0.5-11.5-1.5-17.2l-2.9,0.8c0.5,2.3,0.7,4.6,0.7,6.9l2.8-0.8
	c-2.6-5.4-4.4-11.2-5.4-17.1c-0.4-2-3.2-1.1-2.9,0.8c0.6,3.6,1.1,7.2,1.5,10.8l2.8-0.8c-1.8-3.6-2.9-7.5-3.2-11.5l-2.8,0.8
	c1.9,3,3.6,6.1,5.1,9.3c0.8,1.7,3.1,0.5,2.7-1.2c-0.6-2.7-0.7-5.5-0.4-8.3l-2.8,0.4c1.8,3.2,3.6,6.5,3.6,10.2l2.8-0.8
	c-2.3-4-4-8.3-5-12.9l-2.9,1.2c1.2,2.6,2,5.4,2.4,8.3l2.5-1.5c-3.4-3.3-6.3-7.2-8.5-11.5C165.9,118.5,163.3,120.1,164.2,121.9
	L164.2,121.9z"/>
<path d="M184.9,138.1l0.6,6.8c0,0.8,0.6,1.4,1.3,1.6c0.7,0.1,1.5-0.4,1.6-1.1l0.6-5h-2.9c0,0,0,0.4,0,0.2s0,0.1,0,0.2
	c0,0.2,0,0.4,0,0.6c0,0.4,0,0.8,0,1.2c0,0.1,0,0.4,0,0c0,0.1,0,0.2,0,0.3c0,0.2-0.1,0.4-0.1,0.6c-0.1,0.4-0.2,0.8-0.4,1.2l3,0.4
	l-0.2-2.6c0-0.9-0.7-1.6-1.5-1.6c-0.8,0-1.5,0.7-1.5,1.6l0.2,2.6c0,0.9,0.7,1.6,1.5,1.6c0.7,0,1.3-0.5,1.5-1.2
	c0.6-1.9,0.8-3.9,0.5-5.9c-0.2-0.7-0.8-1.2-1.4-1.2c-0.3,0-0.5,0.1-0.8,0.2c-0.3,0.2-0.6,0.6-0.7,1l-0.6,5l2.9,0.4l-0.6-6.8
	c0-0.9-0.7-1.6-1.5-1.6S185,137.3,184.9,138.1L184.9,138.1z"/>
<path d="M174.7,155.2c0.2,3.2,1.1,6.2,1.6,9.4c0.5,3.1,0.6,6.3,0.5,9.5c0,2.1,2.9,2,3,0c0.2-2.9,0.8-5.7,1.6-8.5h-2.9
	c0.2,1.4,0.3,2.8,0.2,4.2c-0.1,2,2.8,2,3,0c0.2-2-0.1-3.9-0.8-5.8c-0.2-0.8-1-1.3-1.8-1.1c-0.8,0.2-1.3,1.1-1,1.9
	c0.6,1.6,0.8,3.3,0.7,4.9h3c0.1-1.7,0-3.4-0.3-5c-0.3-1.7-2.5-1.4-2.9,0c-1,3-1.6,6.1-1.8,9.3h3c0.2-3.2,0-6.5-0.5-9.7
	c-0.5-3.1-1.5-6.1-1.7-9.2C177.6,153.2,174.6,153.2,174.7,155.2L174.7,155.2z"/>
<path d="M155.4,122.5c-0.1-0.2-0.1-0.3-0.2-0.5c0.1,0.3-0.1-0.2-0.1-0.2c-0.1-0.3-0.2-0.6-0.2-0.9c0-0.2-0.1-0.4-0.1-0.5s0-0.2,0,0
	c0-0.1,0-0.2,0-0.3c0-0.4,0-0.7,0-1.1c0-0.2,0-0.3,0-0.5s0.1-0.6,0-0.2c0-0.3,0.1-0.7,0.2-1c0.1-0.3,0.2-0.6,0.3-1
	c-0.1,0.3,0.1-0.2,0.1-0.2c0-0.1,0.2-0.3,0.2-0.5c0.4-0.8,0.2-1.7-0.5-2.2c-0.7-0.4-1.6-0.2-2.1,0.6c-1.7,3.1-1.7,6.8-0.2,10
	c0.4,0.7,1.3,1,2,0.6C155.5,124.2,155.8,123.2,155.4,122.5L155.4,122.5z"/>
<g id="装飾">
	<ellipse class="st4" cx="66.8" cy="116.6" rx="12.5" ry="13.2"/>
	<ellipse class="st4" cx="134.8" cy="116.6" rx="12.5" ry="13.2"/>
	<path class="st5" d="M55.9,92.6c0,0-5.9,3.6-5.5,6c0,0,19.7-4.2,28.9,0C79.3,98.6,70.8,90.8,55.9,92.6z"/>
	<path class="st6" d="M174.3,200.6"/>
	<path class="st5" d="M145,92.8c0,0,5.9,3.6,5.5,6c0,0-19.7-4.2-28.9,0C121.6,98.8,130.2,91,145,92.8z"/>
	<path class="st7" d="M103.7,124.5c0,0,0.9,11.1-3.5,11.9s-2.6,2.7,1.8,3.3"/>
	<ellipse class="st2" cx="66.8" cy="116.6" rx="4" ry="4.2"/>
	<ellipse class="st2" cx="134.8" cy="116.6" rx="4" ry="4.2"/>
	<path class="st8" d="M92.7,165.7c3.4,3,6.5,6.4,9.2,10c0.6,0.6,1.6,0.6,2.1,0c0.1-0.1,0.2-0.2,0.2-0.3c2.7-3.8,5.3-7.7,7.6-11.8
		c0.4-0.8,0.2-1.7-0.5-2.2c-0.7-0.4-1.6-0.2-2.1,0.6l0,0c-2.3,4.1-4.8,8.1-7.5,11.8l2.4-0.3c-2.8-3.7-5.9-7-9.2-10
		c-0.6-0.6-1.5-0.6-2.1,0C92.2,164.1,92.2,165.1,92.7,165.7L92.7,165.7z"/>
	<path d="M93.6,2.5c-29.6,1.3-57,17.1-74.2,42.7C11.1,57.4,5.3,71.3,2.3,86c-3.3,16.5-3.1,33.6,0.4,50.1
		c3.5,16.3,10.4,31.6,19.2,45.5c1.1,1.7,2.2,3.4,3.3,5.1c0.4,0.8,1.4,1,2.1,0.5c0.6-0.4,0.8-1.1,0.7-1.7
		c-3.5-16.3-2.8-33.3,2.2-49.2c1.4-4.5,3.1-8.9,5.2-13.1l-2.7-0.4l5.8,25.2c0.2,0.8,1.1,1.3,1.9,1.1c0.6-0.2,1.1-0.8,1.1-1.5
		c0.3-11.6,0.8-23.2,1.5-34.8l-2.9,0.4l4.4,20.5c0.4,1.9,2.8,1.2,2.9-0.4c1.6-15.9,4.4-32.4,13-45.9c7.5-11.6,18.6-19.8,28-29.6
		c5.2-5.5,10-11.6,13.2-18.7l-2.4,0.3c16.4,21.4,30.5,44.7,41.9,69.4c3.2,7,6.2,14.1,9,21.3c0.2,0.8,1.1,1.3,1.9,1
		c0.8-0.2,1.2-1.1,1-1.9l-3.8-19.2l-2.7,1.2c4.8,11.7,8.7,23.7,11.6,36.1c0.4,1.7,3.1,1.4,3-0.4c-0.9-11-0.9-22,0.2-32.9l-2.8,0.8
		c9.5,15.3,13.2,33.5,15.3,51.4c0.6,5.1,1,10.2,1.5,15.3c0.1,1.4,2.1,2.4,2.8,0.8c5.4-12.1,12.6-23.2,21.3-32.8
		c0.6-0.6,0.5-1.6-0.1-2.2c-0.6-0.6-1.5-0.6-2,0l-5.1,4.6l2.5,0.7c-0.5-1.6,0.8-3.2,1.6-4.5c0.9-1.6,1.7-3.2,2.5-4.9
		c1.3-3.1,2.4-6.3,3.2-9.6c1.5-6.8,2.2-13.7,2-20.6c-0.2-7.1-0.8-14.3-1.9-21.3c-1.1-7.6-2.2-15.3-4.9-22.5
		c-5-13.6-13.8-25.1-22.7-36c-4.6-5.6-9.2-11.4-15-15.6s-12.3-6.6-18.9-8.6c-16.4-5.1-33.7-10.4-51-8c-0.8,0.3-1.2,1.1-1,2
		c0.3,0.8,1.1,1.3,1.8,1.1c15.3-2.2,30.6,2.4,45.2,6.7c6.5,1.9,13.1,3.9,19.1,7.4c6.1,3.6,10.9,9,15.4,14.5
		c8.8,10.6,17.6,21.6,23.1,34.6c3,7,4.4,14.4,5.5,22c1.1,6.8,1.8,13.7,2.2,20.7c0.4,7.7-0.2,15.4-1.8,22.9c-0.8,3.6-2,7.1-3.6,10.4
		c-0.8,1.7-1.7,3.2-2.6,4.9c-0.9,1.6-1.6,3.6-1,5.5c0.2,0.9,1.1,1.3,1.9,1.1c0.2-0.1,0.4-0.2,0.6-0.4l5.1-4.6L197,147
		c-9,9.8-16.3,21.1-21.8,33.5l2.8,0.8c-1.5-18.4-3.4-37.3-10.3-54.5c-1.9-4.8-4.2-9.4-6.9-13.7c-0.4-0.7-1.4-1-2.1-0.5
		c-0.4,0.3-0.7,0.8-0.7,1.3c-1,10.9-1.1,22-0.2,32.9l2.9-0.4c-3-12.6-7-24.9-11.9-36.8c-0.7-1.7-3.1-0.4-2.7,1.2l3.8,19.2l2.9-0.8
		c-10-26-22.9-50.6-38.3-73.5c-4.3-6.3-8.8-12.6-13.4-18.6c-0.6-0.6-1.5-0.6-2.1,0c-0.1,0.1-0.2,0.2-0.2,0.3
		c-5.7,12.9-16.6,21.9-26.4,31.3c-5.1,4.7-9.8,9.9-13.9,15.7c-4.4,6.6-7.6,13.9-9.7,21.6c-2.3,8.9-3.9,18.1-4.7,27.3l2.9-0.4
		l-4.3-20.5c-0.4-1.8-2.8-1.3-2.9,0.4c-0.7,11.6-1.2,23.2-1.5,34.8l3-0.4l-5.8-25.2c-0.2-0.9-1.1-1.3-1.9-1.1
		c-0.4,0.1-0.7,0.4-0.9,0.7c-9.7,19.9-12.5,42.9-7.7,64.8l2.7-1.2c-9-13.2-16.4-27.6-20.6-43.3C3,126,1.9,109.4,4.1,93.2
		c2.1-14.7,7-28.8,14.6-41.4C34,26.1,59.7,9.2,88.3,6.1c1.8-0.2,3.6-0.3,5.3-0.4C95.4,5.6,95.5,2.4,93.6,2.5L93.6,2.5z"/>
	<path d="M22.6,147.2c-1.8-17.9,1.7-35.8,5.7-53.1c3.4-14.5,8.2-28.8,18.8-39.1L37,50.6c-0.9,10-3.2,19.8-7,29.1
		c-3,7.3,6.9,13.7,10.3,6.3c5.8-12.9,14.2-24.4,24.4-33.8l-10-6.1C53.1,58.3,48,69.7,40.1,78.7l10.2,4.5c-0.4-10,2.3-19.9,7.6-28.2
		l-10.3-6.3l-9.4,17.2l10.9,4.9c1.7-7.6,4.9-14.6,9.3-20.8c4.4-6.1-4.6-11.8-9.4-7.6l-18.2,16L41,62.6l-1.3-11.1
		c-0.6-4.7-6.5-9.2-10.2-4.5c-4.8,6.2-7,13.9-9.7,21.3l-8.9,24c-2.7,7.4-5,14.5-5.6,22.5c-0.7,8.5,0.4,16.9,1.4,25.2l11.1-3.2
		c-6.7-15.7-4.4-33.6-0.4-49.7c2-8.5,4.4-16.9,8.5-24.5c4-7.3,9.7-13.3,15.3-19.2l-8.4-8.9l-4.5,5.2l9.4,7.6
		c3.8-7.6,9.7-13.1,16.5-17.7c7.2-4.9,14.9-10.1,23.6-10.4c4.6-0.1,9.1-0.9,13.5-2.3c4.5-1.4,8.7-2.7,13.5-2
		c9.7,1.3,19.5,4.1,29.1,6.2c9,2,17.2,4.8,24.5,10.9c6.6,5.5,12,12.4,17.2,19.4C181,59,187,66.7,189.5,76c2.7,10.2,2.9,21.3,4,31.9
		c0.6,5.9,1.4,12,0.7,18c-0.6,4.8-2.5,9-4.8,13.1c-4.6,8.3-9.4,16.1-10,26l11.6-1.7c-7.7-22.7-3.1-47.4-6.7-70.8
		c-1.1-7.4-11.2-4.9-11.7,1.7l-1.3,18.3l11.7-1.7c-1.3-9.8-3-19.4-5.1-29c-1.9-8.5-3.6-17.2-9.3-23.9
		c-10.5-12.2-26.8-19.9-41.2-25.4c-8.1-3-16.4-5.4-24.8-7.3c-7.8-1.8-16.2-4-24.3-3.5c-17.1,1.1-32,16-44.1,27.5l10,6.1
		c0.5-4.1,1.6-8.2,3.2-12l-10.3-6.3l-3.9,9.3c-3.1,7.4,5.7,12.9,10.3,6.3c2.5-3.4,5.7-6.2,9.4-8l-9-5.4c0,9.7-3.7,18.6-7.4,27.3
		c-3.9,9.3-7.8,18.5-11.9,27.7L35.6,99c0.3-2,1.1-3.9,2.2-5.5l-11.1-3.2l-0.7,9.3c-0.5,7,10.6,8.7,11.7,1.7c0.7-4.8,1.8-9.5,3.3-14
		L29.6,84l-1.9,10.6c-1.4,7.9,9.9,11.3,11.5,3.3c0.9-5.3,3-10.2,6.2-14.4l-9.9-2.8l1.5,10.6c0.8,5.6,8.5,5.8,10.9,1.5
		c3.9-7,8-13.8,12.5-20.4l-10.9-4.8l-2.1,11.9C46.2,86,55,91.2,58.2,84.3c3.6-7.9,7.9-15.4,12.7-22.5L60,57l-2.7,10.1
		c-1.9,6.8,7.7,11.2,10.9,4.8l7.9-15.8c2.2-4.3-1.6-11.5-6.7-9.3c-5,2.2-10.3,3.4-15.6,3.6l5.9,6.3c0.5-4.5,2.1-8.7,4.6-12.4
		c3.1-4.8-2-10.4-6.7-9.2c-4,1-8.2,1.1-12.2,0.4l4.4,6c0.3-3.8,2.3-6.3,5-8.6l-10-6.1l-2.4,6.5c-1.9,5.1,4.6,10,8.8,7.1
		c5.6-4,12.1-6.6,18.8-7.6l-5.1-9.5c-1.3,2.6-3.1,4.9-5.3,6.7l8.3,8.7c0.4-1.3,1.3-2.5,2.4-3.2L63,25.7l-4.2,4.6
		c-3.8,4.2-0.1,12.8,5.8,10.6c5.2-2,10.5-3.6,15.9-4.7l-6.7-2.9l0.9,2.3v-6.3l-3.4,5.8c-3.7,6.3,4.4,12.2,9.4,7.6
		c1.9-1.8,4.3-2.9,6.9-3.2l-5.1-9.5c-1.7,3.1-3.9,5.9-6.6,8.1l10.2,4.5c0.1-0.7,0.4-1.4,0.9-2c4.9-6.1-3.3-15-8.4-8.9
		C76,34.7,73.7,38,71,40.6l4.2-1.8L74,38.9l5.1,3.1l-0.3-0.6v6.3l0.3-0.7L74,50.2l0.5,0.1l-5.8-8l-2.5,10.6
		c-1.5,6.6,5.5,9.8,9.9,6.1c1.5-1.2,3.1-2.1,4.8-2.8L73.5,50c0.2,1.8-0.2,3.6-1,5.1c-3.7,7.1,6.2,13.2,10.3,6.3
		c4.1-7,9.6-13,16.2-17.4l-7.2-9.9l-39.4,41l9.4,7.6c6.7-14.3,14.7-27.8,24-40.4c4.6-6.2-2.7-14.6-8.4-8.9
		c-4.4,4.4-9.2,8.2-14.4,11.3l8.8,3.8c-0.2-2.4,0.3-4.9,1.6-7c3.9-7-6.3-13.3-10.3-6.3l-2.5,4.4c-3.6,6.3,4.4,12.3,9.4,7.6
		c2.9-2.8,5.3-6.1,7-9.8c1.6-3.1,0.6-6.9-2.3-8.6c-1.3-0.8-2.9-1-4.4-0.6l-5.1,1.3l7.3,7.7c0.4-2.5,1.6-4.8,3.3-6.6
		c1.8-1.7,3.7-2.6,4.7-5.1c1.1-2.7,1-5.4-0.9-7.6C78,16.4,76,15.6,74,15.7c-2.7,0.1-5,1.9-5.7,4.6l-0.2,0.5c-1.2,4,2,7.8,5.7,8
		c9.7,0.4,19.4,1.8,28.8,4.4l-1.4-11.5c-1.8,1.3-4,1.9-6.2,1.6c-7.4-1.2-10.8,10.2-3.2,12.1c7.9,2,16,3.5,24.1,4.4
		c5.9,0.7,8.1-9.1,3-11.7c-2.7-1.3-5.1-3-7.4-5l-4.2,10.7c8.6,1.2,17.2,2.9,25.6,5.1c6.3,1.7,10.9-8.3,4.6-11.5
		c-5.9-3-11.9-5.4-18.1-7.4c-6.7-2.1-10,7.7-4.6,11.5l9.9,7l4.6-11.5c-8.9-2.1-17.5-5.5-25.6-10.1l-6,10.9l10.2,5l6-10.9
		c-2.9-1.3-5.6-2.9-8.1-4.9l-5.8,10.6c3.2,0.9,6.2,2.5,8.9,4.5l4.6-11.5c-7.4-1.6-14.5-4.2-21.2-7.8l-1.4,11.5
		c1.4-0.3,2.8-0.4,4.1-0.4c0.6,0,1.1,0,1.6,0c1-0.2,1.1,0,0.3,0.7c1.8,2.4,2.6,6.5,3.7,9.3l5.7-8c-1.6-0.2-3.2-0.7-4.6-1.5
		c-6-3.3-11.9,4.5-7.2,9.9c19.2,22.1,35,47.3,46.8,74.7c2.4,5.5,9.2,3,10.9-1.5c4.4-11.8-1.6-24.3-6.9-34.5
		c-5.8-11.2-12.8-21.6-19.9-31.9l-10.3,6.3c7.6,10.5,15.8,20.6,24.5,30.2c4.6,5,21.2,18.1,14.6,26.7l5.8-1.6c-2.4-0.8-4-7.7-5-10
		l-5.6-13.5l-11.3-27l-9.4,7.6c12.3,11.6,23.5,24.4,33.4,38.3c3.8,5.4,12.9,2.5,10.9-4.8c-4-14.9-10.7-28.8-19.8-40.9
		c-3.7-5-11.9,0.4-9.9,6.1c2.2,6.5,4.9,12.8,8.1,18.8l10.3-6.3c-4.8-7.3-10.1-14.9-16.4-20.8c-2.4-2.4-5.6-3.7-8.9-3.6
		c-4.3-0.1-7.2-2.3-10.6-4.9c-5.6-4.2-11.8,4.9-7.2,9.9c3,3.2,6.5,4.1,10.6,3.2c4.7-1.1,5.3-7.2,2.6-10.6
		c-1.9-2.4-19.2-23-18.2-23.8h-6c4.5,2.3,9,4.5,13.4,6.9c2.3,1.2,6.8,3.3,7.1,6.5c0.5,4.9,4.6,7.6,9,5.4l3-1.5l-7.2-1l5.5,5.7
		c2.4,2.5,6.2,2.5,8.5,0c0.7-0.8,1.2-1.7,1.5-2.7c2.1-6.8,4-13.3-1.5-19c-4.2-4.3-12.7-5.3-14.4,2.2c-1,4.7,1.6,9.3,6,10.6
		c0.6,0.3,1.1,0.4,1.7,0.6c-1.1-1.1-1.2-1-0.5,0.4c1.9,6.4,10.7,6,13.5,0.9l-9.4,1.3c3.4,3.8,5.8,6.5,6.5,11.8
		c1,7.4,11.3,5,11.7-1.7l0.3-4.8l-11.8,1.6c0.7,3.5,1.8,6.9,3.3,10.1c2,4.2,8.2,3.9,10.3,0l0.8-0.8l-9.4-1.3l7,12.6
		c2.9,5.2,11.4,3.2,11.1-3.2c-0.2-4.2-1-8.4-2.5-12.4c-1.7-4.6-6.3-6-9.9-2.8c-2.2,2-3.8,4.7-4.6,7.7l10.9-1.5
		c-1.2-1.6-2.1-3.4-2.6-5.3l-9.9,6.1l6.2,7.5c3.1,3.7,8.7,1.5,10-2.8l1.5-5.3l-9.9,2.8l10.2,8.5c4.9,4,13.5-1.1,9.4-7.6
		c-2.5-4-5.3-10.6-10.7-10.6c-4.5,0-8.4,5.1-6.6,9.6l8.7-7.1c-3.9-3-6.9-7.1-8.8-11.8l-5.1,9.5l0.8,0.3c4.9,4.2,13.2-1.1,9.4-7.6
		l-3-5.2c-4.1-7-13.3-0.9-10.3,6.3c6,14.4,13,28.3,20.8,41.6c3,5.1,11.3,3.3,11.1-3.2l-0.2-4.9L177,74.4l4.7,17.5l11.5-3.4
		l-4.9-14.3c-1.8-5.2-10.5-6.7-11.5,0l-1.2,8.5l11.7,1.7l1.7-16.7c0.7-7.2-10-8.4-11.7-1.7c-1.2,4.6,1.7,9.6,6.5,9.6
		s7.7-5.1,6.5-9.7c-2.1-7.8-13.1-4.5-11.5,3.3c3.6,18.1,4.5,36.7,2.7,55.1h11.9l0.3-11.5h-11.9c0,7.1-0.1,14.3,0.1,21.4
		c0.2,8.1,12.1,8.1,11.9,0c0.5-2.5,0-2.7-1.5-0.8l-8.1-2.3l0.2,0.4l0.9-7.6l-0.2,0.2l10.2,4.5l0.3-4.2l-11.1,3.2l1.6,3.3
		c2,4.1,8.3,4.1,10.3,0l2-4.1h-10.4l1.9,3.4c4,7,13.6,0.9,10.3-6.3c-2.2-4.8-5.9-8.7-9.2-12.7l-11.4-13.7c-1.5-1.6-3.7-2.3-5.8-1.6
		c-2.9,1-5.4,3.1-6.9,6l9.4-1.3c-0.9-1-1.6-2.1-2.1-3.4c-3.2-7-11.8-1.6-10.9,4.9c0.4,3.1,1.1,6.1,2,9c1.9,6.4,12.5,5.7,11.7-1.7
		c-0.2-2.8-1.3-5.4-3.1-7.4c-4.1-4.4-11.7,0-9.9,6.1l7.8,27.1c2.2,7.7,13.7,4.4,11.5-3.4l-7.8-27.1l-10,6.1l-0.4-1.4l11.7-1.7
		c-0.9-3-1.5-6-2-9l-10.9,4.8c1,2.2,2.4,4.2,4,6c2.4,2.5,6.2,2.4,8.5-0.1c0.3-0.4,0.6-0.8,0.9-1.2l-0.2-0.2l-5.8-1.6l10.1,12.2
		c3,3.7,6.6,7.2,8.6,11.6l10.3-6.3c-0.6-1.1-1.3-2.3-1.9-3.4c-2.2-3.8-8.2-4.3-10.3,0l-2,4.1h10.3l-1.6-3.3
		c-2.9-6-10.7-2.6-11.1,3.2l-0.3,4.2c-0.4,5.8,6.6,7.8,10.2,4.5l0.3-0.2c1.9-2,2.3-5.2,0.9-7.6l-0.2-0.4c-1.7-2.9-5.3-3.9-8.1-2.3
		c-3.9,1.9-4.5,7.7-4.4,11.6h12c-0.2-7.1-0.1-14.3-0.1-21.4c0-8.1-11.7-8.1-11.9,0l-0.3,11.5c-0.2,8.2,11.1,7.9,11.9,0
		c1.9-19.5,0.9-39.3-3.1-58.5l-11.5,3.4L179,70l0.6-4.8l1.2-1.3h6l1.2,1.3l0.6,4.8l0.2-0.7l-11.7-1.7l-1.7,16.7
		c-0.7,7,10.7,8.7,11.7,1.7l1.2-8.5h-11.5l4.8,14.3c2.5,7.5,13.6,4.6,11.5-3.4l-4.7-17.5c-1.8-6.7-11.9-5.6-11.7,1.7l0.1,4.9
		l11.1-3.2c-7.8-13.3-14.8-27.3-20.8-41.6l-10.3,6.3l3.1,5.2l9.3-7.6c-2.6-2.4-5.8-3.8-9.2-3.9c-4.9-0.4-6.9,5.5-5.1,9.5
		c2.9,6.6,7.4,12.2,13,16.3c4,3.1,10.6-2.1,8.8-7.1l-0.3-0.7l-0.6,4.8l0.4-0.7l-3.6,2.9l0.8-0.3l-4.6-0.6c1.3,0.7,2.6,3.9,3.4,5.2
		l9.4-7.6L171.3,46c-3.5-2.9-8.5-2.1-10,2.8l-1.5,5.2l10-2.8l-6.2-7.5c-4-4.9-11.5,0.3-10,6.1c0.7,3,2,5.8,3.8,8.3
		c3,4.2,9.3,4.1,10.9-1.5c0.2-0.9,0.7-1.7,1.5-2.1l-9.9-2.8c1.1,2.9,1.8,5.9,2,9l11.1-3.2l-7-12.6c-2.1-3.8-6.4-3.8-9.4-1.3
		c-1.1,0.9-2,2.1-2.6,3.4h10.3c-1-2.2-1.7-4.6-2.1-7.1c-1.3-7.3-11.3-5.1-11.7,1.7l-0.3,4.8l11.7-1.7c-1-7.3-4.9-12.2-9.6-17.3
		c-2.4-2.5-6.2-2.4-8.5,0.1c-0.3,0.4-0.6,0.8-0.9,1.2l-0.4,0.7l3.6-2.9c1.8-0.5,4.8,3.4,3.1-0.3c-0.6-1.1-1.4-2.1-2.4-2.8
		c-0.7-0.6-1.5-1-2.4-1.4c-0.5-0.2-1.1-0.5-1.7-0.6c-1.9-0.7-1.4,0.5,1.5,3.8l-2.7,3.8l0.7-0.3l-4.6,0.6c2.4,0.6-0.2,5-0.8,6.8
		l9.9-2.8l-5.5-5.7c-1.9-2-4.9-2.4-7.2-1l-2.9,1.5l9,5.4c-1.4-14.2-15.9-18.9-26.4-24.3c-1.8-0.9-4.3-1.4-6,0
		c-6.4,5.1-7.1,13.4-2.7,20.4c5.2,8.3,12.4,15.7,18.5,23.2l2.6-10.5l1,0.1l-7.2,9.9c2.7,2.2,5.7,4,8.9,5.4c1.7,0.7,3.5,1.1,5.3,1.2
		c0.4,0,4.2,0.3,2.7-0.3c2.4,1.1,5,5.5,6.7,7.6c2.8,3.5,5.5,7.1,7.9,10.9c4.3,6.6,14.1,0.8,10.3-6.3c-2.8-5-5.1-10.3-6.9-15.8
		L145,61c7.7,10.5,13.4,22.5,16.8,35.4l10.9-4.9c-10.4-14.8-22.2-28.5-35.2-40.8c-5.3-5-12,1.2-9.4,7.6l13.7,32.8
		c3.5,8.4,6.1,20.4,15.3,23.5c2.1,0.6,4.3,0,5.8-1.6c9.2-11.8,3-25.6-5.9-35.2C146,66,135.3,54.1,125.7,41
		c-4.6-6.2-14.8-0.3-10.3,6.3c6,8.8,12,17.6,17.2,27c4.7,8.4,12.1,19.9,8.4,29.8l10.8-1.5c-12.3-28.3-28.7-54.3-48.7-77.2l-7.2,9.9
		c3.3,1.8,6.9,2.9,10.7,3.2c3.6,0.4,7.2-4.4,5.7-8c-2-5.2-3.7-13.5-8.1-16.9s-11.3-2.3-16.3-1.3s-5.8,9.2-1.4,11.5
		c7.6,4.1,15.7,7.1,24,9c3.2,0.8,6.4-1.4,7.2-4.8c0.5-2.6-0.5-5.3-2.6-6.7c-3.6-2.6-7.5-4.6-11.7-5.8C98,13.9,92.7,22,97.5,26.1
		c3.2,2.8,6.7,5.1,10.5,6.9c6.9,3.2,13-7.5,6-10.9l-10.2-5C97,13.8,91,24,97.8,28c8.9,5.2,18.5,9,28.4,11.4c3.2,0.9,6.5-1,7.4-4.4
		c0.7-2.8-0.4-5.8-2.8-7.2l-9.9-7l-4.6,11.5c5.2,1.6,10.4,3.7,15.3,6.2l4.6-11.5c-9.5-2.4-19.1-4.3-28.8-5.5
		c-5.1-0.7-7.9,7.4-4.2,10.8c3,2.8,6.3,5.1,9.8,7l3-11.7c-7.1-0.8-14.1-2.1-21-4l-3.2,12.1c5.6,0.9,10.5,0.2,15.3-2.9
		c4.3-2.8,3.6-10.2-1.4-11.6c-10.5-2.8-21.2-4.5-32-4.9l5.7,8l0.2-0.5l-5.7,4.6h0.7l-4.2-1.8l0.5,0.5L70,19.4
		c1.1-0.6,0.9-0.4-0.5,0.5l-1.2,1c-1.3,1.2-2.5,2.5-3.5,3.9c-1.9,2.8-3.3,5.9-4,9.3c-0.8,3.4,1.1,6.9,4.3,7.7c1,0.3,2,0.3,3,0l5-1.3
		l-6.7-9.3c-1.2,2.7-3,5.2-5.1,7.2l9.4,7.6l2.5-4.4l-10.3-6.3C59.9,40.7,59.3,45.9,60,52c0.5,4.2,5.8,5.5,8.7,3.8
		c6.1-3.7,11.8-8.1,16.9-13.3l-8.4-8.9c-10,13.4-18.6,27.8-25.9,43c-3,6.2,4.4,12.8,9.4,7.6l39.4-41c4.7-4.9-1.4-13.8-7.2-9.9
		c-8.3,5.6-15.2,13.1-20.4,21.9l10.3,6.3c1.9-3.5,2.8-7.5,2.7-11.5c-0.1-3.7-3.8-7.6-7.5-6.1c-3.6,1.5-7,3.5-10,6.1l9.9,6.1
		l2.5-10.6c1-4.3-1.9-7.5-5.7-8L74,37.6c-2.1,0-4.1,1.2-5.1,3.2c-1.2,2.8-1.4,4.9,0,7.7c0.9,1.7,3.2,3.4,5.1,3.2
		c6.1-0.8,9-6.1,12.8-10.8l-8.4-8.9c-2.5,3-4,6.8-4.4,10.9c-0.8,6,6.7,7.4,10.2,4.4c3.4-3,6.3-6.6,8.4-10.7c2.1-3.8-0.5-9.9-5.1-9.5
		c-5.7,0.4-11.1,2.8-15.3,6.9l9.4,7.6c1.3-2.2,3.4-4.8,4-7.3s-0.6-4.9-1.5-7.2c-1.1-2.7-4.4-3.4-6.7-2.9c-5.4,1.1-10.7,2.6-15.9,4.7
		l5.8,10.6l4.2-4.6c4.6-5.1-1.3-13.7-7.2-9.9c-2.9,1.8-5.3,4.4-6.7,7.7c-2.2,5.1,2.8,12.7,8.1,8.6c4-2.9,7.2-6.7,9.6-11.2
		c1.9-3.7-0.4-10.1-5.1-9.5c-8.8,1.1-17.3,4.2-24.8,9.3l8.8,7.1l2.4-6.5c2.4-6.6-5.9-9.5-10-6.1c-5.3,4.4-7.9,10.6-8.5,17.5
		c0,2.8,1.8,5.3,4.4,6.1c6.2,1.2,12.5,1.1,18.6-0.4L54,38c-3.6,5.6-5.7,12-6.2,18.7c-0.3,3.3,3,6.4,5.9,6.3
		c6.4-0.2,12.8-1.6,18.8-4.1l-6.7-9.2l-7.9,15.8l10.9,4.8l2.7-10.1c2-7.3-7.1-10.4-10.9-4.9c-4.9,7.1-9.1,14.6-12.7,22.5l10.9,4.9
		l2.1-11.9c0.7-3.4-1.3-6.8-4.6-7.6c-2.4-0.6-5,0.5-6.3,2.7c-4.4,6.6-8.6,13.4-12.5,20.4l10.9,1.5l-1.5-10.6
		c-0.6-4.5-7.3-6.2-9.9-2.8c-4.6,5.8-7.7,12.6-9.2,20l11.5,3.3l1.9-10.6c1.4-7.9-9-11.1-11.5-3.4c-1.5,4.6-2.6,9.3-3.3,14l11.6,1.6
		l0.7-9.3c0.5-6.8-8-7.8-11.1-3.2c-1.7,2.5-2.9,5.4-3.4,8.5c-1.2,6.5,7.9,11.7,10.9,4.9c4.5-10.4,9-20.8,13.4-31.3
		c4-9.7,7.5-19.4,7.5-30.1c0-5-5-7.5-9-5.4c-5.4,2.9-10.1,7.2-13.6,12.5l10.3,6.3l3.9-9.3c3.1-7.3-7-13.7-10.3-6.3
		c-2.1,4.7-3.6,9.8-4.4,15c-0.9,6.1,5.2,10.6,10,6.1c6-5.8,12.4-11.3,19.1-16.2c5.9-4.2,12-7.8,19.3-7.7s14.7,2.1,21.8,3.8
		c7.3,1.7,14.4,3.9,21.4,6.5c6.7,2.5,13.3,5.7,19.5,9.4c5.7,3.4,12.1,7.4,16.5,12.8c4.7,5.8,5.6,15,7.1,22.2
		c1.7,8.3,3.1,16.7,4.3,25.2c1,7.4,11.2,4.9,11.7-1.7l1.4-18.3l-11.7,1.7c3.6,23.5-1.1,47.9,6.7,70.8c1,3.3,4.4,5.2,7.6,4.1
		c2.4-0.8,4-3.1,4.1-5.7c0.5-9.1,7.2-16.4,10.8-24.3c4.8-10.6,4.4-21.2,3.2-32.6c-1.1-11.6-1.4-23.9-4.4-35.2
		c-2.8-10.5-9-18.9-15.2-27.3C173.8,29,160.8,15,141.3,10.2c-10.8-2.7-21.7-5.1-32.6-7.1c-4.7-1-9.6-1-14.3,0
		c-5.4,1.2-10.3,3.5-15.8,3.7c-6.1,0.2-11,1.1-16.6,3.8c-4.6,2.3-9.1,5-13.4,7.8C40,24.1,32.1,31.3,27.3,41c-3,6.1,4.6,13.1,9.3,7.6
		l4.5-5.2c5.1-6-3-14.7-8.4-8.9c-6.5,6.9-13,14-17.5,22.5c-4.7,8.8-7.4,18.7-9.7,28.4c-4.5,19.2-5.8,39.3,2.1,57.7
		c2.3,5.5,11.9,3,11.1-3.2c-0.9-7.1-1.8-14.2-1.6-21.4c0.2-7.5,2.1-14.2,4.7-21.2c2.6-6.9,5.2-14,7.8-21c2.4-6.5,4.2-15.1,8.4-20.5
		l-10.2-4.5l1.3,11.1c0.7,5.6,6,8.1,10.2,4.5l18.2-16l-9.4-7.6c-5,7.1-8.6,15.2-10.5,23.8c-1.5,6.8,7.4,11.2,10.9,4.9l9.4-17.2
		c3.9-7.1-6.1-13.1-10.3-6.3c-6.4,10.2-9.6,22.3-9.2,34.6c0.2,5.2,6.5,8.6,10.2,4.5c9.4-10.5,15.5-23.8,17.6-38.2
		c0.9-6.2-5.2-10.5-10-6.1c-11,10.1-19.9,22.5-26.3,36.3L40.2,86c4.7-11.2,7.6-23.2,8.7-35.4c0.5-5.8-6.7-7.8-10.2-4.5
		C27,57.5,21.1,73.3,17.3,89.2c-4.5,18.7-8.4,38.7-6.5,58.1C11.6,155.2,23.5,155.3,22.6,147.2L22.6,147.2z"/>
</g>
</svg>
