<svg xmlns="http://www.w3.org/2000/svg" viewBox="0 0 234.5 463.2"><defs><style>.cls-1{fill:#ffde8d;}.cls-2{fill:#ff9d00;}.cls-3,.cls-7,.cls-8,.cls-9{fill:none;}.cls-3{stroke:#ff0;stroke-linejoin:round;stroke-width:4px;}.cls-4{fill:#fff;}.cls-5{fill:#ffe6c8;}.cls-6{fill:#534741;}.cls-8{stroke:#534741;stroke-width:2px;}.cls-8,.cls-9{stroke-miterlimit:10;}.cls-9{stroke:#ffa9a9;}</style></defs><g id="Layer_2" data-name="Layer 2"><g id="Layer_1-2" data-name="Layer 1"><path class="cls-1" d="M17.34,93.4H177.46a16.38,16.38,0,0,1,16.28,16.48V254.93a16.37,16.37,0,0,1-16.28,16.47H17.34A16.37,16.37,0,0,1,1.06,254.93v-145A16.38,16.38,0,0,1,17.34,93.4Z"/><path class="cls-2" d="M57.22,122.3h81.56a8.05,8.05,0,0,1,8,8.1V455.1a8.05,8.05,0,0,1-8,8.1H57.22a8.05,8.05,0,0,1-8-8.1V130.4A8.05,8.05,0,0,1,57.22,122.3Z"/><polygon class="cls-3" points="49.22 203.89 97.91 266.66 146.78 203.89 49.22 203.89"/><rect class="cls-4" x="79.24" y="266.62" width="37.52" height="24.89"/><ellipse class="cls-5" cx="100" cy="121.92" rx="100" ry="102.02"/><path class="cls-6" d="M198.64,91.94c1.22,2.54,2.64,5.3,3,5.15,1.38-.55-2.88-42.42-30.3-69.51C145.09,1.61,110.31.51,99.9.16,86.53-.27,60.09-1.11,37,16.72,5.29,41.25-3.5,88.21,2.17,91.59c1,.61,2.6-.12,4-1Z"/><path class="cls-7" d="M56.29,131.08a10.8,10.8,0,0,0-4.15,1.21"/><rect class="cls-6" x="183.5" y="83.15" width="16" height="188.25"/><path class="cls-6" d="M194.74,271.4c12.54,1,23.69-16.89,39.76-20.37-11.71-27.18-16.77-54.05-21.64-85.73-2.58-16.76-3.51-22.77-5.58-39.6s-4.36-44.91-13.84-58.95c-.31,22-1.11,44.15-1.42,66.19-.15,10.12-.29,20.32.09,30.48,1.1,29.56,6.61,59,4.68,88.52-.34,5.25-5.36,7.22-7.28,12.15C188.62,264.05,189.5,271.4,194.74,271.4Z"/><path class="cls-6" d="M20.5,271.4H.5V83.15l20,2Z"/><ellipse class="cls-6" cx="149.5" cy="172.22" rx="1" ry="1.01"/><rect class="cls-5" x="68.5" y="63.92" width="2" height="28.34"/><ellipse class="cls-8" cx="67" cy="148.43" rx="17" ry="17.21"/><ellipse class="cls-8" cx="130" cy="148.43" rx="17" ry="17.21"/><rect class="cls-5" x="46.5" y="147.93" width="41" height="21.25"/><rect class="cls-5" x="108.5" y="147.93" width="40" height="23.28"/><ellipse class="cls-6" cx="66.5" cy="148.94" rx="13" ry="13.16"/><ellipse class="cls-6" cx="129.5" cy="148.94" rx="13" ry="13.16"/><path class="cls-6" d="M151.34,144.83l-2.84,3.37c-.67,1.26-2.11-.15-2.11-.15a13.71,13.71,0,0,1,0-2.22C146.34,145.23,150.24,145.1,151.34,144.83Z"/><path class="cls-6" d="M46.31,144.83l2.86,3.37c.66,1.26,2.11-.15,2.11-.15a15,15,0,0,0,0-2.22C51.31,145.23,47.41,145.1,46.31,144.83Z"/><ellipse class="cls-4" cx="123.54" cy="152.01" rx="7" ry="7.08"/><ellipse class="cls-4" cx="60.53" cy="152.01" rx="7" ry="7.08"/><line class="cls-9" x1="83.5" y1="190.94" x2="115.5" y2="190.94"/></g></g></svg>