<?xml version="1.0" encoding="utf-8"?>
<!-- Generator: Adobe Illustrator 25.1.0, SVG Export Plug-In . SVG Version: 6.00 Build 0)  -->
<svg version="1.1" id="Layer_1" xmlns="http://www.w3.org/2000/svg" xmlns:xlink="http://www.w3.org/1999/xlink" x="0px" y="0px"
	 viewBox="0 0 228.4 462.9" style="enable-background:new 0 0 228.4 462.9;" xml:space="preserve">
<style type="text/css">
	.st0{fill:#05B1FF;}
	.st1{fill:none;stroke:#FFFF00;stroke-width:4;stroke-linejoin:round;}
	.st2{fill:#FFFFFF;}
	.st3{fill:#FFE6C8;}
	.st4{fill:#534741;}
	.st5{fill:none;stroke:#534741;stroke-width:3;stroke-linecap:round;stroke-miterlimit:10;}
	.st6{fill:#F19369;}
</style>
<path class="st0" d="M70.9,114.8h89.2c4.8,0,8.8,3.8,8.8,8.5v331.2c0,4.7-3.9,8.5-8.8,8.5H70.9c-4.8,0-8.8-3.8-8.8-8.5V123.3
	C62.2,118.6,66.1,114.8,70.9,114.8z"/>
<polygon class="st1" points="62.2,198.1 115.4,262.2 168.8,198.1 "/>
<rect x="95" y="262.2" class="st2" width="41" height="25.4"/>
<ellipse class="st3" cx="115.5" cy="107.2" rx="109.3" ry="104.2"/>
<path class="st4" d="M155.4,4.6c-15.3-4.2-12.9-0.3-29.5-2.1C105.9,0.3,80.5-2.8,62.1,5C28.6,19.4,1.2,74.3,0.1,83.9
	c-1.1,9.5,4.4,36.3,6,37.2c23.5-38.2,101.1-52,124.1-59.4s93.2,61.6,93.2,61.6S242.2,113,206.7,49C190.4,19.4,170.7,8.8,155.4,4.6z"
	/>
<path class="st5" d="M36.6,125.4c0,0,3.4-13.5,25.5-13.7c22.2-0.3,22.2,12.4,22.2,12.4"/>
<path class="st5" d="M145,125.4c0,0,3.4-13.5,25.5-13.7c22.2-0.3,22.2,12.4,22.2,12.4"/>
<ellipse cx="61.4" cy="137.3" rx="6.6" ry="21.7"/>
<ellipse cx="168.5" cy="137.3" rx="6.6" ry="21.7"/>
<path class="st6" d="M95.2,169.5c1.1,1.4,6.7,8.5,16.4,9.5c9.4,1.1,18.9-4,24-12.7"/>
</svg>
