<?xml version="1.0" encoding="utf-8"?>
<!-- Generator: Adobe Illustrator 25.1.0, SVG Export Plug-In . SVG Version: 6.00 Build 0)  -->
<svg version="1.1" id="Layer_1" xmlns="http://www.w3.org/2000/svg" xmlns:xlink="http://www.w3.org/1999/xlink" x="0px" y="0px"
	 viewBox="0 0 234.9 462.9" style="enable-background:new 0 0 234.9 462.9;" xml:space="preserve">
<style type="text/css">
	.st0{fill:#FF9D00;}
	.st1{fill:none;stroke:#FFFF00;stroke-width:4;stroke-linejoin:round;}
	.st2{fill:#FFFFFF;}
	.st3{fill:#FFE6C8;}
	.st4{fill:#534741;}
	.st5{fill:none;stroke:#534741;stroke-width:4;stroke-linecap:round;stroke-linejoin:round;}
	.st6{fill:none;stroke:#534741;stroke-width:3.69;stroke-linecap:round;stroke-linejoin:round;}
	.st7{fill:#FFFFFF;stroke:#534741;stroke-width:4;stroke-linecap:round;stroke-linejoin:round;}
</style>
<path class="st0" d="M75.7,130.9h81.6c4.4,0,8,3.5,8,7.9V455c0,4.4-3.6,7.9-8,7.9H75.7c-4.4,0-8-3.5-8-7.9V138.8
	C67.7,134.4,71.3,130.9,75.7,130.9z"/>
<polygon class="st1" points="67.7,210.3 116.4,271.5 165.3,210.3 "/>
<rect x="97.8" y="271.4" class="st2" width="37.5" height="24.2"/>
<ellipse class="st3" cx="116.5" cy="123.6" rx="100" ry="99.4"/>
<g id="レイヤー_5">
	<path class="st4" d="M117.8,60.3c0.1,0,0.3-0.1,0.4-0.2c1-1.5,9.8-12.6,21.9-11.7c13,1,12,14.8,14,32.5c2,17.4,14.5,31,29.2,26.9
		c0.3-0.1,0.5-0.4,0.4-0.7c0-0.1-0.1-0.1-0.1-0.2c-1.7-2.1-6.5-8.7-4.8-14.3c0.1-0.3,0.4-0.5,0.7-0.4c0.1,0,0.2,0.1,0.2,0.1
		c4,3.4,25,23.5,14.6,57.9c-0.1,0.3,0.1,0.6,0.4,0.7c0.1,0,0.1,0,0.2,0c1.8,0,3.6-0.8,4.7-2.1c0.2-0.2,0.6-0.2,0.8,0
		c0.1,0.1,0.2,0.3,0.2,0.5c-1,5.8-4,17.9-11.6,25.4c-0.2,0.2-0.2,0.6,0,0.8c0.1,0.1,0.2,0.2,0.4,0.2c2.9,0.1,9.8-0.5,14.5-8.6
		c0-0.1,0.1-0.1,0.2-0.1c0,0,0.1,0,0.1,0.1c0.2,2.1,1.4,10.7,11.8,11.3c0.3,0,0.6-0.2,0.6-0.5c0-0.1,0-0.2-0.1-0.3
		c-1.6-2.6-5.6-9.9-2.4-13.9c3.9-4.8,13.4-13.3,11.2-28.3c0-0.3,0.2-0.6,0.5-0.6c0.1,0,0.3,0,0.4,0.1c1.6,0.9,4.6,2.3,7.8,1.6
		c0.3-0.1,0.5-0.4,0.4-0.7c0-0.1-0.1-0.2-0.2-0.3c-2.5-2.1-9.2-9.5-5.1-25c5-18.7,19.9-58.9-31.6-68.9c-0.2,0-0.4-0.2-0.4-0.5
		c-0.6-4.5-8.3-48.4-52.9-40c0,0-23,3.8-28.6,17.7c-0.1,0.3-0.4,0.4-0.7,0.3c-0.1,0-0.2-0.1-0.3-0.2c-4-4.9-27.6-29.5-69.3,1.8
		l0,0.1c-1,0.5-27.7,15.3-24,50.9c0,0.2-0.1,0.4-0.3,0.5C16.9,74.3-20,95.8,15,137c0.1,0.1,0.1,0.1,0.1,0.2
		c0.3,1.3,2.5,12.2,0.5,15.9c-0.1,0.3,0,0.6,0.3,0.8c0.1,0,0.1,0,0.2,0.1c1.2,0.2,2.4-0.2,3.4-1c0.2-0.2,0.6-0.2,0.8,0
		c0.1,0.1,0.2,0.2,0.2,0.3c0.6,3.1,0.9,10.5-7.9,13.8c-0.3,0.1-0.5,0.4-0.4,0.7c0.1,0.2,0.2,0.3,0.4,0.3c3.3,1.2,11,3.2,14-2.3
		c0.2-0.3,0.5-0.4,0.8-0.2c0.1,0,0.2,0.1,0.2,0.2c1.4,3,6.3,10,20.9,10.5c0.3,0,0.6-0.3,0.6-0.6c0-0.2-0.1-0.3-0.2-0.4
		c-4.1-3.7-17-17.2-11.3-34.2c0.3-0.8,0.5-1.7,0.6-2.5c0.5-4.2,2.3-17.9,4.9-20.4c2.5-2.5,12.2-9.9,15.1-15.2
		c0.2-0.3,0.5-0.4,0.8-0.2c0.2,0.1,0.3,0.3,0.3,0.5c0,2.4-0.4,5.6-2.7,7.6c-0.3,0.2-0.3,0.6-0.1,0.8c0.1,0.1,0.3,0.2,0.5,0.2
		c6.4-1.1,20.9-5.3,23.6-21.8c0.6-3.9,0.2-8-1.1-11.7C77.2,72.2,74,57.9,87,50.4c16.5-9.6,25.2,6.8,26,7.9c0,0,0,0.1,0.1,0.1
		C113.2,58.7,114.3,61,117.8,60.3z"/>
	<line class="st5" x1="133" y1="97.7" x2="158" y2="84.9"/>
	<path class="st6" d="M132.6,121.2c0,0,11.1-21.8,43.4,0c0,0,4.6,4.5,11.1-1.8"/>
	<ellipse class="st4" cx="150.6" cy="128.9" rx="14.3" ry="14.1"/>
	<line class="st5" x1="101" y1="97.7" x2="76" y2="84.9"/>
	<path class="st6" d="M101.2,121.2c0,0-11.1-21.8-43.4,0c0,0-4.6,4.5-11.1-1.8"/>
	<ellipse class="st4" cx="83.2" cy="128.9" rx="14.3" ry="14.1"/>
	<path class="st5" d="M120.5,152.9c0,0-8-3-8,4.9c0,7.9,8,3.9,8,3.9"/>
	<path class="st7" d="M117,175.5h24c0,0,5,27.6-24,27.6"/>
	<path class="st7" d="M117,175.5H93c0,0-3.3,26.6,24,27.6"/>
	<ellipse class="st4" cx="96.5" cy="152.9" rx="1.8" ry="1.7"/>
	<ellipse class="st4" cx="83.5" cy="160.2" rx="2.2" ry="2.1"/>
</g>
</svg>
