<?xml version="1.0" encoding="utf-8"?>
<!-- Generator: Adobe Illustrator 25.1.0, SVG Export Plug-In . SVG Version: 6.00 Build 0)  -->
<svg version="1.1" id="Layer_1" xmlns="http://www.w3.org/2000/svg" xmlns:xlink="http://www.w3.org/1999/xlink" x="0px" y="0px"
	 viewBox="0 0 229 462.9" style="enable-background:new 0 0 229 462.9;" xml:space="preserve">
<style type="text/css">
	.st0{fill:#896D62;}
	.st1{fill:#05B1FF;}
	.st2{fill:none;stroke:#FFFF00;stroke-width:4;stroke-linejoin:round;}
	.st3{fill:#FFFFFF;}
	.st4{fill:#FFE6C8;}
	.st5{fill:#FFE6C8;stroke:#C69C6D;stroke-width:2;stroke-miterlimit:10;}
	.st6{fill:#534741;}
	.st7{fill:none;stroke:#534741;stroke-width:4;stroke-miterlimit:10;}
	.st8{fill:#CA716E;}
</style>
<path class="st0" d="M26.9,78.9h167.9c5.6,0,10.1,4.7,10.1,10.6v116c0,5.8-4.5,10.6-10.1,10.6H26.9c-5.6,0-10.1-4.7-10.1-10.6v-116
	C16.8,83.6,21.3,78.9,26.9,78.9z"/>
<path class="st1" d="M72.3,112.7h81.6c4.4,0,8,3.7,8,8.3v333.6c0,4.6-3.6,8.3-8,8.3H72.3c-4.4,0-8-3.7-8-8.3V121
	C64.3,116.4,67.9,112.7,72.3,112.7z"/>
<polygon class="st2" points="64.3,196.5 113,261 161.9,196.5 "/>
<rect x="94.3" y="261" class="st3" width="37.5" height="25.6"/>
<ellipse class="st4" cx="113.1" cy="105" rx="100" ry="104.8"/>
<path class="st5" d="M113,129.7c-1.2,4.6-2.8,10.9-5,19.8c-1.1,4.6-2.1,8.5,0,11.4c1.3,1.6,3,2.7,5,3.1"/>
<path class="st0" d="M64,82.5c0.1-4.6-3.5-8.4-7.9-8.4c-2.5,0-4.9,1.2-6.4,3.2l-7.5,9.9c-1.4,1.8-3.5,2.9-5.8,2.9H23
	c-4.1,0-7.4-3.4-7.4-7.7c0-0.6,0.1-1.2,0.2-1.7C26.2,34.4,65.8,0,113.1,0s87,34.5,97.3,80.7c0.9,4.1-1.5,8.3-5.5,9.3
	c-0.6,0.1-1.1,0.2-1.7,0.2H71.4C67.3,90.2,64,86.7,64,82.5C64,82.5,64,82.5,64,82.5z"/>
<polygon class="st0" points="32,67.6 80,65.2 70.9,90.2 34.5,90.2 "/>
<path class="st0" d="M20.1,67.3c-1.9-0.4-3.6,19.6-12,55c-5.5,23-8.4,29.9-8,44c0.2,8.5,0.6,26.7,10,38.5c7.6,9.6,17.1,10.1,34.1,11
	c2.3,0.1,15.6,0.9,16.1-2.7c0.6-4.1-16.4-7.2-22.1-22c-1.1-2.8-3.1-9.4-6-16.5c-0.3-0.8-1.2-2.8-2-5.5c-0.8-2.7-1.5-5.5-2-8.3
	C26.3,150.3,23.9,68,20.1,67.3z"/>
<path class="st0" d="M206.6,71.4c2.1-0.4,4,19.6,13.4,55c6.1,23,9.3,29.9,8.9,44c-0.2,8.5-0.7,26.7-11.2,38.5
	c-8.5,9.6-19,10.1-37.9,11c-2.5,0.1-17.3,0.9-17.9-2.7c-0.6-4.1,18.2-7.2,24.5-22c1.2-2.8,3.4-9.4,6.7-16.5c0.8-1.8,1.6-3.6,2.2-5.5
	c0.9-2.7,1.7-5.5,2.2-8.3C199.8,154.5,202.4,72.2,206.6,71.4z"/>
<ellipse class="st6" cx="151.5" cy="114.7" rx="8.5" ry="6.9"/>
<path class="st7" d="M133.8,116c-0.4-4.2,8.9-9.2,17-10.3c12.2-1.6,24.4,5.2,24,8.7c-0.1,0.6-0.5,1.2-7,3.8
	c-7.4,2.9-11.1,4.4-13.9,4.8C145.1,124.1,134.2,120.4,133.8,116z"/>
<ellipse class="st6" cx="71.5" cy="116.8" rx="8.5" ry="6.9"/>
<path class="st7" d="M53.8,118.1c-0.4-4.2,8.9-9.2,17-10.3c12.2-1.6,24.4,5.2,24,8.7c-0.1,0.6-0.5,1.2-7,3.8
	c-7.4,2.9-11.1,4.4-13.9,4.8C65.1,126.2,54.2,122.5,53.8,118.1z"/>
<path class="st8" d="M96,178.5c0.4,1,3.8,10.3,12,12.5c8.6,2.3,19.2-3.9,23-15.6"/>
</svg>
