<?xml version="1.0" encoding="utf-8"?>
<!-- Generator: Adobe Illustrator 25.1.0, SVG Export Plug-In . SVG Version: 6.00 Build 0)  -->
<svg version="1.1" id="Layer_1" xmlns="http://www.w3.org/2000/svg" xmlns:xlink="http://www.w3.org/1999/xlink" x="0px" y="0px"
	 viewBox="0 0 207.4 462.9" style="enable-background:new 0 0 207.4 462.9;" xml:space="preserve">
<style type="text/css">
	.st0{fill:#282B30;}
	.st1{fill:#05B1FF;}
	.st2{fill:none;stroke:#FFFF00;stroke-width:4;stroke-linejoin:round;}
	.st3{fill:#FFFFFF;}
	.st4{fill:#FFE6C8;}
	.st5{fill:none;stroke:#282B30;stroke-miterlimit:10;}
	.st6{fill:none;stroke:#282B30;stroke-linecap:round;stroke-miterlimit:10;}
</style>
<path class="st0" d="M197.5,154c-3,6.2-7.2,21.1-9,24.7c-0.8-1-1.8-1.6-3-1c0,0,0.7,5.3-1,8.2c-0.9-1.1-1.8-2.2-4-1
	c-1,3.3-6.4,6.8-12,10.3c1.4-1.2,6.7-19.1,2-7.2c-4.5,11.3-4.6,11.4-5,11.3c1.2-3-0.5-5.1-2-7.2c-1.7,4.1-4.3,9.1-3,10.3
	c-1.1,0.1-2.2-0.2-3-1l-5,5.1l3-21.6C155.5,184.9,197.5,153,197.5,154z"/>
<path class="st0" d="M9.5,154c2,2.1,3.2,21.1,5,24.7c0.8-1,1.8-1.6,3-1c2.1,0.9,2,6.4,1,8.2c1.4,0.6,3,0.2,4-1
	c3.6,0.1,8.6,4.1,12,10.3c-1.4-1.2-6.7-19.1-2-7.2c4.5,11.3,4.6,11.4,5,11.3c-1.2-3,0.5-5.1,2-7.2c-0.7,4.2,1.3,9.3,3,10.3
	c0.6-1,1.9-1.5,3-1c3,1.6,5.4,3.3,5,5.1c4.6-1.2-0.8-12.9-3-21.6L9.5,154z"/>
<path class="st1" d="M62.2,124.5h81.6c4.4,0,8,3.7,8,8.2v322c0,4.5-3.6,8.2-8,8.2H62.2c-4.4,0-8-3.7-8-8.2v-322
	C54.2,128.1,57.8,124.5,62.2,124.5z"/>
<polygon class="st2" points="54.2,205.5 102.9,267.8 151.8,205.5 "/>
<rect x="84.2" y="267.7" class="st3" width="37.5" height="24.7"/>
<ellipse class="st4" cx="103" cy="117" rx="100" ry="101.3"/>
<path class="st0" d="M48.6,134.6c-0.5-4.5,41.3-9.1,41.8-4.6l-1.2-3.3c-0.1-0.5-4.6-3.1-5.2-3.4c-6.8-3.1-34.9,1.9-34.4,6.6
	L48.6,134.6z"/>
<path class="st0" d="M83.5,139.2c0.4,1.3,0.6,2.6,0.6,3.9v11.4c0,6.8-5.4,12.3-12,12.3s-12-5.5-12-12.3v-11.4c0-1,0.1-1.9,0.3-2.9
	C68.1,139.2,75.8,138.9,83.5,139.2z"/>
<path class="st0" d="M157.4,134.6c0.5-4.5-41.3-9.1-41.8-4.6l1.2-3.3c0.1-0.5,4.6-3.1,5.2-3.4c6.7-3.1,34.9,1.9,34.4,6.6
	L157.4,134.6z"/>
<path class="st0" d="M122.5,139.2c-0.4,1.3-0.6,2.6-0.6,3.9v11.4c0,6.8,5.4,12.3,12,12.3c6.6,0,12-5.5,12-12.3v-11.4
	c0-1-0.1-1.9-0.3-2.9C137.9,139.2,130.2,138.9,122.5,139.2z"/>
<path class="st5" d="M88.4,197.8c1.8,0.6,3.9-0.3,6.1-1.6c5.6,0.4,11.2,0.4,16.8,0c3.2,1.2,5.2,1.5,6.4,1.4"/>
<path class="st5" d="M96.3,200.8c4.3,1.2,8.9,1.2,13.2,0"/>
<path class="st0" d="M150.5,95.5l8.7,17.9l8.7,34.7c8.7-14.9,24.5-4.7,26.4,10.1c9.4-10.7,11.3-23.8,12.8-38.9
	c0.5-10.6,0.2-21.2-1-31.7c-2-23.2-10-40.7-25.6-58.5l-74.3-7.9L46.3,34L12.5,63.8C2.1,79.8,1.1,94.2,0,106.4
	c0.1,10.4,0.1,28.9,3.9,37.7l6.8,12.9c2.9-12.9,16.4-23.8,27-7.9l9.6-37.7c0,0,3-4.7,3.9-7.9l1-20.8c0,0,45-28.3,70.4-9.9
	L150.5,95.5z"/>
<path class="st0" d="M180.5,29.1l3.8,12.9L11.5,65.9c6.6-11.7,21.3-58.6,64.7-53.7c11.9-8.4,34.3-17.5,63.3-8.4
	C156.5,12.5,171.1,19.2,180.5,29.1z"/>
<path class="st0" d="M149,39.4l23,87.4l-7.5,5.7c-13.2-20.7-70.4-24.1-102.4-13.7c4.9-4.3,4.2-31.2,3.9-31c-0.4,0.1,1,19.5-5.9,31.7
	c-9,3.2-15.8,7.6-18.6,13l-8.5-2.6l25-83.3"/>
<path class="st0" d="M109.5,103.7c0.8,3.9-1.8,8.1-5,12.3c8-3.8,13.9-7.4,15-10.3L109.5,103.7z"/>
<path class="st0" d="M113.5,102.6c0.8,3.9-1.8,8.1-5,12.3c8-3.8,13.9-7.4,15-10.3L113.5,102.6z"/>
<path class="st6" d="M81.5,137.6c0,0-15-2.1-19,0"/>
<path class="st6" d="M132.5,137.7c0,0,7.5-0.6,9.5,0.4"/>
</svg>
