<?xml version="1.0" encoding="utf-8"?>
<!-- Generator: Adobe Illustrator 25.1.0, SVG Export Plug-In . SVG Version: 6.00 Build 0)  -->
<svg version="1.1" id="Layer_1" xmlns="http://www.w3.org/2000/svg" xmlns:xlink="http://www.w3.org/1999/xlink" x="0px" y="0px"
	 viewBox="0 0 200.1 462.9" style="enable-background:new 0 0 200.1 462.9;" xml:space="preserve">
<style type="text/css">
	.st0{fill:#05B1FF;}
	.st1{fill:none;stroke:#FFFF00;stroke-width:4;stroke-linejoin:round;}
	.st2{fill:#FFFFFF;}
	.st3{fill:#FFE6C8;}
	.st4{fill:#534741;}
	.st5{fill:none;stroke:#534741;stroke-width:4;stroke-linecap:round;stroke-miterlimit:10;}
	.st6{opacity:0.1;fill:#00FFFF;stroke:#444444;stroke-width:4;stroke-miterlimit:10;enable-background:new    ;}
	.st7{fill:none;stroke:#444444;stroke-width:4;stroke-miterlimit:10;}
</style>
<path class="st0" d="M59.3,112.7h81.6c4.4,0,8,3.7,8,8.3v333.6c0,4.6-3.6,8.3-8,8.3H59.3c-4.4,0-8-3.7-8-8.3V121
	C51.3,116.4,54.9,112.7,59.3,112.7z"/>
<polygon class="st1" points="51.3,196.5 100,261 148.9,196.5 "/>
<rect x="81.3" y="261" class="st2" width="37.5" height="25.6"/>
<ellipse class="st3" cx="100.1" cy="105" rx="100" ry="104.8"/>
<path class="st4" d="M179,75.6c7,2.2,12.7,9.7,18,16.6c1.3,1.7,2.3,3.1,3,4.2C195,41.5,150.6-0.2,99.9,0C45.8,0.2-0.2,47.9,0,106.8
	C35.2,87.7,63,84.4,82,85c33,1,61.7,1.7,82-7.3C166.6,76.5,172.6,73.6,179,75.6z"/>
<path class="st5" d="M131,162.9c-1.6,2.9-3.6,5.6-5.9,7.9c-8.3,8.3-18.5,9.4-22.7,9.8c-5.9,0.5-13.8,1.3-19.4-4.2
	c-1.8-1.7-3.1-3.9-4-6.2"/>
<ellipse class="st6" cx="62.2" cy="123.8" rx="29" ry="28.7"/>
<ellipse class="st6" cx="144.2" cy="123.8" rx="29" ry="28.7"/>
<ellipse class="st7" cx="62.2" cy="123.8" rx="29" ry="28.7"/>
<ellipse class="st7" cx="144.2" cy="123.8" rx="29" ry="28.7"/>
<line class="st7" x1="91.2" y1="123.8" x2="115.2" y2="123.8"/>
<ellipse class="st4" cx="75.5" cy="125" rx="5.5" ry="5.7"/>
<path class="st4" d="M54.5,117.3h29.1c1.4,0,2.4,1.1,2.4,2.5l0,0c0,1.4-1.1,2.5-2.4,2.5H54.5c-1.4,0-2.5-1.1-2.5-2.5l0,0
	C52,118.4,53.1,117.3,54.5,117.3z"/>
<ellipse class="st4" cx="149.5" cy="125" rx="5.5" ry="5.7"/>
<path class="st4" d="M128.4,117.3h29.1c1.4,0,2.4,1.1,2.4,2.5l0,0c0,1.4-1.1,2.5-2.4,2.5h-29.1c-1.4,0-2.4-1.1-2.4-2.5l0,0
	C126,118.4,127.1,117.3,128.4,117.3z"/>
</svg>
