<?xml version="1.0" encoding="utf-8"?>
<!-- Generator: Adobe Illustrator 25.1.0, SVG Export Plug-In . SVG Version: 6.00 Build 0)  -->
<svg version="1.1" id="Layer_1" xmlns="http://www.w3.org/2000/svg" xmlns:xlink="http://www.w3.org/1999/xlink" x="0px" y="0px"
	 viewBox="0 0 210.2 464.6" style="enable-background:new 0 0 210.2 464.6;" xml:space="preserve">
<style type="text/css">
	.st0{fill:#05B1FF;}
	.st1{fill:none;stroke:#FFFF00;stroke-width:4;stroke-linejoin:round;}
	.st2{fill:#FFFFFF;}
	.st3{fill:#FFE6C8;}
	.st4{stroke:#000000;stroke-miterlimit:10;}
	.st5{fill:none;stroke:#000000;stroke-width:5;stroke-linecap:round;stroke-miterlimit:10;}
	.st6{fill:none;stroke:#000000;stroke-width:4.24;stroke-linecap:round;stroke-miterlimit:10;}
	.st7{fill:none;stroke:#000000;stroke-width:4.13;stroke-linecap:round;stroke-miterlimit:10;}
	.st8{fill:none;stroke:#000000;stroke-width:3;stroke-linecap:round;stroke-miterlimit:10;}
	.st9{fill:none;stroke:#000000;stroke-width:2.88;stroke-linecap:round;stroke-miterlimit:10;}
</style>
<path class="st0" d="M63.9,112.9h82.2c4.5,0,8.1,3.8,8.1,8.5V456c0,4.7-3.6,8.5-8.1,8.5H63.9c-4.5,0-8.1-3.8-8.1-8.5V121.5
	C55.8,116.8,59.4,112.9,63.9,112.9z"/>
<polygon class="st1" points="55.8,197.1 104.9,261.8 154.2,197.1 "/>
<rect x="86.1" y="261.8" class="st2" width="37.8" height="25.7"/>
<ellipse class="st3" cx="105" cy="105.2" rx="100.8" ry="105.2"/>
<path class="st4" d="M11.3,66.9c0,0,0.2,7.3,8.4,11.6l3.2-18.2l12.1,21.4c0,0-8.1-12.8-2-17.1l12.5,17.1V62.2
	c0,0,9.7,20.6,27.3,19.5l-7.6-18.2l19.3,20.7c0,0-12-25.7,0-21.6c0,0,3.1,18.2,10.8,18.3c0,0,6.7-18.8,5.2-25.9c0,0-0.6,25.9,7,29.2
	c0,0-0.8-29.6,7.9-29.2v27.3c0,0,4.3-25.1,8.5-24.9c4.3,0.2,5.3,29,5.3,29s8.4-15.8,7.7-23.4c-0.7-7.6,10.6,27.8,10.6,27.8
	s10.5-18.6,6.7-26s12,28.2,12,28.2s-0.7-18.5,4.4-22.8c5-4.3,8.1,15,8.1,15s8.1-7.5,7.1-18.2l5,11.7c0,0-1-13.9,3-13.9
	s9.3,15.6,9.3,15.6S187.7,4.3,105,0C105,0,39.5-2.9,11.3,66.9z"/>
<g id="装飾">
	<path class="st5" d="M68.7,88.6c0,0,7.1,9.6,21.2,1.1"/>
	<line class="st5" x1="123.5" y1="93.2" x2="142.3" y2="95.1"/>
	<line class="st6" x1="69.2" y1="113.2" x2="87.4" y2="115.3"/>
	<line class="st7" x1="123.5" y1="117.6" x2="140.8" y2="117.6"/>
	<path class="st8" d="M87.4,141.8c0,0-6.6,5.6,0,10.9"/>
	<path class="st8" d="M115.4,143c0,0,6.6,5.6,0,10.9"/>
	<path class="st8" d="M89.9,152.7c0,0,3.7-2.1,5.4,0"/>
	<path class="st8" d="M107.5,154.8c0,0,3.7-2.1,5.4,0"/>
	<line class="st8" x1="79.3" y1="170.4" x2="77.8" y2="177.3"/>
	<path class="st9" d="M121.6,173.9c0,0-38,4.9-42.3,0"/>
	<path class="st8" d="M122,170.4c0,0-0.2,4.7,1.5,6.9"/>
	<path class="st9" d="M72.7,196.2c0,0,35.6,22.9,64.2-1.7"/>
	<path class="st7" d="M30.9,137.2"/>
</g>
</svg>
