<svg xmlns="http://www.w3.org/2000/svg" viewBox="0 0 259.63 462.41"><defs><style>.cls-1{fill:#ff9d00;}.cls-2,.cls-6{fill:none;}.cls-2{stroke:#ff0;stroke-linejoin:round;stroke-width:4px;}.cls-3{fill:#fff;}.cls-4{fill:#ffe6c8;}.cls-5{fill:#534741;}.cls-6{stroke:#000;stroke-miterlimit:10;}</style></defs><g id="Layer_2" data-name="Layer 2"><g id="Layer_1-2" data-name="Layer 1"><path class="cls-1" d="M89,112.81h81.56a8.15,8.15,0,0,1,8,8.3v333a8.16,8.16,0,0,1-8,8.3H89a8.16,8.16,0,0,1-8-8.3v-333A8.15,8.15,0,0,1,89,112.81Z"/><polygon class="cls-2" points="80.95 196.47 129.64 260.85 178.51 196.47 80.95 196.47"/><rect class="cls-3" x="110.97" y="260.81" width="37.52" height="25.52"/><ellipse class="cls-4" cx="129.73" cy="105.15" rx="100" ry="104.63"/><path class="cls-5" d="M235.23,103.8C223,44.07,180.39,0,129.73,0S36.49,44.07,24.23,103.8Z"/><polygon class="cls-4" points="171.08 105.17 155.11 104.38 162.23 91.34 171.08 105.17"/><ellipse class="cls-5" cx="93.73" cy="137.53" rx="11.5" ry="11.94"/><ellipse class="cls-5" cx="166.73" cy="136.49" rx="11.5" ry="11.94"/><ellipse class="cls-3" cx="97.23" cy="139.09" rx="3" ry="3.11"/><ellipse class="cls-3" cx="172.23" cy="138.05" rx="3" ry="3.11"/><path class="cls-5" d="M30.83,103.8s-4.23,61.84,50.09,92.67c0,0-77.69,3.86-80.69-1.33s24-91.34,24-91.34Z"/><path class="cls-5" d="M228.8,103.8s4.22,61.84-50.09,92.67c0,0,77.68,3.86,80.68-1.33s-24-91.34-24-91.34Z"/><path class="cls-6" d="M99.73,167.63c2.39,2.28,14.19,13.05,32,12.46a44.77,44.77,0,0,0,28-11.42"/></g></g></svg>