<svg xmlns="http://www.w3.org/2000/svg" viewBox="0 0 200 463.4"><defs><style>.cls-1{fill:#ff9d00;}.cls-2{fill:none;stroke:#ff0;stroke-linejoin:round;stroke-width:4px;}.cls-3{fill:#fff;}.cls-4{fill:#ffe6c8;}.cls-5{fill:#534741;}</style></defs><g id="Layer_2" data-name="Layer 2"><g id="Layer_1-2" data-name="Layer 1"><path class="cls-1" d="M58.72,113.85h81.56a8.25,8.25,0,0,1,8,8.49V454.91a8.25,8.25,0,0,1-8,8.49H58.72a8.25,8.25,0,0,1-8-8.49V122.34A8.25,8.25,0,0,1,58.72,113.85Z"/><polygon class="cls-2" points="50.72 197.51 99.41 261.87 148.28 197.51 50.72 197.51"/><rect class="cls-3" x="80.74" y="261.83" width="37.52" height="25.51"/><ellipse class="cls-4" cx="100" cy="104.62" rx="100" ry="104.62"/><path class="cls-5" d="M197.14,78.55c-11.24-44.9-50.29-78-96.73-78s-85.49,33.13-96.74,78Z"/><path class="cls-5" d="M13.12,97.25A47.54,47.54,0,0,0,25.39,81.94,1.14,1.14,0,0,1,27,81.39a1.24,1.24,0,0,1,.64,1,36.27,36.27,0,0,0,7.53,18.8,1.12,1.12,0,0,0,1.65.12,1.3,1.3,0,0,0,.35-.56l5.49-16.72a1.16,1.16,0,0,1,1.46-.83,1.24,1.24,0,0,1,.83,1.22,63.41,63.41,0,0,0,3.54,18,1.16,1.16,0,0,0,1.47.78,1.22,1.22,0,0,0,.6-.5A196.19,196.19,0,0,1,66.16,81.74a1.12,1.12,0,0,1,1.67,0,1.26,1.26,0,0,1,.33.72l3.42,25.22a1.2,1.2,0,0,0,1.29,1.13,1.14,1.14,0,0,0,.81-.47c1.44-1.95,3.52-5.21,3.52-5.21,4.92-13.8,6.11-12.69,7.15-15.5a1.34,1.34,0,0,1,.52-.69,1.13,1.13,0,0,1,1.6.46,1.28,1.28,0,0,1,.14.43,109.23,109.23,0,0,0,6.09,20.38,1.15,1.15,0,0,0,1.53.68,1.25,1.25,0,0,0,.6-.6q5.94-12.14,11-24.79a1.14,1.14,0,0,1,1.53-.67,1.23,1.23,0,0,1,.72,1.09,63.53,63.53,0,0,0,7.54,25,1.13,1.13,0,0,0,1.57.5,1.19,1.19,0,0,0,.5-.56,85.76,85.76,0,0,0,5.93-17.62,1.18,1.18,0,0,1,1.36-1,1.21,1.21,0,0,1,.93.94,61.87,61.87,0,0,0,5.43,14,1.13,1.13,0,0,0,1.58.5,1.16,1.16,0,0,0,.48-.5l10.92-20.67a1.14,1.14,0,0,1,1.6-.5,1.26,1.26,0,0,1,.61,1.22,62.18,62.18,0,0,0,1.29,13.61,1.18,1.18,0,0,0,1.37,1,1.15,1.15,0,0,0,.85-.71l5.67-12.87a1.14,1.14,0,0,1,1.53-.63,1.25,1.25,0,0,1,.59.63l7.53,16.42a1.14,1.14,0,0,0,1.55.6,1.16,1.16,0,0,0,.62-.73L176,78a1.17,1.17,0,0,1,1.51-.76,1.26,1.26,0,0,1,.78,1.21,66,66,0,0,0,4.38,22.2,1.15,1.15,0,0,0,1.51.73,1.25,1.25,0,0,0,.7-.79l3.8-11.2a1.17,1.17,0,0,1,1.49-.8,1.26,1.26,0,0,1,.81,1.21h0a1.23,1.23,0,0,0,1.17,1.27,1.17,1.17,0,0,0,1-.54,17.46,17.46,0,0,0,2.52-13.24,1.22,1.22,0,0,0-1-1Q127.57,66,60,61c-6.9-.51-13.92-1-20.65.78A141,141,0,0,0,11.1,72.65C5,75.94,6,70.77,4.77,78.19c-.65,3.89,4.49,13.57,6.62,18.54a1.13,1.13,0,0,0,1.51.65A1.27,1.27,0,0,0,13.12,97.25Z"/><ellipse class="cls-3" cx="59.5" cy="126.86" rx="14.5" ry="7.96"/><ellipse cx="63" cy="127.39" rx="4" ry="4.25"/><ellipse class="cls-3" cx="139.49" cy="126.86" rx="14.5" ry="7.96" transform="translate(-5.2 5.96) rotate(-2.4)"/><ellipse cx="136" cy="127.39" rx="4" ry="4.25"/><path d="M78.69,173.26c1.33,3.4,4.89,4.08,8,4.74a50.49,50.49,0,0,0,12,1.17c7-.19,14.15-2.53,18.32-8.87,1.11-1.69-1.49-3.28-2.59-1.61C111,173.9,104.8,175.76,99.1,176a46.25,46.25,0,0,1-9.76-.68c-1.59-.28-3.17-.63-4.72-1.06-1-.29-2.59-.68-3-1.82-.73-1.87-3.64-1.06-2.9.84Z"/><path class="cls-5" d="M43.28,105a37.14,37.14,0,0,1,16.65-3.76,29.18,29.18,0,0,1,8.2,1.12,24.81,24.81,0,0,1,7.45,4.25c1.58,1.18,3.08-1.58,1.51-2.75a27.07,27.07,0,0,0-8-4.54A32.34,32.34,0,0,0,59.88,98a40.42,40.42,0,0,0-18.17,4.2c-1.75.84-.23,3.59,1.52,2.74Z"/><path class="cls-5" d="M122.85,109.72c.46-2.74,3.91-3.61,6-4.35a58.68,58.68,0,0,1,9.37-2.44c5.47-1,11.54-1.15,16.28,2.38,1.59,1.17,3.09-1.59,1.51-2.75-5.54-4.12-12.68-3.78-19-2.62a59.48,59.48,0,0,0-10.91,3.1c-2.62,1.07-5.57,2.63-6.11,5.84-.34,2,2.55,2.86,2.89.84Z"/></g></g></svg>