<?xml version="1.0" encoding="utf-8"?>
<!-- Generator: Adobe Illustrator 25.1.0, SVG Export Plug-In . SVG Version: 6.00 Build 0)  -->
<svg version="1.1" id="Layer_1" xmlns="http://www.w3.org/2000/svg" xmlns:xlink="http://www.w3.org/1999/xlink" x="0px" y="0px"
	 viewBox="0 0 220 462.9" style="enable-background:new 0 0 220 462.9;" xml:space="preserve">
<style type="text/css">
	.st0{fill:#FF9D00;}
	.st1{fill:none;stroke:#FFFF00;stroke-width:4;stroke-linejoin:round;}
	.st2{fill:#FFFFFF;}
	.st3{fill:#FFE6C8;}
	.st4{fill:none;stroke:#000000;stroke-width:6;stroke-miterlimit:10;}
	.st5{fill:#534741;}
	.st6{fill:none;}
	.st7{fill:#FF2106;}
</style>
<path class="st0" d="M66.7,145.7h81.6c4.4,0,8,3.5,8,7.7v301.8c0,4.3-3.6,7.7-8,7.7H66.7c-4.4,0-8-3.5-8-7.7V153.4
	C58.7,149.2,62.3,145.7,66.7,145.7z"/>
<polygon class="st1" points="58.7,221.6 107.4,280 156.3,221.6 "/>
<rect x="88.7" y="280" class="st2" width="37.5" height="23.1"/>
<ellipse class="st3" cx="107.5" cy="138.8" rx="100" ry="94.9"/>
<line class="st4" x1="28" y1="145.5" x2="82" y2="145.5"/>
<line class="st4" x1="132" y1="145.5" x2="186" y2="145.5"/>
<path class="st5" d="M220,139.7C206.7,73.9,178.2,25.5,148.6,10c-11.8-6-24.9-9.4-38.2-10C97.1,0.5,84,3.9,72.2,10
	C42.6,25.4,13.8,73.7,0,139.7H220z"/>
<line class="st6" x1="39" y1="152.2" x2="68" y2="152.2"/>
<path class="st7" d="M74.7,192c10.1,15.7,31.4,20.5,47.7,10.8c6.4-3.8,11.4-9.6,14.1-16.4"/>
</svg>
