<?xml version="1.0" encoding="utf-8"?>
<!-- Generator: Adobe Illustrator 25.1.0, SVG Export Plug-In . SVG Version: 6.00 Build 0)  -->
<svg version="1.1" id="Layer_1" xmlns="http://www.w3.org/2000/svg" xmlns:xlink="http://www.w3.org/1999/xlink" x="0px" y="0px"
	 viewBox="0 0 233.3 486.9" style="enable-background:new 0 0 233.3 486.9;" xml:space="preserve">
<style type="text/css">
	.st0{fill:#FF9D00;}
	.st1{fill:none;stroke:#FFFF00;stroke-width:4;stroke-linejoin:round;}
	.st2{fill:#FFFFFF;}
	.st3{fill:#FFE6C8;}
	.st4{fill:none;stroke:#000000;stroke-linecap:round;stroke-linejoin:round;}
	.st5{fill:#FFFFFF;stroke:#000000;stroke-linecap:round;stroke-linejoin:round;}
	.st6{fill:#534741;}
	.st7{fill:none;stroke:#000000;stroke-linecap:round;stroke-miterlimit:10;}
	.st8{fill:#E7002D;}
</style>
<path class="st0" d="M72.2,121h90.1c4.9,0,8.8,4,8.8,8.8V476c0,4.9-4,8.8-8.8,8.8H72.2c-4.9,0-8.8-4-8.8-8.8V129.9
	C63.3,125,67.3,121,72.2,121z"/>
<polygon class="st1" points="63.3,208.1 117.1,275.1 171.1,208.1 "/>
<rect x="96.5" y="275.1" class="st2" width="41.5" height="26.6"/>
<ellipse class="st3" cx="117.2" cy="113.1" rx="110.5" ry="108.9"/>
<polyline class="st4" points="116.1,111.4 102.9,152.3 122.7,152.3 "/>
<path class="st5" d="M91.8,168.9l-3.3,6.6l59.8-6.6c0,0-14.4,31.8-29.8,31.9s-27.7-9.8-26.6-25.3"/>
<path d="M128.2,86.9c15.2-6.3,32.1-7.6,48.1-3.7l1.4,0.7c0,0-27.9-0.7-48.9,3.7L128.2,86.9z"/>
<path d="M102.6,86.9c-15.2-6.3-32.1-7.6-48.1-3.7L53.1,84c0,0,27.9-0.7,48.9,3.7L102.6,86.9z"/>
<path class="st6" d="M115.9,4.3C129-0.1,143-1.1,156.6,1.2c8.2,1.4,7.7,2,11.6,3.3c10.4,3.6,23.1,3.6,43,30.1
	c23,30.7,18.8,36.5,21,75.1s-21,57.5-21,57.5l3.3-24.3l-15.5,25.4v-22.1l-19.9,27.6c0,0,8-92.8-13.3-107.2c0,0-25.6-62.8-50-26.4"/>
<path class="st6" d="M116.2,4.3c-13.1-4.3-27-5.4-40.6-3.1C67.4,2.5,67.8,3.1,64,4.5c-9.2,3.6-23.1,3.6-42.9,30.1
	c-22.9,30.7-18.8,36.5-21,75.1s21,57.5,21,57.5l-3.3-24.3l15.5,25.4v-22.1l19.9,27.6c0,0-8-92.8,13.3-107.2c0,0,25.6-62.8,49.9-26.4
	"/>
<path class="st7" d="M135.1,104.2c0,0.3,19.5-11.1,41.8-0.6"/>
<path d="M155.3,98.7c0,15.4-3.9,12.7-9.1,15.1s-6.4-11.7-6.4-11.7"/>
<path class="st7" d="M98.4,104.2c0,0.3-19.5-11.1-41.8-0.6"/>
<path d="M78.2,98.7c0,15.4,3.9,12.7,9.1,15.1s6.4-11.7,6.4-11.7"/>
<path class="st8" d="M95.7,189.3c0,0,35.4-13.2,44.2-6.6c0,0-12.2,19.8-21.5,17.5L95.7,189.3z"/>
<path class="st8" d="M95.7,189.3c6.6,12.2,24.3,11.1,24.3,11.1"/>
<polyline class="st3" points="91.9,169.9 89.4,174.8 96.8,174 91.9,169.9 "/>
<g id="装飾">
	<circle cx="152.6" cy="94.8" r="1.1"/>
	<circle cx="155.3" cy="167.2" r="1.1"/>
</g>
</svg>
