<?xml version="1.0" encoding="utf-8"?>
<!-- Generator: Adobe Illustrator 25.1.0, SVG Export Plug-In . SVG Version: 6.00 Build 0)  -->
<svg version="1.1" id="Layer_1" xmlns="http://www.w3.org/2000/svg" xmlns:xlink="http://www.w3.org/1999/xlink" x="0px" y="0px"
	 viewBox="0 0 220 463.9" style="enable-background:new 0 0 220 463.9;" xml:space="preserve">
<style type="text/css">
	.st0{fill:#534741;}
	.st1{fill:#FF9D00;}
	.st2{fill:none;stroke:#FFFF00;stroke-width:4;stroke-linejoin:round;}
	.st3{fill:#FFFFFF;}
	.st4{fill:#FFE6C8;}
	.st5{fill:none;stroke:#534741;stroke-width:3;stroke-linecap:round;stroke-miterlimit:10;}
	.st6{fill:none;stroke:#534741;stroke-width:4;stroke-linecap:round;stroke-miterlimit:10;}
</style>
<path class="st0" d="M109.8,211H6.3c5.6-7.3,7.5-16.9,5-25.9c-1.8-6.9-9-10.3-11-22.8c-2-12.4,6.2-18.4,7-33.1s-5-15.5-2-33.1
	s10-24.8,14-34.1s4-16.5,10-25.9s21-19.7,35-24.8s24-6.2,46-8.3C109.3,23.8,109.8,211,109.8,211z"/>
<path class="st0" d="M110.3,211h103.5c-5.6-7.3-7.5-16.9-5-25.9c1.8-6.9,9.5-11.4,11-22.8s-6.2-18.4-7-33.1s5-15.5,2-33.1
	s-10-24.8-14-34.1s-4-16.5-10-25.9s-21-19.7-35-24.8s-24-6.2-46-8.3C110.8,23.8,110.3,211,110.3,211z"/>
<path class="st1" d="M69.3,115.5h81.6c4.4,0,8,3.7,8,8.3v331.8c0,4.6-3.6,8.3-8,8.3H69.3c-4.4,0-8-3.7-8-8.3V123.8
	C61.3,119.2,64.9,115.5,69.3,115.5z"/>
<polygon class="st2" points="61.3,198.9 110,263 158.8,198.9 "/>
<rect x="91.3" y="263" class="st3" width="37.5" height="25.4"/>
<ellipse class="st4" cx="110.1" cy="107.9" rx="100" ry="104.3"/>
<path class="st0" d="M58.4,66.4c0-0.4-0.3-0.7-0.6-0.7c-0.2,0-0.4,0.1-0.6,0.3L33.4,99.3H6.6C13.6,43.2,57.1,0,109.6,0
	s95.9,43.2,103,99.3H58.4V66.4z"/>
<path class="st5" d="M95.7,186.5c0,0-2.6,1.9,13.7,1.9s14-1.9,14-1.9"/>
<line class="st6" x1="61" y1="119.4" x2="95.7" y2="122"/>
<path class="st0" d="M67.8,144.6c-0.1,9.8,5,14.6,10.8,14.6s10.1-4.7,10.2-14.4c0.1-9.8-4.4-13.4-10.2-13.5S67.8,134.9,67.8,144.6z"
	/>
<line class="st6" x1="122.9" y1="121.6" x2="157.6" y2="118.9"/>
<path class="st0" d="M129.8,144.4c-0.1,9.8,5,14.6,10.8,14.6s10.1-4.7,10.2-14.5c0.1-9.8-4.4-13.4-10.2-13.4
	S129.9,134.7,129.8,144.4z"/>
<path class="st0" d="M14.2,84.5c-1.5,1-2.5,2.7-2.7,4.5c-2.5,15.1-11.2,75.3,3.2,92.1c4.9,5.6,7.1,9.7,7.7,12.6
	c1.4,6,6.6,6.2,7.8,0.2c0-0.1,0-0.3,0.1-0.4c2.1-11.3,4.8-72.2-2.7-93.3c-2-5.7,0.5-0.9,0.6-9L14.2,84.5z"/>
<rect x="33.1" y="61.2" class="st0" width="36.4" height="38.1"/>
<path class="st0" d="M192.6,196.2c-1.6-0.9-2.7-2.6-2.9-4.5c-2.7-15.1-12.1-75.4,3.2-92.1c5.2-5.6,7.5-9.7,8.2-12.6
	c1.5-6,7.1-6.2,8.4-0.2c0,0.1,0,0.3,0.1,0.4c2.2,11.3,5.3,72.2-2.8,93.3c-2.2,5.7,0.6,0.9,0.7,9L192.6,196.2z"/>
</svg>
