<svg xmlns="http://www.w3.org/2000/svg" viewBox="0 0 224.91 460.96"><defs><style>.cls-1{fill:#ff9d00;}.cls-2,.cls-6{fill:none;}.cls-2{stroke:#ff0;stroke-linejoin:round;}.cls-2,.cls-6,.cls-7,.cls-8{stroke-width:4px;}.cls-3,.cls-8{fill:#fff;}.cls-4{fill:#ffe6c8;}.cls-5{fill:#231815;}.cls-6,.cls-7,.cls-8{stroke:#444;stroke-miterlimit:10;}.cls-7{fill:aqua;opacity:0.1;isolation:isolate;}</style></defs><g id="Layer_2" data-name="Layer 2"><g id="Layer_1-2" data-name="Layer 1"><path class="cls-1" d="M70.18,117.25h81.56a8.18,8.18,0,0,1,8,8.35v327a8.18,8.18,0,0,1-8,8.35H70.18a8.18,8.18,0,0,1-8-8.35v-327A8.18,8.18,0,0,1,70.18,117.25Z"/><polygon class="cls-2" points="62.18 199.51 110.87 262.79 159.74 199.51 62.18 199.51"/><rect class="cls-3" x="92.2" y="262.76" width="37.52" height="25.09"/><g id="装飾"><ellipse class="cls-4" cx="110.96" cy="105.55" rx="100" ry="102.87"/><path class="cls-5" d="M214.46,90.44C202.55,38.41,161.18,0,112,0S21.37,38.41,9.46,90.44Z"/><path class="cls-5" d="M0,103.29c12.51,4.34,31.18-3.58,45.44-20.36S65,45.86,59.44,33.41Z"/><path class="cls-5" d="M23,103.29c12.51,4.34,31.18-3.58,45.44-20.36S88,45.86,82.44,33.41Z"/><path class="cls-5" d="M54,103.29c12.51,4.34,31.18-3.58,45.44-20.36s19.56-37.07,14-49.52Z"/><path class="cls-5" d="M72,103.29c12.51,4.34,31.18-3.58,45.44-20.36s19.56-37.07,14-49.52Z"/><path class="cls-5" d="M103,103.29c12.51,4.34,31.18-3.58,45.44-20.36s19.56-37.07,14-49.52Z"/><path class="cls-5" d="M124,103.29c12,4.93,28.91-.91,41.08-15.23s15.71-32.54,9.59-44.4Z"/><path class="cls-5" d="M149,103.29c11.51,5.51,26.71,1.69,36.84-10.24s12-28.13,5.35-39.4Z"/><path class="cls-5" d="M190.77,50.83c-8.23,10-8.88,26.35-.68,39.79s22.62,19.73,34.82,16.19Z"/><path class="cls-5" d="M176.77,50.83c-8.23,10-8.88,26.35-.68,39.79s22.62,19.73,34.82,16.19Z"/><line class="cls-6" x1="98.12" y1="113.34" x2="122.12" y2="113.34"/><path class="cls-6" d="M46.72,102.38H89.2A9.47,9.47,0,0,1,98.46,112V128.2a9.47,9.47,0,0,1-9.26,9.67H46.72a9.47,9.47,0,0,1-9.26-9.67V112A9.47,9.47,0,0,1,46.72,102.38Z"/><path class="cls-6" d="M132.72,102.38H175.2a9.47,9.47,0,0,1,9.26,9.66V128.2a9.47,9.47,0,0,1-9.26,9.67H132.72a9.47,9.47,0,0,1-9.26-9.67V112A9.47,9.47,0,0,1,132.72,102.38Z"/><path class="cls-7" d="M46.72,102.38H89.2A9.47,9.47,0,0,1,98.46,112V128.2a9.47,9.47,0,0,1-9.26,9.67H46.72a9.47,9.47,0,0,1-9.26-9.67V112A9.47,9.47,0,0,1,46.72,102.38Z"/><path class="cls-7" d="M132.72,102.38H175.2a9.47,9.47,0,0,1,9.26,9.66V128.2a9.47,9.47,0,0,1-9.26,9.67H132.72a9.47,9.47,0,0,1-9.26-9.67V112A9.47,9.47,0,0,1,132.72,102.38Z"/><ellipse class="cls-8" cx="154.46" cy="120.12" rx="5" ry="5.22"/><ellipse class="cls-8" cx="67.46" cy="120.12" rx="5" ry="5.22"/><line class="cls-6" x1="95.46" y1="176.49" x2="126.46" y2="176.49"/></g></g></g></svg>