<svg xmlns="http://www.w3.org/2000/svg" viewBox="0 0 206.48 461.19"><defs><style>.cls-1{fill:#05b1ff;}.cls-2,.cls-6,.cls-7{fill:none;}.cls-2{stroke:#ff0;stroke-linejoin:round;}.cls-2,.cls-6{stroke-width:4px;}.cls-3{fill:#fff;}.cls-4{fill:#ffe6c8;}.cls-5{fill:#534741;}.cls-6,.cls-7{stroke:#534741;stroke-miterlimit:10;}.cls-7{stroke-width:3px;}</style></defs><rect class="cls-1" x="54.37" y="124.37" width="97.56" height="336.82" rx="8"/><polygon class="cls-2" points="54.37 204.98 103.06 267 151.93 204.98 54.37 204.98"/><rect class="cls-3" x="84.39" y="266.97" width="37.52" height="24.59"/><ellipse class="cls-4" cx="103.15" cy="116.99" rx="100" ry="100.8"/><path class="cls-5" d="M288.14,113c-11.24-47-50.29-81.69-96.73-81.69S105.92,66,94.67,113Z" transform="translate(-89.35 -31.31)"/><path class="cls-5" d="M174.64,52.09c-20.83-10.43-48.71-4.82-67.6,15.26S84.27,115.6,96,135.75Z" transform="translate(-89.35 -31.31)"/><path class="cls-5" d="M210.53,50.46c20.83-10.43,48.71-4.82,67.6,15.26S300.9,114,289.22,134.13Z" transform="translate(-89.35 -31.31)"/><path class="cls-5" d="M183.78,47.61A46.4,46.4,0,0,0,216.28,131Z" transform="translate(-89.35 -31.31)"/><path class="cls-5" d="M215.05,47.77a46.41,46.41,0,0,0,32.51,83.38Z" transform="translate(-89.35 -31.31)"/><path class="cls-5" d="M247.45,47.37C231,59.13,223.76,80.49,231.23,99.64s27.23,30,47.33,27.51Z" transform="translate(-89.35 -31.31)"/><path class="cls-5" d="M147.05,46.77a46.41,46.41,0,0,0,32.51,83.38Z" transform="translate(-89.35 -31.31)"/><path class="cls-5" d="M122.47,58.53c-16.6,11.46-24.22,31.78-17.23,49.7s26.34,27.71,46.32,24.92Z" transform="translate(-89.35 -31.31)"/><g id="装飾"><path class="cls-6" d="M171,149.31a30.16,30.16,0,0,0-14.48-2.51,31.66,31.66,0,0,0-8.45,1.88A39.51,39.51,0,0,0,136,155" transform="translate(-89.35 -31.31)"/><ellipse class="cls-5" cx="67.34" cy="122.56" rx="11.14" ry="7.14"/><path class="cls-7" d="M188,183a10.55,10.55,0,0,0,8.62,3.94A10.19,10.19,0,0,0,204,183" transform="translate(-89.35 -31.31)"/><path class="cls-6" d="M214.92,130.06c13.43-2.35,19.7-3,22.82-3l6.09,0h0l6.25.93" transform="translate(-89.35 -31.31)"/><path class="cls-6" d="M167.69,131c-13.39-2.56-19.65-3.28-22.78-3.36l-6.08-.15h0l-6.27.83" transform="translate(-89.35 -31.31)"/><path class="cls-6" d="M216.93,148.88a30.4,30.4,0,0,1,14.49-2.5,31.58,31.58,0,0,1,8.44,1.88,39.4,39.4,0,0,1,12.07,6.27" transform="translate(-89.35 -31.31)"/><ellipse class="cls-5" cx="141.91" cy="122.13" rx="11.14" ry="7.14"/><path class="cls-7" d="M180.55,204.78c2.49,1.75,6.11,3.64,10,2.89,3.1-.6,4.05-3.27,6.93-3.15,2.69.12,3.27,2.56,6,3.31,1.83.5,4.73.3,9.22-3.33" transform="translate(-89.35 -31.31)"/></g></svg>