<svg xmlns="http://www.w3.org/2000/svg" viewBox="0 0 200.87 463.91"><defs><style>.cls-1{fill:#534741;}.cls-2{fill:#ff9d00;}.cls-3,.cls-6{fill:none;}.cls-3{stroke:#ff0;stroke-linejoin:round;stroke-width:4px;}.cls-4,.cls-8{fill:#fff;}.cls-5{fill:#ffe6c8;}.cls-7{fill:#ed1c24;}.cls-8{stroke:#534740;stroke-miterlimit:10;}</style></defs><g id="Layer_2" data-name="Layer 2"><g id="Layer_1-2" data-name="Layer 1"><rect class="cls-1" y="78.84" width="200.87" height="143.53"/><rect class="cls-2" x="50.21" y="112.78" width="101.71" height="351.13" rx="8.34"/><polygon class="cls-3" points="50.21 196.81 100.97 261.47 151.91 196.81 50.21 196.81"/><rect class="cls-4" x="81.5" y="261.43" width="39.11" height="25.63"/><ellipse class="cls-5" cx="100.54" cy="105.08" rx="100.08" ry="103.25"/><path class="cls-1" d="M200.62,78.71C189,33.42,148.49,0,100.37,0S11.76,33.42.11,78.71Z"/><rect class="cls-1" x="0.46" y="71.41" width="37.53" height="136.57" rx="11.07"/><path class="cls-1" d="M189.55,206.94H174.16a11.07,11.07,0,0,1-11.07-11.06V81.44a11.05,11.05,0,0,1,11-11.07h15.41a11.06,11.06,0,0,1,11.07,11V195.86C200.62,202,190.1,206.94,189.55,206.94Z"/><line class="cls-6" x1="60.92" y1="116.24" x2="80.73" y2="115.2"/><circle class="cls-1" cx="73.43" cy="128.75" r="10.42"/><circle class="cls-1" cx="132.86" cy="128.75" r="10.42"/><path class="cls-1" d="M55.37,108.12c3.93-2.78,10.78-6.64,19.13-6.26A27.69,27.69,0,0,1,90,107.71"/><path class="cls-1" d="M115.24,106.76c3.94-2.78,10.79-6.64,19.14-6.25a27.51,27.51,0,0,1,15.51,5.85"/><path class="cls-7" d="M87,174.18a43.27,43.27,0,0,0,19.8,3.57,39.61,39.61,0,0,0,16.68-4.17"/><circle class="cls-8" cx="78.65" cy="125.62" r="2.61"/><circle class="cls-8" cx="138.07" cy="125.62" r="2.61"/></g></g></svg>