<?xml version="1.0" encoding="utf-8"?>
<!-- Generator: Adobe Illustrator 25.1.0, SVG Export Plug-In . SVG Version: 6.00 Build 0)  -->
<svg version="1.1" id="Layer_1" xmlns="http://www.w3.org/2000/svg" xmlns:xlink="http://www.w3.org/1999/xlink" x="0px" y="0px"
	 viewBox="0 0 212 462.9" style="enable-background:new 0 0 212 462.9;" xml:space="preserve">
<style type="text/css">
	.st0{fill:#311300;}
	.st1{fill:#05B1FF;}
	.st2{fill:none;stroke:#FFFF00;stroke-width:4;stroke-linejoin:round;}
	.st3{fill:#FFFFFF;}
	.st4{fill:#FFE6C8;}
	.st5{fill:#534741;}
	.st6{fill:none;stroke:#311300;stroke-linecap:round;stroke-miterlimit:10;}
	.st7{fill:#311300;stroke:#311300;stroke-miterlimit:10;}
	.st8{fill:#E6E6E6;}
	.st9{fill:none;stroke:#E6C9AA;stroke-linecap:round;stroke-miterlimit:10;}
</style>
<path class="st0" d="M46.5,198.9c0.2,2.8,0.3,5.6,0.5,8.4c-9.8-9.8-37.3-40-41-85.8c-1-13-3.2-39.9,13-65.1
	c28.3-44,87.6-44.4,93-44.4c6.4,0.8,66.8,9.2,90,57.2c10.8,22.3,9,43.8,8,54.3c-4.3,45.2-33,74.3-42.7,83.4v-7.4
	c-4.1-0.6-21.9-2.7-36.3,8.8c-4,3.3-7.4,7.3-10,11.8l-28,1c-2.8-4.1-6.2-7.8-10-10.9C68.9,199,52.5,198.7,46.5,198.9z"/>
<path class="st0" d="M159.3,200.6c-0.1,2.3-0.3,4.7-0.4,7c8.5-8.2,32.3-33.3,35.5-71.4c0.9-10.8,2.8-33.2-11.3-54.2
	c-24.5-36.6-75.9-36.9-80.6-36.9c-5.5,0.7-57.9,7.6-78,47.6c-9.3,18.5-7.8,36.4-6.9,45.1c3.7,37.6,28.5,61.8,37,69.4v-6.1
	c3.5-0.5,18.9-2.3,31.4,7.3c3.5,2.7,6.4,6,8.7,9.9l24.2,0.8c2.4-3.4,5.3-6.5,8.7-9C139.9,200.6,154.1,200.4,159.3,200.6z"/>
<path class="st1" d="M65.7,119.3h81.6c4.4,0,8,3.7,8,8.2v327.3c0,4.5-3.6,8.2-8,8.2H65.7c-4.4,0-8-3.7-8-8.2V127.4
	C57.7,122.9,61.3,119.3,65.7,119.3z"/>
<polygon class="st2" points="57.7,201.5 106.4,264.8 155.3,201.5 "/>
<rect x="87.7" y="264.7" class="st3" width="37.5" height="25.1"/>
<ellipse class="st4" cx="108.5" cy="109.7" rx="100" ry="102.8"/>
<path class="st5" d="M205.1,83.6c-11.2-44.1-50.3-76.7-96.7-76.7S22.9,39.4,11.7,83.6H205.1z"/>
<path class="st6" d="M43,135.7c15.2-2.7,30.8-2.7,46,0"/>
<path class="st6" d="M43.1,132.2c11.5-2.6,23.3-3.1,35-1.5"/>
<ellipse class="st7" cx="68" cy="143.4" rx="7.7" ry="9.7"/>
<ellipse class="st8" cx="72.5" cy="138.7" rx="1.5" ry="2.7"/>
<ellipse class="st7" cx="142" cy="143.4" rx="7.7" ry="9.7"/>
<ellipse class="st8" cx="146.5" cy="138.7" rx="1.5" ry="2.7"/>
<path class="st6" d="M169,135.7c-15.2-2.7-30.8-2.7-46,0"/>
<path class="st6" d="M169,132.2c-11.5-2.6-23.3-3.1-35-1.5"/>
<path class="st9" d="M99,192.4c3.8,0.7,7.7,0.9,11.5,0.5c1.2-0.1,2.4-0.3,3.5-0.5"/>
<line class="st6" x1="95.5" y1="185.7" x2="118.5" y2="185.7"/>
<line class="st6" x1="88.5" y1="184.7" x2="88.5" y2="184.7"/>
<g id="装飾">
	<path class="st0" d="M50,114.2c-3.1,12.6-2.8,25.9,0.9,38.3c-1.9-1.2-3.6-2.7-5-4.6c-6.7-8.7-4.4-20.8-4-22.8
		c-3.7,7.1-6.1,14.8-7.1,22.8c-0.9,7.2-0.5,14.5,1,21.6c-2.2-2-4.3-4.3-6-6.8c-3.3-4.8-5.7-10.2-7.1-15.9c-1.4,3.5-2.5,7.1-3.3,10.8
		c-0.9,3.9-1.5,7.9-1.9,11.9c-0.5,6.5-0.1,13,1,19.4c-22-36.8-24.8-83.7-7.1-121.8C34.2,18.6,79.4,8.1,85.2,6.8
		c-6,1.2-12.1,2-18.1,2.3c-3.6,0.2-6.9,0.1-10.1,0c15-5.2,30.6-8.3,46.4-9.1c40.7-0.7,78.2,23.5,96.8,62.6
		c24,50.6,4.4,100.9,2.1,106.8c-10.7-1.3-21.2-3.9-31.3-7.7c-24.6-9.4-42-24.5-52.4-35.3c0.3,3.6,1.4,7,3,10.2
		c1.9,3.7,4.7,6.8,8.1,9.1c-7.7-0.9-15.3-3.2-22.2-6.8c-8.1-4.2-15.3-10-21.2-17.1c0.8,2.7,1.8,5.4,3,8c1.7,3.6,3.7,7,6,10.2
		c-5-2.5-9.5-5.9-13.1-10.2c-5.9-7.1-9.8-15.8-11.1-25c-2,6.7-2,13.8,0,20.5c1.4,4.7,3.8,8.9,7.1,12.5c-5.2-2.1-9.7-5.7-13.1-10.2
		c-8.3-11.3-6-27.3-7-27.3c-0.7,0-1.7,9.2-1,20.8c0.4,7.2,1.4,14.4,3,21.4c-3-3.7-5.3-7.9-7-12.4C51.1,125,50.1,119.6,50,114.2z"/>
</g>
</svg>
