<?xml version="1.0" encoding="utf-8"?>
<!-- Generator: Adobe Illustrator 25.1.0, SVG Export Plug-In . SVG Version: 6.00 Build 0)  -->
<svg version="1.1" id="Layer_1" xmlns="http://www.w3.org/2000/svg" xmlns:xlink="http://www.w3.org/1999/xlink" x="0px" y="0px"
	 viewBox="0 0 200 462.9" style="enable-background:new 0 0 200 462.9;" xml:space="preserve">
<style type="text/css">
	.st0{fill:#FF9D00;}
	.st1{fill:none;stroke:#FFFF00;stroke-width:4;stroke-linejoin:round;}
	.st2{fill:#FFFFFF;}
	.st3{fill:#FFE6C8;}
	.st4{fill:#534741;}
	.st5{fill:none;stroke:#000000;stroke-width:3;stroke-miterlimit:10;}
	.st6{fill:#FFFFFF;stroke:#000000;stroke-width:0.5;stroke-miterlimit:10;}
</style>
<path class="st0" d="M59.2,112.5h81.6c4.4,0,8,3.8,8,8.5v333.3c0,4.7-3.6,8.5-8,8.5H59.2c-4.4,0-8-3.8-8-8.5V121
	C51.2,116.3,54.8,112.5,59.2,112.5z"/>
<polygon class="st1" points="51.2,196.4 99.9,260.9 148.8,196.4 "/>
<rect x="81.2" y="260.9" class="st2" width="37.5" height="25.6"/>
<ellipse class="st3" cx="100" cy="104.9" rx="100" ry="104.9"/>
<path class="st4" d="M131.5,78.2h65.1C185.4,33.2,146.4,0,99.9,0S14.4,33.2,3.2,78.2H131.5"/>
<line class="st5" x1="78.2" y1="114.7" x2="48.2" y2="114.7"/>
<line class="st5" x1="152.9" y1="114.7" x2="122.9" y2="114.7"/>
<polygon class="st3" points="107.5,66.5 100.6,79.3 114.4,79.3 "/>
<polygon class="st3" points="116,72.9 112.6,79.3 119.5,79.3 "/>
<path class="st6" d="M100,174l-7.4,7.7c4.9,1.1,9.9,1.1,14.8,0L100,174z"/>
<path d="M77.3,106.9c-4.1-1.1-8.2-2.4-12.3-3.6l-6.1-1.9l-6.1-2c-2-0.7-4.1-1.2-6.1-1.8c-2-0.6-4.1-1.4-6-2.3
	c-2-0.9-3.9-1.9-5.7-3.1c-1.9-1.1-3.7-2.4-5.4-3.8l0.2-0.5c2.2,0.1,4.4,0.3,6.5,0.8c2.1,0.4,4.2,0.9,6.2,1.6c2,0.6,4.1,1.4,6,2.3
	c1.9,0.9,3.9,1.9,5.8,2.8l5.9,2.6l5.8,2.7c3.9,1.9,7.8,3.7,11.6,5.6L77.3,106.9z"/>
<path d="M123.5,106.4c3.8-1.9,7.7-3.7,11.6-5.6l5.8-2.7l5.9-2.6c2-0.9,3.9-1.9,5.8-2.8c1.9-0.9,4-1.7,6-2.3c2-0.6,4.1-1.2,6.2-1.6
	c2.1-0.5,4.3-0.7,6.5-0.8l0.2,0.5c-1.7,1.4-3.5,2.7-5.5,3.8c-1.9,1.1-3.8,2.1-5.7,3.1c-1.9,0.9-4,1.7-6,2.3c-2,0.6-4.1,1.2-6.1,1.8
	l-6.1,2l-6.1,1.9c-4.1,1.2-8.2,2.5-12.3,3.6L123.5,106.4z"/>
</svg>
