<svg xmlns="http://www.w3.org/2000/svg" viewBox="0 0 229.52 454.46"><defs><style>.cls-1{fill:#ff9d00;}.cls-2,.cls-6{fill:none;}.cls-2{stroke:#ff0;stroke-linejoin:round;stroke-width:4px;}.cls-3{fill:#fff;}.cls-4{fill:#ffe6c8;}.cls-5{fill:#534741;}.cls-6{stroke:#736357;stroke-miterlimit:10;}</style></defs><g id="Layer_2" data-name="Layer 2"><g id="Layer_1-2" data-name="Layer 1"><rect class="cls-1" x="69.71" y="125.21" width="97.56" height="329.25" rx="8"/><polygon class="cls-2" points="69.71 204.01 118.4 264.63 167.27 204.01 69.71 204.01"/><rect class="cls-3" x="99.73" y="264.6" width="37.52" height="24.03"/><ellipse class="cls-4" cx="118.49" cy="118" rx="100" ry="98.54"/><path class="cls-5" d="M191.92,25.52C185.44-10.72,106.18.8,99.31,5.6,93.39,9.73,47.79,3.25,29.62,38.16c-12.4,7-20.75,18.4-24.72,34.5-6.61,17.21-7.33,36.09,2.8,58.07l18.21-.63C37.45,88.25,76.26,57.46,122.4,57.46c43.69,0,80.82,27.62,94.43,66.1l9.07-.31C233.6,79.61,231.88,40.64,191.92,25.52Z"/><path class="cls-5" d="M19,129s31,5,43-20S76,12,76,12"/><path class="cls-5" d="M41,127s31,5,43-20S98,10,98,10"/><ellipse class="cls-3" cx="75" cy="131.24" rx="23" ry="11.28" transform="matrix(1, -0.03, 0.03, 1, -4.53, 2.7)"/><ellipse cx="80.07" cy="131.49" rx="9.48" ry="7.53" transform="matrix(0.01, -1, 1, 0.01, -52.16, 210.32)"/><path class="cls-5" d="M78,126s31,5,43-20S135,9,135,9"/><path class="cls-5" d="M57,131s31,5,43-20,14-97,14-97"/><path class="cls-5" d="M97,129s31,5,43-20,14-97,14-97"/><path class="cls-5" d="M112,128s31,5,43-20,14-97,14-97"/><ellipse class="cls-3" cx="164.99" cy="130.25" rx="11.28" ry="23" transform="translate(33.2 294.01) rotate(-89.46)"/><ellipse cx="162.54" cy="128.41" rx="9.48" ry="7.53" transform="translate(32.61 289.73) rotate(-89.46)"/><path class="cls-6" d="M149.51,116c13.51-6.77,26.71-6.95,39.55.59"/><path class="cls-6" d="M105,183.2c9.44,11.11,20.6,10,33,0"/></g></g></svg>