<?xml version="1.0" encoding="utf-8"?>
<!-- Generator: Adobe Illustrator 25.1.0, SVG Export Plug-In . SVG Version: 6.00 Build 0)  -->
<svg version="1.1" id="Layer_1" xmlns="http://www.w3.org/2000/svg" xmlns:xlink="http://www.w3.org/1999/xlink" x="0px" y="0px"
	 viewBox="0 0 220 460.9" style="enable-background:new 0 0 220 460.9;" xml:space="preserve">
<style type="text/css">
	.st0{fill:#534741;}
	.st1{fill:#05B1FF;}
	.st2{fill:none;stroke:#FFFF00;stroke-width:4;stroke-linejoin:round;}
	.st3{fill:#FFFFFF;}
	.st4{fill:#F2D6B6;}
	.st5{fill:none;stroke:#534741;stroke-width:3;stroke-linecap:round;stroke-miterlimit:10;}
</style>
<path class="st0" d="M136.9,20.9c-0.3,13.2-6.2,22.7-19,26.2c-8,2.2-18.6,1.3-23.4-4c-3.6-4.4-6.3-9.4-8-14.8
	c-1.8-6.4,1.8-10.4,4.8-15.7s7.4-9.9,13.8-11.7c4.6-1.3,9.5-1.1,14,0.4c3.6,1.2,6.9,6.2,9.5,8.9C131.5,12.9,135.8,16.8,136.9,20.9z"
	/>
<path class="st0" d="M109.8,238H6.3c5.6-7,7.5-16.3,5-25c-1.8-6.6-9-10-11-22s6.2-17.8,7-32s-5-15-2-32s10-24,14-33s4-16,10-25
	s21-19,35-24s24-6,46-8C109.3,57,109.8,238,109.8,238z"/>
<path class="st0" d="M110.3,238h103.5c-5.6-7-7.5-16.3-5-25c1.8-6.6,9.5-11,11-22s-6.2-17.8-7-32s5-15,2-32s-10-24-14-33
	s-4-16-10-25s-21-19-35-24s-24-6-46-8C110.8,57,110.3,238,110.3,238z"/>
<path class="st1" d="M69.6,148.7h81.6c4.4,0,8,3.3,8,7.4v297.4c0,4.1-3.6,7.4-8,7.4H69.6c-4.4,0-8-3.3-8-7.4V156.1
	C61.6,152,65.2,148.7,69.6,148.7z"/>
<polygon class="st2" points="61.6,229.3 110.3,291.3 159.2,229.3 "/>
<rect x="91.7" y="291.3" class="st3" width="37.5" height="24.6"/>
<ellipse class="st4" cx="110.4" cy="141.3" rx="100" ry="100.8"/>
<path class="st0" d="M76.3,85c0,0-2,0-6,7s-3,17-6,22s-9,16-18,20c-4.2,1.9-17.4,7.4-24,11c-7.4,4.1-22,6-22,6s7.3-4.1,8.6-12.6
	s1.5-11.4,1.5-11.4c3.6-25.9,17.1-49.4,37.7-65.6c17.5-13.7,39.1-21.2,61.3-21.2c40.5,0,74.2,18.6,89.9,51.7c2.6,5.5,3,11,7,17
	s3.2,9,5,21c1.2,7.5,3.9,14.6,8,21c0,0-14.1-0.7-22-2c-6.5-1.1-17-6.2-24-10c-11-6-15-15-20-23s-1-17-5-27s-6-8-6-8
	c3.1,6.2,4.5,13.1,4,20c-1,11-3,13-2,24s9,15,9,15h-88c0,0,5-9,7-17s-1-17,2-28S76.3,85,76.3,85z"/>
<path class="st5" d="M101.2,206.1c0,0-1.9,5.9,9.9,5.9s10.1-6,10.1-6"/>
<path class="st3" d="M153.7,168.5c-10.4,0-19.1-4.2-19.1-9.1s8.8-9.1,19.1-9.1s19.1,4.2,19.1,9.1S164.1,168.5,153.7,168.5z"/>
<path class="st0" d="M153.7,151.8c10.1,0,17.6,4,17.6,7.6s-7.5,7.6-17.6,7.6s-17.6-4-17.6-7.6S143.6,151.8,153.7,151.8 M153.7,148.8
	c-11.4,0-20.6,4.8-20.6,10.6s9.3,10.6,20.6,10.6s20.6-4.8,20.6-10.6S165.1,148.8,153.7,148.8z"/>
<path class="st3" d="M66.4,168.5c-10.4,0-19.1-4.2-19.1-9.1s8.8-9.1,19.1-9.1s19.1,4.2,19.1,9.1S76.8,168.5,66.4,168.5z"/>
<path class="st0" d="M66.4,151.8c10.1,0,17.6,4,17.6,7.6s-7.5,7.6-17.6,7.6s-17.6-4-17.6-7.6S56.3,151.8,66.4,151.8 M66.4,148.8
	c-11.4,0-20.6,4.8-20.6,10.6S55.1,170,66.4,170s20.6-4.8,20.6-10.6S77.8,148.8,66.4,148.8z"/>
<circle class="st0" cx="66.1" cy="159.2" r="4.4"/>
<circle class="st0" cx="154.6" cy="159.2" r="4.4"/>
<path class="st5" d="M46.9,151.5c5.8-4,12.7-6.1,19.7-6c12,0,18.8,6,18.8,6"/>
<path class="st5" d="M134,152.1c5.8-4,12.7-6.1,19.7-6c12,0,18.8,6,18.8,6"/>
</svg>
