<svg xmlns="http://www.w3.org/2000/svg" viewBox="0 0 203.5 459.5"><defs><style>.cls-1{fill:#ff9d00;}.cls-2{fill:none;stroke:#ff0;stroke-linejoin:round;stroke-width:4px;}.cls-3{fill:#fff;}.cls-4{fill:#efcba5;}.cls-5{fill:#534741;}.cls-6{fill:#1c1611;}</style></defs><g id="Layer_2" data-name="Layer 2"><g id="アバター"><rect class="cls-1" x="51.22" y="130.25" width="97.56" height="329.25" rx="8"/><polygon class="cls-2" points="51.22 209.05 99.91 269.67 148.78 209.05 51.22 209.05"/><rect class="cls-3" x="81.24" y="269.64" width="37.52" height="24.03"/><ellipse class="cls-4" cx="100" cy="123.04" rx="100" ry="98.54"/><path class="cls-5" d="M196.64,98C185.4,55.7,146.36,24.49,99.91,24.49A100.31,100.31,0,0,0,19.91,64,103.35,103.35,0,0,0,11.1,77.87,98.87,98.87,0,0,0,3.22,98Z"/><path d="M100.5,161l14,11-12,6,8.6-6.51Z"/><path d="M123.5,198.49c0,.23-12.73,4-29,2.5s-28.07-7.77-28-8a105,105,0,0,0,29,7A105.14,105.14,0,0,0,123.5,198.49Z"/><path d="M5.5,153l1,1c-.26.51-.6,1-1,1-2.54-.09-5.42-21.76-4-43,.21-3,1.47-12.38,4-31l15-45,2,27,8-33,5-14,8-13-4,24s4-13,4-15a34.8,34.8,0,0,1,1-6l7,16-1-22,6,9-2-8s6,2,12,9,8,7,8,7a27.83,27.83,0,0,0-5-8c-3-3-4-5-4-6s11,4,11,4l1-1,9,5-3-9,19,12s6.13,1.85,8.07,2.42A25.43,25.43,0,0,1,115.5,19h6c2,0,4-1,7,0s43,16,47,22a49.22,49.22,0,0,0,9,10s8,25,11,28,8,11,8,11l-12-10,9,33v16q-.5,11-1,22l-9-11-15-16a66.53,66.53,0,0,1-32-23h-16l10-4-13,4,6-3c-10.29,2-17.36,1.72-22,1a79.81,79.81,0,0,0-8-1,85.82,85.82,0,0,0-12,0c-4.56.29-4.72.62-9,1-10.87.94-14.45-.78-24.2,1-2,.36-3.53.73-4.8,1,0,0-26,6.5-35,21a37.34,37.34,0,0,0-3,6Q9,140.5,5.5,153Z"/><path class="cls-3" d="M77.1,154.49s-17,3-21,0-13-6-14-18,35-10,35-10,7,3,8,6,2,12,1,14-3,5-5,6Z"/><path d="M72.43,154.49H60.77A12.81,12.81,0,0,1,55.1,149c-1.32-2.58-1.21-5.23-1-10.53a38.88,38.88,0,0,1,1-6.53c.53-2.25.91-3.14,1.66-3.87a5.79,5.79,0,0,1,4-1.6H72.42a8.26,8.26,0,0,1,6.67,5,41.1,41.1,0,0,1,0,18,8.26,8.26,0,0,1-6.67,5Z"/><path class="cls-6" d="M85.1,131.49c-.34.87-6.73-2.28-17-3-15-1.05-24.64,4-25,3s11.08-9.37,24.5-8C77.54,124.49,85.5,130.49,85.1,131.49Z"/><path class="cls-6" d="M80.1,152.49c.09.46-6.06,2.82-13.5,3-6.79.16-12.55-1.55-12.5-2s4.68.31,13,0S80,152.1,80.1,152.49Z"/><circle class="cls-3" cx="59.6" cy="147.99" r="1.5"/><path class="cls-3" d="M127.64,156.05s17,3,21,0,13-6,14-18-35-10-35-10-7,3-8,6-2,12-1,14,3,5,5,6Z"/><path d="M132.31,156.05H144a12.78,12.78,0,0,0,5.67-5.48c1.32-2.57,1.21-5.22,1-10.52a37.89,37.89,0,0,0-1-6.53c-.52-2.25-.91-3.15-1.66-3.87a5.74,5.74,0,0,0-4-1.6H132.31a8.26,8.26,0,0,0-6.67,5,41.1,41.1,0,0,0,0,18A8.32,8.32,0,0,0,132.31,156.05Z"/><path class="cls-6" d="M119.64,133.05c.34.87,6.73-2.28,17-3,15-1.05,24.64,4,25,3s-11.08-9.37-24.5-8C127.2,126.06,119.25,132,119.64,133.05Z"/><path class="cls-6" d="M124.64,154.05c-.09.46,6.06,2.82,13.5,3,6.79.16,12.56-1.55,12.5-2s-4.68.31-13,0S124.72,153.66,124.64,154.05Z"/><circle class="cls-3" cx="130.6" cy="148.99" r="1.5"/><path d="M43.91,112.83s14.19-5.34,16.19-5.34,24,5,24,5l3,3-12,3Z"/><path d="M164.5,112.83s-14.19-5.34-16.19-5.34-24,5-24,5l-3,3,12,3Z"/></g></g></svg>