<?xml version="1.0" encoding="utf-8"?>
<!-- Generator: Adobe Illustrator 25.1.0, SVG Export Plug-In . SVG Version: 6.00 Build 0)  -->
<svg version="1.1" id="Layer_1" xmlns="http://www.w3.org/2000/svg" xmlns:xlink="http://www.w3.org/1999/xlink" x="0px" y="0px"
	 viewBox="0 0 216.7 463.9" style="enable-background:new 0 0 216.7 463.9;" xml:space="preserve">
<style type="text/css">
	.st0{fill:#534741;}
	.st1{fill:#05B1FF;}
	.st2{fill:none;stroke:#FFFF00;stroke-width:4;stroke-linejoin:round;}
	.st3{fill:#FFFFFF;}
	.st4{fill:#FFE6C8;}
	.st5{fill:none;stroke:#534741;stroke-width:4;stroke-linecap:round;stroke-miterlimit:10;}
</style>
<path class="st0" d="M113,78.9H18.8c-1.9,27.8-5.8,19.2-1.8,46.8c2.1,14.7,5.1,29.2,9,43.4c2.1,7.5,3.5,11.2,3.4,11.5
	c-2.1,15.1,3.1,17.4-0.1,22.4c-2,3.1-6.7,3.2-6,3.1c1-0.1,10,3.1,28,2.1c22.7-1.3,39-2.4,61.7-2.4L113,78.9z"/>
<path class="st0" d="M173.8,190.8c-0.7,3-2.2,5.7-4.3,7.8c-14.6,14.2-0.6,12.9-0.6,12.9s-10.2,5.2-13.8-3.2c-0.9-2.1-1.6-8-2.1-15.5
	L173.8,190.8z"/>
<path class="st0" d="M43,191.4c0.7,3,2.2,5.7,4.3,7.8c14.6,14.2,0.6,13,0.6,13s10.2,5.2,13.8-3.2c0.9-2.1,1.6-8,2.1-15.5L43,191.4z"
	/>
<path class="st0" d="M101.3,79.8h94.2c1.9,27.8,5.8,19.2,1.8,46.8c-2.1,14.7-5.1,29.2-9,43.4c-2.1,7.5-3.5,11.2-3.4,11.5
	c2.1,15.1-3.1,17.4,0.1,22.4c2,3.1,6.7,3.2,6,3.1c-1-0.1-10,3.1-28,2.1c-22.7-1.3-39-2.4-61.7-2.4L101.3,79.8z"/>
<path class="st1" d="M68.3,112.9h81.6c4.4,0,8,3.7,8,8.3v334.3c0,4.6-3.6,8.3-8,8.3H68.3c-4.4,0-8-3.7-8-8.3V121.3
	C60.3,116.7,63.9,112.9,68.3,112.9z"/>
<polygon class="st2" points="60.3,196.9 109,261.5 157.9,196.9 "/>
<rect x="90.3" y="261.5" class="st3" width="37.5" height="25.6"/>
<ellipse class="st4" cx="109.1" cy="105.3" rx="100" ry="105"/>
<path class="st0" d="M59.7,60.5c0-0.4-0.3-0.7-0.6-0.7c-0.2,0-0.4,0.1-0.5,0.3L35.7,90.4H9.8C16.6,39.3,58.3,0,108.8,0
	s92.2,39.3,99,90.4H59.7V60.5z"/>
<path class="st0" d="M12.8,169.9"/>
<path class="st0" d="M9.8,90.4c0,0-22.3,70.2,0.4,88.2s2.5,18.4,2.5,18.4s15.2,5.9,19.2-6.6S27,85.1,27,85.1L9.8,90.4z"/>
<path class="st0" d="M206.9,85.2c0,0,22.3,70.2-0.4,88.2s-2.5,18.4-2.5,18.4s-15.2,5.9-19.2-6.6c-4-12.5,5-105.2,5-105.2L206.9,85.2
	z"/>
<path class="st0" d="M87.5,124.9c0,9.7-4.7,17.6-10.5,17.6s-10.5-7.9-10.5-17.6s5.2-8.1,11-8.1S87.5,115.1,87.5,124.9z"/>
<path class="st5" d="M56.5,138.3c-0.4-8.3,10.4-30.4,28.4-19.8"/>
<path class="st0" d="M130.7,125.6c0,9.7,4.7,17.6,10.5,17.6c5.8,0,10.5-7.9,10.5-17.6s-5.2-8.1-11-8.1S130.7,115.9,130.7,125.6z"/>
<path class="st5" d="M161.7,139c0.4-8.3-10.4-30.4-28.4-19.8"/>
<line class="st5" x1="54.6" y1="99.3" x2="89.3" y2="98.1"/>
<line class="st5" x1="163.6" y1="99.3" x2="128.9" y2="98.1"/>
<path class="st5" d="M86.2,169.2c0,0,21,21.5,45.9,0"/>
</svg>
