<?xml version="1.0" encoding="utf-8"?>
<!-- Generator: Adobe Illustrator 25.1.0, SVG Export Plug-In . SVG Version: 6.00 Build 0)  -->
<svg version="1.1" id="Layer_1" xmlns="http://www.w3.org/2000/svg" xmlns:xlink="http://www.w3.org/1999/xlink" x="0px" y="0px"
	 viewBox="0 0 201.6 464.6" style="enable-background:new 0 0 201.6 464.6;" xml:space="preserve">
<style type="text/css">
	.st0{fill:#05B1FF;}
	.st1{fill:none;stroke:#FFFF00;stroke-width:4;stroke-linejoin:round;}
	.st2{fill:#FFFFFF;}
	.st3{fill:#FFE6C8;}
	.st4{fill:none;stroke:#534741;stroke-width:3.81;stroke-linecap:round;stroke-miterlimit:10;}
	.st5{fill:none;stroke:#534741;stroke-width:4;stroke-miterlimit:10;}
	.st6{fill:none;stroke:#534741;stroke-width:3.86;stroke-miterlimit:10;}
	.st7{fill:#493E3E;}
	.st8{fill:none;stroke:#000000;stroke-miterlimit:10;}
	.st9{fill:#534741;}
</style>
<path class="st0" d="M60.6,127.8h81.6c4.4,0,8,3.6,8,8v320.8c0,4.4-3.6,8-8,8H60.6c-4.4,0-8-3.6-8-8V135.8
	C52.6,131.3,56.2,127.8,60.6,127.8z"/>
<polygon class="st1" points="52.6,208.4 101.3,270.4 150.2,208.4 "/>
<rect x="82.6" y="270.4" class="st2" width="37.5" height="24.6"/>
<ellipse class="st3" cx="101.4" cy="120.4" rx="100" ry="100.8"/>
<path class="st4" d="M-67.7,48.1"/>
<line class="st5" x1="43.5" y1="131.1" x2="83" y2="131.1"/>
<line class="st5" x1="120.6" y1="131.1" x2="160" y2="131.1"/>
<line class="st6" x1="83.6" y1="181.1" x2="120.3" y2="181.1"/>
<path class="st7" d="M176,91.1"/>
<path class="st7" d="M185.3,121.1"/>
<path class="st8" d="M37.1,114.2h52.4c3.5,0,6.3,2.8,6.3,6.3v21.1c0,3.5-2.8,6.3-6.3,6.3H37.1c-3.5,0-6.3-2.8-6.3-6.3v-21.1
	C30.8,117,33.6,114.2,37.1,114.2z"/>
<path class="st8" d="M114.1,114.2h52.4c3.5,0,6.3,2.8,6.3,6.3v21.1c0,3.5-2.8,6.3-6.3,6.3h-52.4c-3.5,0-6.3-2.8-6.3-6.3v-21.1
	C107.8,117,110.6,114.2,114.1,114.2z"/>
<rect x="96.3" y="126.1" width="12" height="2"/>
<rect x="15.1" y="105.8" transform="matrix(0.2362 -0.9717 0.9717 0.2362 -105.3292 108.0404)" width="2" height="30.5"/>
<rect x="172.2" y="119.8" transform="matrix(0.949 -0.3153 0.3153 0.949 -28.534 65.1732)" width="29.8" height="2"/>
<circle class="st9" cx="65.3" cy="135.1" r="3"/>
<circle class="st9" cx="139.3" cy="135.1" r="3"/>
<path class="st7" d="M157.8,24.9l16.4-7.3L169,8.6l-13.6,9.8l5.7-16l-10-2.4l-2.6,19.2c-13-7-27.9-11.4-43.8-12.1
	C49.5,4.6,2.1,60.6,0,107.5l200.4-4.2C201.8,73.2,184.7,43.2,157.8,24.9z"/>
</svg>
