<?xml version="1.0" encoding="utf-8"?>
<!-- Generator: Adobe Illustrator 25.1.0, SVG Export Plug-In . SVG Version: 6.00 Build 0)  -->
<svg version="1.1" id="Layer_1" xmlns="http://www.w3.org/2000/svg" xmlns:xlink="http://www.w3.org/1999/xlink" x="0px" y="0px"
	 viewBox="0 0 224.1 462.9" style="enable-background:new 0 0 224.1 462.9;" xml:space="preserve">
<style type="text/css">
	.st0{fill:#FF9D00;}
	.st1{fill:none;stroke:#FFFF00;stroke-width:4;stroke-linejoin:round;}
	.st2{fill:#FFFFFF;}
	.st3{fill:#FFE6C8;}
	.st4{fill:none;stroke:#000000;stroke-linecap:round;stroke-miterlimit:10;}
	.st5{fill:none;stroke:#444444;stroke-width:2;stroke-miterlimit:10;}
	.st6{fill:#3F210B;}
</style>
<path class="st0" d="M73.2,126.1h81.6c4.4,0,8,3.7,8,8.2v320.4c0,4.5-3.6,8.2-8,8.2H73.2c-4.4,0-8-3.7-8-8.2V134.3
	C65.2,129.8,68.8,126.1,73.2,126.1z"/>
<polygon class="st1" points="65.2,206.7 113.9,268.7 162.8,206.7 "/>
<rect x="95.2" y="268.7" class="st2" width="37.5" height="24.6"/>
<ellipse class="st3" cx="114" cy="118.7" rx="100" ry="100.8"/>
<path d="M130,94.3c12.8-5.4,26.9-6.5,40.4-3.2l1.1,0.6c0,0-23.4-0.6-41,3.2L130,94.3z"/>
<path d="M95.7,95.4C83,90,69,88.9,55.7,92.2l-1.1,0.6c0,0,23.2-0.6,40.7,3.1L95.7,95.4z"/>
<path class="st4" d="M130.2,110.5c0,0.3,17.6-10.3,37.8-0.5"/>
<path class="st4" d="M97,110.5c0,0.3-17.6-10.3-37.8-0.5"/>
<ellipse cx="84" cy="113.1" rx="3.5" ry="6.6"/>
<ellipse cx="144" cy="113.1" rx="3.5" ry="6.6"/>
<path d="M114.7,156.6c-0.4-2.6-1.1-6.4-1.9-11c-1.7-9.5-2.6-13.1-2.3-13.5c0.3-0.4,1.7,2.5,7,17.3"/>
<path class="st5" d="M91.8,183.8c14.7,4.1,30.3,4.1,45,0"/>
<path class="st3" d="M9.5,148.4"/>
<path class="st6" d="M109.5,5.4c4.3-1.3,8.6-2.4,13-3.3c6.9-1.5,13.9-2.2,21-2c8.5,0.4,14.7,2.2,21,4.1c7,1.9,13.7,4.6,20,8.2
	c15.1,8.9,27.1,22.5,34,38.9c4.9,12.3,6.6,25.7,5,38.9c-2,15.1-8.2,29.4-18,40.9l-1.1-19.6l-14.9,19.4v-16.9
	c-1.8,3.9-4.2,7.6-7,10.9c-1.2,1.4-2.3,2.5-3,3.2c-2.8,2.7-5.8,5-9.1,7C176,78,159.7,35.5,135.5,28.7c-4.9-1.4-13.5-2.2-26,4.2"/>
<path class="st6" d="M109.5,5.4C89.3-0.3,67.8,1,48.5,9.3c-8.4,3.6-24.5,10.4-36,27.6C7,45.2,3.3,54.6,1.5,64.5
	c-2,10.5-2,21.2,0,31.7c1.7,9.9,2.6,15.6,7,21.5c5,6.7,14.6,13.6,14.2,13.3l0,0l-3-18.7l14.1,19.6c0.6-5.1,1.1-10.1,1.7-15.2
	l20,19.4c-8-55.2,5.7-97.4,29-105.4c4.8-1.6,12.9-2.8,25,2.4"/>
</svg>
