<svg xmlns="http://www.w3.org/2000/svg" viewBox="0 0 208.31 462.36"><defs><style>.cls-1{fill:#ff9d00;}.cls-2,.cls-5,.cls-7,.cls-8{fill:none;}.cls-2{stroke:#ff0;stroke-linejoin:round;stroke-width:4px;}.cls-3{fill:#fff;}.cls-4{fill:#ffe6c8;}.cls-5,.cls-7{stroke:#534740;}.cls-5,.cls-7,.cls-8{stroke-miterlimit:10;}.cls-5{stroke-width:3px;}.cls-6{fill:#534741;}.cls-8{stroke:#4d4d4d;stroke-width:2px;}</style></defs><g id="Layer_2" data-name="Layer 2"><g id="Layer_1-2" data-name="Layer 1"><path class="cls-1" d="M63.45,114.72H145a8.13,8.13,0,0,1,8,8.26V454.1a8.13,8.13,0,0,1-8,8.26H63.45a8.13,8.13,0,0,1-8-8.26V123A8.13,8.13,0,0,1,63.45,114.72Z"/><polygon class="cls-2" points="55.45 197.92 104.14 261.93 153.01 197.92 55.45 197.92"/><rect class="cls-3" x="85.47" y="261.89" width="37.52" height="25.38"/><ellipse class="cls-4" cx="104.23" cy="107.1" rx="100" ry="104.04"/><g id="目"><path class="cls-5" d="M85.81,110.24c-7.21-1-19.77-1.64-30.47,5.94a31,31,0,0,0-3.11,2.48"/><ellipse class="cls-6" cx="72.31" cy="117.68" rx="4.23" ry="8.72"/><path class="cls-7" d="M82,92.5c-3.09-.68-18-3.6-30.47,5.92a34.71,34.71,0,0,0-9,10.32"/><path class="cls-7" d="M130.22,92.76c3.09-.68,17.95-3.61,30.47,5.93a34.59,34.59,0,0,1,9,10.32"/><path class="cls-5" d="M124.84,109.27c7.21-1.08,19.77-1.64,30.47,5.93a33.46,33.46,0,0,1,3.11,2.48"/><ellipse class="cls-6" cx="138.33" cy="116.7" rx="4.23" ry="8.72"/></g><path id="口" class="cls-8" d="M90.73,168.72a42.3,42.3,0,0,0,29-1"/><path class="cls-6" d="M204.58,92.49l-.09-.28C191.24,38.81,151.3,0,104.07,0,57,0,17.19,38.53,3.8,91.63l-.07.2c-12.48,36,6.93,85,50,119.58l-11-25.14c-11.43-30.1-15.64-58.43-14.57-84.92V101a5,5,0,0,1,.22-2.8C29,88.77,34.91,75.5,41.73,66.3A61.29,61.29,0,0,1,57.55,51.47q-1.9,7.68-3.82,15.36a54.2,54.2,0,0,0,0,23.91,51.26,51.26,0,0,0,2,6.53l123.5.36a4.83,4.83,0,0,1,.91,4V102c1.08,26.84-3.36,55.66-15.43,86.32l-10.15,23.74C197.65,177.5,217.07,128.52,204.58,92.49Z"/></g></g></svg>