<svg xmlns="http://www.w3.org/2000/svg" viewBox="0 0 219 464.5"><defs><style>.cls-1{fill:#ff9d00;}.cls-2{fill:none;stroke:#ff0;stroke-linejoin:round;stroke-width:4px;}.cls-3{fill:#fff;}.cls-4{fill:#ffe6c8;}.cls-5{fill:#6d4b00;}.cls-6{fill:#342000;}</style></defs><g id="Layer_2" data-name="Layer 2"><g id="Layer_1-2" data-name="Layer 1"><rect class="cls-1" x="63.72" y="135.25" width="97.56" height="329.25" rx="8"/><polygon class="cls-2" points="63.72 214.05 112.41 274.67 161.28 214.05 63.72 214.05"/><rect class="cls-3" x="93.74" y="274.64" width="37.52" height="24.03"/><ellipse class="cls-4" cx="112.5" cy="128.04" rx="100" ry="98.54"/><g id="装飾"><ellipse cx="112.5" cy="200" rx="24.5" ry="3"/><circle cx="76.5" cy="147.5" r="12.5"/><circle cx="153.5" cy="147.5" r="12.5"/><polygon class="cls-5" points="0 118.71 10.18 132.14 9.99 133 100.44 133 100.44 66.96 137.41 66.96 137.41 133 214.14 133 210.99 114.37 219 74.08 196.26 57.84 186.08 42.24 171.78 26.64 134.95 0 81.88 3.68 50.92 13.89 22.39 25.41 0 43.74 10.18 88.38 3.8 104.74 0 118.71"/><rect class="cls-6" x="170.66" y="35.96" width="3.15" height="81.65" transform="translate(-6.41 16.39) rotate(-5.35)"/><rect class="cls-6" x="185.79" y="59.05" width="3.9" height="57.48" transform="translate(-7.37 17.89) rotate(-5.35)"/><rect class="cls-6" x="50.05" y="22.69" width="40.38" height="4.2" transform="translate(3.05 56.93) rotate(-45)"/><rect class="cls-6" x="24.05" y="27.69" width="40.38" height="4.2" transform="translate(-8.11 40.01) rotate(-45)"/><rect class="cls-6" x="72.05" y="29.69" width="40.38" height="4.2" transform="translate(4.53 74.54) rotate(-45)"/><rect class="cls-6" x="130.15" y="9.6" width="4.2" height="40.38" transform="translate(43.12 131.94) rotate(-61.59)"/><rect class="cls-6" x="149.15" y="8.61" width="4.2" height="40.38" transform="translate(53.96 148.13) rotate(-61.59)"/><rect class="cls-6" x="151.66" y="37.97" width="3.15" height="81.65" transform="translate(-6.68 14.63) rotate(-5.35)"/><rect class="cls-6" x="-12.6" y="81.22" width="81.65" height="3.15" transform="translate(-56.46 104.73) rotate(-85.7)"/><rect class="cls-6" x="12.4" y="77.23" width="81.65" height="3.15" transform="translate(-29.35 125.97) rotate(-85.7)"/><rect class="cls-6" x="32.4" y="83.22" width="81.65" height="3.15" transform="translate(-19.6 147.53) rotate(-83.24)"/></g></g></g></svg>