<?xml version="1.0" encoding="utf-8"?>
<!-- Generator: Adobe Illustrator 25.1.0, SVG Export Plug-In . SVG Version: 6.00 Build 0)  -->
<svg version="1.1" id="装飾" xmlns="http://www.w3.org/2000/svg" xmlns:xlink="http://www.w3.org/1999/xlink" x="0px" y="0px"
	 viewBox="0 0 200.4 463.9" style="enable-background:new 0 0 200.4 463.9;" xml:space="preserve">
<style type="text/css">
	.st0{fill:#FF9D00;}
	.st1{fill:none;stroke:#FFFF00;stroke-width:4;stroke-linejoin:round;}
	.st2{fill:#FFFFFF;}
	.st3{fill:#FFE6C8;}
	.st4{fill:#000103;}
	.st5{fill:#040000;stroke:#000000;stroke-miterlimit:10;}
	.st6{fill:#060001;}
</style>
<path class="st0" d="M59.2,112.8h81.6c4.4,0,8,3.8,8,8.5v334.1c0,4.7-3.6,8.5-8,8.5H59.2c-4.4,0-8-3.8-8-8.5V121.3
	C51.2,116.6,54.8,112.8,59.2,112.8z"/>
<polygon class="st1" points="51.2,196.8 99.9,261.5 148.8,196.8 "/>
<rect x="81.2" y="261.4" class="st2" width="37.5" height="25.6"/>
<ellipse class="st3" cx="100" cy="105.1" rx="100" ry="105.1"/>
<path class="st4" d="M196.6,78.4C185.4,33.3,146.4,0,99.9,0S14.4,33.3,3.2,78.4H196.6z"/>
<path class="st4" d="M64,26.8c-0.4,0.2,3.2,22.2,13.8,42.5s29.1,28.3,29.5,28S94.4,83.5,83.8,63.2S64.4,26.6,64,26.8z"/>
<path class="st4" d="M70.1,43.5c-0.3,0.2,2.3,16,9.9,30.7s21,20.4,21.3,20.3c0.3-0.1-9.3-10-16.9-24.7S70.4,43.3,70.1,43.5z"/>
<path class="st4" d="M75.5,26.8c-0.4,0.2,1.6,22.2,12.1,42.5s30.7,28.3,31.1,28s-12.9-13.9-23.4-34.2S75.9,26.6,75.5,26.8z"/>
<path class="st4" d="M96,34.9c-0.3,0.2,2.7,18.7,11.6,35.8s24.5,23.8,24.9,23.6c0.4-0.2-10.9-11.7-19.8-28.8S96.3,34.7,96,34.9z"/>
<path class="st4" d="M83.7,26.8c-0.4,0.2,3.2,22.2,13.8,42.5s29.1,28.3,29.5,28s-12.9-13.9-23.4-34.2S84.1,26.6,83.7,26.8z"/>
<path class="st4" d="M106.1,49.3c-0.2,0.1,0.9,13.5,7.4,25.9s18.7,17.2,19,17.1c0.3-0.2-7.8-8.5-14.3-20.8S106.4,49.2,106.1,49.3z"
	/>
<path class="st4" d="M115.1,47.2c-0.2,0.1,1.9,13.5,8.4,25.9s17.7,17.2,18,17.1s-7.8-8.5-14.3-20.8S115.4,47,115.1,47.2z"/>
<path class="st4" d="M106.2,41.3c-0.3,0.2,2.3,16,9.9,30.7s21,20.4,21.3,20.3c0.3-0.1-9.3-10-16.9-24.7S106.5,41.2,106.2,41.3z"/>
<path class="st4" d="M122.1,47.2c-0.2,0.1,0.9,13.5,7.4,25.9s18.7,17.2,19,17.1s-7.8-8.5-14.3-20.8S122.4,47,122.1,47.2z"/>
<path class="st4" d="M126.1,45c-0.2,0.1,1.9,13.5,8.4,25.9s17.7,17.2,18,17.1s-7.8-8.5-14.3-20.8S126.4,44.9,126.1,45z"/>
<path class="st4" d="M133.1,45c-0.2,0.1,0.9,13.5,7.4,25.9s18.7,17.2,19,17.1s-7.8-8.5-14.3-20.8S133.4,44.9,133.1,45z"/>
<path class="st4" d="M136.1,46.1c-0.2,0.1,1.9,13.5,8.4,25.9s17.7,17.2,18,17.1s-7.8-8.5-14.3-20.8S136.4,46,136.1,46.1z"/>
<path class="st4" d="M127.2,40.3c-0.3,0.2,2.3,16,9.9,30.7s21,20.4,21.3,20.3s-9.3-10-16.9-24.7S127.5,40.1,127.2,40.3z"/>
<path class="st4" d="M143.1,46.1c-0.2,0.1,0.9,13.5,7.4,25.9s18.7,17.2,19,17.1s-7.8-8.5-14.3-20.8S143.4,46,143.1,46.1z"/>
<path class="st4" d="M152.1,44c-0.2,0.1,1.9,13.5,8.4,25.9c6.4,12.4,17.7,17.2,18,17.1s-7.8-8.5-14.3-20.8S152.4,43.8,152.1,44z"/>
<path class="st4" d="M143.2,38.1c-0.3,0.2,2.3,16,9.9,30.7s21,20.4,21.3,20.3s-9.3-10-16.9-24.7S143.5,38,143.2,38.1z"/>
<path class="st4" d="M159.1,44c-0.2,0.1,0.9,13.5,7.4,25.9c6.4,12.4,18.7,17.2,19,17.1s-7.8-8.5-14.3-20.8S159.4,43.8,159.1,44z"/>
<path class="st4" d="M169.1,49.3c-0.2,0.1,2,13.5,8.4,25.9s17.7,17.2,18,17.1c0.3-0.2-7.8-8.5-14.3-20.8S169.4,49.2,169.1,49.3z"/>
<path class="st4" d="M185.8,58.6c0.3-0.1,8.4,10.2,12.2,23.7s-1.5,26.3-1.8,26.4c-0.3,0.1-0.2-11.9-4-25.4S185.6,58.7,185.8,58.6z"
	/>
<path class="st4" d="M176.6,52.6c0.2-0.1,9.7,8.8,15.3,21.6s2,26.3,1.8,26.4c-0.2,0.1-1.8-11.7-7.4-24.5S176.4,52.7,176.6,52.6z"/>
<path class="st4" d="M176.5,59.6c0.2-0.1,6.3,5.7,9.9,14c2.2,5.4,2.6,11.4,1.1,17.1c-1.1-5.5-2.7-10.8-4.8-15.9
	C179.1,66.4,176.3,59.6,176.5,59.6z"/>
<path class="st4" d="M153.1,51.4c-0.2,0.1,1.9,13.5,8.4,25.9c6.4,12.4,17.7,17.2,18,17.1c0.3-0.2-7.8-8.5-14.3-20.8
	S153.4,51.3,153.1,51.4z"/>
<path class="st4" d="M144.2,45.6c-0.3,0.2,2.3,16,9.9,30.7s21,20.4,21.3,20.3c0.3-0.1-9.3-10-16.9-24.7S144.5,45.4,144.2,45.6z"/>
<path class="st4" d="M160.1,51.4c-0.2,0.1,0.9,13.5,7.4,25.9c6.4,12.4,18.7,17.2,19,17.1c0.3-0.2-7.8-8.5-14.3-20.8
	S160.4,51.3,160.1,51.4z"/>
<path class="st4" d="M170.1,56.8c-0.2,0.1,2,13.5,8.4,25.9s17.7,17.2,18,17.1s-7.8-8.5-14.3-20.8S170.4,56.6,170.1,56.8z"/>
<path class="st4" d="M186.8,66c0.3-0.1,8.4,10.2,12.2,23.7c3.8,13.5-1.5,26.3-1.8,26.4s-0.2-11.9-4-25.4S186.6,66.1,186.8,66z"/>
<path class="st4" d="M177.6,60c0.2-0.1,9.7,8.8,15.3,21.6s2,26.3,1.8,26.4c-0.2,0.1-1.8-11.7-7.4-24.5S177.4,60.1,177.6,60z"/>
<path class="st4" d="M177.5,67c0.2-0.1,6.3,5.7,9.9,14c2.2,5.4,2.6,11.4,1.1,17.1c-1.1-5.5-2.7-10.8-4.8-15.9
	C180.1,73.9,177.3,67.1,177.5,67z"/>
<path class="st4" d="M37,39.2c-0.3,0.2,2.3,16,9.9,30.7s21,20.4,21.3,20.3s-9.3-10-16.9-24.7S37.3,39,37,39.2z"/>
<path class="st4" d="M28.9,56.7c-0.2,0.1,1.5,10.5,6.5,20.1c5,9.6,13.8,13.4,14,13.3S43.3,83.6,38.3,74S29.1,56.6,28.9,56.7z"/>
<path class="st4" d="M46.9,35.1c-0.4,0.2,1.4,19.7,10.7,37.6s27.2,25,27.6,24.8c0.4-0.2-11.4-12.3-20.7-30.3S47.2,34.9,46.9,35.1z"
	/>
<path class="st4" d="M60.1,45c-0.2,0.1,1.9,13.5,8.4,25.9s17.7,17.2,18,17.1s-7.8-8.5-14.3-20.8S60.4,44.9,60.1,45z"/>
<path class="st4" d="M56.2,36.2c-0.4,0.2,2.8,19.7,12.2,37.6s25.8,25,26.2,24.8S83.1,86.3,73.8,68.4S56.5,36,56.2,36.2z"/>
<path class="st4" d="M25.6,58.8C25.4,59,27.1,69.4,32.1,79s13.8,13.4,14,13.3c0.2-0.1-6.1-6.6-11.1-16.2S25.8,58.7,25.6,58.8z"/>
<path class="st4" d="M21.7,58.8C21.5,59,23.2,69.4,28.2,79s13.8,13.4,14,13.3c0.2-0.1-6.1-6.6-11.1-16.2S21.9,58.7,21.7,58.8z"/>
<path class="st4" d="M31,58.8C30.9,59,31.8,69.4,36.8,79s14.6,13.4,14.7,13.3c0.1-0.1-6.1-6.6-11.1-16.2S31.2,58.7,31,58.8z"/>
<path class="st4" d="M16.9,61c-0.2,0.1,1.5,10.5,6.5,20.1s13.8,13.4,14,13.3c0.2-0.1-6.1-6.6-11.1-16.2S17.1,60.9,16.9,61z"/>
<path class="st4" d="M17.1,61.6c-0.2,0.1-0.5,10.7,2.6,21.1c3.1,10.5,11,16.1,11.2,16c0.2-0.1-4.7-7.8-7.8-18.2S17.3,61.5,17.1,61.6
	z"/>
<path class="st4" d="M14,61.7c-0.3,0.1-2.5,10.8-0.3,21.5s11.6,16.6,11.9,16.5c0.3-0.1-4.8-8-7-18.7S14.3,61.6,14,61.7z"/>
<path class="st4" d="M19,63.1c-0.2,0.1,0.7,10.5,5.8,20.1s14.6,13.4,14.7,13.3c0.1-0.1-6.1-6.6-11.1-16.2S19.2,63,19,63.1z"/>
<path class="st4" d="M13.1,63.1c-0.2,0-4.5,9.5-5.6,20.4s4,19.4,4.2,19.5c0.2,0-1.4-9.1-0.2-20.1S13.3,63.2,13.1,63.1z"/>
<path class="st4" d="M6.3,69.4c-0.2,0-2.7,10.2-2,21.2s7.3,18.3,7.5,18.3s-3-8.7-3.7-19.7S6.5,69.3,6.3,69.4z"/>
<path class="st4" d="M4.9,73.7c-0.2,0-4,9.7-4.7,20.7s4.9,19.2,5.1,19.2s-1.8-9-1.2-20S5.2,73.7,4.9,73.7z"/>
<path class="st4" d="M13,62c-0.3,0-6,9.3-6.5,20.3s8.3,19.6,8.6,19.7c0.3,0-2.8-9.1-2.4-20S13.3,62.1,13,62z"/>
<path class="st4" d="M39.9,54.6c-0.2,0.1,1.5,10.5,6.5,20.1s13.8,13.4,14,13.3c0.2-0.1-6.1-6.6-11.1-16.2S40.1,54.5,39.9,54.6z"/>
<path class="st4" d="M36.6,56.7c-0.2,0.1,1.5,10.5,6.5,20.1c5,9.6,13.8,13.4,14,13.3S51,83.5,46,73.9S36.8,56.6,36.6,56.7z"/>
<path class="st4" d="M32.7,56.7c-0.2,0.1,1.5,10.5,6.5,20.1c5,9.6,13.8,13.4,14,13.3s-6.1-6.6-11.1-16.2S32.9,56.6,32.7,56.7z"/>
<path class="st4" d="M42,56.7c-0.2,0.1,0.7,10.5,5.8,20.1c5,9.6,14.6,13.4,14.7,13.3c0.1-0.1-6.1-6.6-11.1-16.2S42.2,56.6,42,56.7z"
	/>
<path class="st4" d="M40.2,42.4c-0.3,0.2,2.3,16,9.9,30.7s21,20.4,21.3,20.3c0.3-0.1-9.3-10-16.9-24.7S40.5,42.2,40.2,42.4z"/>
<path class="st4" d="M28.4,47c-0.3,0-3.2,15.8-1.1,32.4s12.7,27.1,13,27.1c0.3-0.1-5.3-12.9-7.5-29.5S28.7,46.9,28.4,47z"/>
<path class="st4" d="M14.9,60.3c-0.2,0-2.1,10.4-0.7,21.3s8.3,17.8,8.6,17.8s-3.5-8.5-4.9-19.4S15.2,60.3,14.9,60.3z"/>
<path class="st4" d="M36.1,50.2c-0.3,0-4.3,15.4-2.2,32c2.2,16.6,13.8,27.6,14.2,27.5s-5.3-12.9-7.4-29.5S36.5,50.1,36.1,50.2z"/>
<path class="st4" d="M41.7,52.4c-0.3,0-3.2,15.8-1.1,32.4s12.7,27.1,13,27.1c0.3,0-5.3-12.9-7.4-29.5S42,52.4,41.7,52.4z"/>
<path class="st4" d="M11.1,60.9c-0.2,0-2.1,10.4-0.7,21.3s8.3,17.8,8.6,17.8c0.2,0-3.5-8.5-4.9-19.4S11.3,60.9,11.1,60.9z"/>
<path class="st4" d="M16.2,63c-0.2,0-2.9,10.1-1.4,21c1.4,10.9,9.1,18.1,9.3,18.1c0.2-0.1-3.5-8.5-4.9-19.4S16.4,63,16.2,63z"/>
<path class="st4" d="M25.9,62.5c-0.2,0-2.1,10.4-0.7,21.3s8.3,17.8,8.6,17.8c0.2,0-3.5-8.5-4.9-19.4S26.2,62.5,25.9,62.5z"/>
<path class="st4" d="M22.1,63.2c-0.2,0-2.1,10.4-0.7,21.3c1.4,10.9,8.3,17.8,8.6,17.8s-3.5-8.5-4.9-19.4S22.3,63.1,22.1,63.2z"/>
<path class="st4" d="M18.5,61.7c-0.2,0-2.1,10.4-0.7,21.3s8.3,17.8,8.6,17.8c0.2,0-3.5-8.5-4.9-19.4S18.7,61.6,18.5,61.7z"/>
<path class="st4" d="M27.2,65.3c-0.2,0-2.8,10.1-1.4,21s9.1,18.1,9.3,18.1c0.2-0.1-3.5-8.5-4.9-19.4S27.4,65.2,27.2,65.3z"/>
<path class="st4" d="M30.3,51.2c-0.3,0-3.2,15.8-1.1,32.4s12.7,27.1,13,27.1S37,97.8,34.8,81.2S30.7,51.1,30.3,51.2z"/>
<path class="st4" d="M66.1,47.2c-0.2,0.1,0.9,13.5,7.4,25.9s18.7,17.2,19,17.1s-7.8-8.5-14.3-20.8S66.4,47,66.1,47.2z"/>
<ellipse class="st5" cx="58" cy="109.8" rx="10" ry="10.7"/>
<path class="st5" d="M188,156.2c3.8,7-36,54.9-89,54.9c-50.1,0-87.4-47.9-87-54.4c0.2-3.2,38.5-27.7,86-27.7S186.5,153.4,188,156.2z
	"/>
<path class="st6" d="M75.3,114.1c0,0.4-3.2-14.2-18.7-14.2s-29.3,13.2-29.3,12.8s13.9-14.2,29.3-14.2S75.3,113.7,75.3,114.1z"/>
<ellipse class="st5" cx="141.7" cy="109.9" rx="9.9" ry="10.6"/>
<path class="st6" d="M124.5,114.2c0,0.4,3.2-14.1,18.5-14.1s29.1,13.1,29.1,12.7c0-0.4-13.8-14.1-29.1-14.1S124.5,113.8,124.5,114.2
	z"/>
<path class="st5" d="M168,91.7c0,0.9-2.7-7.5-14-7.5s-30,3-30,2.1s18.7-4.3,30-4.3S168,90.8,168,91.7z"/>
<path class="st5" d="M29.2,92.7c0,0.9,2.7-7.5,14-7.5s30,3,30,2.1s-18.7-4.3-30-4.3S29.2,91.9,29.2,92.7z"/>
</svg>
