<?xml version="1.0" encoding="utf-8"?>
<!-- Generator: Adobe Illustrator 25.1.0, SVG Export Plug-In . SVG Version: 6.00 Build 0)  -->
<svg version="1.1" id="Layer_1" xmlns="http://www.w3.org/2000/svg" xmlns:xlink="http://www.w3.org/1999/xlink" x="0px" y="0px"
	 viewBox="0 0 200.3 462.9" style="enable-background:new 0 0 200.3 462.9;" xml:space="preserve">
<style type="text/css">
	.st0{fill:#05B1FF;}
	.st1{fill:none;stroke:#FFFF00;stroke-width:4;stroke-linejoin:round;}
	.st2{fill:#FFFFFF;}
	.st3{fill:#FFE6C8;}
	.st4{fill:#F15A24;stroke:#000000;stroke-linecap:round;stroke-linejoin:round;}
	.st5{stroke:#000000;stroke-miterlimit:10;}
	.st6{fill:none;stroke:#000000;stroke-linecap:round;stroke-linejoin:round;}
</style>
<path class="st0" d="M59.5,112.5h81.6c4.4,0,8,3.7,8,8.3v333.7c0,4.6-3.6,8.3-8,8.3H59.5c-4.4,0-8-3.7-8-8.3V120.9
	C51.5,116.3,55.1,112.5,59.5,112.5z"/>
<polygon class="st1" points="51.5,196.4 100.2,260.9 149.1,196.4 "/>
<rect x="81.6" y="260.9" class="st2" width="37.5" height="25.6"/>
<ellipse class="st3" cx="100.3" cy="104.9" rx="100" ry="104.9"/>
<path d="M100,0.3C44.8,0.3,0,47.3,0,105.2c-0.1,34.6,16.3,67.1,43.7,86.7c0.1-4.4,0.3-8.9,0.5-13.3c0.1-1,0.1-1.9,0.2-2.9
	c-0.4-0.4-0.6-0.9-0.6-1.5c0-5.7,0.3-11.4,0.6-17c0.3-5,0.6-9.9,0.7-14.9s0.1-10,0.6-15c0.6-4.5,1.6-9,3-13.3
	c1.3-4.1,2.6-8.3,2.6-12.7c0-1.1,0.8-2,1.8-2c0.1,0,0.2,0,0.3,0c0.2-1,0.5-2.1,0.8-3.2c-1.1,0.1-2.1-0.7-2.2-1.8c0-0.3,0-0.5,0-0.8
	c2.7-9.6,7.4-18.4,12.1-27l0.8-1.5c1.1-4.4,2.5-8.6,4.2-12.7c0.5-1,1.6-1.3,2.6-0.8c0.2,0.1,0.3,0.2,0.4,0.3c0.8-1,1.8-1.8,2.9-2.3
	c4-4.9,8.9-9,14.8-10c0.4-0.3,0.8-0.5,1.1-0.7c4.9-7.9,10.7-15.2,17.3-21.7c1.3-1.3,4.1,0,3.3,2.1C110,23,108.6,27,107.2,31
	c5.1-1.6,10.4-2.4,15.7-2.4c5.6,0,11.4,0.9,16.1,4.2c0.7,0.4,1,1.2,0.9,2l0.2,0.1l0.4,0.1c0-0.6,0.1-1,0.1-1.6c0-1.1,0.9-2.1,2-2.1
	s2,0.9,2,2.1c0.1,1,0.2,2.1,0.3,3.1c0.6,0.3,1.2,0.7,1.8,1c1,0.6,1.5,2.4,0.4,3.3h-0.1l0.2,0.2c1.5,2.4,2.8,5,3.9,7.7
	c2.3,5.1,4.1,10.4,5.4,15.9c1.3,5.6,2,11.4,3.1,17.1c1.2,5.9,2.5,11.8,3.5,17.7c1,6.1,1.6,12.3,1.7,18.5c0.2,12.6-0.6,25.2-0.6,37.9
	c0,6.2,0,12.4-0.4,18.7c-0.3,4.1-0.6,8.2-0.9,12.3c23.6-20,37.2-49.9,37.1-81.5C200,47.3,155.2,0.3,100,0.3z"/>
<path d="M96.5,3.3c-175,82.9-51.6,190.2-51.6,190.2s-4.1-80.9,20.3-125c30.1-54.4,73.4-31.9,73.4-31.9s30.2,9.7,22.6,156.9
	c0,0,43.4-86.9,26.4-114s-43-70.7-84.5-68.1"/>
<path d="M183,163.7c-0.6,1.8-21.8,29.7-21.8,29.7l7.4-16.9"/>
<path class="st4" d="M121.4,157.1c-20.4,39.9-41.9,0-41.9,0H121.4z"/>
<path class="st5" d="M120.5,109.6c-0.1-8.2,4.6-15,10.5-15.1c5.9-0.1,10.8,6.5,10.9,14.7s-4.6,14.9-10.5,15.1
	S120.6,117.8,120.5,109.6z"/>
<path class="st6" d="M137.4,100.9c0,0,7-1.2,7.5-6.3"/>
<path class="st5" d="M80.2,109.6c0.1-8.2-4.6-15-10.5-15.1c-5.9-0.1-10.8,6.5-10.9,14.7s4.6,14.9,10.5,15.1S80,117.8,80.2,109.6z"/>
<path class="st6" d="M63.2,100.9c0,0-7-1.2-7.5-6.3"/>
</svg>
