<?xml version="1.0" encoding="utf-8"?>
<!-- Generator: Adobe Illustrator 25.1.0, SVG Export Plug-In . SVG Version: 6.00 Build 0)  -->
<svg version="1.1" id="Layer_1" xmlns="http://www.w3.org/2000/svg" xmlns:xlink="http://www.w3.org/1999/xlink" x="0px" y="0px"
	 viewBox="0 0 235.3 463.9" style="enable-background:new 0 0 235.3 463.9;" xml:space="preserve">
<style type="text/css">
	.st0{fill:#534741;}
	.st1{fill:#05B1FF;}
	.st2{fill:none;stroke:#FFFF00;stroke-width:4;stroke-linejoin:round;}
	.st3{fill:#FFFFFF;}
	.st4{fill:#FFE6C8;}
	.st5{opacity:0.97;}
	.st6{fill:#3F3834;}
	.st7{fill:#333333;}
	.st8{fill:none;stroke:#4C4C4B;stroke-width:4;stroke-linecap:round;stroke-miterlimit:10;}
	.st9{fill:none;stroke:#4C4C4B;stroke-width:3;stroke-linecap:round;stroke-miterlimit:10;}
	.st10{clip-path:url(#SVGID_2_);}
	.st11{opacity:0.72;fill:#FFFFFF;enable-background:new    ;}
	.st12{fill:none;stroke:#4C4C4B;stroke-width:2;stroke-linecap:round;stroke-miterlimit:10;}
	.st13{clip-path:url(#SVGID_4_);}
	.st14{fill:none;stroke:#534741;stroke-width:3;stroke-linecap:round;stroke-miterlimit:10;}
</style>
<g id="Layer_2_1_">
	<g id="Layer_1-2">
		<path class="st0" d="M232.4,108c-2.4,8.2-16.6,14.9-16.6,14.9s-12.6,4.7-19.4,2.6c-15.6-5-24.9-20.8-20.6-35.4s20.4-22.4,36-17.5
			c7.7,2.5,16.9,4.4,21.2,11.7S234.6,100.6,232.4,108z"/>
		<path class="st0" d="M199.4,236c-78.5-0.1-135,9-144,9.4s-22.6-3.6-22.6-3.6s-15.1,2.5-21.8,2.6c-19.8,0.2-7.6-4.1-3.1-27.2
			C8.6,183.9,19.5,77.1,22.9,78.8h176.4V236z"/>
		<path class="st0" d="M22.5,235.9c78.5-0.1,135,9,144,9.4s22.6-3.6,22.6-3.6s15.1,2.5,21.8,2.6c19.8,0.2,7.6-4.1,3.1-27.2
			c-10-36.5-8-130.6-14.1-138.4H22.5V235.9z"/>
		<path class="st1" d="M70.5,112.8H152c4.4,0,8,3.7,8,8.3v334.4c0,4.6-3.6,8.3-8,8.3H70.5c-4.4,0-8-3.7-8-8.3V121.1
			C62.5,116.5,66.1,112.8,70.5,112.8z"/>
		<polygon class="st2" points="62.5,196.8 111.2,261.5 160,196.8 		"/>
		<rect x="92.5" y="261.4" class="st3" width="37.5" height="25.6"/>
		<ellipse class="st4" cx="111.3" cy="105.1" rx="100" ry="105.1"/>
		<path class="st0" d="M211.8,106.6C211.9,46.9,171,0.4,111.2,0C55.1-0.4,14.9,46.8,10.8,107.7c26.4-14.4,78.9-80.8,78.9-80.8
			C89.7,18.8,157.9,120.7,211.8,106.6z"/>
		<g class="st5">
			<ellipse class="st0" cx="89.3" cy="189.7" rx="2.5" ry="2.6"/>
		</g>
		<ellipse class="st6" cx="71.7" cy="109.6" rx="11.1" ry="11.6"/>
		<ellipse class="st7" cx="71.7" cy="109.6" rx="6.5" ry="6.8"/>
		<path class="st8" d="M94,105.4c0,0-25.6-20.1-48.4,8"/>
		<path class="st9" d="M50.5,108.2c-2.5,0.2-6.2,0.3-7.9-2.5"/>
		<g>
			<defs>
				
					<ellipse id="SVGID_1_" transform="matrix(0.9986 -5.310863e-02 5.310863e-02 0.9986 -5.7371 3.9652)" cx="71.7" cy="109.9" rx="11.1" ry="12.5"/>
			</defs>
			<clipPath id="SVGID_2_">
				<use xlink:href="#SVGID_1_"  style="overflow:visible;"/>
			</clipPath>
			<g class="st10">
				
					<ellipse transform="matrix(0.9986 -5.313072e-02 5.313072e-02 0.9986 -5.3995 4.3213)" class="st11" cx="78.6" cy="103.7" rx="2.3" ry="2.6"/>
			</g>
		</g>
		<path class="st12" d="M48.6,80c17.6-4.7,32.2-4.7,43.7,0"/>
		<ellipse class="st6" cx="151.5" cy="109.6" rx="11.1" ry="11.6"/>
		<ellipse class="st7" cx="151.5" cy="109.6" rx="6.5" ry="6.8"/>
		<path class="st8" d="M129.3,105.4c0,0,25.6-20.1,48.4,8"/>
		<path class="st9" d="M172.7,108.2c2.5,0.2,6.2,0.3,7.9-2.5"/>
		<g>
			<defs>
				
					<ellipse id="SVGID_3_" transform="matrix(0.9987 -5.124953e-02 5.124953e-02 0.9987 -5.4861 7.9376)" cx="152" cy="110.9" rx="11.2" ry="12.5"/>
			</defs>
			<clipPath id="SVGID_4_">
				<use xlink:href="#SVGID_3_"  style="overflow:visible;"/>
			</clipPath>
			<g class="st13">
				
					<ellipse transform="matrix(0.9986 -5.313072e-02 5.313072e-02 0.9986 -5.2867 8.5568)" class="st11" cx="158.3" cy="103.7" rx="2.3" ry="2.6"/>
			</g>
		</g>
		<path class="st12" d="M174.6,80c-17.6-4.7-32.2-4.7-43.7,0"/>
		<path class="st14" d="M128.8,164c0,3.9-7.8,7.1-17.5,7.1s-17.5-3.1-17.5-7.1"/>
	</g>
</g>
</svg>
