<?xml version="1.0" encoding="utf-8"?>
<!-- Generator: Adobe Illustrator 25.1.0, SVG Export Plug-In . SVG Version: 6.00 Build 0)  -->
<svg version="1.1" id="Layer_1" xmlns="http://www.w3.org/2000/svg" xmlns:xlink="http://www.w3.org/1999/xlink" x="0px" y="0px"
	 viewBox="0 0 200.1 462.9" style="enable-background:new 0 0 200.1 462.9;" xml:space="preserve">
<style type="text/css">
	.st0{fill:#05B1FF;}
	.st1{fill:none;stroke:#FFFF00;stroke-width:4;stroke-linejoin:round;}
	.st2{fill:#FFFFFF;}
	.st3{fill:#FFE6C8;}
	.st4{fill:#534741;}
	.st5{fill:#231815;}
</style>
<path class="st0" d="M59.3,112.7h81.6c4.4,0,8,3.7,8,8.3v333.6c0,4.6-3.6,8.3-8,8.3H59.3c-4.4,0-8-3.7-8-8.3V121
	C51.3,116.4,54.9,112.7,59.3,112.7z"/>
<polygon class="st1" points="51.3,196.5 100,261 148.9,196.5 "/>
<rect x="81.3" y="261" class="st2" width="37.5" height="25.6"/>
<ellipse class="st3" cx="100.1" cy="105" rx="100" ry="104.8"/>
<ellipse class="st4" cx="69.5" cy="125" rx="5.5" ry="5.7"/>
<path class="st4" d="M54.5,116.3h29.1c1.4,0,2.4,1.1,2.4,2.5l0,0c0,1.4-1.1,2.5-2.4,2.5H54.5c-1.4,0-2.5-1.1-2.5-2.5l0,0
	C52,117.4,53.1,116.3,54.5,116.3z"/>
<ellipse class="st4" cx="143.5" cy="125" rx="5.5" ry="5.7"/>
<path class="st4" d="M128.4,116.3h29.1c1.4,0,2.4,1.1,2.4,2.5l0,0c0,1.4-1.1,2.5-2.4,2.5h-29.1c-1.4,0-2.4-1.1-2.4-2.5l0,0
	C126,117.4,127.1,116.3,128.4,116.3z"/>
<path class="st4" d="M88.3,163.6l28.7-5.1c1.4-0.2,2.6,0.7,2.8,2l0,0c0.2,1.4-0.6,2.7-1.9,2.9l-28.7,5.1c-1.4,0.2-2.7-0.6-2.9-2l0,0
	C86,165.1,86.9,163.8,88.3,163.6z"/>
<path class="st5" d="M0.1,105h200c0,0,5.4-103.1-100-104.8S0.1,105,0.1,105z"/>
</svg>
