<svg xmlns="http://www.w3.org/2000/svg" viewBox="0 0 200.5 462.91"><defs><style>.cls-1{fill:#35302e;}.cls-2{fill:#ff9d00;}.cls-3,.cls-6{fill:none;}.cls-3{stroke:#ff0;stroke-linejoin:round;stroke-width:4px;}.cls-4{fill:#fff;}.cls-5{fill:#ffe6c8;}.cls-6{stroke:#000;stroke-miterlimit:10;}.cls-7{fill:#8c6239;}</style></defs><g id="Layer_2" data-name="Layer 2"><g id="Layer_1-2" data-name="Layer 1"><rect class="cls-1" x="3.16" y="78.67" width="192.68" height="143.22"/><path class="cls-2" d="M59.32,112.53h81.56a8.17,8.17,0,0,1,8,8.33V454.59a8.17,8.17,0,0,1-8,8.32H59.32a8.17,8.17,0,0,1-8-8.32V120.86A8.17,8.17,0,0,1,59.32,112.53Z"/><polygon class="cls-3" points="51.32 196.39 100.01 260.9 148.88 196.39 51.32 196.39"/><rect class="cls-4" x="81.34" y="260.86" width="37.52" height="25.58"/><ellipse class="cls-5" cx="100.1" cy="104.86" rx="100" ry="104.86"/><path class="cls-1" d="M199.6,93.1c-5-47.21-40-84.95-84.55-91.93a113.25,113.25,0,0,0-47.77,4.6C30.78,19.15,4.86,53.09.6,93.1Z"/><path class="cls-5" d="M143.08,100.92l-13.48.34,10.68-50.41s1,8.64,1.76,31.6S143.08,100.92,143.08,100.92Z"/><path class="cls-5" d="M119.08,100.92l-13.48.34,10.68-50.41s1,8.64,1.76,31.6S119.08,100.92,119.08,100.92Z"/><path class="cls-5" d="M93.08,100.92l-13.48.34L90.28,50.85s1,8.64,1.76,31.6S93.08,100.92,93.08,100.92Z"/><path class="cls-5" d="M69.08,100.92l-13.48.34L66.28,50.85s1,8.64,1.76,31.6S69.08,100.92,69.08,100.92Z"/><path class="cls-1" d="M85.06,119.91c-.12.68-13.15-11.53-29.31-8.72-16.09,2.25-23,14.78-23.66,14.14-1,.14,5.3-14.46,23-17.21C72.9,105.05,86.16,119.33,85.06,119.91Z"/><path class="cls-1" d="M115.8,119.91c.12.68,13.15-11.53,29.31-8.72,16.09,2.25,23,14.78,23.66,14.14,1,.14-5.3-14.46-23-17.22C128,105.05,114.7,119.33,115.8,119.91Z"/><path class="cls-6" d="M73.11,174.24a49.47,49.47,0,0,0,53.49,0"/><ellipse class="cls-1" cx="65.1" cy="118.59" rx="8.5" ry="8.84"/><ellipse class="cls-1" cx="135.1" cy="118.59" rx="8.5" ry="8.84"/><polygon class="cls-5" points="94.23 152.92 99.64 129.5 105.94 152.92 94.23 152.92"/><path class="cls-1" d="M99.67,131.59l5.61,20.81H94.87l4.8-20.81m-.07-4.16-6,26h13Z"/><ellipse class="cls-4" cx="67.6" cy="112.87" rx="1.87" ry="1.95"/><path class="cls-1" d="M67.6,111.05a1.82,1.82,0,1,1-1.75,1.82,1.78,1.78,0,0,1,1.75-1.82m0-.26a2.08,2.08,0,1,0,2,2.08A2,2,0,0,0,67.6,110.79Z"/><ellipse class="cls-4" cx="137.6" cy="112.87" rx="1.87" ry="1.95"/><path class="cls-1" d="M137.6,111.05a1.82,1.82,0,1,1-1.75,1.82,1.78,1.78,0,0,1,1.75-1.82m0-.26a2.08,2.08,0,1,0,2,2.08A2,2,0,0,0,137.6,110.79Z"/><ellipse class="cls-5" cx="159.6" cy="144.07" rx="0.5" ry="0.52"/><path class="cls-1" d="M159.6,143a1,1,0,1,0,1,1A1,1,0,0,0,159.6,143Z"/><ellipse class="cls-5" cx="119.1" cy="146.67" rx="0.5" ry="0.52"/><path class="cls-1" d="M119.1,146.15a.51.51,0,0,0-.5.52.5.5,0,1,0,1,0A.51.51,0,0,0,119.1,146.15Z"/><ellipse class="cls-5" cx="51.6" cy="147.19" rx="0.5" ry="0.52"/><path class="cls-1" d="M51.6,146.15a1,1,0,1,0,1,1A1,1,0,0,0,51.6,146.15Z"/><ellipse class="cls-5" cx="117.1" cy="168.52" rx="0.5" ry="0.52"/><path class="cls-1" d="M117.1,168a.52.52,0,1,0,.5.52A.51.51,0,0,0,117.1,168Z"/><ellipse class="cls-5" cx="153.6" cy="129.51" rx="0.5" ry="0.52"/><path class="cls-7" d="M153.6,128.47a1,1,0,1,0,1,1A1,1,0,0,0,153.6,128.47Z"/><ellipse class="cls-5" cx="62.1" cy="139.39" rx="0.5" ry="0.52"/><path class="cls-1" d="M62.1,138.87a.51.51,0,0,0-.5.52.5.5,0,1,0,1,0A.51.51,0,0,0,62.1,138.87Z"/><ellipse class="cls-5" cx="103.6" cy="148.24" rx="0.5" ry="0.52"/><path class="cls-1" d="M103.6,147.19a1,1,0,1,0,1,1.05A1,1,0,0,0,103.6,147.19Z"/><path class="cls-1" d="M0,104.86a111,111,0,0,0,1.36,17.37L41.5,77.5l-38.11.22A109.28,109.28,0,0,0,0,104.86Z"/><path class="cls-1" d="M200.5,105.9a109.76,109.76,0,0,1-1.37,17.37L159,78.54l38.11.22A109.28,109.28,0,0,1,200.5,105.9Z"/></g></g></svg>