<svg id="Layer_1" data-name="Layer 1" xmlns="http://www.w3.org/2000/svg" viewBox="0 0 241.66 463.96"><defs><style>.cls-1{fill:#231e18;}.cls-2{fill:#05b1ff;}.cls-3,.cls-7{fill:none;}.cls-3{stroke:#ff0;stroke-linejoin:round;stroke-width:4px;}.cls-4{fill:#fff;}.cls-5{fill:#ffe6c8;}.cls-6{fill:#3f362d;}.cls-7{stroke:#dd8c7c;stroke-linecap:round;stroke-miterlimit:10;stroke-width:5px;}</style></defs><rect class="cls-1" x="36.01" y="167.46" width="178" height="156" rx="56.11"/><rect class="cls-2" x="74.73" y="127.14" width="97.56" height="336.82" rx="8"/><polygon class="cls-3" points="74.73 207.76 123.41 269.77 172.28 207.76 74.73 207.76"/><rect class="cls-4" x="104.74" y="269.74" width="37.52" height="24.59"/><ellipse class="cls-5" cx="123.51" cy="119.76" rx="100" ry="100.8"/><path class="cls-1" d="M3396.58,41.49c-19.89-1.6-76.4,5.1-68.74,86.41,2.72,28.81-10,28.09-10.85,42.41-1.43,24.25,12.64,23.13,15.38,50.41,2.52,25.14-16.79,32.4-14.48,58.41,2.6,29.19,26,41.39,24.26,43.39-2.58,2.94-71.89-25.44-75.81-73.8-2-25,11.38-20.8,12.81-53.2,1.62-36.7-11.86-36.32-8-74,4-39,16.86-60.5,22-68,36.18-52.81,73.57-50.2,79-51,8-1.18,67.66-14.67,105,36,26.4,35.83,32,83,23.45,118.19-2.45,10.07-13.45,26.49-9.45,38.78,3.62,11.2,3.38,10.56,13,25,20,30-48,110-66,102-1.89-.84,36-12,19-53-9.29-22.4-3-22.3-9-48-4-17.11,5-31.07,13.57-62.41,5.92-21.8-9.07-78.36-11.56-82.59-4.47-7.59-24.62-31-53.57-35" transform="translate(-3266.14 -0.03)"/><path class="cls-6" d="M3406.78,101.66c-.37-.74,8.08-8.54,19.8-9.47,15-1.18,26.58,9.53,26.29,10.11s-9.14-6.61-22.54-6.8C3416.66,95.3,3407.15,102.42,3406.78,101.66Z" transform="translate(-3266.14 -0.03)"/><path class="cls-6" d="M3325.78,101.66c-.37-.74,8.08-8.54,19.8-9.47,15-1.18,26.58,9.53,26.29,10.11s-9.14-6.61-22.54-6.8C3335.66,95.3,3326.15,102.42,3325.78,101.66Z" transform="translate(-3266.14 -0.03)"/><path class="cls-6" d="M3410.15,117c-.28-.66,6.42-7.7,15.62-8.63,9.79-1,17,5.25,19.16,7.12.57.48,1.55,1.38,1.37,1.68-.48.83-8.34-5.82-17.62-5.88C3418,111.18,3410.47,117.62,3410.15,117Z" transform="translate(-3266.14 -0.03)"/><path class="cls-6" d="M3416.61,109.49c-.22-.27,4.23-3.23,10.68-3.64a27.56,27.56,0,0,1,13.76,2.93c.42.2,1.15.57,1,.7-.31.34-6.09-2.42-12.63-2.41C3421.9,107.05,3416.84,109.76,3416.61,109.49Z" transform="translate(-3266.14 -0.03)"/><circle class="cls-6" cx="162.51" cy="122.96" r="12.5"/><path class="cls-6" d="M3416.48,106.05c-.45.32.7,2.75,2.37,4.31.3.27.85.78,1.08.64s-.06-1.37-.5-2.21C3418.58,107.13,3416.88,105.78,3416.48,106.05Z" transform="translate(-3266.14 -0.03)"/><path class="cls-6" d="M3421.23,104.65c-.52.18-.09,2.83,1.08,4.79.21.35.6,1,.86.92s.32-1.33.14-2.26C3423,106.27,3421.69,104.49,3421.23,104.65Z" transform="translate(-3266.14 -0.03)"/><path class="cls-6" d="M3426.46,103.58c-.54.13-.32,2.81.69,4.86.18.36.52,1,.79,1s.42-1.31.31-2.25C3428,105.32,3426.93,103.49,3426.46,103.58Z" transform="translate(-3266.14 -0.03)"/><path class="cls-6" d="M3432.24,103.49c-.55,0-1,2.64-.59,4.88.08.4.24,1.14.51,1.16s.75-1.16.88-2.09C3433.32,105.56,3432.72,103.49,3432.24,103.49Z" transform="translate(-3266.14 -0.03)"/><path class="cls-6" d="M3438,105.56c-.53-.16-1.69,2.28-1.84,4.55,0,.41-.07,1.16.18,1.25s1-.92,1.41-1.79C3438.52,107.86,3438.49,105.7,3438,105.56Z" transform="translate(-3266.14 -0.03)"/><path class="cls-6" d="M3331.15,117c-.28-.66,6.42-7.7,15.62-8.63,9.79-1,17,5.25,19.16,7.12.57.48,1.55,1.38,1.37,1.68-.48.83-8.34-5.82-17.62-5.88C3339,111.18,3331.47,117.62,3331.15,117Z" transform="translate(-3266.14 -0.03)"/><path class="cls-6" d="M3337.61,109.49c-.22-.27,4.23-3.23,10.68-3.64a27.56,27.56,0,0,1,13.76,2.93c.42.2,1.15.57,1,.7-.31.34-6.09-2.42-12.63-2.41C3342.9,107.05,3337.84,109.76,3337.61,109.49Z" transform="translate(-3266.14 -0.03)"/><circle class="cls-6" cx="83.51" cy="122.96" r="12.5"/><path class="cls-6" d="M3337.48,106.05c-.45.32.7,2.75,2.37,4.31.3.27.85.78,1.08.64s-.06-1.37-.5-2.21C3339.58,107.13,3337.88,105.78,3337.48,106.05Z" transform="translate(-3266.14 -0.03)"/><path class="cls-6" d="M3342.23,104.65c-.52.18-.09,2.83,1.08,4.79.21.35.6,1,.86.92s.32-1.33.14-2.26C3344,106.27,3342.69,104.49,3342.23,104.65Z" transform="translate(-3266.14 -0.03)"/><path class="cls-6" d="M3347.46,103.58c-.54.13-.32,2.81.69,4.86.18.36.52,1,.79,1s.42-1.31.31-2.25C3349,105.32,3347.93,103.49,3347.46,103.58Z" transform="translate(-3266.14 -0.03)"/><path class="cls-6" d="M3353.24,103.49c-.55,0-1,2.64-.59,4.88.08.4.24,1.14.51,1.16s.75-1.16.88-2.09C3354.32,105.56,3353.72,103.49,3353.24,103.49Z" transform="translate(-3266.14 -0.03)"/><path class="cls-6" d="M3359,105.56c-.53-.16-1.69,2.28-1.84,4.55,0,.41-.07,1.16.18,1.25s1-.92,1.41-1.79C3359.52,107.86,3359.49,105.7,3359,105.56Z" transform="translate(-3266.14 -0.03)"/><path class="cls-7" d="M3371.15,173a24,24,0,0,0,16.65,9c11.37.84,18.58-7.21,19.35-8.1" transform="translate(-3266.14 -0.03)"/></svg>