<?xml version="1.0" encoding="utf-8"?>
<!-- Generator: Adobe Illustrator 25.1.0, SVG Export Plug-In . SVG Version: 6.00 Build 0)  -->
<svg version="1.1" id="Layer_1" xmlns="http://www.w3.org/2000/svg" xmlns:xlink="http://www.w3.org/1999/xlink" x="0px" y="0px"
	 viewBox="0 0 190.5 463.9" style="enable-background:new 0 0 190.5 463.9;" xml:space="preserve">
<style type="text/css">
	.st0{fill:#302222;}
	.st1{fill:#FF9D00;}
	.st2{fill:none;stroke:#FFFF00;stroke-width:4;stroke-linejoin:round;}
	.st3{fill:#FFFFFF;}
	.st4{fill:none;}
	.st5{fill:#FCECD9;}
	.st6{fill:#FFE6C8;}
	.st7{fill:#FAE7CE;}
	.st8{fill:#3D2A2A;}
	.st9{fill:#2D2828;}
	.st10{fill:#604040;}
	.st11{fill:#EC7389;}
	.st12{fill:#070102;}
	.st13{fill:#F7C3C7;}
	.st14{fill:#F7BE95;}
	.st15{fill:#231815;}
	.st16{fill:#231818;}
</style>
<path class="st0" d="M152.6,322.9c-5.7,2.4-69.6,28.3-102.7-4.1c-4-4-7.4-8.5-10-13.5c-3.1-4.6-5.8-9.5-8-14.5
	c-6.8-16.2-9.5-33.9-8-51.4c0.2-2.6,0.5-4.7,0.8-6.5c1-6.2,2-10.6,2.2-11.6c1.2-4.9,3.5-20.3,0.7-35.3c-1.2-6.5-4.7-19.4-16.1-33.1
	l173.9,1c-13,26.2-14.3,46.3-13,60.2c1,9.8,2.9,12.5,4,27c1.7,23.1-1.6,39-4,47.8c-2.8,10.4-5.8,16.2-8,19.7
	C161.3,313.9,157.3,318.7,152.6,322.9z"/>
<path class="st1" d="M59.4,116.3h83.4c4.5,0,8.2,3.7,8.2,8.3v331.1c0,4.6-3.7,8.3-8.2,8.3H59.4c-4.5,0-8.2-3.7-8.2-8.3V124.5
	C51.2,120,54.9,116.3,59.4,116.3z"/>
<polygon class="st2" points="51.2,199.5 101,263.5 151,199.5 "/>
<rect x="81.9" y="263.4" class="st3" width="38.4" height="25.4"/>
<line class="st4" x1="11.6" y1="208.5" x2="11.6" y2="208.5"/>
<path class="st5" d="M178.4,57.8c-10.8-18.2-26.8-26.8-32.7-29.9c-13.6-7.2-28.7-10.7-44-10.3h-3.1c-10.1-0.5-20.3,0.9-29.9,4.1l0,0
	c-13.6-3.4-32.1,18-37.9,26.4c-20.2,29.4-10,83.5-4.9,105.7c0.2,1.7,0.5,4.2,1,7.2c0.6,3.6,2,12.6,4.1,18.6
	c3,8.8,8.3,14.3,13.3,19.6c12.6,13.2,26,17.7,47.1,24.8c3.9,1.4,8.1,2.1,12.3,2.1c4.6-0.2,9.1-1.2,13.3-3.1
	c8.2-3.3,15.8-6.3,25.6-13.4c8-5.8,20.2-14.6,28.6-31c3.3-6.5,5.7-13.5,7.2-20.6c1.2-3.1,2.6-7.3,4.1-12.4
	c1.7-6.1,3.1-12.3,4.1-18.6C193.4,83,178.4,57.8,178.4,57.8z"/>
<path class="st6" d="M131.4,80.4"/>
<g id="耳">
	<path class="st7" d="M178.7,172.7c3.2-2.6,5.3-4.4,7-7.5c1.5-2.6,4.3-7.9,1.9-12.9c-1.5-3.1-5-6.4-8.3-5.9
		c-6.8,1.1-7.8,17.8-7.9,20.3c-0.1,2.6-0.6,8.3,1.6,9.1C174.3,176.3,176,174.9,178.7,172.7z"/>
</g>
<g id="耳-2">
	<path class="st7" d="M22.3,171c-3.6-1.7-5.9-2.8-8.3-5.4c-2-2.2-5.9-6.4-5.1-12c0.5-3.4,2.9-7.5,6.1-7.9
		c6.5-0.7,11.7,15.2,12.4,17.4c0.8,2.5,2.6,7.8,0.9,9.3C27.3,173.4,25.4,172.5,22.3,171z"/>
</g>
<path class="st8" d="M23.9,183.7c0.2,0.6,0.9,2.7,1.6,5.6c0.8,3.7,0.8,5.4,1.5,8.8c0.3,1.6,0.8,3.6,2,8.3c2.6,9.6,4.9,16.9,5.1,17.5
	c4.4,13.7,6.6,20.5,9.4,22.9c6.6,5.5,15.6,4.8,15.7,4.1c0.2-0.7-7.9-1.4-11.8-7.6c-2.9-4.7-2.4-10.7-1.2-11.1
	c1.3-0.4,2.5,7,9.4,12.4c2.7,2,5.7,3.7,8.7,5.2c2,0.9,2,0.7,3.2,1.3c3.7,1.9,6.7,5.1,8.4,8.9c2.2,5.2,1.2,10,1.8,10.3
	c0.6,0.3,2.3-4.1,1.4-9.6c-0.8-4.6-2.8-6.7-2.3-8.3c0.7-2.1,5.1-1.6,7.7,1.8c3.1,4,2,10.3,3.1,10.7s3.8-6.6,2-14.4
	c-0.6-3.1-1.9-6.1-3.6-8.7c-0.3-0.4-0.6-0.8-0.7-0.9c-0.7-0.9-1.5-1.8-2.3-2.6c-2.4-2.3-11-5.8-10.8-6.7c0.1-0.6,5-1,9.1,1.8
	c3.9,2.6,4.8,6.7,5.1,6.4c0.4-0.3-2.7-12.5-8.8-16.9c-4.3-3.1-5.5,0.8-14-1.3c-4.3-0.9-8.2-2.9-11.4-5.9c-2.9-2.7-5.3-5.8-7.3-9.2
	c-1-1.6-0.7-1.5-1.9-3.7c-2.2-3.9-3.7-5.6-5-7.7c-0.5-0.7-1.1-1.7-4.1-10.3c-2.1-6.2-3.2-9.3-4.1-12.4c-1.6-5.5-1.6-6.8-4.1-17.5
	c-1.8-7.6-2.7-11.4-3.1-11.4C20.7,143.6,20.8,174.2,23.9,183.7z"/>
<path class="st8" d="M79.1,137.3c-5.3-0.1-5.6-4.7-11.3-5.2c-7.6-0.7-9.7,7.3-18.4,8.3c-8.4,0.9-11.7-6.3-16.4-4.1
	c-6.5,3-5.4,19-5.1,23.7c0.8,11.8,4.4,18.9,3.1,19.6c-1.6,0.8-8.6-8.3-14.3-18.6c-6.7-12-19-34.1-16.4-64C1.1,89,3.6,59.9,27,38.2
	C54.2,12.9,98.2,9,123.1,25.8c1.4,0.9,2.8,2,4.1,3.1c22.8,20,19.4,66.1,0,90.8c-1.5,1.9-13.6,17.2-22.5,14.4
	c-3.7-1.2-4.2-4.6-8.2-5.2C89.7,128.1,86.8,137.4,79.1,137.3z"/>
<path class="st9" d="M49.5,18.6"/>
<path class="st9" d="M169.2,140.4"/>
<path class="st7" d="M103.7,0"/>
<path class="st8" d="M21.8,49.5c-1.9-11,28.2-30.6,58.3-34.1c0.5,0,2.6-0.3,5.4-0.4c25-1.5,67.8,7.5,88.7,32.4
	c33.8,40.2,4.6,115.7,3.1,115.6c-0.7-0.1,3.6-13-3.1-25.8c-2.6-5-5.7-7.8-18-26.3l-0.4-0.6c-8.2-12.1-18.2-18.6-24.6-22.7
	C89.3,60.4,24.5,65,21.8,49.5z"/>
<path class="st8" d="M125.5,128.2c0,0.2,1.1,0.2,3.4,0.3c0.8,0,1.5,0,2,0c1.7,0,2.9,0,3.3,0c2.4,0,4.8,0.3,7.2,0.9
	c1.6,0.4,3.1,1,4.5,1.8c3.1,1.6,7.8,3.8,15.3,7.1l0,0c-4.6-4.1-9.7-7.6-15.2-10.3c-3.1-1.5-5.2-2.5-8.3-2.8
	C131.2,124.4,125.3,127.5,125.5,128.2z"/>
<path class="st9" d="M172.2,109.4"/>
<path class="st10" d="M106.8,78.4c1.8,0.5,1.6,20.5-10.2,36.1c-6.4,8.4-15.3,14.4-16.4,13.4c-0.8-0.8,3.7-6,9.2-14.4
	C102.8,92.8,105.2,78,106.8,78.4z"/>
<path class="st10" d="M75,81.5c1.8,0.5,1.6,20.5-10.2,36.1c-6.4,8.4-15.3,14.4-16.4,13.4c-0.8-0.8,3.7-6,9.2-14.4
	C71.1,95.9,73.5,81.1,75,81.5z"/>
<path class="st10" d="M96.6,73.3c1.9,0.1,5.6,19.8-3.1,37.4c-4.7,9.5-12.3,17.1-13.5,16.4c-1-0.6,2.5-6.6,6.3-16
	C95.5,88.2,95,73.2,96.6,73.3z"/>
<path class="st10" d="M148.2,41c0.8,0.3,0.6,3.3-0.5,9.3c-2.7,16.3-7.3,32.1-13.6,47.3c-3.5,8.2-9.1,20.3-17.1,23.7
	c-1.9,0.8-4,1.3-6.1,1.4c-5.4,0.2-11.5-2.2-11.5-4.5c0-2,4.3-3.4,6.9-4.5c11.4-5.2,13.4-17.6,26.1-45C135,63.2,145.7,40.1,148.2,41z
	"/>
<path class="st9" d="M75,146.5"/>
<path id="口" class="st11" d="M95.1,201.1c0.9,1.4,3.9,1.2,5.1,1.1c1.6-0.1,3.7-0.3,4.3-1.6c0.4-0.8,0.2-1.7-0.3-2.3
	c-1.2-1.3-3.9-1.3-5.5-1c-0.4,0.1-2.9,0.6-3.6,2.2C94.8,200,94.8,200.6,95.1,201.1z"/>
<path class="st12" d="M107.8,199.1l-2.7,0.9l0,0c-0.7,0.3-1.4,0.5-2.2,0.5c-1-0.1-1.8-0.6-2.4-1.4c-0.2-0.3-0.3-0.9-0.7-0.9
	c-0.1,0-0.2,0-0.2,0c-0.2,0.3,1.6,2.6,3.6,2.7c1-0.1,1.9-0.4,2.7-0.9C106.6,199.7,107.2,199.4,107.8,199.1z"/>
<ellipse class="st3" cx="97.8" cy="201.5" rx="1.2" ry="0.5"/>
<path class="st12" d="M106.8,178.5"/>
<path class="st12" d="M92.4,199.2l2.5,0.8l0,0c0.6,0.3,1.3,0.4,2,0.4c0.9-0.1,1.7-0.6,2.1-1.4c0.1-0.3,0.3-0.8,0.6-0.9
	c0,0,0.1,0,0.2,0c0.2,0.3-1.4,2.4-3.3,2.6c-0.9-0.1-1.7-0.3-2.5-0.8C93.4,199.7,92.8,199.4,92.4,199.2z"/>
<path class="st12" d="M82.2,169.2c-1.3,1.8-3.1,3.2-5.1,4.1c-3.3,1.4-7,1.4-10.2,0c-1.1-0.5-2.2-1.2-3.1-2.1
	c-5.7-5.4-6.4-18.6,0-24.8c1.6-1.7,3.8-2.8,6.1-3.1c4-0.4,7.1,2.2,8.2,3.1C84.4,151.8,86.7,162.9,82.2,169.2z"/>
<ellipse transform="matrix(0.9303 -0.3667 0.3667 0.9303 -58.9523 64.7336)" class="st13" cx="140.9" cy="187.5" rx="11.3" ry="5.1"/>
<ellipse class="st3" cx="65.5" cy="164.8" rx="3.4" ry="3.4"/>
<ellipse class="st3" cx="72.1" cy="156.5" rx="8.4" ry="8.4"/>
<path class="st10" d="M34.5,201c-4,2.2-2.4,21.4,8.7,30.6c5.4,4.5,12,5.7,12.1,5.5c-2-1-3.8-2.2-5.5-3.7c-2.8-2.7-3.9-5.9-4.9-9.3
	c-4.3-14.4-3.9-21.5-8.1-23.1C36.1,200.7,35.3,200.7,34.5,201z"/>
<ellipse transform="matrix(0.407 -0.9134 0.9134 0.407 -134.8712 167.8789)" class="st13" cx="61.9" cy="187.8" rx="5.1" ry="11.3"/>
<ellipse class="st14" cx="99.6" cy="179.6" rx="1" ry="1"/>
<path class="st12" d="M125.9,170.7c1.6,1.5,3.6,2.6,5.8,3.1c3.5,0.7,7.1,0,10-2.1c1-0.7,1.9-1.6,2.6-2.6c4.5-6.4,2.6-19.5-4.8-24.3
	c-1.9-1.3-4.3-2-6.6-1.8c-4,0.4-6.5,3.5-7.4,4.6C120.4,154,120.2,165.3,125.9,170.7z"/>
<ellipse class="st3" cx="141.4" cy="163" rx="3.4" ry="3.4"/>
<ellipse class="st3" cx="133.3" cy="156.1" rx="8.4" ry="8.4"/>
<ellipse class="st15" cx="62.8" cy="175.4" rx="1" ry="1"/>
<ellipse class="st10" cx="24.4" cy="74.8" rx="12.8" ry="12.9"/>
<ellipse class="st10" cx="173.3" cy="70.2" rx="8.2" ry="8.3"/>
<ellipse class="st10" cx="165.1" cy="84.6" rx="4.1" ry="4.1"/>
<ellipse class="st10" cx="39.2" cy="91.8" rx="6.1" ry="6.2"/>
<path class="st10" d="M139.5,244.6"/>
<path class="st10" d="M-9.9,232.2"/>
<path class="st8" d="M180.4,187.8c-0.9,8.2-3.3,18.9-3.5,20.3c-1.1,6-2.7,11.8-4.7,17.5c-3.3,9-5.7,15.7-12,19.9
	c-7,4.6-15,3.9-15.1,3.3s7.5-1,11.4-6.7c2.9-4.3,2.6-9.9,1.5-10.3c-1.3-0.4-2.6,6.5-9.3,11.2c-2.7,1.8-5.5,3.3-8.5,4.5
	c-2,0.8-2,0.5-3.1,1.1c-3.5,1.7-6.5,4.5-8.3,8c-2.3,4.8-1.5,9.3-2,9.6c-0.6,0.3-2-4-1-9.1c0.9-4.3,2.9-6.1,2.5-7.7
	c-0.6-2-4.8-1.7-7.4,1.4c-3,3.6-2.4,9.5-3.3,9.9s-3.4-6.3-1.5-13.6c0.7-2.9,2-5.6,3.7-8c0.3-0.4,0.6-0.7,0.6-0.8
	c0.7-0.8,1.5-1.6,2.3-2.4c2.3-2.1,10.7-5,10.5-5.8c-0.1-0.6-4.7-1.1-8.7,1.3c-3.8,2.3-4.8,6.1-5.1,5.8c-0.3-0.3,3-11.6,9-15.5
	c4.2-2.7,5.2,0.9,13.4-0.7c4.1-0.7,7.9-2.4,11.1-5.1c2.8-2.4,5.3-5.2,7.3-8.3c2.1-3.3,3.8-6.8,5-10.5c0.8-2,1.5-4.1,2-6.2
	c1-3.9,1-5.4,2-9.3c0.7-2.8,1.2-3.8,2-6.2c1.4-4.4,2.4-8.9,3.1-13.4c2.1-13.3-0.6-28.8,0-28.9C175.5,132.9,183.4,161.6,180.4,187.8z
	"/>
<path class="st10" d="M170.1,203.9c3.7,2.2,1.5,20.1-9.4,28.3c-5.3,4-11.6,4.9-11.7,4.7c1.9-0.8,3.7-1.9,5.3-3.2
	c2.8-2.4,3.9-5.4,5-8.6c4.6-13.4,4.4-20,8.5-21.3C168.6,203.6,169.4,203.6,170.1,203.9z"/>
<path class="st10" d="M64.9,232.3c4.7-2.5,18.2,7,21.7,18.8c1.8,6,0.6,11.7,0.4,11.6c-0.2,0-0.3-2.3-1.1-5.7
	c-0.8-3.7-1.7-7.9-3.4-10.5c-4.9-7.9-18.3-5.6-19.4-10.4C62.8,234.6,63.6,233.1,64.9,232.3z"/>
<path class="st0" d="M30,253.1c4.3,1.5,5.6,20.8-3.9,31.6c-4.6,5.3-11,7.6-11.1,7.4c1.8-1.3,3.4-2.8,4.8-4.5c2.3-3.1,2.9-6.4,3.4-10
	c2-15,0.5-21.8,4.4-24.1C28.3,253.1,29.2,252.9,30,253.1z"/>
<path class="st0" d="M156,272.9c-4,2.2-2.6,21.4,8.4,30.7c5.3,4.5,11.9,5.9,12,5.7c-2-1-3.8-2.2-5.4-3.7c-2.8-2.7-3.8-5.9-4.8-9.4
	c-4.2-14.4-3.6-21.5-7.9-23.2C157.6,272.7,156.8,272.6,156,272.9z"/>
<path class="st10" d="M137.3,234c-3.5-1.7-15.7,6.2-20.1,15.6c-2.2,4.7-2,9-1.8,9c0.2,0,0.6-1.8,1.6-4.5c1.1-2.9,2.4-6.2,4.1-8.3
	c5.1-6.3,15.6-5.2,17.1-8.9C138.7,235.9,138.3,234.6,137.3,234z"/>
<path class="st16" d="M76.1,139.3c-3.3-2.1-7.6-1.3-10.2,0c-1.5,0.8-2.9,1.9-4.1,3.1c-1.4,1.4-1.3,1.7-2,2.1c-2.8,1.4-6.6-1.8-7.2-1
	c-0.3,0.4,0.7,1.7,1,2.1c1.1,1.4,2.1,1.7,2,2.1c-0.1,0.3-1.7,0.3-3.1,0c-2-0.5-2.8-1.3-3.1-1c-0.3,0.3,0.5,2.1,2,3.1
	c1.1,0.7,1.6,0.5,2,1c1,1.2-0.7,3.2-1,6.2c-0.4,3.9,1.7,7.3,2,7.2c0.3-0.1-0.3-1.6,0-4.1c0.2-1.4,0.6-2.8,1-4.1c0.3-1,0.6-2.1,1-3.1
	c0.5-1.4,1.2-2.8,2-4.1c1.4-2,3.1-3.7,5.1-5.2c0.9-0.8,2-1.5,3.1-2.1c2.3-0.8,4.8-0.8,7.2,0c3.2,0.9,4.8,2.5,5.1,2.1
	C79.5,143.1,78.2,140.7,76.1,139.3z"/>
<line class="st4" x1="52.5" y1="142.4" x2="52.5" y2="142.4"/>
<path class="st16" d="M131,138.5c3.5-1.7,7.7-0.5,10.2,1c1.4,1,2.7,2.2,3.8,3.5c1.3,1.5,1.1,1.8,1.8,2.3c2.6,1.7,6.8-1.1,7.2-0.3
	c0.2,0.4-0.8,1.6-1.2,1.9c-1.2,1.3-2.3,1.5-2.3,1.8s1.7,0.5,3.1,0.3c2-0.3,2.9-1,3.2-0.7c0.2,0.3-0.7,2.1-2.4,2.9
	c-1.2,0.6-1.6,0.3-2.1,0.8c-1,1.1,0.4,3.2,0.4,6.3c0,3.9-2.5,7.1-2.8,7s0.5-1.5,0.4-4.1c-0.1-1.4-0.3-2.8-0.6-4.2
	c-0.2-1.1-0.4-2.1-0.7-3.2c-0.9-3.9-3.1-7.4-6.1-10c-0.8-0.9-1.8-1.7-2.8-2.4c-2.2-1.1-4.8-1.3-7.2-0.8c-3.3,0.5-5,1.9-5.3,1.5
	C127.2,141.8,128.7,139.7,131,138.5z"/>
<path class="st5" d="M195.8,213.6"/>
<path class="st8" d="M147.7,126.9"/>
</svg>
