<?xml version="1.0" encoding="utf-8"?>
<!-- Generator: Adobe Illustrator 25.1.0, SVG Export Plug-In . SVG Version: 6.00 Build 0)  -->
<svg version="1.1" id="Layer_1" xmlns="http://www.w3.org/2000/svg" xmlns:xlink="http://www.w3.org/1999/xlink" x="0px" y="0px"
	 viewBox="0 0 208.6 462.9" style="enable-background:new 0 0 208.6 462.9;" xml:space="preserve">
<style type="text/css">
	.st0{fill:#FF9D00;}
	.st1{fill:none;stroke:#FFFF00;stroke-width:4;stroke-linejoin:round;}
	.st2{fill:#FFFFFF;}
	.st3{fill:#FFE6C8;}
	.st4{fill:#534741;}
	.st5{stroke:#000000;stroke-width:3.02;stroke-miterlimit:10;}
</style>
<path class="st0" d="M67.3,112.5h81.6c4.4,0,8,3.8,8,8.5v333.3c0,4.7-3.6,8.5-8,8.5H67.3c-4.4,0-8-3.8-8-8.5V121
	C59.3,116.3,62.9,112.5,67.3,112.5z"/>
<polygon class="st1" points="59.3,196.4 107.9,260.9 156.8,196.4 "/>
<rect x="89.3" y="260.9" class="st2" width="37.5" height="25.6"/>
<ellipse class="st3" cx="108.6" cy="105.4" rx="100" ry="104.9"/>
<path class="st4" d="M204.7,78.2C193.5,33.2,154.4,0,108,0S22.5,33.2,11.2,78.2H204.7z"/>
<ellipse class="st2" cx="71.1" cy="116.5" rx="27.5" ry="9.6"/>
<ellipse class="st2" cx="137.1" cy="117.6" rx="27.5" ry="9.6"/>
<path class="st4" d="M61.4,69.5c-80.8,81.2-3-43.3-3-43.3"/>
<path class="st4" d="M53.5,51.1c-131.9,40.5,44.1,9.3,44.1,9.3"/>
<path class="st4" d="M57.1,65.2c25,122.9,13-39.2,13-39.2"/>
<path class="st4" d="M72.1,57.5c25,143.7,13-45.8,13-45.8"/>
<path class="st4" d="M90.1,52.1c25,143.7,13-45.8,13-45.8"/>
<path class="st4" d="M109.1,46.8c25,143.7,13-45.8,13-45.8"/>
<path class="st4" d="M124.1,52.3c25,129.1,13-41.1,13-41.1"/>
<path class="st4" d="M39.9,41.6c-100.5,99.6,43.3-12.9,43.3-12.9"/>
<path class="st4" d="M101.1,76.6c-80.8,81.2-3-43.3-3-43.3"/>
<path class="st4" d="M101.1,76.6c-80.8,81.2-3-43.3-3-43.3"/>
<path class="st4" d="M75.1,76.6c-80.8,81.2-3-43.3-3-43.3"/>
<path class="st4" d="M45.1,70.2c-80.8,81.2-3-43.3-3-43.3"/>
<path class="st4" d="M26.4,65.2c71-91,7.9,42.6,7.9,42.6"/>
<path class="st4" d="M190.4,46.7c46.5,107.5-39.5-10.8-39.5-10.8"/>
<path class="st4" d="M179.8,44.1c50.6,105.3-39.9-9-39.9-9"/>
<path class="st4" d="M155.8,50.8c67.5,94-40.8-1.3-40.8-1.3"/>
<path class="st4" d="M139.1,83c-80.8,81.2-3-43.3-3-43.3"/>
<path class="st4" d="M189.1,85.1c-80.8,81.2-3-43.3-3-43.3"/>
<path class="st4" d="M129.1,83c-80.8,81.2-3-43.3-3-43.3"/>
<path class="st4" d="M155.1,79.8c-80.8,81.2-3-43.3-3-43.3"/>
<path class="st4" d="M74.1,83c-80.8,81.2-3-43.3-3-43.3"/>
<path class="st4" d="M37.1,86.2c-80.8,81.2-3-43.3-3-43.3"/>
<path class="st4" d="M90.1,79.8c-80.8,81.2-3-43.3-3-43.3"/>
<path class="st4" d="M187.1,79.8c-80.8,81.2-3-43.3-3-43.3"/>
<path class="st4" d="M196.1,59.8c-20.2,116.3-26.4-33.1-26.4-33.1"/>
<path class="st4" d="M42.8,83c-102.6,45.5,11.6-41.6,11.6-41.6"/>
<path class="st4" d="M51.1,90.4c-80.8,81.2-3-43.3-3-43.3"/>
<path class="st4" d="M51,86.1C-29,168.3,43.4,37,43.4,37"/>
<path class="st4" d="M160.1,72.4c-80.8,81.2-3-43.3-3-43.3"/>
<path class="st4" d="M175.1,76.6c-80.8,81.2-3-43.3-3-43.3"/>
<path class="st4" d="M169.1,63.8c-80.8,81.2-3-43.3-3-43.3"/>
<path class="st4" d="M119.1,76.6c-80.8,81.2-3-43.3-3-43.3"/>
<path class="st4" d="M137.1,76.6c-80.8,81.2-3-43.3-3-43.3"/>
<path class="st4" d="M137.1,76.6c-80.8,81.2-3-43.3-3-43.3"/>
<g id="装飾">
	<path class="st2" d="M65.1,119.4c-4.7,0-7.1-1.8-7.2-2.4c0.1-0.5,2.6-2.3,7.2-2.3s7.1,1.8,7.2,2.4
		C72.1,117.6,69.7,119.4,65.1,119.4z"/>
	<path d="M65.1,112.3c-5.2,0-9.5,2.1-9.5,4.8s4.2,4.8,9.5,4.8s9.5-2.1,9.5-4.8S70.3,112.3,65.1,112.3z"/>
	<path class="st2" d="M137.1,119.4c-4.7,0-7.1-1.8-7.2-2.4c0.1-0.5,2.6-2.3,7.2-2.3s7.1,1.8,7.2,2.4
		C144.1,117.6,141.7,119.4,137.1,119.4z"/>
	<path d="M137.1,112.3c-5.2,0-9.5,2.1-9.5,4.8s4.2,4.8,9.5,4.8s9.5-2.1,9.5-4.8S142.3,112.3,137.1,112.3z"/>
	<ellipse class="st2" cx="108.1" cy="175" rx="15.1" ry="0.8"/>
	<path d="M108.1,171.9c-13,0-23.5,1.4-23.5,3.2s10.5,3.2,23.5,3.2s23.5-1.4,23.5-3.2S121,171.9,108.1,171.9z"/>
	<path class="st5" d="M109.7,154.1c-20.5,14.5-3.7-45.6-3.7-45.6"/>
	<ellipse class="st5" cx="110.1" cy="150" rx="7" ry="7.4"/>
</g>
</svg>
