<?xml version="1.0" encoding="utf-8"?>
<!-- Generator: Adobe Illustrator 25.1.0, SVG Export Plug-In . SVG Version: 6.00 Build 0)  -->
<svg version="1.1" id="装飾" xmlns="http://www.w3.org/2000/svg" xmlns:xlink="http://www.w3.org/1999/xlink" x="0px" y="0px"
	 viewBox="0 0 229.1 463.9" style="enable-background:new 0 0 229.1 463.9;" xml:space="preserve">
<style type="text/css">
	.st0{fill:#FF9D00;}
	.st1{fill:none;stroke:#FFFF00;stroke-width:4;stroke-linejoin:round;}
	.st2{fill:#FFFFFF;}
	.st3{fill:#FFE6C8;}
	.st4{clip-path:url(#SVGID_2_);}
	.st5{clip-path:url(#SVGID_4_);}
	.st6{fill:#1B0000;}
	.st7{fill:#1A0305;}
</style>
<path class="st0" d="M69,121.4h81.6c4.4,0,8,3.7,8,8.3v325.8c0,4.6-3.6,8.3-8,8.3H69c-4.4,0-8-3.7-8-8.3V129.7
	C61,125.1,64.6,121.4,69,121.4z"/>
<polygon class="st1" points="61,203.4 109.7,266.4 158.6,203.4 "/>
<rect x="91" y="266.4" class="st2" width="37.5" height="25"/>
<ellipse class="st3" cx="109.8" cy="113.9" rx="100" ry="102.5"/>
<g>
	<defs>
		
			<ellipse id="SVGID_1_" transform="matrix(0.9933 -0.1156 0.1156 0.9933 -12.1042 8.4042)" cx="66.4" cy="108.5" rx="21.6" ry="4.9"/>
	</defs>
	<clipPath id="SVGID_2_">
		<use xlink:href="#SVGID_1_"  style="overflow:visible;"/>
	</clipPath>
	<g class="st4">
		<ellipse transform="matrix(0.9933 -0.1156 0.1156 0.9933 -12.107 8.3606)" class="st2" cx="66" cy="108.5" rx="21.6" ry="4.9"/>
		<ellipse cx="65.7" cy="103.6" rx="10.1" ry="8.4"/>
	</g>
</g>
<g>
	<defs>
		
			<ellipse id="SVGID_3_" transform="matrix(0.1777 -0.9841 0.9841 0.1777 25.8236 247.2229)" cx="160.8" cy="108.2" rx="4.6" ry="20.3"/>
	</defs>
	<clipPath id="SVGID_4_">
		<use xlink:href="#SVGID_3_"  style="overflow:visible;"/>
	</clipPath>
	<g class="st5">
		
			<ellipse transform="matrix(0.1777 -0.9841 0.9841 0.1777 26.6757 248.0482)" class="st2" cx="161.8" cy="108.1" rx="4.6" ry="20.3"/>
		<ellipse transform="matrix(0.3314 -0.9435 0.9435 0.3314 11.1003 222.7281)" cx="162.7" cy="103.5" rx="7.9" ry="9.5"/>
	</g>
</g>
<path class="st6" d="M27.8,105.3c3.2-4.2,11.4-9.4,28-19.8c11.4-7.1,18.1-10.3,25.2-12.7c5.1-1.9,10.4-3.2,15.8-3.9
	c18.8-2.1,36.6,5.5,44.3,4.8c2.7-0.2,5.4-0.2,8.1,0c3.7,0.2,4.4,1.2,10.2,2.6c3.4,0.8,6.8,1.4,10.2,1.7c2.1,0.2,2.4,0.2,3.2,0.2
	c7.7,0.9,15.3,11.3,19.2,20.6c1.8,4.2,3.6,5.7,5.1,8.7c5.2,10,6.2,16.3,5.8,18.9c0,0.3-0.3,2-0.7,4.5c-0.4,3-0.6,4.9-1,8.7
	c-1,9.3-0.6,10.1,0,10.4c1.8,0.7,6-3.6,9.2-6.9c2.8-2.8,5.2-6,7.1-9.5c0.9-1.6,1.5-3.4,2-5.1c0.4-1.3,0.8-2.1,1.1-2.7
	c0.9-2.2,1.6-4.5,2.2-6.9c1.5-5.3,4.3-12.5,5-14.6c3.3-9.7-0.4-22.3-3-31.2c-2.8-9.5-7-23.9-19-37.4c-12.9-14.6-27.4-19.9-41-25
	c-14.2-5.3-25.7-6.8-38-8.3c-17.3-2.2-26.2-3.3-38-1c-10.9,2.1-9.6,4.3-36,14.6c-19.1,7.4-22.6,7.4-29,12.5
	c-10.4,8.2-15.4,19.6-18,28.1c0,6.3-0.7,12.6-2,18.7c0,0-4.6,21.3-3.7,27.6c0.2,1.5,0.5,3,0.5,3c0.3,1.7,0.4,1.5,2,7.8
	c0.5,2.4,1.2,4.7,2,6.9c0.2,0.6,0.3,0.7,0.9,1.9c0,0,0.2,0.4,1.2,2.5c0.8,2.3,1.5,4.6,2,6.9c0.4,1.4,0.9,2.8,2.1,5.8
	c2.7,6.9,4.1,10.4,5,10.4C19,147.9,14.8,122.9,27.8,105.3z"/>
<path d="M80.5,189.9c4.2,8.1,13.3,10.9,21.6,11.4c4.6,0.2,9.2-0.1,13.8-0.9c5-0.8,10-2.2,14.7-4.2c5.2-2.2,9.9-5.4,13.9-9.4
	c1.4-1.4-0.7-3.6-2.1-2.2c-6.7,6.8-15.6,10.5-24.7,12.3c-8.1,1.6-17.1,2.3-25-0.6c-4-1.3-7.5-4.2-9.6-8
	C82.2,186.6,79.6,188.2,80.5,189.9L80.5,189.9z"/>
<path class="st7" d="M110.5,154.9c-0.9,3.5-1.6,8,0.4,11.3c1,1.6,2.6,2.7,4.4,3.1c0.8,0.2,1.7,0.4,2.5,0.6c0.6,0.1,1.1,0.5,1.3,1.1
	c0.4,0.7,1.3,1,2,0.6c0.7-0.5,0.9-1.4,0.5-2.1c-0.7-1.8-2.5-2.5-4.2-2.9s-3-0.6-3.9-1.8c-0.7-1.2-1.1-2.6-1-4.1
	c0-1.7,0.3-3.4,0.8-5.1c0.2-0.9-0.4-1.7-1.2-1.8C111.4,153.8,110.7,154.2,110.5,154.9L110.5,154.9z"/>
</svg>
