<?xml version="1.0" encoding="utf-8"?>
<!-- Generator: Adobe Illustrator 25.1.0, SVG Export Plug-In . SVG Version: 6.00 Build 0)  -->
<svg version="1.1" id="Layer_1" xmlns="http://www.w3.org/2000/svg" xmlns:xlink="http://www.w3.org/1999/xlink" x="0px" y="0px"
	 viewBox="0 0 210.3 462.9" style="enable-background:new 0 0 210.3 462.9;" xml:space="preserve">
<style type="text/css">
	.st0{fill:#FF9D00;}
	.st1{fill:none;stroke:#FFFF00;stroke-width:4;stroke-linejoin:round;}
	.st2{fill:#FFFFFF;}
	.st3{fill:#FFE6C8;}
	.st4{fill:none;stroke:#444444;stroke-width:4;stroke-miterlimit:10;}
	.st5{fill:#724620;}
	.st6{fill:#444444;}
	.st7{fill:#42210B;}
</style>
<path class="st0" d="M68.2,122.9h81.6c4.4,0,8,3.7,8,8.3v323.5c0,4.6-3.6,8.3-8,8.3H68.2c-4.4,0-8-3.7-8-8.3V131.1
	C60.2,126.6,63.7,122.9,68.2,122.9z"/>
<polygon class="st1" points="60.2,204.2 108.8,266.8 157.7,204.2 "/>
<rect x="90.2" y="266.8" class="st2" width="37.5" height="24.8"/>
<ellipse class="st3" cx="108.9" cy="115.4" rx="100" ry="101.8"/>
<line class="st4" x1="95.2" y1="103.7" x2="119.2" y2="103.7"/>
<path class="st4" d="M43.8,92.9h42.5c5.1,0,9.3,4.3,9.3,9.6v16c0,5.3-4.1,9.6-9.3,9.6H43.8c-5.1,0-9.3-4.3-9.3-9.6v-16
	C34.5,97.2,38.7,92.9,43.8,92.9z"/>
<path class="st4" d="M129.8,92.9h42.5c5.1,0,9.3,4.3,9.3,9.6v16c0,5.3-4.1,9.6-9.3,9.6h-42.5c-5.1,0-9.3-4.3-9.3-9.6v-16
	C120.5,97.2,124.7,92.9,129.8,92.9z"/>
<path class="st5" d="M77.2,48.4c0.6,12.1,9.4,20.2,17.8,27.3c4.4,3.7,10.6,6.4,15.6,9.1c2.5,1.3,5.2,2,7.7,3.1
	c2.5,1.1,5,2.8,7.8,3.7c12.1,3.9,24.5,6.8,37.1,8.6c5.5,0.8,11,2.2,16.5,2.1c7-0.1,13.9-0.1,20.9-0.1c3.9,0,3.9-6.2,0-6.2
	c-11.2,0-22.3,0.4-33.3-1.3c-5.6-0.8-11.2-1.5-16.8-2.7c-5.8-1.3-11.3-3.4-17-4.7c-10.3-2.4-19.8-8.2-29.2-13.1
	c-4.5-2.3-7.7-5.6-11.7-8.6c-4.8-3.7-9.2-10.8-9.5-17.1C83,44.5,77,44.5,77.2,48.4L77.2,48.4z"/>
<path class="st5" d="M76.2,51.1c-0.5,5.3-3.3,10.9-5.8,15.6c-3.1,5.9-6.9,12-12.5,15.8c-4.8,3.2-10.4,5.4-15.6,7.8
	c-5.8,2.6-12,5.3-18,7.3c-2.2,0.8-4.6,1.4-7,2.1c-2.6,0.8-5.3,2-8.1,2.1c-1.1,0-2.6-0.4-3.7,0c-0.4,0-0.8,0.1-1.2,0.3
	c-1.1,0.3-0.6,0.9,1.4,1.7c-0.4,0.1,1.8-7.1,2.2-7.8c2.7-4.8,6.7-8.6,9.3-13.4c2.9-5.4,5.6-11.1,8.2-16.6c1.7-3.6-3.5-6.7-5.2-3.1
	c-2.9,6.2-5.8,13.5-9.8,19.1c-4,5.5-9.2,10.9-10.3,17.9c-0.8,4.7-0.6,9,5.1,8.5c2.6-0.2,5.8,0.1,8.4-0.7c3-0.9,5.9-2.4,8.9-3.2
	c3-0.9,6-2,8.8-3.4c3.6-1.6,7.3-2.5,10.9-4c6.4-2.7,13.4-5.6,19.2-9.6c5.8-4,10.3-10.4,13.6-16.9c3.1-6,6.3-12.6,6.9-19.4
	C82.4,47.1,76.4,47.2,76.2,51.1L76.2,51.1z"/>
<path class="st5" d="M8.7,85.4c-0.7-0.9-0.1-2.7-0.1-3.8c0.1-2.3-0.1-4.5,0-6.8c0.2-4.8,2.4-8.8,5.3-12.5c2.6-3.3,4.2-7,7.1-10.2
	c2.5-2.7,4.4-6,7-8.7c2.6-2.7,4-6,6.2-9c2.5-3.5,5.6-6.4,9.3-8.5c7.9-4.3,16.6-6.6,25.5-6.7c3.9,0,3.9-6.2,0-6.2
	c-9.7,0.2-19.3,2.6-27.9,7.2C32.2,25,27.6,33.9,21.6,41.5c-1.4,1.7-2.3,3.7-3.7,5.4c-1.7,1.9-3.5,3.5-5,5.6s-2.3,4.2-3.7,6.2
	c-1.5,1.9-2.8,4-3.9,6.1c-2.1,4.4-2.6,8.6-2.6,13.4c0,3.1-1,7.6,0.9,10.3C5.8,91.7,11,88.6,8.7,85.4z"/>
<path class="st5" d="M70,22c3.1,0,5.1-2.1,7.7-3.7c4-2.3,8.3-4.1,12.8-5.4c7.3-2.2,14.7-5,22.2-6c8.7-1.2,17.6-1,26.3-0.8
	c8.3,0.3,15.6,3.4,22.2,8.6c3.6,2.8,7.6,5.6,10.6,9.1c2.4,2.8,4.4,6.5,6.4,9.7c2.6,4,4.5,8.4,7.3,12.4c1.7,2.4,3.3,4.9,4.8,7.5
	c3.2,6.2,5.9,12.8,8.9,19.1c3.9,8.3,5.2,17.9,5.2,27c0,4,6,4,6,0c0-13.3-3-27-9.8-38.5c-2.8-4.7-4.5-10.1-7.4-14.8
	c-3.6-5.9-7.2-12.4-11.2-18c-1.9-2.7-3.3-5.7-5.4-8.2c-2.4-2.7-5-5.1-7.8-7.3c-4.9-4.1-10.1-8-16.1-10.2c-6.6-2.5-13.1-2.6-20-2.6
	c-7-0.1-14.1,0.2-21.1,0.9c-7.1,0.8-14.2,3.6-21.1,5.7c-3.5,1-7,2.3-10.3,3.7c-1.9,0.8-3.7,1.7-5.5,2.7c-1.2,0.7-3.4,2.8-4.7,2.8
	C66.2,15.8,66.2,22,70,22L70,22z"/>
<path class="st5" d="M7.2,70.1c0,4.5-2.1,8.4-3.3,12.7c-1,3.9-1.8,7.8-2.4,11.7l5.5-0.7c-1.4-3.1,1.3-6.3,2.6-8.8
	c0.6-1.2,1-2.4,1.5-3.6c1.1-2.5,2.3-3.6,4.2-5.4c2.8-2.7-1.4-7.1-4.2-4.4c-4.2,4-6,8.5-8.7,13.6C0.6,88.8,0.4,93,1.9,96.8
	c1.1,2.3,5,1.8,5.5-0.7c0.8-4.5,1.4-8.9,2.9-13.2c1.5-4.3,3-8.3,3-12.8C13.3,66.1,7.3,66.1,7.2,70.1L7.2,70.1z"/>
<path class="st5" d="M202.2,101.6c3.9,0,3.9-6.2,0-6.2S198.4,101.6,202.2,101.6z"/>
<path class="st5" d="M207.9,95.3c0.3-1.9-0.2-3.9-1.5-5.3c-0.9-1.7-1.9-3.3-3-4.8c1.7-2.8,1.1-6.4-1.4-8.5
	c-0.2-7.5-2.4-14.8-6.5-21.1c-1.3-1.9-3.3-3-5.5-3c-0.9-3.2-1.6-6.5-2.5-9.7c-1.5-5.1-3.7-10.1-7.5-13.9s-9.3-5.1-12.4-9.4
	C164.3,15,162,10.4,157,7.4s-11-3.9-16.6-3.7c-4.2,0.1-8.4,0.8-12.5,2c-11.7-2.5-25.7-3.8-32.9,4.9c-0.1,0.1-0.2,0.3-0.3,0.4
	c-0.4,0-0.7,0.1-1.1,0.2c-3.1,1-6.1,2.1-9,3.3c-1.2,0-2.4,0.1-3.4,0.1c-3.6,0.1-7.3,0.3-11,0.6c-1-1.6-2.9-2.4-4.7-2.1
	c-8,1-16.3-1.6-24,2c-3.3,1.6-5.9,4.1-8.7,6.5c-1.8,1.2-3.5,2.5-5,4.1c-1.8,1.4-3.4,3-4.9,4.8c-1.6,2-3,4-4.2,6.3
	c-3.2,3-6,6.4-8.1,10.3c-3.4,6.6-5.5,13.8-6.2,21.3c-2.4,7.5-3.7,15.4-3,22.8c0.2,1.9,1.9,3.2,3.7,3l-0.1,0.3
	c-3.2,5.9,4.9,13,9.3,7.4c0.5-0.6,0.9-1.2,1.4-1.7c0.6,0.2,1.3,0.3,1.9,0.2c7.9-1,15.3-4.2,21.6-9.1c1,0.4,2.1,0.4,3.1,0.3
	c4.2-0.7,7.4-3.1,10.7-5.8l2.1-1.7c1.4,0.2,2.9,0.1,4.2-0.4c4.2-1.6,5.9-5.7,7.6-9.7c2-2.2,3.6-4.8,4.7-7.6c0.4-1.1,0.8-2.3,1.1-3.4
	c0.4-0.6,0.8-1.2,1.3-1.8c2.2-2.9,4.7-5.6,7.4-8.1c1.2,0.9,2.5,1.8,3.9,2.5c0.1,0.3,0.2,0.6,0.3,0.9c1.9,4.1,4.2,7.8,7.1,11.2
	c2.3,3.3,5,6.2,8,8.8c3,2.6,6.4,4.6,10.1,6c4.6,1.7,9.5,1.6,14.1,3.1c8.3,2.5,15.9,5.2,24.4,6.3c1,1.8,2.9,2.9,4.9,2.9
	c14.3,0.4,28.5,1.7,42.6,4c0.8,2.4,3,4,5.4,3.9C206.5,102.6,208.4,98.7,207.9,95.3z M174.4,55.9c0.2-0.1,0.3-0.1,0.5-0.2l0.5,1.1
	L174.4,55.9z"/>
<path class="st6" d="M51.7,104.3h27.1c0.8,0,1.5-0.7,1.5-1.5s-0.7-1.5-1.5-1.5H51.7c-0.8,0-1.5,0.7-1.5,1.5S50.9,104.3,51.7,104.3z"
	/>
<path class="st6" d="M137.7,104.7h27.1c0.8,0,1.5-0.7,1.5-1.5s-0.7-1.5-1.5-1.5h-27.1c-0.8,0-1.5,0.7-1.5,1.5
	S136.8,104.7,137.7,104.7z"/>
<path class="st6" d="M70.3,105.3v11.2c0,0.9,0.7,1.5,1.5,1.5s1.5-0.7,1.5-1.5v-11.2c0-0.9-0.7-1.5-1.5-1.5S70.3,104.4,70.3,105.3z"
	/>
<path class="st6" d="M73.7,105.1v11.2c0,0.9,0.7,1.5,1.5,1.5s1.5-0.7,1.5-1.5v-11.2c0-0.9-0.7-1.5-1.5-1.5S73.7,104.3,73.7,105.1z"
	/>
<path class="st6" d="M73.6,117.5c0.8,0,1.5-0.7,1.5-1.5c0-0.9-0.7-1.5-1.5-1.5s-1.5,0.7-1.5,1.5C72.1,116.8,72.7,117.5,73.6,117.5z"
	/>
<path class="st6" d="M73.6,118c0.8,0,1.5-0.7,1.5-1.5s-0.7-1.5-1.5-1.5s-1.5,0.7-1.5,1.5S72.7,118,73.6,118z"/>
<path class="st6" d="M73.6,106.4c0.8,0,1.5-0.7,1.5-1.5c0-0.9-0.7-1.5-1.5-1.5s-1.5,0.7-1.5,1.5C72.1,105.7,72.7,106.4,73.6,106.4z"
	/>
<path class="st6" d="M139,104.8V116c0,0.9,0.7,1.5,1.5,1.5s1.5-0.7,1.5-1.5v-11.2c0-0.9-0.7-1.5-1.5-1.5S139,104,139,104.8z"/>
<path class="st6" d="M142.4,104.7v11.2c0,0.9,0.7,1.5,1.5,1.5s1.5-0.7,1.5-1.5v-11.2c0-0.9-0.7-1.5-1.5-1.5S142.4,103.9,142.4,104.7
	z"/>
<path class="st6" d="M141.6,103.4c-1.4,0.4-2.4,1.8-2.2,3.3c0.1,1.3,0.5,2.6,1.1,3.7c0.3,0.5,0.6,1,1,1.4c0.6,0.6,1.6,0.5,2.1-0.1
	c0.5-0.6,0.5-1.5,0-2.1c-0.1-0.1-0.3-0.5,0,0.1l-0.2-0.3c-0.1-0.2-0.3-0.5-0.4-0.7c-0.1-0.2-0.1-0.3-0.2-0.4l-0.1-0.2
	c-0.1-0.3,0.1,0.3,0,0.1c-0.1-0.3-0.2-0.6-0.3-0.9l-0.1-0.4c0-0.1,0-0.2,0-0.2c0.1,0.6,0,0.3,0,0.1c0-0.1,0-0.3,0-0.4s0-0.1,0-0.2
	c0,0.5,0,0.3,0,0.2v-0.1c0.1-0.3-0.2,0.3-0.1,0.2l0.1-0.2c0.1-0.2-0.3,0.3-0.1,0.1c0,0,0.1-0.1,0.1-0.1c-0.2,0.3-0.3,0.2-0.1,0.1
	c0.2-0.1-0.3,0.1-0.1,0.1l0.2-0.1c0.8-0.3,1.2-1.1,1-1.9C143.1,103.6,142.3,103.2,141.6,103.4L141.6,103.4z"/>
<path class="st6" d="M141.4,115.9c0.8,0,1.5-0.7,1.5-1.5s-0.7-1.5-1.5-1.5l0,0c-0.8,0-1.5,0.7-1.5,1.5S140.6,115.9,141.4,115.9z"/>
<path class="st6" d="M142,117c0.8,0,1.5-0.7,1.5-1.5c0-0.9-0.7-1.5-1.5-1.5s-1.5,0.7-1.5,1.5C140.5,116.3,141.1,117,142,117z"/>
<path class="st6" d="M142,115.4c0.8,0,1.5-0.7,1.5-1.5c0-0.9-0.7-1.5-1.5-1.5s-1.5,0.7-1.5,1.5C140.5,114.7,141.1,115.4,142,115.4z"
	/>
<path class="st6" d="M141.4,117c0.8,0,1.5-0.7,1.5-1.5c0-0.9-0.7-1.5-1.5-1.5l0,0c-0.8,0-1.5,0.7-1.5,1.5
	C139.9,116.3,140.6,117,141.4,117z"/>
<path class="st6" d="M142,117.5c0.8,0,1.5-0.7,1.5-1.5c0-0.9-0.7-1.5-1.5-1.5s-1.5,0.7-1.5,1.5C140.5,116.8,141.1,117.5,142,117.5z"
	/>
<path class="st6" d="M102.6,142.3c-0.5,0.5-0.9,1.1-0.9,1.9c0,0.3,0,0.7,0,1c0,0.1,0,0.1,0,0.2c0-0.2,0-0.2,0-0.1s-0.2,0.4-0.1,0.2
	c0.1-0.2,0,0.1-0.1,0.1c-0.1,0.2-0.2,0.4-0.2,0.6c-0.2,0.4-0.3,0.9-0.3,1.4c-0.1,0.7-0.1,1.5,0,2.2c0,1,0.4,1.9,1.1,2.6
	c0.6,0.6,1.5,0.6,2.1,0c0.6-0.6,0.6-1.6,0-2.2c0,0-0.1-0.1-0.1-0.1s0.2,0.3,0.1,0.1l-0.1-0.2c0,0,0.1,0.4,0.1,0.1
	c0-0.2-0.1-0.3-0.1-0.5c0-0.1,0-0.2,0-0.2c0.1,0.1,0,0.4,0,0.1c0-0.6,0-1.3,0-2c0,0.1-0.1,0.4,0,0.1v-0.2l0.1-0.2c0-0.2,0-0.2,0,0
	c0.1-0.3,0.2-0.5,0.3-0.8c0.1-0.2,0.1-0.4,0.2-0.6c0.1-0.4,0.1-0.9,0-1.4v-0.2c0-0.3-0.1,0.3,0,0.1c0.1-0.2-0.2,0.3,0,0.1
	c-0.1,0.2-0.1,0.1,0.1,0c0.6-0.6,0.6-1.6,0-2.2C104.1,141.7,103.2,141.7,102.6,142.3L102.6,142.3z"/>
<path class="st6" d="M89.4,172.9c1.5-0.2,2.7,1,4,1.7c1.5,0.8,3.1,1.5,4.6,2.4c2.4,1.5,4.4,4.3,7.4,4.5c1.5,0,3-0.5,4.4-1.3
	c1.6-0.8,3.2-1.5,4.8-2.4c3-1.5,5.7-3.5,8.1-5.9c0.6-0.6,0.5-1.6-0.1-2.2c-0.6-0.6-1.5-0.6-2,0c-2.2,2.2-4.7,4-7.5,5.4
	c-1.5,0.8-3.1,1.5-4.6,2.3c-1.4,0.6-2.6,1.3-4.1,0.5c-1.2-0.7-2.2-1.6-3.3-2.5c-1.2-0.9-2.4-1.7-3.7-2.3c-1.3-0.7-2.6-1.3-3.9-2.1
	c-1.2-0.8-2.6-1.3-4-1.2C87.5,170,87.4,173.1,89.4,172.9L89.4,172.9z"/>
<g id="装飾">
	<path class="st7" d="M34.4,76.1"/>
</g>
</svg>
