<?xml version="1.0" encoding="utf-8"?>
<!-- Generator: Adobe Illustrator 25.1.0, SVG Export Plug-In . SVG Version: 6.00 Build 0)  -->
<svg version="1.1" id="Layer_1" xmlns="http://www.w3.org/2000/svg" xmlns:xlink="http://www.w3.org/1999/xlink" x="0px" y="0px"
	 viewBox="0 0 247.2 462.9" style="enable-background:new 0 0 247.2 462.9;" xml:space="preserve">
<style type="text/css">
	.st0{fill:#FF9D00;}
	.st1{fill:none;stroke:#FFFF00;stroke-width:4;stroke-linejoin:round;}
	.st2{fill:#FFFFFF;}
	.st3{fill:#FFE6C8;}
	.st4{fill:#331B13;}
	.st5{fill:none;stroke:#534741;stroke-miterlimit:10;}
	.st6{fill:#9B081A;}
	.st7{fill:#42210B;}
	.st8{fill:none;stroke:#534741;stroke-width:0.5;stroke-miterlimit:10;}
	.st9{fill:#FCE3C7;}
</style>
<path class="st0" d="M60.9,112.5h81.6c4.4,0,8,3.7,8,8.3v333.7c0,4.6-3.6,8.3-8,8.3H60.9c-4.4,0-8-3.7-8-8.3V120.9
	C52.9,116.3,56.5,112.5,60.9,112.5z"/>
<polygon class="st1" points="52.9,196.4 101.6,260.9 150.4,196.4 "/>
<rect x="82.9" y="260.9" class="st2" width="37.5" height="25.6"/>
<ellipse class="st3" cx="101.7" cy="104.9" rx="100" ry="104.9"/>
<path class="st4" d="M198.3,78.5H4.8c11.2-45,50.3-78.2,96.7-78.2S187.1,33.5,198.3,78.5z"/>
<ellipse class="st4" cx="62.2" cy="107.7" rx="5" ry="5.2"/>
<path class="st5" d="M48.2,104.5c0-2.9,12.5-8.8,24.5-2.6"/>
<path class="st5" d="M118.8,103.2c0.3-2.9,13.2-7.6,24.6-0.2"/>
<path class="st6" d="M96.3,181c-8.8,0.1-16.6-5.9-19.2-14.6h38.4C112.9,175.1,105.1,181.1,96.3,181z"/>
<path class="st7" d="M114.8,167c-3.7,10.6-15,16.1-25.2,12.3c-5.5-2.1-9.8-6.6-11.8-12.3H114.8 M116.2,165.9H76.4
	c3.1,11.4,14.6,18,25.5,14.8C108.8,178.7,114.2,173.1,116.2,165.9z"/>
<path d="M97.3,123.9l-3.4,9.7v0.1v12.2l-10.3-2L97.3,123.9 M98.2,122.2l-15,21.8l11,2.1v-12.5L98.2,122.2z"/>
<ellipse class="st4" cx="129.2" cy="107.7" rx="5" ry="5.2"/>
<path class="st4" d="M12.2,144.1c0-26,6-46.4,9-56.2c1.5-4.7,1.5-9.8,0-14.6c-1-3.5-8.3-5.2-9.5-5.2c-4.7,0-17.6,29.7-8.5,63.5
	c9.8,36.6,7,54.8,12,53.1c0.3-0.1-0.3,0.3,0,0C13,171.2,12,157.7,12.2,144.1z"/>
<path class="st8" d="M40.4,84.7c1.1-6.2,16.1-8.5,33.5-5.1"/>
<path class="st8" d="M148.1,84.9c-1.1-6.2-16.1-8.5-33.5-5.1"/>
<path class="st4" d="M190.4,141.2c0-26-6-46.4-9-56.2c-1.5-4.7-1.5-9.8,0-14.6c1-3.5,8.3-5.2,9.5-5.2c4.7,0,17.6,29.7,8.5,63.5
	c-9.8,36.6-7,54.8-12,53.1c-0.3-0.1,0.3,0.3,0,0C189.5,168.4,190.5,154.8,190.4,141.2z"/>
<path class="st4" d="M202.2,55.7C173,6.1,93,65.7,97,65.5c62.2-2.6,45.3-68.4,94.7-55.8c65.5,16.8,55.3,195.7,54.5,194.7
	C226.6,177.5,232.2,106.6,202.2,55.7z"/>
<path class="st9" d="M155.4,57.1c1.2,4.4,2.3,8.9,3.3,13.4c1,4.4,2.2,9,1.4,13.5c-0.3,2,2.6,2.8,2.9,0.8c0.8-4.8-0.2-9.5-1.2-14.2
	s-2.2-9.6-3.5-14.4c-0.2-0.8-1.1-1.3-1.9-1C155.7,55.5,155.2,56.3,155.4,57.1L155.4,57.1z"/>
<path class="st9" d="M152.6,45.9c7.3,12.1,8.7,26.7,10,40.6c0.2,2,3.2,2,3,0c-1.3-14.5-2.8-29.6-10.4-42.2
	C154.2,42.6,151.6,44.1,152.6,45.9L152.6,45.9z"/>
<path class="st9" d="M152.1,46.3c4.2,12.6,6.3,25.8,6.1,39.1c0,2,3,2,3,0c0.2-13.6-1.9-27.1-6.2-39.9
	C154.4,43.6,151.5,44.4,152.1,46.3L152.1,46.3z"/>
</svg>
