<svg xmlns="http://www.w3.org/2000/svg" viewBox="0 0 226 458.56"><defs><style>.cls-1{fill:#05b1ff;}.cls-2,.cls-9{fill:none;}.cls-2{stroke:#ff0;stroke-linejoin:round;stroke-width:4px;}.cls-3{fill:#fff;}.cls-4{fill:#ffe6c8;}.cls-5,.cls-6{fill:#282b30;}.cls-6{stroke:#fff;stroke-width:0.02px;}.cls-6,.cls-9{stroke-miterlimit:10;}.cls-7{fill:#ccc;}.cls-8{fill:#32353a;}.cls-9{stroke:#dc96aa;stroke-linecap:round;stroke-width:3px;}.cls-10{fill:#351c00;}</style></defs><rect class="cls-1" x="66.72" y="129.31" width="97.56" height="329.25" rx="8"/><polygon class="cls-2" points="66.72 208.11 115.41 268.74 164.28 208.11 66.72 208.11"/><rect class="cls-3" x="96.74" y="268.7" width="37.52" height="24.03"/><ellipse class="cls-4" cx="115.5" cy="122.1" rx="100" ry="98.54"/><path class="cls-5" d="M144.55,130.27c-5.77,10.57-4.82,25.09,0,30.49-4.14-2.42-7.21-6.52-8.68-13.12l-8.69,33.77c-8.68-14.47-24.46-4.6-26.39,9.87-9.45-10.41-14.55-23.19-16.07-37.85l-7.72,1c6.22-4.63,10.1-13.93,9.65-31.84C85.38,99.89,97,81.7,114.64,65.61L189,57.89l59.83,12.54,33.78,29c18.33,17.37,21.28,35.91,20.26,50.18-2.13-4.28-4.72-7.14-7.72-8.69a61.27,61.27,0,0,1-1,30.88,27,27,0,0,0,4.82,9.65,17.87,17.87,0,0,1-7.72-3.86c-.7,5-6.77,12.55-6.77,12.55-2.88-12.55-16.39-23.16-27-7.72l-9.65-36.67c-1.91-1.75-3-4.62-3.86-7.72l-1-20.27-70.45-9.65-1,11.58c-9,7.26-17.18,19.35-25.1,32.81C144.65,147.17,144.27,139.32,144.55,130.27Z" transform="translate(-77 -28.94)"/><path class="cls-5" d="M104,47.27c1.44,6.38,5.26,12.46,10.62,18.34l-3.86,12.54,171.78,22.2c4.54-1.43,7.91-4.94,10.61-9.65-6.18,2.21-8.59,4.24-14,1.45C273.87,75.26,260.33,52,218.86,49.2c4.44-3.83,10.55-6.07,19.3-5.79-6.64-6.77-14.9-8-26,1-4.1-8.77-13.66-13.23-26.06-15.44,7.7,5.15,13.42,10.53,14.48,16.4q-20.7-13.76-47.29,0C133.3,54.6,117.21,54.46,104,47.27Z" transform="translate(-77 -28.94)"/><path class="cls-5" d="M165,125.92a223.26,223.26,0,0,1-15.6,24.51c7.59-3.44,15.24-9.5,24.51-16.71-3,5.5-7.8,11.09-13.37,16.71,17.45-.6,28.6-10.87,39-22.28-1.36,5.92-5.54,13.73-10.86,22.28,13.43-4.15,23.66-11.32,28.69-23.4,3.14,7.08,3,14.92,0,23.4,8.8-4.61,14.94-11.84,16.71-23.4,1,6.14,1,15.87-1.11,21.57,5.21-2.89,10.56-6.71,12.09-11.7L257.46,107l-6.68-21.17-78-6.69s-29,15.6-17.83,32.31S165,125.92,165,125.92Z" transform="translate(-77 -28.94)"/><circle class="cls-5" cx="188.51" cy="183.6" r="1.46"/><polygon class="cls-6" points="189.08 182.62 187.94 182.62 187.38 183.6 187.94 184.59 189.08 184.59 189.65 183.6 189.08 182.62"/><polygon class="cls-7" points="188.28 182.58 187.73 182.9 187.58 182.4 187.91 182.21 188.28 182.58"/><polygon class="cls-7" points="189.28 182.9 188.73 182.58 189.1 182.2 189.43 182.39 189.28 182.9"/><polygon class="cls-7" points="187.51 183.28 187.51 183.92 187 183.79 187 183.41 187.51 183.28"/><polygon class="cls-7" points="187.72 184.32 188.27 184.63 187.9 185.01 187.57 184.82 187.72 184.32"/><polygon class="cls-7" points="188.73 184.63 189.28 184.31 189.43 184.81 189.1 185 188.73 184.63"/><polygon class="cls-7" points="189.49 183.93 189.49 183.29 190 183.42 190 183.8 189.49 183.93"/><path class="cls-5" d="M209.63,165.24c-.44,0-2.63-2.1-2.63-3.15a.85.85,0,0,1,.63-.79c11.69-4.91,24.17-4.09,37.37.79-12.14-.26-27.3-1.93-32.76,3.15A8.36,8.36,0,0,1,209.63,165.24Z" transform="translate(-77 -28.94)"/><path class="cls-8" d="M215.63,173a12,12,0,0,0-3.62,8.59V188a12,12,0,0,0,24,0v-6.45a11.9,11.9,0,0,0-1-4.79C231.33,172.35,223,170.8,215.63,173Z" transform="translate(-77 -28.94)"/><path class="cls-5" d="M175.37,165.24c.44,0,2.63-2.1,2.63-3.15a.85.85,0,0,0-.63-.79c-11.69-4.91-24.17-4.09-37.37.79,12.14-.26,27.3-1.93,32.76,3.15A8.36,8.36,0,0,0,175.37,165.24Z" transform="translate(-77 -28.94)"/><path class="cls-8" d="M169.37,173a12,12,0,0,1,3.62,8.59V188a12,12,0,0,1-24,0v-6.45a11.9,11.9,0,0,1,1-4.79C153.67,172.35,162,170.8,169.37,173Z" transform="translate(-77 -28.94)"/><polyline class="cls-9" points="129.97 197.56 128.05 198.06 115.51 197.06 102.51 198.06 101.03 197.56"/><path class="cls-10" d="M199,209.12h-3.45a.9.9,0,0,1-1-.77h0a.9.9,0,0,1,1-.77,13.28,13.28,0,0,1,3.45,0,.9.9,0,0,1,1,.77h0A.9.9,0,0,1,199,209.12Z" transform="translate(-77 -28.94)"/><path class="cls-10" d="M190.37,209.83a11,11,0,0,0-4.78,0,1.62,1.62,0,0,1-1.37-1.78h0a1.61,1.61,0,0,1,1.37-1.78,10.71,10.71,0,0,1,4.78,0,1.61,1.61,0,0,1,1.37,1.78h0A1.62,1.62,0,0,1,190.37,209.83Z" transform="translate(-77 -28.94)"/><circle class="cls-10" cx="99" cy="206.06" r="2"/><circle class="cls-10" cx="97.5" cy="212.56" r="1.5"/></svg>