<?xml version="1.0" encoding="utf-8"?>
<!-- Generator: Adobe Illustrator 25.1.0, SVG Export Plug-In . SVG Version: 6.00 Build 0)  -->
<svg version="1.1" id="レイヤー_1" xmlns="http://www.w3.org/2000/svg" xmlns:xlink="http://www.w3.org/1999/xlink" x="0px"
	 y="0px" viewBox="0 0 200 461.9" style="enable-background:new 0 0 200 461.9;" xml:space="preserve">
<style type="text/css">
	.st0{fill:#FF9D00;}
	.st1{fill:none;stroke:#FFFF00;stroke-width:4;stroke-linejoin:round;}
	.st2{fill:#FFFFFF;}
	.st3{fill:#FFE6C8;}
	.st4{fill:#3D322E;}
	.st5{font-family:'ArialMT';}
	.st6{font-size:45.3395px;}
</style>
<path class="st0" d="M59.2,112.3h81.6c4.4,0,8,3.8,8,8.5v332.6c0,4.7-3.6,8.5-8,8.5H59.2c-4.4,0-8-3.8-8-8.5V120.8
	C51.2,116.1,54.8,112.3,59.2,112.3z"/>
<polygon class="st1" points="51.2,196 99.9,260.3 148.8,196 "/>
<rect x="81.2" y="260.3" class="st2" width="37.5" height="25.5"/>
<ellipse class="st3" cx="100" cy="104.6" rx="100" ry="104.6"/>
<path class="st4" d="M196.6,78.1C185.4,33.1,146.3,0,99.9,0S14.4,33.1,3.2,78.1H196.6z"/>
<ellipse cx="60.5" cy="104.6" rx="11" ry="11.7"/>
<ellipse cx="140.5" cy="104.6" rx="11" ry="11.7"/>
<text transform="matrix(0.9418 0 0 1 80.8301 157.171)" class="st5 st6">ω</text>
<ellipse cx="60.5" cy="186.3" rx="4" ry="4.2"/>
</svg>
