<svg xmlns="http://www.w3.org/2000/svg" viewBox="0 0 219.99 474.5"><defs><style>.cls-1{fill:#05b1ff;}.cls-2{fill:none;stroke:#ff0;stroke-linejoin:round;stroke-width:4px;}.cls-3{fill:#fff;}.cls-4{fill:#ffe6c8;}.cls-5{fill:#333;}</style></defs><rect class="cls-1" x="61.03" y="145.25" width="97.56" height="329.25" rx="8"/><polygon class="cls-2" points="61.03 224.05 109.72 284.67 158.59 224.05 61.03 224.05"/><rect class="cls-3" x="91.05" y="284.64" width="37.52" height="24.03"/><ellipse class="cls-4" cx="110.44" cy="138.04" rx="100" ry="98.54"/><path class="cls-5" d="M95,171l3-20.58A23.36,23.36,0,0,1,103.13,139l2.45-3a24,24,0,0,0,5.17-11.45L113.44,108,141,106s-9.44-5.26-9.44-8.89S153.75,107,161,107c0,0-7.69-9.89-4.07-9.89S182.72,112,182.72,112s10.46-11.26,10.46-14.89,18.16,6.64,14.54,13.89c0,0,10.83-6.64,14.45-17.51S245,104.38,245,108s28.72-2.51,29.72-6c.21-.76,3.52,11.6,5.13,17.7a21.32,21.32,0,0,0,2.74,6.19l6.49,10a16.81,16.81,0,0,1,2.68,8.94L292,168s19.31-44.4,6-81c-3-8.25-3-17-21-34-6.25-5.91-18-16-31-22-26.83-12.38-43.75-9.38-51-13s-17-5-17-5l.68,4.37s-10.88,0-14.5-3.62c0,0,3.62,10.87,7.25,10.87s-25.37,7.25-32.62,3.63c0,0,3.62,7.25,7.25,7.25S127,38,111,56c-3.32,3.74-20.28,17-25.83,41.54-3.81,16.85-3.36,34.5,2.3,50.81C89.77,155,90.59,160.82,95,171Z" transform="translate(-82.69 -13)"/><path class="cls-5" d="M212.05,147.87a47.76,47.76,0,0,1,12.2-5.72,31.6,31.6,0,0,1,13.67-1.22,12.93,12.93,0,0,1,1.73.35c.57.15,1.16.25,1.72.44l1.67.63a15.17,15.17,0,0,1,1.62.67,49.69,49.69,0,0,1,5.93,3.29,44.46,44.46,0,0,1,5.42,4.18,17.68,17.68,0,0,1,4.23,5.42l-.23.18a34,34,0,0,0-5.28-3.92c-1.86-1.15-3.76-2.24-5.69-3.29s-3.84-2.12-5.75-3.22a13.89,13.89,0,0,0-1.41-.75l-1.41-.69c-.47-.2-1-.33-1.48-.5a11.48,11.48,0,0,0-1.52-.44,29.81,29.81,0,0,0-12.84.32,50.07,50.07,0,0,0-12.42,4.53Z" transform="translate(-82.69 -13)"/><ellipse class="cls-5" cx="149.01" cy="137.5" rx="6.57" ry="8.5"/><path class="cls-5" d="M238.31,150.5a10.71,10.71,0,0,1-1.61,5.68,6.29,6.29,0,0,1-5,3.07,6.4,6.4,0,0,1-5.19-2.95,10.86,10.86,0,0,1-.14-11.7,7.65,7.65,0,0,1,2.24-2.22,6,6,0,0,1,3.09-.88,5.84,5.84,0,0,1,3,1,7.36,7.36,0,0,1,2.12,2.26A10.94,10.94,0,0,1,238.31,150.5Zm-.1,0A9.36,9.36,0,0,0,236.4,145a6,6,0,0,0-4.7-2.53,5.79,5.79,0,0,0-4.52,2.66,10,10,0,0,0-.14,10.77,5.82,5.82,0,0,0,4.66,2.82,5.91,5.91,0,0,0,4.83-2.69A9.54,9.54,0,0,0,238.21,150.5Z" transform="translate(-82.69 -13)"/><path class="cls-5" d="M174.05,148.13a50,50,0,0,0-12.43-4.53,29.81,29.81,0,0,0-12.84-.32,11.34,11.34,0,0,0-1.51.44c-.5.17-1,.3-1.49.5l-1.4.69a12.9,12.9,0,0,0-1.41.75c-1.92,1.1-3.83,2.18-5.76,3.22s-3.82,2.14-5.68,3.29a33.66,33.66,0,0,0-5.29,3.92l-.23-.18a17.83,17.83,0,0,1,4.23-5.42,45.24,45.24,0,0,1,5.42-4.18,51.3,51.3,0,0,1,5.93-3.29,16.08,16.08,0,0,1,1.62-.67l1.67-.63c.56-.19,1.15-.29,1.73-.44a12.62,12.62,0,0,1,1.73-.35A31.56,31.56,0,0,1,162,142.15a48,48,0,0,1,12.21,5.72Z" transform="translate(-82.69 -13)"/><ellipse class="cls-5" cx="71.87" cy="137.5" rx="6.57" ry="8.5"/><path class="cls-5" d="M148,150.5a9.61,9.61,0,0,0,1.68,5.56,5.94,5.94,0,0,0,4.84,2.69,5.8,5.8,0,0,0,4.65-2.82,9.91,9.91,0,0,0-.14-10.77,5.76,5.76,0,0,0-4.51-2.66,5.92,5.92,0,0,0-4.7,2.53A9.37,9.37,0,0,0,148,150.5Zm-.1,0a11,11,0,0,1,1.48-5.77,7.32,7.32,0,0,1,2.11-2.26,5.85,5.85,0,0,1,3-1,5.93,5.93,0,0,1,3.08.88,7.56,7.56,0,0,1,2.25,2.22,10.68,10.68,0,0,1,1.64,5.9,10.49,10.49,0,0,1-1.78,5.8,6.41,6.41,0,0,1-5.19,2.95,6.31,6.31,0,0,1-5-3.07A10.8,10.8,0,0,1,147.94,150.5Z" transform="translate(-82.69 -13)"/><path class="cls-5" d="M165.44,204.56A32.29,32.29,0,0,0,173.2,210a42.11,42.11,0,0,0,21.09,4.72A50,50,0,0,0,210.9,211c1.77-.72,1-3.62-.8-2.9-8.24,3.32-17.24,4.7-26,2.73a38.53,38.53,0,0,1-14.43-6.56c-.47-.35-.88-.67-1.52-1.23-.2-.18-.41-.36-.6-.55a1.5,1.5,0,0,0-2.12,2.12Z" transform="translate(-82.69 -13)"/></svg>