<svg xmlns="http://www.w3.org/2000/svg" viewBox="0 0 200 462.89"><defs><style>.cls-1{fill:#ff9d00;}.cls-2,.cls-7,.cls-8{fill:none;}.cls-2{stroke:#ff0;stroke-linejoin:round;stroke-width:4px;}.cls-3,.cls-5{fill:#fff;}.cls-4{fill:#ffe6c8;}.cls-5,.cls-7{stroke:#323333;}.cls-5,.cls-6,.cls-7,.cls-8{stroke-miterlimit:10;}.cls-5{stroke-width:2px;}.cls-6,.cls-8{stroke:#000;}</style></defs><g id="Layer_2" data-name="Layer 2"><g id="Layer_1-2" data-name="Layer 1"><path class="cls-1" d="M58.72,114.53h81.56a8.24,8.24,0,0,1,8,8.47V454.43a8.24,8.24,0,0,1-8,8.46H58.72a8.24,8.24,0,0,1-8-8.46V123A8.24,8.24,0,0,1,58.72,114.53Z"/><polygon class="cls-2" points="50.72 197.91 99.41 262.05 148.28 197.91 50.72 197.91"/><rect class="cls-3" x="80.74" y="262.01" width="37.52" height="25.42"/><ellipse class="cls-4" cx="100" cy="107.46" rx="100" ry="104.26"/><path d="M105,38.65c.3,25.79.6,37.55-3,38.59a2.11,2.11,0,0,1-1,0c-3.74-1.06-3.7-12.81-4-38.59S96.4,1.09,100,.06a2.11,2.11,0,0,1,1,0C104.74,1.06,104.7,12.88,105,38.65Z"/><path d="M88,38.65c0,21.09,3.14,35.81-1,37.45a2.26,2.26,0,0,1-1.54,0c-1.25-.39-5.23-2.57-5.23-36.88s4-36.5,5.23-36.88a2.26,2.26,0,0,1,1.54,0C91.05,4,88,18.2,88,38.65Z"/><path d="M112.28,38.53c.32,21.08-2.65,35.86,1.51,37.43a2.26,2.26,0,0,0,1.54,0c1.25-.4,5.19-2.65,4.73-37s-4.47-36.42-5.73-36.78a2.26,2.26,0,0,0-1.54,0C108.77,3.88,112,18.08,112.28,38.53Z"/><path d="M73.47,39.72c0,19,2.82,32.26-.91,33.73a1.93,1.93,0,0,1-1.38,0c-1.13-.34-4.71-2.31-4.71-33.22S70.05,7.34,71.18,7a1.93,1.93,0,0,1,1.38,0C76.21,8.47,73.49,21.29,73.47,39.72Z"/><path d="M127.21,39.57c.28,19.19-2.42,32.66,1.37,34.09a2.1,2.1,0,0,0,1.4,0c1.14-.36,4.73-2.41,4.31-33.66s-4.07-33.18-5.22-33.51a2.1,2.1,0,0,0-1.4,0C124,8,126.93,21,127.21,39.57Z"/><path d="M60,42.85C60,59,62.4,70.2,59.23,71.42a1.68,1.68,0,0,1-1.17,0c-1-.29-4-2-4-28.17s3-27.88,4-28.17a1.68,1.68,0,0,1,1.17,0C62.29,16.35,60,27.24,60,42.85Z"/><path d="M139.56,42.74c.24,16.23-2.05,27.6,1.16,28.81a1.83,1.83,0,0,0,1.18,0c1-.31,4-2,3.64-28.47s-3.44-28-4.41-28.31a1.69,1.69,0,0,0-1.13,0C136.85,16.06,139.32,27,139.56,42.74Z"/><path d="M47.13,45.38c0,13.75,2,23.28-.65,24.34a1.43,1.43,0,0,1-1,0c-.82-.25-3.4-1.67-3.4-24s2.58-23.74,3.4-24a1.43,1.43,0,0,1,1,0C49.11,22.81,47.15,32.08,47.13,45.38Z"/><path d="M150.88,44.2c.21,13.75-1.73,23.43,1,24.46a1.56,1.56,0,0,0,1,0c.82-.27,3.4-1.74,3.09-24.16s-3-23.81-3.75-24.06a1.56,1.56,0,0,0-1,0C148.58,21.56,150.68,30.84,150.88,44.2Z"/><g id="装飾"><path class="cls-5" d="M84.5,110.57c-.57,1.18-5.57,11.07-15.5,12.69s-20.65-5.66-24.5-18C57.16,96,74.39,98.27,84.5,110.57Z"/><path class="cls-6" d="M54,87.73s-7.4,1-7,2.24c0,0,24.35.73,35.25,4.15C82.22,94.17,72.2,89,54,87.73Z"/><path class="cls-5" d="M129.67,165.35c.88,3.52-13.73,13.88-29.65,13.45-14.78-.4-28.09-10.05-27.22-13.45.44-1.73,4.45-1.32,27.22-1.28C125.3,164.12,129.25,163.64,129.67,165.35Z"/><path class="cls-7" d="M103.93,131.73s.88,11.07-3.5,11.88-2.55,2.71,1.79,3.34"/><path class="cls-8" d="M44.5,99.59s27-9.66,40.24,6.21"/><path d="M63.67,99.75s-8.93,13-4.8,22.22A16.48,16.48,0,0,0,67,123.79c1.56-.06,6.36-.24,9-3.35,3.23-3.77,2.86-11.26-1.55-17.84C74.48,102.63,68.33,100.05,63.67,99.75Z"/><ellipse class="cls-3" cx="68" cy="112.15" rx="4" ry="4.23"/><path class="cls-5" d="M118.33,112.09c.58,1.18,5.57,11.08,15.5,12.7s20.65-5.66,24.5-18C145.67,97.51,128.44,99.79,118.33,112.09Z"/><path class="cls-8" d="M158.33,101.12s-27-9.66-40.24,6.21"/><path d="M140.16,101.28s8.93,13,4.8,22.22a16.71,16.71,0,0,1-8.13,1.83c-1.55-.06-6.36-.25-9-3.36-3.23-3.77-2.86-11.25,1.56-17.84C129.36,104.12,135.5,101.57,140.16,101.28Z"/><ellipse class="cls-3" cx="136" cy="112.15" rx="4" ry="4.23"/><path class="cls-6" d="M146.42,89.61s7.4,1,7.05,2.22c0,0-24.35.73-35.26,4.16C118.21,96,128.23,90.83,146.42,89.61Z"/></g></g></g></svg>