<svg xmlns="http://www.w3.org/2000/svg" viewBox="0 0 229.01 483.04"><defs><style>.cls-1{fill:#ff9d00;}.cls-2{fill:none;stroke:#ff0;stroke-linejoin:round;stroke-width:4px;}.cls-3,.cls-5{fill:#fff;}.cls-4{fill:#ffe6c8;}.cls-5,.cls-6{stroke:#000;stroke-miterlimit:10;}.cls-6{fill:#c69c6d;}</style></defs><g id="Layer_2" data-name="Layer 2"><g id="Layer_1-2" data-name="Layer 1"><path class="cls-1" d="M81.71,146.21h81.58a8,8,0,0,1,8,8l-1,320.83a8,8,0,0,1-8,8H80.71a8,8,0,0,1-8-8l1-320.83A8,8,0,0,1,81.71,146.21Z"/><polygon class="cls-2" points="73.72 226.82 122.42 288.84 171.28 226.82 73.72 226.82"/><polygon class="cls-3" points="140.26 313.39 102.75 313.39 103.75 288.8 141.26 288.8 140.26 313.39"/><ellipse class="cls-4" cx="118.5" cy="144.57" rx="100" ry="98.54"/><circle cx="70" cy="149.53" r="12"/><circle cx="167" cy="151.53" r="12"/><path d="M48.31,129.53c26.69-4,51.43,7,51.43,7"/><polyline points="145.41 136.53 175.15 129.53 193 129.59"/><polyline class="cls-5" points="88.5 200.03 114 218.53 155 205.07 88.69 199.59"/><polygon class="cls-6" points="121.75 165.99 126.67 176.53 118.42 185.5 121.75 165.99"/><circle class="cls-5" cx="70" cy="151.53" r="2.5"/><path class="cls-5" d="M168.26,149.36a2.5,2.5,0,0,1,0,5"/><path d="M156.45,118.53c2.9,4.36-2.91,9.19,0,11.14s7.27.49,10.18,2,7.27,5.81,8.72,7.27,4.58,1.45,9.56,0,7.27-7.64,14.85-9.64,15.75-.54,18.94-10.72,3.18-14.54,3.18-18.9,1.46-11.64,4.37-13.09,4.36-5.39,0-10-5.82-9-10.18-10.4-10.18-2.91-11.64-4.36-4.36-4.37-2.9-7.27a9.25,9.25,0,0,0,0-8.73c-1.46-2.91-5.82-1.45-5.82-5.82s1.45-10.17,4.36-13.08A9,9,0,0,0,203,21.11s-23.27,0-26.18,2.91-4.36-5.82-4.36-8.73-5.83-5.76-8.74-8.76S153.54.71,152.08.71s2.91,11.67,0,13.83-10.18-2.19-11.63-3.65-5.82-7.27-10.18-8.72S122.51-.74,115.48.71s-8.78.25-13-.6-2.76,3.51-1.3,5-2.91,0-11.64,1.46-7.26,3-14.54,4.36-5.81,2.91-13.08,1.46-7.28,2.9-13.09,2.9-17.45,0-16,2.91,8.73,0,8.73,4.36,0,0-10.18,10.18S21.21,53.1,18.3,56,3.76,72,2.3,76.37s-4.36,8,0,6.16,11.64-6.16,11.64-1.8S9.57,85.09,9.57,88s4.37,1.46,2.91,5.82-4.36,11.63-1.45,16,1.45,2.9,2.91,7.27-1.8,2.9.55,8.72,4.4,13.82,4.83,14.18,1.89-8.36,7.71-6.91,3.34,2.21,6,6.92,5.6,6.17,5.6,6.17,11.63-17.45,16-17.45,5.82,2.91,10.18,1.45,7.27-10.18,11.64-8.72,2.91-2.91,5.81-5.82,8.73-8.72,13.09-5.81,0,11.63,0,11.63,1.46,1.45,8.73-4.36,6.26-7,10.4-8.57,4.14-4.52,8.5-6,11.63-2.9,13.09,1.46,1.45,5.82,4.36,10.18,2.91,4.36,5.82,5.81,4.36,2.91,5.81,1.46A21,21,0,0,1,156.45,118.53Z"/></g></g></svg>