<?xml version="1.0" encoding="utf-8"?>
<!-- Generator: Adobe Illustrator 25.1.0, SVG Export Plug-In . SVG Version: 6.00 Build 0)  -->
<svg version="1.1" id="Layer_1" xmlns="http://www.w3.org/2000/svg" xmlns:xlink="http://www.w3.org/1999/xlink" x="0px" y="0px"
	 viewBox="0 0 200.1 463.9" style="enable-background:new 0 0 200.1 463.9;" xml:space="preserve">
<style type="text/css">
	.st0{fill:#FF9D00;}
	.st1{fill:none;stroke:#FFFF00;stroke-width:4;stroke-linejoin:round;}
	.st2{fill:#FFFFFF;}
	.st3{fill:#534741;}
	.st4{fill:#FFE6C8;}
	.st5{fill:none;stroke:#444444;stroke-width:2;stroke-miterlimit:10;}
</style>
<path class="st0" d="M59.3,124h81.6c4.4,0,8,3.6,8,8.1v323.7c0,4.5-3.6,8.1-8,8.1H59.3c-4.4,0-8-3.6-8-8.1V132.1
	C51.3,127.7,54.9,124,59.3,124z"/>
<polygon class="st1" points="51.3,205.4 100,268 148.8,205.4 "/>
<rect x="81.3" y="267.9" class="st2" width="37.5" height="24.8"/>
<path class="st3" d="M15.6,244.4c-1.9-1.3-13.8-10.2-15-25.2c-0.7-9.1,2.9-15.7,7-23.2c1.5-2.7,9.3-16.7,27-27.2
	c7-4.2,23.4-12.4,27-8.1c2.4,2.9-2.9,8.8-11,27.2c-8.6,19.5-9.7,29.1-10,34.3c-0.4,6.1-0.9,17.8,6,23.2c3.1,2.4,6.1,2.3,6,3
	C52.4,250.3,31.6,255.9,15.6,244.4z"/>
<path class="st4" d="M200.1,116.6c0,56.2-44.8,101.7-100,101.7c-34.3,0-66.6-19.2-84.4-47.1c-3.8-5.9-16.6-26.7-15.6-54.6
	c1.6-44.9,39-101.7,100-101.7C155.3,14.9,200.1,60.4,200.1,116.6z"/>
<path class="st3" d="M1.6,100c1-7,2.3-14,4.1-20.8c1.4-5.4,2.9-10.3,4.5-14.9c3.2-11.6,8.8-22.4,16.5-31.7c4.5-5.3,9.5-10,15-14.1
	c5.2-4,10.7-7.4,16.5-10.3c5-2.6,10.2-4.6,15.6-6c5.1-1.2,9.7-1.4,18.9-1.9c5-0.4,10-0.4,15,0c4.2,0.4,8.3,1,12.4,1.9
	c14.8,3.4,28.4,13.4,31.2,15.5C161,25,195,48.5,199.3,88c0.5,4.4,0.6,8.7,0.3,13.1l-124.7,1L64.4,48.7l-4.2,56l-59.7,3.6"/>
<g id="レイヤー_4">
	<g id="レイヤー_5">
		<path class="st3" d="M33.1,128.5c3.7,0.5,6.2-1.6,8.2-4.4c1.1-1.7,2.6-3.1,4.4-4c2.1-0.9,4.3-1.3,6.5-1.3c2.2-0.2,4.4-0.1,6.6,0.3
			c2,0.5,3.8,1.5,5.3,2.8c1.2,1.1,2.1,2.8,3.5,3.8c1.4,0.9,3.6,1,5.2,1c0.2,0,0.3-0.2,0.3-0.4c0-0.2-0.2-0.3-0.3-0.3
			c-1.2,0-2.4-0.1-3.5-0.4c-1-0.3-1.9-0.9-2.5-1.8c-1.1-1.4-2.3-2.6-3.8-3.6c-3.3-2.2-7-2.2-10.8-2.1c-3.6,0.1-7.3,0.8-9.9,3.5
			c-1.2,1.3-2.1,2.9-3.3,4.2c-1.6,1.6-3.8,2.4-6,2.1C32.6,127.6,32.6,128.4,33.1,128.5L33.1,128.5z"/>
		<path class="st3" d="M50.1,132c2.3,2.4,5.9,2.9,8.7,1.2c3-1.9,4.6-5.4,4.1-8.9c-0.3-2-1.1-3.9-2.3-5.4c-0.3-0.4-0.8,0.2-0.5,0.5
			c2,2.5,2.7,5.9,1.8,8.9c-0.9,3-3.7,5-6.8,5c-1.7,0-3.3-0.8-4.4-2C50.3,131,49.7,131.5,50.1,132L50.1,132z"/>
		<path class="st3" d="M48.7,122.6c-0.9,2.1-1,4.5-0.3,6.6c0.2,0.5,0.9,0.3,0.7-0.2c-0.7-2-0.6-4.1,0.2-6.1
			C49.5,122.5,48.9,122.1,48.7,122.6L48.7,122.6z"/>
		<path class="st3" d="M51.8,118.5c-1.9,1-3.1,3-3.3,5.2c0,0.1,0,0.3,0,0.4l0.1-0.4c-0.1,0.3-0.1,0.3,0.1-0.1
			c-0.1,0.3-0.2,0.5-0.3,0.7c-0.1,0.2-0.2,0.5-0.3,0.7c-0.3,1.1-0.3,2.3-0.1,3.5c0.4,1.9,1.6,3.6,3.2,4.7c1.6,0.9,3.4,1.2,5.2,0.9
			c1.1-0.1,2.2-0.4,3.1-0.9c0.9-0.5,1.7-1.3,2.2-2.1c1-1.6,1.5-3.5,1.4-5.3c0-0.9,0-1.8-0.2-2.8c-0.5-1.3-1.4-2.4-2.6-3
			c-1.5-1-3.3-1.5-5.1-1.5c-2.3,0.2-4.3,1.5-5.4,3.4c-0.3,0.5-0.6,1.1-0.9,1.7c-0.1,0.3-0.3,0.5-0.5,0.8c0.4-0.7,0.3-0.4,0.1-0.2
			l-0.2,0.2c0.6-0.5,1.4-0.7,2.1-0.5l1.3,0.8c0.5,1.1,0.7,1.3,0.5,0.8c0-0.1-0.1-0.3-0.1-0.4c0,0.5,0.1,0.5,0,0.2c0-0.1,0-0.3,0-0.4
			c0-0.2,0-0.4,0-0.6c-0.1,0.5-0.1,0.5,0,0.2c0-0.1,0.1-0.3,0.1-0.4c-0.2,0.5-0.2,0.6-0.1,0.3c0.1-0.3,0.1-0.2-0.2,0.2l0.1-0.1
			c0.2-0.2,0.1-0.2-0.2,0.1c0.1-0.1,0.2-0.1,0.3-0.2c-0.5,0.2-0.6,0.2-0.3,0.1c-0.9,0.2-0.3,0,0,0.1l-2.1-5.2
			c-0.1,0.1-0.2,0.2-0.2,0.3c-0.3,0.3,0.1-0.1,0.2-0.2c-0.2,0.1-0.4,0.2-0.6,0.4c-0.7,0.5-1.4,1.1-1.9,1.9c-0.7,1.3-1,2.7-1.1,4.2
			c-0.3,2.8,0.7,5.9,3.1,7.4c1.3,0.7,2.7,1,4.1,0.8c1.6,0,3.1-0.6,4.2-1.8c0.9-1.1,1.6-2.3,2-3.7c0.4-1.4,0.6-3.3-0.2-4.6
			c-1.4-2.4-4.5-1.9-6.1-0.1c-1.1,1.5-1.7,3.3-1.6,5.1c0,1.4,0.9,2.6,2.2,2.9c1.5,0.4,3.1,0,4.4-1c1.1-0.9,1.9-2.1,2.3-3.4
			c0.1-0.2,0.2-0.4,0.2-0.6s0.1-0.2,0.1-0.3c0,0.1-0.3,0.7-0.1,0.2s0.6-1.2,0.8-1.8c0.5-1.4,0.5-2.9-0.1-4.3c-0.5-1.1-1.5-1.9-2.7-2
			c-0.6-0.1-1.2-0.1-1.7,0c-1.2,0.1-2.3,0.3-3.5,0.7c-2,0.6-3.9,1.6-5.7,2.8c-1.5,0.9-2.5,2.5-2.6,4.3c0,1.5,1,3,1.6,4.3
			c0.8,1.4,2.7,1.9,4.1,1.1c1.4-0.9,1.9-2.7,1.1-4.1l-0.8-1.7l-0.2-0.4c-0.1-0.2-0.1-0.1,0,0.1c0.1,0.1,0.1,0.3,0.1,0.4
			c0,0.3,0,0.6-0.1,0.9c-0.3,0.6,0.2-0.2-0.1,0.2c-0.4,0.5,0,0.1,0,0c0.3-0.3,0.1,0-0.1,0.1c0.2-0.1,0.4-0.2,0.6-0.4
			c0.5-0.3,1-0.6,1.5-0.9l0.7-0.4l0.4-0.2l0.1-0.1c-0.4,0.2,0,0,0.1,0l0.4-0.2l0.9-0.3c0.5-0.2,1-0.3,1.6-0.4c0.6-0.1-0.5,0-0.1,0
			h0.4H58c0.7,0,0.2,0.2-0.9-0.3l-1-1.1c-0.1-0.5-0.2-0.6-0.1-0.3c0,0.1,0,0.1,0,0.2c0.1,0.3,0-0.6,0-0.1c0.1-0.8,0-0.3,0-0.1
			c-0.1,0.1-0.1,0.2-0.1,0.4l0.1-0.3l-0.1,0.3c0,0.1-0.1,0.2-0.2,0.4c-0.2,0.5-0.4,1-0.6,1.5c-0.1,0.2-0.1,0.3-0.2,0.5
			c0.1-0.3,0.2-0.5,0-0.1l-0.2,0.4c-0.2,0.5,0.3-0.3,0.1-0.1c-0.1,0.1-0.2,0.2-0.3,0.3c0.1-0.2,0.5-0.4,0.1-0.1
			c-0.3,0.2,0.7-0.2,0.2-0.1l0.5-0.1c-0.3,0-0.2,0,0.3,0.1l2.2,2.9c0-0.3,0-0.6,0-1c0-0.3-0.2,0.6,0,0.1c0-0.1,0.3-0.7,0-0.2
			c-0.3,0.5,0,0.1,0,0c0.2-0.4,0,0-0.1,0.2c0.3-0.3-0.2,0.1-0.2,0.2c0.2-0.1,0.2-0.1-0.1,0c-0.2,0.1-0.5,0.2-0.7,0.2l-1.5-0.4
			c-1.7-1-1.2-3-1.2-1.7c0,0.2,0,0.4,0,0.6c0.1-0.5,0.1-0.6,0-0.3v0.2c0,0.2-0.1,0.4-0.1,0.5l-0.1,0.3l0.1-0.4
			c-0.1,0-0.2,0.4-0.2,0.5c-0.1,0.1-0.3,0.4-0.3,0.5c0.3-0.4,0.3-0.4,0.1-0.2l-0.1,0.1l-0.2,0.2l0.4-0.3c-0.5,0.3,0.7-0.1,0.1,0
			c0.8-0.1,0.2,0,0,0h-0.6h-0.6c-0.6,0,0.6,0.2,0.1,0c-0.1,0-0.2-0.1-0.4-0.1l0.4,0.2c-0.5-0.2,0.5,0.5,0,0
			c-0.5-0.5,0.2,0.3,0.1,0.1c-0.1-0.2-0.2-0.3-0.3-0.4c-0.1-0.2-0.1-0.1,0.1,0.3c0-0.1-0.1-0.2-0.1-0.3s-0.1-0.4-0.2-0.6
			c-0.1-0.2,0-0.1,0,0.3c0-0.1,0-0.2,0-0.3c0-0.1,0-0.4,0-0.6c0-0.4,0.1-0.8,0.1-1.2c0.1-0.4-0.1,0.8,0,0.1c0-0.2,0.1-0.4,0.1-0.5
			l0.1-0.3c-0.2,0.4-0.2,0.5-0.1,0.3c0.1-0.2-0.5,0.5,0,0s-0.3,0.2-0.1,0l0.4-0.3c0.5-0.3,0.9-0.7,1.3-1.1c0.9-0.9,1.1-2.2,0.6-3.3
			c-0.2-0.5-0.5-0.9-0.9-1.2c-0.5-0.4-1.2-0.6-1.8-0.7c-2.1-0.1-4.1,1.1-5.1,3c-0.5,1-0.7,2.2-0.7,3.3c0,1.2,0.2,2.4,0.7,3.5
			c1,1.6,3.1,2.2,4.7,1.2c0,0,0,0,0,0c0.9-0.6,1.6-1.3,2.1-2.2c0.3-0.5,0.6-1,0.8-1.5c0.1-0.3,0.3-0.6,0.5-0.8s0.4-0.4-0.1,0.1
			c0.1-0.1,0.2-0.2,0.3-0.3c0.4-0.4-0.6,0.3-0.1,0l0.2-0.1c0.3-0.2,0.2-0.1-0.2,0.1c0,0,0.4-0.1,0.4-0.1c0.6-0.1,0,0.1-0.2,0
			c0.2,0,0.4,0,0.6,0c0.6,0-0.7-0.2-0.1,0l0.5,0.1c0.7,0.2-0.4-0.3,0.1,0c0.4,0.2,0.7,0.4,1,0.6c0.6,0.3-0.4-0.4-0.1-0.1
			c0.5,0.4,0.1,0.2-0.2-0.7c0.2,0.6,0-0.7,0-0.1c0,0.2,0,0.4,0,0.7c0,0.4,0,0.9,0,1.3v0.2c0,0.3,0,0.3,0-0.2c0,0.2,0,0.4-0.1,0.6
			c0,0.1-0.1,0.2-0.1,0.3c-0.1,0.6,0.4-0.6,0-0.1l-0.3,0.5c-0.3,0.5,0.5-0.5,0.1-0.1c-0.1,0.1-0.2,0.2-0.2,0.2
			c0.4-0.3,0.4-0.3,0.2-0.2c-0.1,0.1-0.2,0.1-0.3,0.2l0.4-0.2l-0.4,0.1c-0.2,0.1-0.8,0.1,0,0l-1,0.1h-0.6c-0.2,0-0.4,0-0.6,0
			c0.2-0.2,0.6,0.2,0.2,0l-0.4-0.1c0.4,0.2,0.5,0.2,0.2,0.1c-0.5-0.3,0.5,0.5,0,0.1c-0.1-0.1-0.6-0.7-0.2-0.2c0.3,0.4,0-0.1-0.1-0.1
			l-0.2-0.3c-0.1-0.3-0.1-0.2,0.1,0.2c0-0.2-0.1-0.4-0.2-0.5c0-0.3,0-0.3,0,0c0,0.3,0,0.3,0,0c0-0.2,0-0.4,0-0.6
			c-0.1,0.5-0.1,0.6,0,0.3c0-0.1,0.1-0.2,0.1-0.4l-0.1,0.4l0.2-0.4c0.2-0.4,0.3-0.7,0.4-1.1c0.1-0.4,0.1-0.8,0.2-1.2
			c0-0.1,0-0.3,0-0.4c-0.1,0.5-0.1,0.6,0,0.3c0.1-0.5-0.1,0.2-0.1,0.3c0,0,0.1-0.2,0.2-0.3c0.2-0.3,0.1-0.2-0.2,0.2
			c0.1-0.1,0.2-0.2,0.4-0.4c-0.4,0.3-0.5,0.3-0.2,0.2c0.1-0.1,0.2-0.1,0.3-0.2c1.4-0.8,1.9-2.7,1.1-4.1c0,0,0,0,0,0
			c-0.9-1.4-2.7-1.9-4.1-1.1L51.8,118.5z"/>
		<path class="st3" d="M158.9,127.7c-2.2,0.3-4.4-0.5-6-2.1c-1.2-1.3-2.1-2.9-3.3-4.2c-2.6-2.7-6.3-3.4-9.9-3.5
			c-3.8-0.1-7.5-0.1-10.8,2.1c-1.4,1-2.7,2.2-3.8,3.6c-0.6,0.8-1.4,1.5-2.4,1.8c-1.2,0.3-2.5,0.5-3.7,0.5c-0.2,0-0.3,0.2-0.3,0.4
			c0,0.2,0.2,0.3,0.3,0.3c1.7,0,3.8-0.1,5.2-1c1.4-0.9,2.3-2.6,3.5-3.8c1.5-1.4,3.4-2.4,5.3-2.8c2.2-0.4,4.4-0.5,6.6-0.3
			c2.2,0,4.5,0.4,6.5,1.3c1.8,0.9,3.3,2.3,4.4,4c2.1,2.8,4.6,4.9,8.2,4.4C159.4,128.4,159.4,127.7,158.9,127.7L158.9,127.7z"/>
		<path class="st3" d="M141.4,131.4c-2.1,2.1-5.3,2.5-7.9,1c-2.7-1.7-4.2-4.9-3.6-8.2c0.2-1.8,1-3.5,2.1-5c0.3-0.4-0.2-0.9-0.5-0.5
			c-2.3,2.8-3,6.5-1.9,9.9c1.1,3.2,4.1,5.4,7.5,5.4c1.8,0,3.6-0.8,4.9-2.2C142.2,131.6,141.7,131,141.4,131.4L141.4,131.4z"/>
		<path class="st3" d="M142.6,123c0.8,1.9,0.9,4.1,0.2,6.1c-0.1,0.5,0.6,0.7,0.7,0.2c0.7-2.2,0.6-4.5-0.3-6.6
			C143.1,122.1,142.4,122.5,142.6,123L142.6,123z"/>
		<path class="st3" d="M137.1,123.8c0.1,0.1,0.3,0.2,0.4,0.3l-0.3-0.3c0.1,0.1,0.2,0.1,0.2,0.2c0.4,0.4-0.3-0.6-0.1-0.1
			c0,0.1,0.1,0.2,0.2,0.3l-0.2-0.4c0,0.1,0.1,0.2,0.1,0.3l-0.1-0.4c0,0.1,0,0.3,0,0.4c0.1,0.8,0.3,1.6,0.6,2.3l0.1,0.2
			c0.1,0.3,0.1,0.3-0.1-0.2c0,0,0.1,0.5,0.1,0.5v-0.4c0,0.1,0,0.3,0,0.4c0,0.1,0,0.2,0,0.4l0.1-0.4c0,0.1-0.1,0.3-0.1,0.4l-0.1,0.2
			c-0.1,0.3-0.1,0.2,0.1-0.2c-0.1,0.2-0.2,0.3-0.3,0.5c-0.1,0.1-0.1,0.2-0.1,0.2c-0.1,0.1-0.1,0.1,0.2-0.3c-0.1,0-0.3,0.3-0.4,0.4
			c-0.4,0.5,0.6-0.4,0-0.1c-0.6,0.3,0.7-0.1,0,0c-0.1,0-0.2,0-0.4,0.1l0.4-0.1h-0.4h-1.2c-0.2,0-0.4-0.1-0.6-0.1l0.4,0.1l-0.4-0.1
			h-0.2c-0.3-0.1-0.2-0.1,0.2,0.1c0,0-0.5-0.3-0.5-0.3s0.5,0.5,0.2,0.2l-0.1-0.1c-0.2-0.2-0.2-0.2,0.1,0.2c-0.1-0.2-0.2-0.3-0.3-0.4
			l-0.1-0.2c-0.1-0.3-0.1-0.2,0.1,0.2c0-0.2-0.1-0.3-0.2-0.5c0-0.1-0.2-0.5-0.1-0.6l0.1,0.4c0-0.2,0-0.3,0-0.4c0-0.4,0-0.7,0-1.1
			s0-0.4,0-0.7s0.1-0.8,0,0c0.2-0.7-0.8,0.9-0.4,0.6c0.6-0.4-0.4,0.3,0.1-0.1c0.3-0.2,0.7-0.4,1-0.6c0.6-0.3-0.5,0.2-0.1,0l0.5-0.1
			h0.2c0.3-0.1,0.2-0.1-0.2,0c0.2,0,0.4,0,0.6,0c0.6-0.1-0.5-0.1-0.1,0c0.2,0.1,0.4,0.1,0.6,0.2l-0.4-0.2c0.1,0.1,0.2,0.1,0.3,0.2
			c0.6,0.3-0.4-0.5-0.1,0l0.2,0.2c0.4,0.4-0.4-0.6-0.1-0.1s0.6,1.1,0.9,1.7c0.9,1.7,2.4,3.6,4.5,3.6c1.2,0,2.3-0.7,2.9-1.7
			c0.3-0.5,0.5-1.1,0.5-1.8c0.3-1.3,0.2-2.6-0.1-3.9c-0.7-2.3-3-4.4-5.5-4.1c-1.2,0-2.3,0.8-2.8,1.9c-0.5,1.1-0.2,2.4,0.6,3.3
			c0.4,0.4,0.8,0.7,1.3,1l0.4,0.3c0.5,0.3-0.4-0.5,0,0c0.1,0.1,0.2,0.2,0.2,0.3l-0.2-0.3c0.3,0.5-0.1-0.6,0-0.1
			c0.1,0.2,0.1,0.4,0.1,0.5c0,0.2,0.1,0.2,0.1,0.4l-0.1-0.4c0,0.4,0.1,0.8,0.1,1.2c0,0.2,0,0.4,0,0.6s0,0.3,0,0.4v-0.4
			c-0.1,0.2-0.1,0.4-0.1,0.6c0,0.1-0.1,0.2-0.1,0.4l0.2-0.4c-0.1,0.1-0.2,0.3-0.2,0.4c-0.2,0.5,0.5-0.5,0,0
			c-0.5,0.5,0.3-0.2,0.1-0.1c-0.2,0.1-0.1,0.1,0.3-0.1c-0.1,0-0.2,0.1-0.3,0.1c-0.1,0-0.2,0-0.3,0.1h0.3h-0.6h-0.6h-0.3
			c-0.3,0-0.3,0,0,0s0.2,0,0,0c0.4,0.2,0.5,0.2,0.3,0.1s0.6,0.5,0.1,0c-0.1-0.1-0.5-0.6-0.2-0.2c0.3,0.4-0.1-0.1-0.1-0.2
			c-0.1-0.1-0.2-0.3-0.3-0.5c-0.1-0.2-0.1-0.1,0.1,0.3c0-0.1-0.1-0.2-0.1-0.3l-0.1-0.5c0-0.1-0.2-0.8-0.1-0.2s0-0.1,0-0.2
			c0-1.4,0.5,0.7-1.2,1.6l-1.5,0.4l-0.5-0.1c-0.4-0.2-0.6-0.2-0.4-0.1c0.3,0.2-0.5-0.4-0.2-0.2s-0.3-0.6-0.1-0.2
			c0.1,0.1,0.3,0.6,0.1,0.1c-0.2-0.5,0,0,0,0.1c0.1,0.5-0.1,0.1,0-0.1c0,0.1,0,0.3,0,0.4c0,0.2,0,0.4,0,0.6l2.2-2.9
			c0.5,0,0.6-0.1,0.4-0.1s-0.1,0,0.1,0s0.3,0.1,0.1,0l0.4,0.2l-0.2-0.1c-0.2-0.1-0.1,0,0.3,0.2c-0.1-0.1-0.2-0.2-0.2-0.2
			c-0.1-0.2-0.1-0.2,0,0s0.2,0.2,0,0c-0.2-0.2-0.1-0.2-0.2-0.3c0-0.1-0.1-0.2-0.1-0.3l0.1,0.3l-0.2-0.5c-0.2-0.5-0.4-1-0.6-1.4
			c-0.1-0.2-0.1-0.3-0.2-0.4c-0.1-0.2-0.3-0.6-0.1-0.2c0.2,0.5,0-0.1,0-0.2v-0.2c0-0.3-0.1-0.3,0,0c0.1,0.3,0,0.3,0,0l-0.1,0.4
			l0.1-0.2c0.1-0.4,0.1-0.3-0.1,0.2l-1.1,1.1l-1.2,0.3h0.6h0.4c0.7,0-0.5-0.1-0.1,0c0.5,0.1,1.1,0.2,1.6,0.3
			c0.5,0.2,1.1,0.4,1.6,0.6c-0.2,0-0.5-0.2-0.1-0.1l0.4,0.2l0.8,0.4c0.5,0.3,1,0.5,1.4,0.8c0.2,0.1,0.4,0.3,0.6,0.4
			s-0.5-0.5-0.1-0.1c0.1,0.1,0.1,0.2,0.2,0.3c-0.1-0.1-0.4-0.6-0.2-0.2c-0.2-0.3-0.2-0.6-0.3-0.9c0-0.3,0.1-0.6,0.2-0.8
			c-0.1,0.1-0.1,0.3-0.2,0.4l-0.9,1.8c-0.8,1.4-0.3,3.3,1.1,4.1c1.4,0.8,3.3,0.4,4.1-1.1c0.6-1.1,1.1-2.2,1.5-3.3
			c0.4-1.6-0.2-3.3-1.4-4.5c-1.8-1.5-3.8-2.6-5.9-3.3c-0.9-0.4-1.9-0.6-2.8-0.8c-1.4-0.2-3.1-0.5-4.4,0.2c-1.8,1-2,3.4-1.7,5.2
			c0.2,0.6,0.4,1.2,0.7,1.8l0.2,0.5c0,0.1,0.1,0.2,0.2,0.4c-0.1,0-0.2-0.6-0.1-0.2c0.4,1.4,1.1,2.7,2.1,3.7c1.3,1.3,3.1,1.8,4.9,1.4
			c1.3-0.4,2.2-1.6,2.2-2.9c0.1-1.5-0.3-3-1-4.3c-1.1-1.8-3.4-3.1-5.4-2c-1.9,1-1.9,3.2-1.6,5c0.2,1.2,0.6,2.4,1.3,3.4
			c0.8,1.4,2.1,2.4,3.7,2.8c1.4,0.3,2.8,0.2,4.2-0.1c2.9-1.1,4.7-4,4.5-7.1c0-1.6-0.3-3.1-0.9-4.6c-0.4-0.8-1-1.4-1.7-1.9
			c-0.3-0.2-0.6-0.4-0.9-0.6c-0.3-0.2,0-0.1,0.2,0.2c-0.1-0.1-0.3-0.3-0.4-0.4l-2.1,5.2c0.3,0,0.9,0.1,0-0.1
			c0.3,0.1,0.2,0.1-0.3-0.1c0.1,0.1,0.2,0.1,0.3,0.2c-0.4-0.3-0.4-0.4-0.3-0.2c0.1,0.1,0.1,0.1,0.2,0.2c-0.3-0.4-0.3-0.5-0.2-0.2
			s0.1,0.2-0.1-0.3c0.1,0.1,0.1,0.3,0.1,0.4c0.1,0.3,0.1,0.3,0-0.2c0,0.2,0,0.4,0,0.6c0,0.1,0,0.3,0,0.4c0,0.3,0,0.3,0-0.2
			c0,0.1-0.1,0.3-0.1,0.4c-0.1,0.6,0,0.3,0.5-0.8l1.3-0.8l1.8,0.2c0.4,0.3,0.5,0.4,0.2,0.2c-0.1-0.1-0.2-0.2-0.3-0.3
			c0.4,0.3,0.4,0.5,0.2,0.2l-0.2-0.4c-0.3-0.5-0.6-1.1-0.9-1.7c-0.9-1.6-2.3-2.9-4.1-3.5c-1.9-0.5-4-0.3-5.8,0.7
			c-0.8,0.4-1.6,0.9-2.2,1.6c-0.9,0.9-1.4,2.2-1.4,3.5c-0.2,1.9,0.1,3.9,0.9,5.7c0.8,1.8,2.3,3.2,4.2,3.7c1.8,0.5,3.7,0.5,5.5,0
			c2-0.7,3.6-2.3,4.3-4.4c0.4-0.9,0.5-1.9,0.5-2.8c0-0.6-0.1-1.2-0.3-1.8c-0.1-0.3-0.3-0.7-0.4-1c-0.1-0.3-0.1-0.3,0.1,0.2
			c-0.1-0.3-0.1-0.3,0,0.2c0-0.1,0-0.3,0-0.4c0-0.5-0.1-0.9-0.2-1.3c-0.5-1.6-1.6-3-3.1-3.8c-1.5-0.8-3.3-0.2-4,1.3
			c-0.7,1.4-0.3,3.1,1,4L137.1,123.8z"/>
	</g>
</g>
<g id="装飾">
	
		<ellipse transform="matrix(2.535141e-02 -0.9997 0.9997 2.535141e-02 -72.6762 182.3981)" class="st5" cx="57.2" cy="128.5" rx="23.3" ry="28.5"/>
	
		<ellipse transform="matrix(2.535141e-02 -0.9997 0.9997 2.535141e-02 3.907 264.8857)" class="st5" cx="137.8" cy="130.4" rx="23.3" ry="28.5"/>
	<line class="st5" x1="85.7" y1="129.2" x2="109.3" y2="129.7"/>
	<path class="st5" d="M75.6,181.9c14.7,4,30.3,4,45,0"/>
</g>
</svg>
