<svg xmlns="http://www.w3.org/2000/svg" viewBox="0 0 225.93 463.25"><defs><style>.cls-1,.cls-6{fill:#14110c;}.cls-1,.cls-13{stroke:#14110c;}.cls-1,.cls-10,.cls-12,.cls-13,.cls-14,.cls-7,.cls-9{stroke-miterlimit:10;}.cls-2{fill:#ff9d00;}.cls-13,.cls-14,.cls-3{fill:none;}.cls-3{stroke:#ff0;stroke-linejoin:round;stroke-width:4px;}.cls-4{fill:#fff;}.cls-5{fill:#ffe6c8;}.cls-7{fill:#020210;stroke-width:0.75px;}.cls-12,.cls-14,.cls-7{stroke:#020210;}.cls-10,.cls-8,.cls-9{fill:#2a2117;}.cls-10,.cls-9{stroke:#2a2117;}.cls-10,.cls-12{stroke-width:2px;}.cls-11{opacity:0.1;}.cls-12{fill:#8feeff;}.cls-14{stroke-width:2.5px;}.cls-15{fill:#fdffbe;}.cls-16{fill:#a5ca9e;}</style></defs><g id="Layer_2" data-name="Layer 2"><g id="Layer_1-2" data-name="Layer 1"><path class="cls-1" d="M216.52,118.36a203.12,203.12,0,0,1,0,53.06,199.22,199.22,0,0,1-7,32.26,16.74,16.74,0,0,1,6,5.2c1.19,1.67,2.28,3.21,2,5.2a6.25,6.25,0,0,1-3,4.16c3.07.45,5.54,2.08,6,4.16.72,3.22-3.44,6.68-7,7.29-4.08.69-8.6-2.2-11-7.29a7.2,7.2,0,0,1-3,4.16c-3.27,2.09-6.83.1-7,0-4.14,8.6-11.49,11.45-15,9.37-2.54-1.53-3.48-5.93-3-10.41-.54,1-4.69,8.33-11,8.33a10.75,10.75,0,0,1-7-3.12c-12.52-11.58-3.08-48.08-3-48.9h0Z"/><path class="cls-1" d="M23.22,118.36a203.12,203.12,0,0,0,0,53.06,199.22,199.22,0,0,0,7,32.26,16.66,16.66,0,0,0-6,5.2c-1.19,1.67-2.28,3.21-2,5.2a6.25,6.25,0,0,0,3,4.16c-3.07.45-5.54,2.08-6,4.16-.72,3.22,3.44,6.68,7,7.29,4.08.69,8.6-2.2,11-7.29a7.2,7.2,0,0,0,3,4.16c3.27,2.09,6.83.1,7,0,4.14,8.6,11.49,11.45,15,9.37,2.54-1.53,3.48-5.93,3-10.41.54,1,4.69,8.33,11,8.33a10.75,10.75,0,0,0,7-3.12c12.52-11.58,3.08-48.08,3-48.9h0Z"/><path class="cls-2" d="M79.09,112.83h81.56a8.17,8.17,0,0,1,8,8.32V454.93a8.16,8.16,0,0,1-8,8.32H79.09a8.16,8.16,0,0,1-8-8.32V121.15A8.17,8.17,0,0,1,79.09,112.83Z"/><polygon class="cls-3" points="71.09 196.69 119.78 261.22 168.65 196.69 71.09 196.69"/><rect class="cls-4" x="101.11" y="261.18" width="37.52" height="25.58"/><ellipse class="cls-5" cx="119.87" cy="105.15" rx="100" ry="104.87"/><path class="cls-6" d="M107.87,173.5l11.5,3,12.5-3v-1l-12.5,2.72-11.5-2.72Z"/><path class="cls-7" d="M104.87,133.18a42.79,42.79,0,0,1,30,0v1.64a38,38,0,0,0-30,0Z"/><path class="cls-1" d="M21.37,123.05h6l.69,24.61a22.31,22.31,0,0,1-6.75-11.09A28.11,28.11,0,0,1,21.37,123.05Z"/><path class="cls-1" d="M216.69,124.09h-6L210,148.7a22.4,22.4,0,0,0,4.69-5.89C219.06,134.85,217.29,126.52,216.69,124.09Z"/><path class="cls-1" d="M23.87,136.57l-1-3.12c-.83.09-3.14.25-4-1-1.06-1.59.2-5.2,4-8.32v-1c-6.36,3.77-8.75,9.23-7.39,11.73C16.55,136.74,20.15,137.25,23.87,136.57Z"/><path class="cls-1" d="M214.87,136.92l1-3.12c.83.1,3.14.25,4-1,1.06-1.58-.2-5.2-4-8.32v-1c6.36,3.78,8.75,9.24,7.39,11.73C222.19,137.09,218.59,137.6,214.87,136.92Z"/><g id="レイヤー_4" data-name="レイヤー 4"><path class="cls-8" d="M212.92,120.35A251.36,251.36,0,0,1,210.17,160c-3.31,22.2-6.77,43.7-19.46,48.9-1.19.49-6.88,2.84-12,0-6-3.32-6.89-11.34-7-12.49a16.68,16.68,0,0,0,8,2.08,18.54,18.54,0,0,0,8-2.08c9.71-5.42,10.48-25.13,11-38.49.21-5.42.1-9.45,0-12.49-.35-11.17-.94-27-2-46.81Z"/><path class="cls-8" d="M26.85,118.68A252.43,252.43,0,0,0,29.52,160c3.26,22,6.72,43.64,19.46,48.9,1.2.49,6.89,2.84,12,0,6-3.32,6.89-11.34,7-12.49a16.68,16.68,0,0,1-8,2.08,18.54,18.54,0,0,1-8-2.08C42.27,191,41.5,171.26,41,157.9v-.48c-.14-4-.12-7.68,0-12s.58-14.44,1.39-28.09Z"/><path class="cls-6" d="M40.37,84c2.66-6.18,9.73-20.2,25-29.13a55.07,55.07,0,0,1,16-6.24l-13-20.81C47.46,37.35,35.79,60.78,40.37,84Z"/><path class="cls-9" d="M82.2,133.84c1.72,11-.4,19.63-4.91,21.46a5.63,5.63,0,0,1-4,0c-4.47-1.84-6.52-10.41-4.73-21.46Z"/><polyline class="cls-10" points="98.9 133.29 88.4 133.09 50.41 132.31"/><path class="cls-9" d="M157.54,133.84c-1.72,11,.4,19.63,4.91,21.46a5.63,5.63,0,0,0,4,0c4.47-1.84,6.52-10.41,4.73-21.46Z"/><polyline class="cls-10" points="140.84 133.29 151.34 133.09 189.34 132.31"/><path class="cls-8" d="M46.37,103.23a33.82,33.82,0,0,1,11-3.49,31.5,31.5,0,0,1,8,0,64.07,64.07,0,0,1,14,3.49,74.61,74.61,0,0,1,14,7l1,3a73.76,73.76,0,0,0-12-6.45,62.74,62.74,0,0,0-11-3.48,36,36,0,0,0-19,0,38.94,38.94,0,0,0-5,1.74Z"/><g class="cls-11"><path class="cls-12" d="M202.37,126.26a167.69,167.69,0,0,0-17.7-3.87,169.82,169.82,0,0,0-17.7-2,63.35,63.35,0,0,0-19.6,3.89c-1.64.6-3.19,1.25-4.66,1.93a16.64,16.64,0,0,0-7.45,8.73,32.61,32.61,0,0,0-.93,7.75,34.36,34.36,0,0,0,5.59,18.41,23.17,23.17,0,0,0,13,10.66,33.59,33.59,0,0,0,25.15-1,23.73,23.73,0,0,0,13-12.6,90.32,90.32,0,0,0,2.8-8.72c.82-3.12,1.42-6,1.86-8.72l.93-6.79,5.71-3.89Z"/><path class="cls-12" d="M37.37,126.08a168.17,168.17,0,0,1,35.4-5.81,63.69,63.69,0,0,1,19.6,3.88c1.64.6,3.19,1.26,4.66,1.93a16.74,16.74,0,0,1,7.45,8.72,33.28,33.28,0,0,1,.93,7.76A34.29,34.29,0,0,1,99.78,161a23.5,23.5,0,0,1-4.66,5.82,23,23,0,0,1-8.38,4.84,33.73,33.73,0,0,1-25.15-1,23.8,23.8,0,0,1-13-12.6q-1.62-4.29-2.8-8.72c-.82-3.12-1.42-6.05-1.86-8.73L43,133.89l-5.63-3.95Z"/></g><path class="cls-9" d="M205.37,36.08A49.38,49.38,0,0,0,185.22,25,103,103,0,0,0,157.37,7.85c-30.22-12.4-56.83-5.92-66.5-3.41-12.32,3.19-29.39,8.05-41,23.93a54.29,54.29,0,0,0-5,8.32,49.81,49.81,0,0,0-15.5,6.77C5,59.57-7.73,99.92,6.37,116.28c2.43,2.83,8.31,8,22,8.33l18,5.2a88.5,88.5,0,0,1-6-26C39,85.42,44,72.85,45.37,69.47c2.61-6.25,6.5-15.16,14-16.65a12.33,12.33,0,0,1,6,.38q2.5-10.06,5-20.15c2.57,4.58,6.33,11.22,11,19.16,8.61,14.63,12.7,22.12,16,26.19a118.2,118.2,0,0,0,39,31.21,117.39,117.39,0,0,0,46,12.1l30.5,7.55a4.23,4.23,0,0,0,2,0C226.54,126.23,234.52,63.06,205.37,36.08Z"/><path class="cls-13" d="M21.87,84.55c-.58,2.78-6,30.17,7,39.54a15.39,15.39,0,0,0,4,2.08"/><path class="cls-13" d="M90.87,49.18a167.49,167.49,0,0,0,51,49.94,160.37,160.37,0,0,0,57,21.84"/><path class="cls-13" d="M186.87,55.42a195.53,195.53,0,0,1,12,74.91"/><path class="cls-13" d="M106.87,61.66a163.91,163.91,0,0,0,44,36.42,158.43,158.43,0,0,0,48,17.68"/><path class="cls-8" d="M61.37,16.41,83.76,7.32c-1.54-1.66-5.87-5.91-11.39-5.48a9.74,9.74,0,0,0-1.78.3A14.92,14.92,0,0,0,66.37,5,17.61,17.61,0,0,0,61.37,16.41Z"/><path class="cls-13" d="M58.87,42.94c0-32.39,6.73-39,11-40.58C79-1,90,13.61,118.87,39.81c16.9,15.35,31.42,27,41,34.34"/><path class="cls-13" d="M208.87,86.63c1.19,5.79,2.23,12,3,18.73a214.93,214.93,0,0,1,1,37.45"/><path class="cls-13" d="M212.87,122a10,10,0,0,0,9-2.09"/><path class="cls-13" d="M212.85,117.47a26.9,26.9,0,0,0,4.2.4,29.14,29.14,0,0,0,6.32-.55"/><path class="cls-13" d="M37.87,39.81c6.87-2.82,13.91-2.08,18,2.09a12.67,12.67,0,0,1,3,5.2"/><path class="cls-14" d="M202.37,126.44a169.48,169.48,0,0,0-35.4-5.82,63.63,63.63,0,0,0-19.6,3.88q-2.46.91-4.66,1.94a16.64,16.64,0,0,0-7.45,8.73,32.54,32.54,0,0,0-.93,7.75,34.39,34.39,0,0,0,5.59,18.41,23.29,23.29,0,0,0,13,10.66,33.59,33.59,0,0,0,25.15-1,23.8,23.8,0,0,0,13-12.6q1.62-4.29,2.8-8.72c.82-3.12,1.42-6,1.86-8.73l.93-6.78,5.59-3.89Z"/><path class="cls-14" d="M37.37,126.26a168.18,168.18,0,0,1,35.4-5.82,63.41,63.41,0,0,1,19.6,3.89c1.64.6,3.19,1.25,4.66,1.93a16.66,16.66,0,0,1,7.45,8.72,33.13,33.13,0,0,1,.93,7.75,34.28,34.28,0,0,1-5.59,18.41,23.19,23.19,0,0,1-13,10.67,33.73,33.73,0,0,1-25.15-1,23.77,23.77,0,0,1-13-12.6,90.32,90.32,0,0,1-2.8-8.72c-.82-3.12-1.42-6.05-1.86-8.73L43.08,134l-5.71-3.89Z"/><ellipse class="cls-15" cx="71.87" cy="139.17" rx="1.5" ry="2.08"/><ellipse class="cls-15" cx="160.87" cy="139.17" rx="1.5" ry="2.08"/><ellipse class="cls-16" cx="204.6" cy="54.92" rx="4.99" ry="8.45" transform="translate(-6.71 39.93) rotate(-10.97)"/><ellipse class="cls-16" cx="195.13" cy="58.99" rx="2.75" ry="4.38" transform="translate(-8.44 48.21) rotate(-13.79)"/><ellipse class="cls-16" cx="189.03" cy="60.29" rx="2.5" ry="3.97" transform="translate(-8.92 46.78) rotate(-13.79)"/><ellipse class="cls-16" cx="26.3" cy="61.79" rx="3.09" ry="1.57" transform="translate(-40.8 64.45) rotate(-69.21)"/><ellipse class="cls-16" cx="30.12" cy="61.82" rx="2.22" ry="0.99" transform="translate(-37.93 71.71) rotate(-72.3)"/></g></g></g></svg>