<?xml version="1.0" encoding="utf-8"?>
<!-- Generator: Adobe Illustrator 25.1.0, SVG Export Plug-In . SVG Version: 6.00 Build 0)  -->
<svg version="1.1" id="Layer_1" xmlns="http://www.w3.org/2000/svg" xmlns:xlink="http://www.w3.org/1999/xlink" x="0px" y="0px"
	 viewBox="0 0 211.4 463.9" style="enable-background:new 0 0 211.4 463.9;" xml:space="preserve">
<style type="text/css">
	.st0{fill:#FF9D00;}
	.st1{fill:none;stroke:#FFFF00;stroke-width:4;stroke-linejoin:round;}
	.st2{fill:#FFFFFF;}
	.st3{fill:#FFE6C8;}
	.st4{fill:#534741;}
	.st5{fill:#42210B;}
</style>
<path class="st0" d="M62.1,123.6h81.6c4.4,0,8,3.7,8,8.3v323.8c0,4.6-3.6,8.3-8,8.3H62.1c-4.4,0-8-3.7-8-8.3V131.9
	C54.1,127.3,57.7,123.6,62.1,123.6z"/>
<polygon class="st1" points="54.1,205 102.8,267.7 151.6,205 "/>
<rect x="84.1" y="267.7" class="st2" width="37.5" height="24.8"/>
<ellipse class="st3" cx="102.8" cy="116.1" rx="100" ry="101.8"/>
<path class="st4" d="M201.4,98.5L201.4,98.5c6.5-6.5,9.8-9.8,10-12.4c0.3-4.3-3.8-5-5-11.4c-1.3-7,2.8-9,1-13.4
	c-2.1-5.1-6-4-12-10.3c-1.4-1.5-7.6-8-9-17.6c-0.7-4.9,0.4-6.4-1-9.3c-4.1-8.2-19.7-8.5-20-7.2c-0.4,1.5,19.5,8.3,20,7.2
	c0.4-0.8-9.4-4.6-25-14.5c-11.3-7.1-15.1-10.8-20-9.3c-6.3,1.9-5.8,9.7-12,11.4c-7.8,2.1-14.3-8.8-19-6.2s-2.1,15.2-4,15.5
	s-2.3-11.3-9-14.5c-5.7-2.7-14.2,1.5-19,6.2c-5.7,5.5-5.2,10.6-9,11.4c-5,1-7.1-7.8-15-9.3c-4-0.8-8.3,1.6-17,6.2
	c-9.7,5.2-14.6,7.7-17,12.4c-3.4,6.5-0.2,10.2-4,17.6c-3.3,6.4-7.6,7.4-11,11.4c-4.3,5-7.2,15.1,0,37.2L201.4,98.5z"/>
<rect x="28.4" y="123.3" width="56" height="8.3"/>
<rect x="124.3" y="123.3" width="56" height="8.3"/>
<path d="M66.3,179.8c0.1-14.3-9.2-24.1-8.9-24.8c0.3-0.7,11.9,6.5,11.7,24.9s-12,25.4-12.2,24.6C56.6,203.8,66.1,194.1,66.3,179.8z"
	/>
<path d="M144.1,179.9c0.1,14.3,9.6,24,9.4,24.7c-0.3,0.7-12-6.3-12.2-24.7c-0.2-18.4,11.5-25.6,11.8-24.9
	C153.4,155.8,144,165.6,144.1,179.9z"/>
<path d="M106.3,195.6c20.7,0.2,35-9.4,36-9.1s-9.4,12.3-36,12c-26.6-0.3-36.9-12.5-35.8-12.7S85.6,195.4,106.3,195.6z"/>
<g id="装飾">
	<path class="st5" d="M28.3,76.8"/>
</g>
</svg>
