<svg xmlns="http://www.w3.org/2000/svg" viewBox="0 0 266.16 486.75"><defs><style>.cls-1{fill:#05b1ff;}.cls-10,.cls-2,.cls-4,.cls-5{fill:none;}.cls-2{stroke:#ff0;}.cls-10,.cls-11,.cls-2,.cls-5,.cls-8,.cls-9{stroke-linejoin:round;}.cls-10,.cls-11,.cls-2,.cls-4{stroke-width:4px;}.cls-3,.cls-9{fill:#fff;}.cls-10,.cls-11,.cls-4,.cls-5,.cls-8,.cls-9{stroke:#534741;stroke-linecap:round;}.cls-4{stroke-miterlimit:10;}.cls-5,.cls-8,.cls-9{stroke-width:5px;}.cls-6{fill:#ffe6c8;}.cls-11,.cls-7,.cls-8{fill:#534741;}</style></defs><rect class="cls-1" x="108.49" y="149.93" width="97.56" height="336.82" rx="8"/><polygon class="cls-2" points="108.49 230.54 157.18 292.56 206.05 230.54 108.49 230.54"/><rect class="cls-3" x="138.51" y="292.53" width="37.52" height="24.59"/><path class="cls-4" d="M655,307" transform="translate(-34.84 -5.75)"/><path class="cls-4" d="M662,312" transform="translate(-34.84 -5.75)"/><path class="cls-5" d="M674.5,336.5" transform="translate(-34.84 -5.75)"/><ellipse class="cls-6" cx="157.27" cy="142.55" rx="100" ry="100.8"/><path class="cls-7" d="M142.7,105.32a.64.64,0,0,0-1.14-.4L118.67,134H92.83c6.8-49,48.54-86.71,99-86.71S284.07,85,290.87,134H142.7Z" transform="translate(-34.84 -5.75)"/><path class="cls-5" d="M171,185c-25-24-40-1-40-1" transform="translate(-34.84 -5.75)"/><path class="cls-5" d="M137,186s20.5-12.5,33,0" transform="translate(-34.84 -5.75)"/><path class="cls-5" d="M212.5,174.18s29.16-22.1,40.5,7.68" transform="translate(-34.84 -5.75)"/><ellipse class="cls-8" cx="199.12" cy="179.48" rx="16.61" ry="17.77"/><ellipse class="cls-9" cx="192.21" cy="175.13" rx="6.45" ry="8.62"/><path class="cls-10" d="M191.85,222a48.67,48.67,0,0,1-7.84-.62c0,.05,0,.09,0,.14,0,6.11,4.25,11.07,9.5,11.07s9.5-5,9.5-11.07c0-.27,0-.54,0-.81A46.3,46.3,0,0,1,191.85,222Z" transform="translate(-34.84 -5.75)"/><path class="cls-11" d="M190.05,52.86s23.55-7,13.18-17.76S162.51-5.56,108.56,14.52s-78.71,87.23-70,109.3,23,43.79,7.71,92.94,9.92,59.41,19.61,66.5,23.6,20.19,24.33,23.1S77.59,287.61,84,260.81s10.74-50.88,2.82-70.75-7.45-110.84,59.64-148c0,0,20.32-.09,27.06,9.67S190.05,52.86,190.05,52.86Z" transform="translate(-34.84 -5.75)"/><ellipse class="cls-6" cx="159.16" cy="119.75" rx="58" ry="19.5"/><path class="cls-11" d="M291.36,115.05c-32.77-58.1-77.3-65.78-77.3-65.78l.28-.27C208,50.43,204,51.6,204,51.6S220.61,108.81,265.82,166c0,0,12,12.48,9.22,27-.58,3.09,8-18.34-1.84-54.09-6-7.43,17.07,22,8.3,78,0,0,22.15-41.61,16.61-79.06C297.23,132,294.63,121.3,291.36,115.05Z" transform="translate(-34.84 -5.75)"/><path class="cls-11" d="M95,116c30-55.86,70.79-63.23,70.79-63.23l-.26-.27C171.32,53.88,175,55,175,55s-15.21,55-56.61,110c0,0-11,12-8.45,26,.54,3-7.3-17.64,1.69-52,5.49-7.14-15.63,21.15-7.61,75,0,0-20.28-40-15.21-76C89.62,132.26,92,122,95,116Z" transform="translate(-34.84 -5.75)"/><path class="cls-11" d="M157,71.5s-21.52,53.46-1.86,84.83c0,0-10.19-31,4.49-42.17s-11,12.78,18.5,51c0,0,22.94,7.9,48-45.78,0,0-3.71,35.6-16.15,44.75,0,0,22.34-20.93,32.28-51.33,0,0-23.36-33.94-36.33-52.69s-46.57,11.25-46.57,11.25" transform="translate(-34.84 -5.75)"/><ellipse class="cls-11" cx="154.66" cy="42.75" rx="22.5" ry="6.5"/></svg>