<svg xmlns="http://www.w3.org/2000/svg" viewBox="0 0 201.47 462.73"><defs><style>.cls-1{fill:#534741;}.cls-2{fill:#ff9d00;}.cls-3,.cls-8{fill:none;}.cls-3{stroke:#ff0;stroke-linejoin:round;stroke-width:4px;}.cls-4,.cls-9{fill:#fff;}.cls-5{fill:#ffe6c8;}.cls-6,.cls-8,.cls-9{stroke:#000;stroke-miterlimit:10;stroke-width:2px;}.cls-7{isolation:isolate;font-size:12px;font-family:KozGoPr6N-Regular-90ms-RKSJ-H, Kozuka Gothic Pr6N;letter-spacing:-0.18em;}</style></defs><g id="Layer_2" data-name="Layer 2"><g id="Layer_1-2" data-name="Layer 1"><path class="cls-1" d="M200,219.23l-162.37,3c-64.63,0-22.63,4-27.63-18L5.81,164a22.48,22.48,0,0,1,21.83-27.81l139.91.09A22.45,22.45,0,0,1,190,158.8a22,22,0,0,1-.49,4.65L189,204.23C190.24,214,197,219.23,200,219.23Z"/><rect class="cls-2" x="51.22" y="125.91" width="97.56" height="336.82" rx="8"/><polygon class="cls-3" points="51.22 206.52 99.91 268.54 148.78 206.52 51.22 206.52"/><rect class="cls-4" x="81.24" y="268.5" width="37.52" height="24.59"/><ellipse class="cls-5" cx="101" cy="118.53" rx="100" ry="100.8"/><path class="cls-1" d="M168.5,191.23c-7,19.91,24,6,32-58C209.11,64.34,159.1,2.23,98.91,0,37.66-2.15-28,78.23,12.5,179.23A231.35,231.35,0,0,1,5.34,144C2.32,120.82,73.5,41.23,75.5,43.23c15,15,35,32,60,38C181.67,92.31,182.5,151.23,168.5,191.23Z"/><path class="cls-6" d="M75.5,108.23s-8.78,9.75-13,5c-8-9-6.51-7.71-10-5-9,7,5.15-8,11.5-8S72.56,104.93,75.5,108.23Z"/><path class="cls-6" d="M145.13,107.74c-3.53-2.66-2.06-4-9.94,5.14-4.15,4.81-13.07-4.82-13.07-4.82,2.89-3.34,5-8.07,11.39-8.16S154.21,114.63,145.13,107.74Z"/><path class="cls-5" d="M126.5,121.75a1.5,1.5,0,1,0-1.5-1.5A1.5,1.5,0,0,0,126.5,121.75Z"/><path class="cls-5" d="M128,124.82a1.5,1.5,0,1,0-1.5-1.5A1.5,1.5,0,0,0,128,124.82Z"/><path class="cls-5" d="M125.44,123.28a1.5,1.5,0,1,0-1.5-1.5A1.5,1.5,0,0,0,125.44,123.28Z"/><path class="cls-5" d="M131.5,125.35a19.36,19.36,0,0,1,8.94.83,1.49,1.49,0,0,0,1.84-1,1.53,1.53,0,0,0-1.05-1.84,22.2,22.2,0,0,0-10.52-.83,1.51,1.51,0,0,0-1,1.84,1.53,1.53,0,0,0,1.84,1.05Z"/><circle cx="137.5" cy="127.23" r="1"/><circle cx="127.5" cy="124.23" r="0.75"/><polygon class="cls-6" points="76.4 90.9 48.48 88.52 51.93 86.95 76.52 89.92 76.4 90.9"/><text class="cls-7" transform="translate(89.41 143.34)">く</text><g id="_レイヤー_" data-name=" レイヤー "><polygon class="cls-6" points="120.57 90.6 148.55 89.2 145.16 87.5 120.48 89.61 120.57 90.6"/><line class="cls-8" x1="53.35" y1="99.41" x2="60.65" y2="105.05"/><line class="cls-8" x1="139.4" y1="97.99" x2="132.88" y2="104.51"/><line class="cls-8" x1="58.49" y1="98.43" x2="65.79" y2="104.07"/><line class="cls-8" x1="144.59" y1="99.2" x2="137.68" y2="105.3"/><path class="cls-9" d="M98.5,179.23H100c-3.21,0-17.45-5.58-17.45-10h0c0-4.42,2.6-8,5.82-8h20.36c3.22,0,5.82,3.58,5.82,8h0C114.5,173.65,101.71,179.23,98.5,179.23Z"/></g></g></g></svg>