<?xml version="1.0" encoding="utf-8"?>
<!-- Generator: Adobe Illustrator 25.1.0, SVG Export Plug-In . SVG Version: 6.00 Build 0)  -->
<svg version="1.1" id="Layer_1" xmlns="http://www.w3.org/2000/svg" xmlns:xlink="http://www.w3.org/1999/xlink" x="0px" y="0px"
	 viewBox="0 0 219.1 462.9" style="enable-background:new 0 0 219.1 462.9;" xml:space="preserve">
<style type="text/css">
	.st0{fill:#05B1FF;}
	.st1{fill:none;stroke:#FFFF00;stroke-width:4;stroke-linejoin:round;}
	.st2{fill:#FFFFFF;}
	.st3{fill:#FFE6C8;}
	.st4{fill:none;stroke:#000000;stroke-width:0.25;stroke-miterlimit:10;}
	.st5{fill:none;stroke:#444444;stroke-width:4;stroke-miterlimit:10;}
	.st6{opacity:0.1;fill:#00FFFF;stroke:#444444;stroke-width:4;stroke-miterlimit:10;enable-background:new    ;}
	.st7{fill:none;stroke:#FFFFFF;stroke-width:5;stroke-linecap:round;stroke-linejoin:round;}
	.st8{stroke:#000000;stroke-width:0.25;stroke-miterlimit:10;}
	.st9{stroke:#000000;stroke-miterlimit:10;}
	.st10{fill:#F24646;}
</style>
<path class="st0" d="M66.9,140.3h81.6c4.4,0,8,3.5,8,7.8v306.9c0,4.3-3.6,7.8-8,7.8H66.9c-4.4,0-8-3.5-8-7.8V148.2
	C58.9,143.8,62.5,140.3,66.9,140.3z"/>
<polygon class="st1" points="58.9,217.5 107.6,276.9 156.4,217.5 "/>
<rect x="88.9" y="276.9" class="st2" width="37.5" height="23.5"/>
<ellipse class="st3" cx="107.7" cy="133.3" rx="100" ry="96.5"/>
<g id="装飾">
	<path class="st4" d="M142.1,133.2"/>
	<line class="st5" x1="94.8" y1="131.7" x2="118.8" y2="131.7"/>
	<path class="st5" d="M43.4,121.4h42.5c5.1,0,9.3,4.1,9.3,9.1v15.2c0,5-4.1,9.1-9.3,9.1H43.4c-5.1,0-9.3-4.1-9.3-9.1v-15.2
		C34.1,125.5,38.3,121.4,43.4,121.4z"/>
	<path class="st5" d="M129.4,121.4h42.5c5.1,0,9.3,4.1,9.3,9.1v15.2c0,5-4.1,9.1-9.3,9.1h-42.5c-5.1,0-9.3-4.1-9.3-9.1v-15.2
		C120.1,125.5,124.3,121.4,129.4,121.4z"/>
	<path class="st6" d="M43.4,121.4h42.5c5.1,0,9.3,4.1,9.3,9.1v15.2c0,5-4.1,9.1-9.3,9.1H43.4c-5.1,0-9.3-4.1-9.3-9.1v-15.2
		C34.1,125.5,38.3,121.4,43.4,121.4z"/>
	<path class="st6" d="M129.4,121.4h42.5c5.1,0,9.3,4.1,9.3,9.1v15.2c0,5-4.1,9.1-9.3,9.1h-42.5c-5.1,0-9.3-4.1-9.3-9.1v-15.2
		C120.1,125.5,124.3,121.4,129.4,121.4z"/>
	<polyline class="st7" points="164.2,147.9 173.7,147.9 173.7,141 	"/>
	<path class="st8" d="M42.2,116.6c3.9-1.4,7.9-2.4,12-2.9c10.1-1.4,20.4-0.4,30,2.9c-1.6-1.4-11.3-9.6-25-7.8
		C52.8,109.6,46.9,112.3,42.2,116.6z"/>
	<path class="st8" d="M171.8,116.3c-3.9-1.4-7.9-2.4-12-2.9c-10.1-1.4-20.4-0.4-30,2.9c1.6-1.4,11.3-9.6,25-7.8
		C161.2,109.3,167.1,112,171.8,116.3z"/>
	<path d="M27.2,49.3c-6.4,7.6-10.1,12-11,18.2c-3.3,22.8,36.9,44.6,37,44.6c-6.5-4.6-12-10.5-16-17.3c-2.1-3.5-3.7-7.1-5-10.9
		c3,4.2,6.4,8.1,10,11.8c5.4,5.5,11.5,10.4,18,14.6c-2.6-2.9-5.3-6.3-8-10c-3.8-5.2-7.1-10.7-10-16.4c4.7,7.7,11.2,14.3,19,19.1
		c2.9,1.8,5.9,3.3,9,4.5c-1.7-2.1-3.3-4.2-5-6.4l8,6.4l-6-10.9l-11-20l43,35.5l-7-15.5l13,16.4c-1.9-6.5-4.3-12.9-7-19.1
		c-2.9-6.6-6.2-13-10-19.1c5.4,9.4,12.1,18,20,25.5c3.8,3.6,7.8,6.9,12,10c-4.5-4.4-8.5-9.3-12-14.6c-3.2-4.9-5.9-10.1-8-15.5
		c4.6,7.8,10.3,14.8,17,20.9c4,3.7,8.4,7,13,10c-5.3-10-10.7-20-16-30c7.7,6.2,15.1,12.9,22,20c3.6,3.7,6.9,7.3,10,10.9
		c-1.3-3.3-2.7-6.7-4-10c1.3,1.4,2.7,3,4,4.5c2.6,3.1,4.9,6.2,7,9.1c-5.6-11.6-6.4-14.4-6-14.6c0.4-0.2,3.4,3.8,5,6.4
		c2.1,3.4,3.8,7.1,5,10.9c1.2-2.2,2.2-4.5,2.9-6.9c1.8-6.4,1.5-13.3-0.9-19.5c0.1,0,5.7,10,3,20.9c-0.5,2.2-1.4,4.4-1,4.5
		c0.6,0.2,4.1-4.5,6-10c2.3-6.5,1.4-10.9,2-10.9c1,0,1.7,12.3,0.5,16.6c-0.2,0.8-0.5,1.6-0.5,1.6c-0.5,1.6-1.2,3.1-2,4.5
		c4.4-5.2,7.2-11.5,8-18.2c0.2-2.1,0.2-4.2,0-6.4c0.2,0,2.3,10.5,0,22.7c-1,5-2.4,9-2,9.1c0.4,0.1,1.9-3.3,5-10c3-6.5,3.5-8,4-10
		c1-4.7,0.4-7.2,1-7.3c1.1-0.2,4.3,8.7,4,15.5c-0.2,3-0.7,5.9-1.6,8.8c-0.2,0.7-0.4,1.2-0.4,1.2c-1.1,3.1-2.2,4.4-2,4.5
		c0.2,0.2,3.3-2.1,6-5.5c2.1-2.8,3.8-5.8,5-9.1c1.4-3.5,2.4-7.2,3-10.9c1.2-6,1.6-12.1,1-18.2c-1.1-9.8-4.8-16.7-8-22.7
		c-3.5-6.6-7.9-12.7-13-18.2c-5.1-5.5-10.8-10.3-17-14.5c-8.4-5.7-17.4-10.3-27-13.6c-13.8-4.9-25.6-9.2-40-7.3
		c-9.2,1.2-17.8,6.3-35,16.4C36.9,38.1,29.5,46.5,27.2,49.3z"/>
	<path d="M34.2,97.6c-2.4,6.1-4.4,12.4-6,18.8c-4,16.3-4.8,33-6,32.9c-0.6,0-0.5-4.5-2-4.7s-3.2,4-4,3.8c-0.9-0.3,1.3-7,0-7.5
		c-0.9-0.4-2.3,2.8-4,2.8c-4.2,0.1-7.8-18.7-8-19.7c-4-21.4-6-32.1-2-46c3.3-12.1,9.9-23.2,19-32c1.4-1.4,2.2-2,14-10.3
		c27.2-19.4,30.3-21.3,34-23.5c16.7-9.9,25.3-12.3,34-12c2.3,0.1,4.7,0.3,7,0.7c-2-0.1-4.1,0.2-6,1c-0.7,0.3-1.4,0.6-2,1
		c1.7,0.1,3.3,0.1,5,0c2.4-0.1,4.7-0.5,7-1c-5.1,1.8-6.1,2.5-6,2.8c0.2,0.8,6.9-1.1,15,0c4.2,0.6,8.2,1.9,12,3.8c-2-0.5-4-0.8-6-1
		c-2-0.1-2.9-0.2-3,0c-0.2,0.8,8.7,4.5,18,6.6c4.6,1,9.3,1.7,14,1.9c-1.6,0.5-3.3,0.9-5,1c-2.3,0.2-4-0.1-4,0s5.5,1,9,1.9
		c11.4,2.7,19.1,9.7,25,15c5,4.6,8.1,7.4,11,12.2c3.4,5.7,4.4,10.8,10,16c1.5,1.4,3.2,2.7,5,3.8c-1.2-0.2-2.6-0.5-4-1
		c-1.1-0.3-2.1-0.6-3-1c1.9,3.4,4.2,6.6,7,9.4c0.7,0.7,1.3,1.3,2,1.9l-4-1.9c0.9,2.4,2.2,4.7,4,6.6c0.6,0.7,1.3,1.3,2,1.9l-2-1
		c1.4,1.6,2.4,3.6,3,5.6c0.8,2.9,0.2,5.1,2,7.5c0.6,0.7,1.2,1.4,2,1.9l-3-1c0.7,1.7,1.7,3.3,3,4.7c0.3,0.3,0.7,0.7,1,1l-2-1l1,2.8
		c0.3,7.9-0.7,15.9-3,23.5c-3.8,12.5-10.6,23.8-20,33v-25.4l-6,13.2c1.3-6.2,2.3-12.5,3-18.8c0.7-6.2,1-12.5,1-18.8
		c-0.4-15-11-40.2-32-50.8c-16-8.1-18.9,2.1-68,1.9c-25.6-0.1-43.5-2.9-54,7.5c-4.1,4.1-6.9,9.4-8,15C30.5,87.7,31.6,93,34.2,97.6z"
		/>
	<path d="M85.2,193c5.1,2.2,10.7,2.9,16.1,2c2.5-0.6,5.1-1,7.7-1c2.3,0.1,4.6,0.4,6.9,1c5.1,0.9,10.4,0.6,15.3-1
		c-3.5,0.9-7.1,1.2-10.7,1c-0.8,0-0.5-0.1-3.8-0.5c-1.8-0.3-3.6-0.4-5.5-0.5h-6c-2.1,0.1-2.8,0.3-5.5,0.7c-1.3,0.1-2.8,0.3-3.8,0.3
		C92.2,195,88.5,194.4,85.2,193z"/>
	<ellipse class="st9" cx="107.2" cy="164.1" rx="1.5" ry="3.9"/>
	<path class="st10" d="M107.7,197.8c-4,0-8-0.9-11.6-2.7l3.1-0.3c3.4-0.4,4.9-0.7,5.9-0.9c0.8-0.2,1.7-0.3,2.5-0.3h0.2
		c3.1,0.2,6.2,0.6,9.3,1.2c0.9,0.1,1.6,0.2,2.1,0.3c-3.5,1.7-7.2,2.6-11.1,2.7L107.7,197.8z"/>
	<path d="M107.8,193.7c3.1,0.2,6.2,0.6,9.3,1.2l1.7,0.3c-3.3,1.6-7,2.4-10.7,2.5h-0.5c-3.8,0-7.6-0.8-11.1-2.5l2.6-0.3
		c3.4-0.4,4.9-0.7,6-0.9c0.8-0.2,1.7-0.3,2.5-0.3L107.8,193.7 M107.8,193.5h-0.2c-2.2,0-1.9,0.4-8.5,1.2c-1.5,0.2-2.7,0.3-3.5,0.4
		c3.7,1.9,7.8,2.9,12,2.9h0.5c4-0.1,7.9-1.1,11.5-2.9l-2.5-0.4C114.1,194.1,111,193.7,107.8,193.5z"/>
</g>
</svg>
