<?xml version="1.0" encoding="utf-8"?>
<!-- Generator: Adobe Illustrator 25.1.0, SVG Export Plug-In . SVG Version: 6.00 Build 0)  -->
<svg version="1.1" id="Layer_1" xmlns="http://www.w3.org/2000/svg" xmlns:xlink="http://www.w3.org/1999/xlink" x="0px" y="0px"
	 viewBox="0 0 200 462.9" style="enable-background:new 0 0 200 462.9;" xml:space="preserve">
<style type="text/css">
	.st0{fill:#81413A;}
	.st1{fill:#FAF4AD;}
	.st2{fill:#05B1FF;}
	.st3{fill:none;stroke:#FFFF00;stroke-width:4;stroke-linejoin:round;}
	.st4{fill:#FFFFFF;}
	.st5{fill:#FFE6C8;}
	.st6{fill:#88463E;}
	.st7{fill:none;stroke:#42210B;stroke-width:2;stroke-linecap:round;stroke-miterlimit:10;}
	.st8{fill:#42210B;}
	.st9{fill:#EB745E;stroke:#EB745E;stroke-linecap:round;stroke-miterlimit:10;}
</style>
<polygon class="st0" points="192.6,220.6 7.4,220.6 0.2,105.7 199.8,105.7 "/>
<polygon class="st1" points="180.1,220.6 20,220.6 5.3,105.6 194.7,105.6 "/>
<path class="st2" d="M59.5,112.8H141c4.4,0,8,3.7,8,8.3v333.4c0,4.6-3.6,8.3-8,8.3H59.5c-4.4,0-8-3.7-8-8.3V121.1
	C51.5,116.5,55.1,112.8,59.5,112.8z"/>
<polygon class="st3" points="51.5,196.6 100.2,261.1 149,196.6 "/>
<rect x="81.5" y="261" class="st4" width="37.5" height="25.6"/>
<ellipse class="st5" cx="100" cy="104.8" rx="100" ry="104.8"/>
<path class="st6" d="M195.4,146.3c1.2-6.5,4.6-34.7,4.6-41.5C200,46.9,155.2,0,100,0S0,46.9,0,104.8c0,31,11.5,60,37.5,90.1
	c0,0-2-56.1,2-70.7s20-38.5,29-50.9s45-43.7,45-43.7s37.2,20.3,50,36.3S195.4,146.3,195.4,146.3z"/>
<path class="st7" d="M120.7,98.6c0,0,10.7-2.8,18.7-2.1c8,0.7,20.2,5.3,20.2,5.3"/>
<path class="st7" d="M81.2,98.6c0,0-10.7-2.8-18.7-2.1c-8,0.7-20.2,5.3-20.2,5.3"/>
<path class="st8" d="M162.6,119.4c-0.7,0.5-1.6,0.7-2.5,0.6c-0.9-0.1-1.7-0.3-2.6-0.7l-8.6-3c-0.9-0.4-1.9-0.6-2.9-0.9
	c-1.3-0.2-2.6-0.3-3.8-0.3c-7.6-0.1-15.5,0.8-22,4l-0.5-0.3c4.4-3.2,9.4-5.4,14.7-6.5c5.5-1.1,11.3-0.7,16.6,1.2
	c3.9,1.5,7.1,3.8,11,5.4L162.6,119.4z"/>
<path class="st8" d="M161.8,118.1c-1.5,1-3.6-0.1-5.1-0.6l-5.4-1.9c-1.8-0.7-3.6-1.3-5.4-1.7c-1.8-0.3-3.7-0.4-5.6-0.3
	c-7.2,0-14.4,1-21,4.3h1.5l-0.5-0.3v2.7c6.1-4.6,13.5-7,21.1-6.8c3.9,0.1,7.7,1,11.2,2.6c1.8,0.9,3.4,1.8,5.2,2.7
	c1.3,0.6,2.7,1.3,3.9,2c1.6,1.1,3.1-1.6,1.5-2.7c-1.4-0.8-2.8-1.6-4.3-2.2c-1.9-1-3.7-2-5.6-2.9c-3.8-1.7-7.8-2.6-11.9-2.7
	c-8.1-0.1-16,2.4-22.6,7.3c-0.7,0.5-0.9,1.4-0.5,2.2c0.1,0.2,0.3,0.4,0.5,0.5c0.5,0.4,1.1,0.5,1.6,0.4c0.9-0.3,1.7-0.7,2.5-1.1
	c1.8-0.7,3.7-1.3,5.6-1.7c3.8-0.8,7.7-1.2,11.6-1.2c2-0.1,4.1,0.1,6.1,0.5c1.9,0.5,3.8,1.3,5.7,1.9s3.9,1.4,5.8,2.1
	c1.8,0.7,3.8,0.6,5.4-0.4C165,119.7,163.5,117,161.8,118.1z"/>
<path class="st8" d="M39.8,119.4c0.7,0.5,1.6,0.7,2.5,0.6c0.9-0.1,1.7-0.3,2.6-0.7l8.6-3c0.9-0.4,1.9-0.6,2.9-0.9
	c1.3-0.2,2.6-0.3,3.8-0.3c7.6-0.1,15.5,0.8,22,4l0.5-0.3c-4.4-3.2-9.4-5.4-14.7-6.5c-5.5-1.1-11.3-0.7-16.6,1.2
	c-3.9,1.5-7.1,3.8-11,5.4L39.8,119.4z"/>
<path class="st8" d="M39,120.8c1.6,0.9,3.5,1.1,5.2,0.4c2-0.6,4-1.4,6-2.1s3.7-1.4,5.7-1.9c2-0.4,4-0.6,6.1-0.5
	c3.9,0,7.8,0.4,11.6,1.2c1.8,0.4,3.7,0.9,5.4,1.6c0.9,0.5,1.8,0.9,2.7,1.2c0.6,0.1,1.2-0.1,1.6-0.4c0.7-0.5,0.9-1.4,0.5-2.2
	c-0.1-0.2-0.3-0.4-0.5-0.5c-6.6-4.9-14.5-7.4-22.6-7.3c-4.1,0.1-8.2,1-11.9,2.7c-1.9,0.9-3.7,1.9-5.6,2.9c-1.5,0.6-2.9,1.4-4.3,2.2
	c-1.6,1.1-0.1,3.8,1.5,2.7c1.3-0.8,2.6-1.4,3.9-2c1.7-0.9,3.4-1.9,5.2-2.7c3.5-1.7,7.4-2.6,11.2-2.6c7.5-0.1,14.9,2.3,21.1,6.8v-2.7
	l-0.5,0.3H83c-6.5-3.2-13.8-4.2-21-4.3c-1.9-0.1-3.7,0-5.6,0.3c-1.8,0.4-3.5,0.9-5.2,1.6l-5.4,1.9c-1.5,0.5-3.8,1.8-5.3,0.7
	C39,117,37.4,119.7,39,120.8z"/>
<path class="st9" d="M124.4,165.3c0,2.7-10.5,6.4-22.7,6.4S80,168,80,165.3c0-2.7,9.3,3.1,21.6,3.1S124.4,162.6,124.4,165.3z"/>
<ellipse class="st8" cx="152.7" cy="136" rx="1.3" ry="1.4"/>
</svg>
