<?xml version="1.0" encoding="utf-8"?>
<!-- Generator: Adobe Illustrator 25.1.0, SVG Export Plug-In . SVG Version: 6.00 Build 0)  -->
<svg version="1.1" id="Layer_1" xmlns="http://www.w3.org/2000/svg" xmlns:xlink="http://www.w3.org/1999/xlink" x="0px" y="0px"
	 viewBox="0 0 207.5 462.9" style="enable-background:new 0 0 207.5 462.9;" xml:space="preserve">
<style type="text/css">
	.st0{fill:#05B1FF;}
	.st1{fill:none;stroke:#FFFF00;stroke-width:4;stroke-linejoin:round;}
	.st2{fill:#FFFFFF;}
	.st3{fill:#534741;}
	.st4{fill:#FFE6C8;}
	.st5{fill:none;stroke:#534741;stroke-width:5;stroke-linecap:round;stroke-miterlimit:10;}
</style>
<path class="st0" d="M62.5,112.5H144c4.4,0,8,3.7,8,8.3v333.7c0,4.6-3.6,8.3-8,8.3H62.5c-4.4,0-8-3.7-8-8.3V120.9
	C54.5,116.3,58.1,112.5,62.5,112.5z"/>
<polygon class="st1" points="54.5,196.4 103.2,260.9 152,196.4 "/>
<rect x="84.5" y="260.9" class="st2" width="37.5" height="25.6"/>
<path class="st3" d="M190.6,131.8c0,0,7.2,27.6,5.9,43.7s-5.8,13.1-10.2,24s2.3,32.5,2.3,32.5s-21-10.1-23.7-15.5s8.5-26.2,11-35.6
	s-14.5-53.3-14.5-53.3L190.6,131.8z"/>
<path class="st3" d="M172.1,133.8c0,0,7.7,27.6,6.4,43.7s-6,13.1-10.7,24s2.5,32.6,2.5,32.6s-22.3-10.2-25.1-15.6
	c-2.9-5.4,8.9-26.2,11.5-35.6s-15.5-53.3-15.5-53.3L172.1,133.8z"/>
<path class="st3" d="M16,134.5c0,0-7.2,27.6-5.9,43.7c0,9.6,10.2,24,10.2,24L18,234.7c0,0,21-10.1,23.7-15.5
	c2.7-5.4-8.5-26.2-11-35.6s14.4-53.3,14.4-53.3L16,134.5z"/>
<path class="st3" d="M34.5,137.6c0,0-7.7,27.6-6.4,43.7s6,13.1,10.7,24s-2.5,32.6-2.5,32.6s22.3-10.2,25.1-15.6
	c2.8-5.5-8.9-26.1-11.5-35.5s15.5-53.3,15.5-53.3L34.5,137.6z"/>
<ellipse class="st4" cx="103.2" cy="104.9" rx="100" ry="104.9"/>
<path class="st5" d="M59.1,132.6c0,0,12.4-3.6,20.9,0"/>
<path class="st5" d="M143.8,132.2c0,0-12.4-3.6-20.9,0"/>
<path class="st5" d="M99.6,142.5c-1,6.2-1,4.2-1,4.2"/>
<path class="st3" d="M145.5,70.7l11.8,25.5H203C198.8,42.4,155.8,0,103.3,0S7.9,42.4,3.7,96.2h130L145.5,70.7z"/>
<path class="st3" d="M202.2,92c0,0,7.5,35.4,4.6,55.4s-8.6,15.9-15.2,29.3c-6.7,13.3,0.6,41.1,0.6,41.1s-27.1-14.6-30.3-21.7
	c-3.2-7,13.2-32.2,17.1-43.7s-15.2-68.3-15.2-68.3L202.2,92z"/>
<path class="st3" d="M3.7,93.9c0,0-5.7,35.1-2.9,55.2s7.6,16.1,13.5,29.5s0.2,41,0.2,41s22.7-14,25.3-21
	c2.6-6.9-11.8-32.4-15.4-43.9C20.9,143,36.1,86.9,36.1,86.9L3.7,93.9z"/>
<path class="st5" d="M91.1,170.1c0,0,12.4,5.5,20.9,0"/>
</svg>
