<?xml version="1.0" encoding="utf-8"?>
<!-- Generator: Adobe Illustrator 25.1.0, SVG Export Plug-In . SVG Version: 6.00 Build 0)  -->
<svg version="1.1" id="Layer_1" xmlns="http://www.w3.org/2000/svg" xmlns:xlink="http://www.w3.org/1999/xlink" x="0px" y="0px"
	 viewBox="0 0 212 462.9" style="enable-background:new 0 0 212 462.9;" xml:space="preserve">
<style type="text/css">
	.st0{fill:#05B1FF;}
	.st1{fill:none;stroke:#FFFF00;stroke-width:4;stroke-linejoin:round;}
	.st2{fill:#FFFFFF;}
	.st3{fill:#FFE6C8;}
	.st4{fill:#282B30;}
	.st5{fill:none;stroke:#DC96AA;stroke-width:2;stroke-linecap:round;stroke-miterlimit:10;}
	.st6{fill:none;stroke:#282B30;stroke-linecap:round;stroke-miterlimit:10;}
	.st7{fill:#999999;}
	.st8{fill:#4D4D4D;}
</style>
<path class="st0" d="M65.7,124.6h81.6c4.4,0,8,3.7,8,8.2v321.9c0,4.5-3.6,8.2-8,8.2H65.7c-4.4,0-8-3.7-8-8.2V132.8
	C57.7,128.2,61.3,124.6,65.7,124.6z"/>
<polygon class="st1" points="57.7,205.5 106.4,267.8 155.3,205.5 "/>
<rect x="87.7" y="267.8" class="st2" width="37.5" height="24.7"/>
<ellipse class="st3" cx="106.5" cy="117.2" rx="100" ry="101.3"/>
<path class="st4" d="M146.6,111.6c-2.5,0.9-5,1.6-7.6,2.1v4.3l10.7-2.1c0,0,4.6-2.3,16.3,0.3C166,116.2,153.4,108.8,146.6,111.6z"/>
<path class="st4" d="M58.6,95.8C57,113,49.8,126.5,33,133.6c1-0.2,4-9.2,2-19.9c1.3,5.1-4.5,35.7-11,48.7c1.1-4.2,1.7-8.5,1.7-12.9
	c-2.2,5.7-3.6,10.9-2.7,15c-1.7-1.9-2.9-4.8-3.5-9.8c0.5,5,0.4,10-0.5,15c-0.5-4.6-1.9-8.3-4.2-11c-6.9-9.9-7.6-31.5-8.8-42.4
	l-6,7.2c5-12.3,3-20.6,4-35.4c0-21.1,17-53,24.6-58.5l74.4-7.9l59.8,12.9L202,64.7c13,23.5,6,45.2,10,53.4c-2-3.1-3-3.1-2.9-11.4
	c-2.2,12.1-7.3,42.1-1.1,43.3c-3.1-0.5-3.3-5.7-5-7.2c-0.7,5.1-4.5,14.5-4.5,14.5c-1.7,2.1-4.5,7.1-4.5,11.2
	c-0.7-1.9,0.1-6.9,0.4-13.8c-0.2,4.1-1.3,8.2-3.4,11.7c0.6-3.5,2-9.4,0.9-13.4c-1.2,3.3,0.1,9.1,1.1,12.3c-1.3-1.7-3.9-8.7-5.5-15.1
	c0.8,4.3,1.4,8.7,1.5,13.1c-1-9.2-5-9.2-9-24.7c-5-29.8-23-39-23-55.8L86.6,73l-1,11.9L58.6,95.8z"/>
<path class="st4" d="M21,26.7c3,1.9,5.7,3.1,7.6,2.7l-3.9,12.9L207,77.1c-4-18.2-13-36-30-41.1c-7-14.4-15.1-20.4-41.5-26.2
	C115-5.1,85-0.9,67.2,8.6C41.8,21,29.5,27.7,21,26.7z"/>
<path class="st4" d="M99.4,164.8h4.2c0.5,0,0.9,0.4,0.9,1v0.3c0,0.5-0.4,1-0.9,1h-4.2c-0.5,0-0.9-0.4-0.9-1v-0.3
	C98.5,165.2,98.9,164.8,99.4,164.8z"/>
<path class="st4" d="M109.4,164.8h4.2c0.5,0,0.9,0.4,0.9,1v0.3c0,0.5-0.4,1-0.9,1h-4.2c-0.5,0-0.9-0.4-0.9-1v-0.3
	C108.4,165.2,108.9,164.8,109.4,164.8z"/>
<path class="st5" d="M89.7,193.4c4.3,1,5.5-0.7,8.1-0.9h15.3c2.2,0.8,6.1,1,10.2,0.9"/>
<path class="st4" d="M141.2,126l-11.1,4.5v5c0.1,4.4,2.2,8.4,5.7,10.9c4.1,1.3,10.1,1.6,17.7,0.9c4.3-2.3,7-6.8,7.1-11.8V129
	C154.4,126.8,147.8,125.8,141.2,126z"/>
<path class="st6" d="M129.3,131.8l8.4-4c0,0,5.1-4.4,22.8,1.6"/>
<path class="st4" d="M149.7,127.8c4.2,1,8.5,1.4,12.8,1.3c-2.1,1.1-4.5,1.6-6.8,1.7"/>
<path class="st4" d="M71.8,126l11.1,4.5v5c-0.1,4.4-2.2,8.4-5.7,10.9c-4.1,1.3-10.1,1.6-17.7,0.9c-4.3-2.3-7-6.8-7.1-11.8v-6.4
	C58.6,126.8,65.2,125.8,71.8,126z"/>
<path class="st6" d="M83.7,131.8l-8.4-4c0,0-5.1-4.4-22.8,1.6"/>
<path class="st4" d="M63.3,127.8c-4.2,1-8.5,1.4-12.8,1.3c2.1,1.1,4.5,1.6,6.8,1.7"/>
<rect x="190.4" y="173.2" class="st7" width="6.5" height="1"/>
<rect x="193" y="169.5" class="st7" width="1.2" height="12.6"/>
<path class="st4" d="M44,130.5c7.4-8.9,12.5-20.1,14-34.9l20-33.9l92,15.4l-8,16.4c-1.2,17.8-22,28.8-39,30.8c7-9,9-14.4,10-22.6
	c0.9,8.4-9.1,20.5-11,20.6c-7,4.1-21,1-40.7,2.9c5.5-11.7,7.9-19.2,8.7-24.5c-2.1,8.5-5.9,16.6-11,23.6L44,130.5z"/>
<path class="st4" d="M180.9,40.8c12.4-2.4,15.7,1.6,19.1,7.9c-8-8.4-13.1-8.5-22.5-1.6l-0.4-10.3c5.8-2.6,12.3-1.3,19.2,2.3
	C189.5,37.3,183.9,37.2,180.9,40.8z"/>
<path class="st4" d="M180.2,37.6c-1.5-7.5-6.1-13.4-12.4-18.7c5.1,6.3,8.9,12.4,8.5,18.3"/>
<rect x="190" y="173" class="st4" width="6.5" height="1"/>
<rect x="192.6" y="169.2" class="st4" width="1.2" height="12.6"/>
<polygon class="st8" points="194.3,169.5 192.7,169.5 192,166.5 195,166.5 "/>
</svg>
