<?xml version="1.0" encoding="utf-8"?>
<!-- Generator: Adobe Illustrator 25.1.0, SVG Export Plug-In . SVG Version: 6.00 Build 0)  -->
<svg version="1.1" id="Layer_1" xmlns="http://www.w3.org/2000/svg" xmlns:xlink="http://www.w3.org/1999/xlink" x="0px" y="0px"
	 viewBox="0 0 202.9 462.9" style="enable-background:new 0 0 202.9 462.9;" xml:space="preserve">
<style type="text/css">
	.st0{fill:#604E46;stroke:#5F4E46;stroke-miterlimit:10;}
	.st1{fill:#05B1FF;}
	.st2{fill:none;stroke:#FFFF00;stroke-width:4;stroke-linejoin:round;}
	.st3{fill:#FFFFFF;}
	.st4{fill:#FFE6C8;}
	.st5{fill:#5B504A;}
	.st6{clip-path:url(#SVGID_2_);}
	.st7{fill:#503B26;}
	.st8{fill:#534741;}
	.st9{fill:#534740;}
	.st10{fill:#C1A799;}
	.st11{clip-path:url(#SVGID_4_);}
	.st12{fill:#B75A44;}
</style>
<path class="st0" d="M201.5,238.2c-0.6-4.9-1.5-9.9-2.6-14.7c-1.1-4.7-2.3-9.2-3.5-13.6c-2.4-8.8-4.5-17.4-4.3-25.9
	c0.2-8.5,1.7-17.4,3.8-26.7l3.3-14.2c1.1-4.8,2.1-9.8,2.9-14.8c0.8-5.1,1.2-10.2,1.3-15.3c0.1-5.1-0.1-10.2-0.7-15.2
	c-0.6-5-1.5-9.9-2.7-14.7V83c-9.8-47.2-49.8-82.5-97.7-82.5c-54.6,0-99,45.8-100,102.7c-0.5,4.6-0.7,9.3-0.6,13.9
	c0.1,5.1,0.5,10.2,1.3,15.3c0.8,5,1.8,10,2.9,14.8l3.3,14.2c2.2,9.2,3.8,18.1,3.8,26.7c0,8.5-1.9,17.1-4.3,25.9
	c-1.2,4.4-2.4,8.9-3.5,13.6c-1.1,4.8-2,9.8-2.6,14.7c-1.3,10.2-1.6,21.1,0.7,31.9c1.1,5.4,2.9,10.6,5.4,15.5
	c1.3,2.4,2.7,4.8,4.5,6.9c1.7,2.1,3.7,4,5.9,5.5l1.9-1.6c-1.1-4.5-1.6-9.2-1.5-13.8c0.1-4.5,0.4-8.9,1.1-13.3c1.3-8.6,3.6-17.1,6-26
	c1.2-4.4,2.4-9,3.5-13.7c0.9-4.3,1.7-8.7,2.3-13.3c1.7,5.6,2.9,11.4,3.8,17.2c0.5,3.7,0.8,7.3,0.8,11c0,3.9-0.5,7.7-1.6,11.4
	l1.5,1.3c1.9-1.2,3.6-2.7,5-4.4c1.5-1.7,2.7-3.7,3.8-5.7c2.1-4,3.6-8.4,4.6-12.9c0.5-2.5,0.9-5,1.1-7.5c0.8,0.9,1.5,1.9,2.3,2.8
	c1.7,1.8,3.5,3.4,5.6,4.7c2,1.3,4.2,2.3,6.5,2.8l1.7-2.3c-1.4-3.7-2.2-7.5-2.5-11.4c-0.1-1.8-0.2-3.6-0.2-5.4l0.1-2.6l0.2-2.6
	c0.4-4.6,1.1-9.2,2-13.7c24.7,9.7,52.2,8.9,76.3-2.4c1.1,4.5,1.9,9.1,2.5,13.7l0.3,2.6l0.2,2.6c0.1,1.8,0.1,3.6,0,5.4
	c-0.1,3.9-0.8,7.8-2,11.5l1.8,2.2c2.3-0.6,4.5-1.7,6.4-3.1c2-1.4,3.8-3.1,5.4-5c0.8-0.9,1.5-1.9,2.3-2.9c0.7-1,1.2-1.8,1.7-2.7
	c0.1,5.3,0.6,10.5,1.5,15.7c0.8,4.3,2.1,8.5,3.7,12.5c0.9,2,1.9,4,3,5.9c1.1,1.9,2.5,3.7,4.1,5.2l1.8-1c-0.3-3.9-0.2-7.8,0.2-11.7
	c0.4-3.8,0.8-7.6,1.4-11.3c0-0.3,0.1-0.6,0.2-1c0.3,1.3,0.7,2.5,1,3.8c2.4,8.9,4.8,17.3,6,26c0.7,4.4,1,8.9,1.1,13.3
	c0.1,4.7-0.4,9.3-1.5,13.8l1.9,1.6c2.2-1.5,4.2-3.3,5.9-5.5c1.7-2.1,3.2-4.4,4.5-6.9c2.5-4.9,4.3-10.1,5.4-15.4
	C203,259.3,202.7,248.4,201.5,238.2z"/>
<path class="st1" d="M61.6,112.9h81.6c4.4,0,8,3.7,8,8.3v333.4c0,4.6-3.6,8.3-8,8.3H61.6c-4.4,0-8-3.7-8-8.3V121.2
	C53.6,116.6,57.2,112.9,61.6,112.9z"/>
<polygon class="st2" points="53.6,196.7 102.3,261.1 151.1,196.7 "/>
<rect x="83.6" y="261.1" class="st3" width="37.5" height="25.6"/>
<ellipse class="st4" cx="102.2" cy="105.2" rx="100" ry="104.7"/>
<path class="st5" d="M42.8,121.7c3.1-2.2,6.5-4,10-5.4c0.9-0.4,1.8-0.6,2.7-1c0.9-0.3,1.9-0.5,2.8-0.8c0.9-0.2,1.9-0.4,2.8-0.5
	c0.9-0.2,1.9-0.2,2.9-0.3c1.9-0.1,3.9-0.3,5.8-0.2c1.9,0,3.8,0.3,5.7,0.8c1.8,0.5,3.7,1.1,5.4,1.9c1.8,0.8,3.5,1.7,5.1,2.8l-0.1,0.4
	c-1.9,0.1-3.8,0.1-5.7-0.1c-1.9-0.1-3.7-0.3-5.4-0.5s-3.5-0.5-5.3-0.8c-1.7-0.3-3.5-0.6-5.3-0.7c-3.6-0.1-7.2,0.2-10.6,1
	c-3.6,0.9-7.1,2-10.4,3.5L42.8,121.7z"/>
<path class="st5" d="M159.3,122.4c-3.4-1.4-6.9-2.4-10.5-3.1c-3.5-0.7-7.1-0.9-10.7-0.7c-1.8,0.1-3.5,0.4-5.3,0.9
	c-1.7,0.4-3.5,0.7-5.3,1c-1.8,0.3-3.6,0.5-5.4,0.7c-1.9,0.2-3.8,0.3-5.7,0.3l-0.1-0.4c1.6-1.2,3.2-2.2,5-3c1.7-0.8,3.5-1.5,5.3-2.1
	c1.8-0.6,3.7-0.9,5.7-1c1.9-0.1,3.9-0.1,5.8,0c1,0,1.9,0.1,2.9,0.2c1,0.1,1.9,0.3,2.9,0.4s1.9,0.4,2.8,0.7c0.9,0.3,1.8,0.5,2.7,0.9
	c3.5,1.3,7,3,10.2,5L159.3,122.4z"/>
<path class="st3" d="M78.2,134.2c-2.7-2.4-6-4-9.6-4.6c-3-0.5-6.1-0.6-9.2-0.3c-4.6,0.6-8.3,2.9-8,5.9c0.3,3.3,2.4,5.1,6.5,6.9
	c4.8,2,9.8,3.3,15,3.6c2.2,0.2,4.5,0,6.7-0.7c0.2-0.1,2.3-0.7,2.9-2.1C83.6,140.4,80,135.6,78.2,134.2z"/>
<g>
	<defs>
		<path id="SVGID_1_" d="M78.2,134.2c-2.7-2.4-6-4-9.6-4.6c-3-0.5-6.1-0.6-9.2-0.3c-4.6,0.6-8.3,2.9-8,5.9c0.3,3.3,2.4,5.1,6.5,6.9
			c4.8,2,9.8,3.3,15,3.6c2.2,0.2,4.5,0,6.7-0.7c0.2-0.1,2.3-0.7,2.9-2.1C83.6,140.4,80,135.6,78.2,134.2z"/>
	</defs>
	<clipPath id="SVGID_2_">
		<use xlink:href="#SVGID_1_"  style="overflow:visible;"/>
	</clipPath>
	<g class="st6">
		<ellipse class="st7" cx="71.4" cy="138.7" rx="8" ry="8.4"/>
		
			<ellipse transform="matrix(8.447013e-02 -0.9964 0.9964 8.447013e-02 -71.0796 198.8313)" class="st7" cx="72.7" cy="138.1" rx="4.9" ry="3.6"/>
	</g>
</g>
<path class="st8" d="M51.3,134c1.1-1.1,2.4-2.1,3.8-2.9c2.6-1.3,5.5-1.9,8.4-1.8c2.6,0,5.1,0.4,7.6,1.2c0.8,0.3,1.5,0.6,2.3,0.9
	l-0.9-0.3c-2.6-0.9-5.3-1.3-8-1.3c-3.1-0.1-6.2,0.6-9.1,2c-1.3,0.8-2.4,1.6-3.6,2.6L51.3,134z"/>
<path class="st9" d="M63.5,128.6c-3-0.1-6,0.6-8.7,1.9c-1.5,0.8-2.9,1.9-4.1,3.1l0,0c0,0-0.4,0.4-0.4,0.4l1.6,1.4
	c1.2-1.1,2.5-2,3.9-2.9c2.7-1.3,5.7-2,8.7-1.9c2.6,0,5.3,0.4,7.8,1.2c4.6,1.4,8.5,4.7,10.6,9.2l-0.8-2c-2.2-4.5-6-7.9-10.7-9.2
	C68.8,129,66.1,128.6,63.5,128.6L63.5,128.6z M50.2,134L50.2,134z"/>
<path class="st8" d="M51,134.6l0.5,0.1l-0.1,0.1L51,134.6z"/>
<path class="st9" d="M47,133.1C46.9,133.1,46.9,133.1,47,133.1c0.8,0.5,4.1,2.4,4.5,2.6l0,0l0,0l1.4-1.5c0,0,0,0,0-0.1L47,133.1
	L47,133.1z"/>
<path class="st10" d="M65.1,126.7c3.4,0.1,6.7,0.8,9.8,2.2c1.6,0.7,3,1.6,4.3,2.8c1.3,1.2,2.4,2.5,3.3,3.9l0,0
	c-1.2-1.2-2.4-2.4-3.7-3.5c-1.3-1.1-2.6-2-4.1-2.8C71.7,127.9,68.5,127.1,65.1,126.7L65.1,126.7z"/>
<path class="st3" d="M125.1,134.2c2.7-2.4,6-4,9.6-4.6c3-0.5,6.1-0.6,9.2-0.3c4.6,0.6,8.3,2.9,8,5.9c-0.3,3.3-2.4,5.1-6.5,6.9
	c-4.8,2-9.8,3.3-15,3.6c-2.2,0.2-4.5,0-6.7-0.7c-0.2-0.1-2.3-0.7-2.9-2.1C119.7,140.4,123.4,135.6,125.1,134.2z"/>
<g>
	<defs>
		<path id="SVGID_3_" d="M125.1,134.2c2.7-2.4,6-4,9.6-4.6c3-0.5,6.1-0.6,9.2-0.3c4.6,0.6,8.3,2.9,8,5.9c-0.3,3.3-2.4,5.1-6.5,6.9
			c-4.8,2-9.8,3.3-15,3.6c-2.2,0.2-4.5,0-6.7-0.7c-0.2-0.1-2.3-0.7-2.9-2.1C119.7,140.4,123.4,135.6,125.1,134.2z"/>
	</defs>
	<clipPath id="SVGID_4_">
		<use xlink:href="#SVGID_3_"  style="overflow:visible;"/>
	</clipPath>
	<g class="st11">
		<ellipse class="st7" cx="132.5" cy="139.2" rx="8.6" ry="8.9"/>
		
			<ellipse transform="matrix(0.9964 -8.447820e-02 8.447820e-02 0.9964 -11.2328 11.5778)" class="st7" cx="131.2" cy="138.5" rx="3.8" ry="5.2"/>
	</g>
</g>
<path class="st8" d="M151.6,134.4c-1.1-1-2.3-1.8-3.6-2.6c-2.8-1.4-5.9-2-9.1-2c-2.7,0-5.4,0.4-8,1.3l-0.9,0.3
	c0.7-0.3,1.5-0.6,2.3-0.9c2.4-0.8,5-1.2,7.6-1.2c2.9-0.1,5.8,0.5,8.4,1.8c1.4,0.8,2.6,1.7,3.8,2.9L151.6,134.4z"/>
<path class="st9" d="M139.9,128.6c-2.6,0-5.3,0.4-7.8,1.2c-4.7,1.4-8.5,4.7-10.7,9.2l-0.8,2c2.1-4.5,5.9-7.9,10.6-9.2
	c2.5-0.8,5.1-1.2,7.8-1.2c3-0.1,6,0.6,8.7,1.9c1.4,0.8,2.7,1.8,3.9,2.9l1.5-1.4c-0.1,0-0.4-0.4-0.5-0.4l0,0
	c-1.2-1.2-2.6-2.3-4.1-3.1C145.9,129.2,142.9,128.6,139.9,128.6L139.9,128.6z"/>
<path class="st8" d="M151.9,134.7l0.5-0.1l-0.4,0.2L151.9,134.7z"/>
<path class="st9" d="M156.4,133.1L156.4,133.1l-6,1c0,0-0.1,0,0,0.1l1.4,1.5h0l0,0C152.3,135.4,155.6,133.5,156.4,133.1L156.4,133.1
	L156.4,133.1z"/>
<path class="st10" d="M138.2,126.7c-3.3,0.3-6.6,1.1-9.6,2.5c-1.5,0.8-2.8,1.7-4.1,2.8c-1.3,1.1-2.5,2.3-3.7,3.5l0,0
	c0.9-1.4,2.1-2.8,3.3-3.9c1.3-1.2,2.7-2.1,4.3-2.8C131.6,127.6,134.9,126.8,138.2,126.7L138.2,126.7z"/>
<path class="st12" d="M117.3,184.9c-0.9,1-1.9,1.8-3.1,2.4c-1.1,0.6-2.3,1-3.5,1.3c-2.3,0.6-4.8,0.8-7.2,0.6
	c2.4-0.1,4.7-0.6,6.9-1.5c2.2-0.7,4.1-2.1,5.5-3.9l0,0c0.3-0.4,0.8-0.5,1.2-0.2C117.6,183.9,117.7,184.5,117.3,184.9L117.3,184.9z"
	/>
<path class="st12" d="M91.3,183.8c1.4,1.8,3.3,3.2,5.5,3.9c2.2,0.8,4.6,1.3,6.9,1.5c-2.4,0.2-4.8-0.1-7.2-0.6
	c-1.2-0.3-2.4-0.7-3.5-1.3c-1.2-0.6-2.2-1.4-3.1-2.4c-0.3-0.4-0.3-0.9,0-1.3C90.4,183.3,90.9,183.3,91.3,183.8L91.3,183.8
	L91.3,183.8L91.3,183.8z"/>
<path class="st10" d="M97.6,151.7c-0.1,2,0,4,0.2,5.9c0.2,1.9,0.9,3.7,2.1,5.1c0.6,0.6,1.4,1.1,2.2,1.3c0.9,0.2,1.8,0.4,2.7,0.4
	c1.9,0.1,3.7-0.4,5.3-1.5c-1.3,1.7-3.2,2.7-5.3,2.7c-1,0.1-2-0.1-3-0.3c-1.1-0.3-2-0.9-2.8-1.7c-1.3-1.7-2-3.8-2-5.9
	C96.9,155.7,97.1,153.7,97.6,151.7z"/>
<path class="st0" d="M109.9,0.8c-1-0.1-2-0.1-3-0.2h-1.3c-1.2,0-2.3-0.1-3.5-0.1l0,0c-1.3,0-2.6,0-3.9,0.1h-1
	c-1,0.1-2.1,0.1-3.1,0.2c-51.5,4.3-92,49.4-92,104.4c0,18.1,4.5,35.9,13,51.7c7.2,13.6,16.7,25.8,28.1,35.8h0.1
	c-0.3-1.5-5.5-29.4-6-43.6c-0.5-17.4,2.6-34.8,9-50.9l0,0l3-0.2l-3,0.2c13,7.7,35.9,16.8,60.7,18.4c34.7,2.3,46.7,3.4,50.4,4l0,0
	c2.1-10.1,3.4-20.4,3.8-30.7h0.1c0,0,10,36.4,8,63.4c-1.8,24.7-11.9,40.8-12.9,42.5l0,0c9.1-7.4,33.2-32.5,33.4-32.6l2.5-9.9
	c4-11.3,10-32,10-44.7C202.3,53.4,161.5,4.9,109.9,0.8z"/>
<path class="st0" d="M157.4,120.6c-0.1,0.3-0.1,0.5-0.1,0.5S160.6,121,157.4,120.6z"/>
</svg>
