<?xml version="1.0" encoding="utf-8"?>
<!-- Generator: Adobe Illustrator 25.1.0, SVG Export Plug-In . SVG Version: 6.00 Build 0)  -->
<svg version="1.1" id="Layer_1" xmlns="http://www.w3.org/2000/svg" xmlns:xlink="http://www.w3.org/1999/xlink" x="0px" y="0px"
	 viewBox="0 0 200 462.9" style="enable-background:new 0 0 200 462.9;" xml:space="preserve">
<style type="text/css">
	.st0{fill:#FF9D00;}
	.st1{fill:none;stroke:#FFFF00;stroke-width:4;stroke-linejoin:round;}
	.st2{fill:#FFFFFF;}
	.st3{fill:#FFE6C8;}
	.st4{fill:#534741;}
	.st5{fill:none;stroke:#444444;stroke-miterlimit:10;}
</style>
<path class="st0" d="M59.2,112.5h81.6c4.4,0,8,3.8,8,8.5v333.3c0,4.7-3.6,8.5-8,8.5H59.2c-4.4,0-8-3.8-8-8.5V121
	C51.2,116.3,54.8,112.5,59.2,112.5z"/>
<polygon class="st1" points="51.2,196.4 99.9,260.9 148.8,196.4 "/>
<rect x="81.2" y="260.9" class="st2" width="37.5" height="25.6"/>
<ellipse class="st3" cx="100" cy="104.9" rx="100" ry="104.9"/>
<path class="st4" d="M4.9,137.2"/>
<polyline class="st4" points="8.2,70.1 16.2,92 33.2,83.5 29.6,92 55.7,81.1 47,92 74.2,83.5 67.4,92 92.4,81.1 81,94.4 110.2,77.1 
	99.8,92.2 127,77 118.5,91.7 148.5,78.6 144.2,92 168.2,78.2 162.2,91 179.2,75 175.7,94.4 186.9,82.2 198.5,95.7 187.7,62.4 
	151.7,22.7 96.5,7.4 41.1,27.4 "/>
<path class="st4" d="M4.9,76.1c12.6-40.4,32.6-53.2,46.4-62.8c22.3-17,58.3-12.8,67.5-11.4c30.3,4.5,44.7,21,56.6,34.1
	C196.5,63.3,200,93.4,200,93.4l-18.5-25.3l-159-2.7c0,0-10,30.9-20.4,60.7c0,0-2.2,23.1-1.9-27.8"/>
<polyline class="st4" points="197.6,127.6 187.4,76.2 198.5,86.7 200,107 "/>
<ellipse cx="74" cy="116" rx="11.5" ry="12.2"/>
<ellipse cx="132" cy="116" rx="11.5" ry="12.2"/>
<ellipse class="st2" cx="74.5" cy="116.5" rx="3" ry="3.2"/>
<ellipse class="st2" cx="132.5" cy="116.5" rx="3" ry="3.2"/>
<path class="st5" d="M81,172.4c4.9,5,11.3,8,18,8.5c12.3,0.9,20.6-7.1,22-8.5"/>
</svg>
