<?xml version="1.0" encoding="utf-8"?>
<!-- Generator: Adobe Illustrator 25.1.0, SVG Export Plug-In . SVG Version: 6.00 Build 0)  -->
<svg version="1.1" id="Layer_1" xmlns="http://www.w3.org/2000/svg" xmlns:xlink="http://www.w3.org/1999/xlink" x="0px" y="0px"
	 viewBox="0 0 200 462.9" style="enable-background:new 0 0 200 462.9;" xml:space="preserve">
<style type="text/css">
	.st0{fill:#534741;}
	.st1{fill:#FF9D00;}
	.st2{fill:none;stroke:#FFFF00;stroke-width:4;stroke-linejoin:round;}
	.st3{fill:#FFFFFF;}
	.st4{fill:#FFE6C8;}
	.st5{fill:none;stroke:#534741;stroke-width:2;stroke-linecap:round;stroke-miterlimit:10;}
	.st6{fill:none;stroke:#534741;stroke-width:1.5;stroke-linecap:round;stroke-miterlimit:10;}
</style>
<g id="Layer_2_1_">
	<g id="Layer_1-2">
		<path class="st0" d="M28.7,78.7h142.7c15.6,0,28.2,13.1,28.2,29.3v77.5c0,16.2-12.6,29.3-28.2,29.3H28.7
			c-15.6,0-28.2-13.1-28.2-29.3V108C0.5,91.8,13.1,78.7,28.7,78.7z"/>
		<path class="st1" d="M59.2,112.5h81.6c4.4,0,8,3.7,8,8.3v333.7c0,4.6-3.6,8.3-8,8.3H59.2c-4.4,0-8-3.7-8-8.3V120.9
			C51.2,116.3,54.8,112.5,59.2,112.5z"/>
		<polygon class="st2" points="51.2,196.4 99.9,260.9 148.8,196.4 		"/>
		<rect x="81.2" y="260.9" class="st3" width="37.5" height="25.6"/>
		<ellipse class="st4" cx="100" cy="104.9" rx="100" ry="104.9"/>
		<path class="st0" d="M59,59.8l5.7,36.7c0.3,2.2,2.2,3.9,4.4,3.9h130.4C197.3,44.6,153.5,0,99.8,0S2.3,44.6,0.1,100.4h49.4
			c1.8,0,3.4-1.4,3.7-3.3L59,59.8z"/>
		<path class="st0" d="M0,106.4c0,36,9.5,68.9,25.1,93.8c-3.6-30.9,3.8-67.9,6.5-99.9H0.1C0,102.4,0,104.4,0,106.4z"/>
		<path class="st0" d="M199.5,106.4c0,36-9.5,68.9-25,93.8c3.6-30.9-3.8-67.9-6.5-99.9h31.4C199.5,102.4,199.5,104.4,199.5,106.4z"
			/>
		<ellipse class="st0" cx="133.9" cy="131.8" rx="7.9" ry="8.1"/>
		<line class="st5" x1="144" y1="127.7" x2="140.8" y2="129.3"/>
		<ellipse class="st0" cx="66.2" cy="131.8" rx="7.8" ry="8.1"/>
		<line class="st5" x1="56" y1="127.7" x2="59.2" y2="129.3"/>
		<path class="st0" d="M112.6,153.4h-0.5l-11.4,5.5c-0.4,0.2-0.9,0.2-1.3,0l-11.4-5.5h-0.5c-0.3,0-0.6,0.2-0.7,0.6
			c0,0.3,0.1,0.5,0.3,0.6l12.3,5.9c0.4,0.2,0.9,0.2,1.3,0l12.3-5.9c0.3-0.1,0.4-0.5,0.3-0.8C113.1,153.5,112.8,153.4,112.6,153.4z"
			/>
		<line class="st6" x1="100" y1="142" x2="100" y2="147.2"/>
		<line class="st6" x1="127.8" y1="116.5" x2="142.8" y2="116.5"/>
		<line class="st6" x1="57.2" y1="116.5" x2="72.2" y2="116.5"/>
	</g>
</g>
</svg>
