<?xml version="1.0" encoding="utf-8"?>
<!-- Generator: Adobe Illustrator 25.1.0, SVG Export Plug-In . SVG Version: 6.00 Build 0)  -->
<svg version="1.1" id="Layer_1" xmlns="http://www.w3.org/2000/svg" xmlns:xlink="http://www.w3.org/1999/xlink" x="0px" y="0px"
	 viewBox="0 0 204 462.9" style="enable-background:new 0 0 204 462.9;" xml:space="preserve">
<style type="text/css">
	.st0{fill:#05B1FF;}
	.st1{fill:none;stroke:#FFFF00;stroke-width:4;stroke-linejoin:round;}
	.st2{fill:#FFFFFF;}
	.st3{fill:#694737;}
	.st4{fill:#FFE97B;}
	.st5{fill:#FFE6C8;}
	.st6{fill:none;}
	.st7{fill:#453C35;}
	.st8{fill:none;stroke:#47392B;stroke-width:5;stroke-miterlimit:10;}
	.st9{fill:none;stroke:#47392B;stroke-width:4;stroke-miterlimit:10;}
	.st10{fill:#F2888F;}
	.st11{fill:#EACEB0;}
</style>
<path class="st0" d="M61.7,112.9h81.6c4.4,0,8,3.7,8,8.3v333.3c0,4.6-3.6,8.3-8,8.3H61.7c-4.4,0-8-3.7-8-8.3V121.2
	C53.7,116.6,57.3,112.9,61.7,112.9z"/>
<polygon class="st1" points="53.7,196.7 102.4,261.1 151.3,196.7 "/>
<rect x="83.7" y="261.1" class="st2" width="37.5" height="25.5"/>
<rect x="5.6" y="79.1" class="st3" width="192.7" height="124.5"/>
<rect x="14" y="147.5" class="st4" width="6" height="56.1"/>
<rect x="34" y="147.5" class="st4" width="6" height="56.1"/>
<rect x="164" y="147.5" class="st4" width="6" height="56.1"/>
<rect x="184" y="147.5" class="st4" width="6" height="56.1"/>
<ellipse class="st5" cx="102.5" cy="105.3" rx="100" ry="104.7"/>
<path class="st3" d="M204,90.4C192.1,38.4,151,0,102,0S11.8,38.4,0,90.4H204z"/>
<line class="st6" x1="27" y1="52" x2="13" y2="90.4"/>
<line class="st6" x1="27" y1="52" x2="13" y2="90.4"/>
<polygon class="st4" points="92.5,0.5 59,90.4 74.4,90.4 "/>
<polygon class="st4" points="112,0.5 145.5,90.4 130.2,90.4 "/>
<ellipse class="st3" cx="57.7" cy="120.4" rx="15.6" ry="15.7"/>
<ellipse class="st7" cx="58.4" cy="119.7" rx="9.5" ry="9.9"/>
<ellipse class="st2" cx="58.6" cy="119.7" rx="6.4" ry="6.6"/>
<path class="st8" d="M37.2,131.9c-2.4-9.2-0.7-18.8,5-23.9c8.3-7.6,25.6-5.7,35.7,8.9"/>
<path class="st9" d="M28.1,108.9c0.4,1.5,1.2,2.9,2.3,4c1.8,1.8,4.3,2.5,6.8,2"/>
<path class="st9" d="M27.2,118.3c0.4,1.5,1.2,2.9,2.3,4c1.8,1.8,4.3,2.5,6.8,2"/>
<ellipse class="st3" cx="147.3" cy="120.4" rx="15.6" ry="15.7"/>
<ellipse class="st7" cx="146.6" cy="119.7" rx="9.5" ry="9.9"/>
<ellipse class="st2" cx="146.4" cy="119.7" rx="6.4" ry="6.6"/>
<path class="st8" d="M167.9,131.9c2.4-9.2,0.7-18.8-5-23.9c-8.3-7.6-25.6-5.7-35.7,8.9"/>
<path class="st9" d="M176.9,108.9c-0.4,1.5-1.2,2.9-2.3,4c-1.8,1.8-4.3,2.5-6.8,2"/>
<path class="st9" d="M177.8,118.3c-0.4,1.5-1.2,2.9-2.3,4c-1.8,1.8-4.3,2.5-6.8,2"/>
<path class="st10" d="M139.2,160l-36.7,0.2L65.8,160c8,13.2,19.4,22.1,36.2,23.8v0.1l0.5-0.1l0.5,0.1v-0.1
	C119.9,182.1,131.2,173.2,139.2,160z"/>
<path class="st11" d="M99.2,128.2c0.9,1.5-1.1,3.1-2.1,3.9c-1.6,1.2-2.9,2.7-3.9,4.5c-1.7,3.5-1.2,7.9,2,10.2
	c1.6,1.1,3.1-1.6,1.5-2.7c-2.9-2-1.3-6.1,0.6-8.1c1.3-1.4,2.9-2.3,4-3.9c1.1-1.6,1.3-3.7,0.4-5.4c-0.4-0.7-1.3-1-2.1-0.6
	C98.9,126.5,98.7,127.4,99.2,128.2L99.2,128.2z"/>
</svg>
