<svg xmlns="http://www.w3.org/2000/svg" viewBox="0 0 207.59 445"><defs><style>.cls-1{fill:#534741;}.cls-2{fill:#ff9d00;}.cls-3{fill:none;stroke:#ff0;stroke-linejoin:round;stroke-width:4px;}.cls-4{fill:#fff;}.cls-5{fill:#ffe6c8;}.cls-6{fill:#534740;}</style></defs><path class="cls-1" d="M255.76,260.1a109.63,109.63,0,0,0,15-18.23c.38-1,.74-1.9,1.09-2.79a5.29,5.29,0,0,1,2.46-2.8l.8-1.3c2.44-4.07,5.11-8.1,7.32-12.31a22.06,22.06,0,0,1,3.16-7.24,30.77,30.77,0,0,0,1.65-9,4.85,4.85,0,0,1,1-2.91V123.13H95.56v75.73a3.84,3.84,0,0,1,.65,1.15,3.73,3.73,0,0,1,.32.84,5.25,5.25,0,0,1,.85,2,27.44,27.44,0,0,1,3.05,8.67c1.2,5.59,2.07,11.23,3.52,16.77,3.4,12.91,11.69,23.6,21.37,32.5H255.16A5.52,5.52,0,0,1,255.76,260.1Z" transform="translate(-89.75 -47.5)"/><rect class="cls-2" x="52.97" y="108.18" width="97.56" height="336.82" rx="8"/><polygon class="cls-3" points="52.97 188.79 101.66 250.81 150.53 188.79 52.97 188.79"/><rect class="cls-4" x="82.99" y="250.77" width="37.52" height="24.59"/><ellipse class="cls-5" cx="102.75" cy="100.8" rx="100" ry="100.8"/><path class="cls-1" d="M289.14,122.69C277.9,79.43,238.85,47.5,192.41,47.5s-85.49,31.93-96.74,75.19Z" transform="translate(-89.75 -47.5)"/><g id="装飾"><path class="cls-1" d="M130,147a14.09,14.09,0,0,1,5-3c3-1,6-3,8-3h9l5,1h4l1,1v2l-3-1h-5l-1-1H141a3.1,3.1,0,0,0-2,1c-1,1-4,2-4,2l-3,1-1,1h-1v-1Z" transform="translate(-89.75 -47.5)"/><path class="cls-1" d="M254,147a16.22,16.22,0,0,0-5.62-3c-3.38-1-6.75-3-9-3H229.25l-5.63,1h-4.5L218,143v2l3.37-1H227l1.12-1h13.51a3.71,3.71,0,0,1,2.25,1c1.12,1,4.5,2,4.5,2l3.37,1,1.13,1H254v-1Z" transform="translate(-89.75 -47.5)"/><path class="cls-1" d="M128,158l1-1-3-2v-1l3,2,3-3a7.74,7.74,0,0,1,3-1l-2-2v-1l2,2h0a47.09,47.09,0,0,0,5-2c2-1,6-1,6-1h5s4,0,6,1a47.09,47.09,0,0,0,5,2l3,1,2,2v1l1,1v1h-2v1h0l1,1v1h-2l-8-3a10.34,10.34,0,0,1,1,4c0,2-2,5-2,5s-2,2-3,2-2,1-4,0-4-1-4-2-1-3-1-4a22.69,22.69,0,0,1,1-4h-2l-2,1-5,4v1h-6s-1-3,0-4l6-6,3-2,5-2,5-1h-7l-4,2-2,1,1,1h-2l-4,3,1,1h-2l-1,1-1,1Z" transform="translate(-89.75 -47.5)"/><path class="cls-1" d="M261.86,158l-1.07-1,3.21-2v-1l-3.21,2-3.22-3a8.72,8.72,0,0,0-3.21-1l2.14-2v-1l-2.14,2h0a52.33,52.33,0,0,1-5.36-2c-2.14-1-6.43-1-6.43-1h-5.36s-4.28,0-6.42,1a53.27,53.27,0,0,1-5.36,2l-3.22,1-2.14,2v1L219,156v1h2.14v1h0l-1.07,1v1h2.14l8.58-3a9.76,9.76,0,0,0-1.08,4c0,2,2.15,5,2.15,5s2.14,2,3.21,2,2.14,1,4.29,0,4.28-1,4.28-2,1.07-3,1.07-4a21.49,21.49,0,0,0-1.07-4h2.15l2.14,1,5.36,4v1h6.42s1.08-3,0-4l-6.42-6-3.22-2-5.36-2-5.35-1h7.5l4.28,2,2.15,1-1.08,1h2.15l4.28,3-1.07,1h2.14l1.08,1,1.07,1Z" transform="translate(-89.75 -47.5)"/><path class="cls-1" d="M199,175h-1l-1,3c-1,3-1,3-1,4v6l2,5h1l1-1-1-2a10,10,0,0,1-1-4v-7l1-1v-1l1-1v-1Z" transform="translate(-89.75 -47.5)"/><path class="cls-1" d="M198,196l-3,4s-1,2,0,2a3.49,3.49,0,0,0,2-1l2-2,2-3-1-1Z" transform="translate(-89.75 -47.5)"/><path class="cls-1" d="M174.65,215.77l-1.25,1.86-.25,2,3,.38s1,.13,3.71,2.49,5.57,3.74,6.57,3.86l4,.51,3,.38,1.12-.87.13-1a1,1,0,0,0-.87-1.12l-3-.38-3-.38-2.85-1.37-3.72-2.49-1.85-1.24s1,.12.12-1a3.09,3.09,0,0,0-1.85-1.25l-1-.13-1-.12Z" transform="translate(-89.75 -47.5)"/><path class="cls-1" d="M216.18,215.54l1.36,1.83.28,2-3.25.45s-1.08.15-4,2.58-6.07,3.88-7.15,4l-4.32.6-3.24.45-1.22-.84-.14-1c-.14-1,.94-1.14.94-1.14l3.24-.45,3.25-.45,3.1-1.44,4-2.59,2-1.29s-1.08.15-.14-1a3.52,3.52,0,0,1,2-1.29l1.08-.15,1.08-.15Z" transform="translate(-89.75 -47.5)"/><path class="cls-6" d="M120.94,121.31c-2.57,10.93-9.7,19.84-13.55,30.29-4.29,11.63-4.46,24.87-3.36,37.08,2.06,23,9.75,45.63,24.57,63.56,4.92,6,13.37-2.57,8.48-8.48-13.37-16.19-20-37.82-21.31-58.54-.68-11-.39-22.5,4.12-32.69,4.19-9.46,10.21-17.81,12.62-28,1.76-7.51-9.8-10.72-11.57-3.19Z" transform="translate(-89.75 -47.5)"/><path class="cls-6" d="M250.49,124.5c3.37,10.68,10.93,18.46,16.7,27.79,6.32,10.21,7,22.2,5.93,33.9a89.23,89.23,0,0,1-29.36,57.57c-5.77,5.15,2.74,13.62,8.48,8.48a101.25,101.25,0,0,0,32.52-62.87c1.58-12.58,1.09-26-4.25-37.68-5-10.83-14.83-18.9-18.45-30.38-2.32-7.34-13.91-4.2-11.57,3.19Z" transform="translate(-89.75 -47.5)"/><path class="cls-6" d="M96.59,121.75C88,151.63,84.87,185.49,103,212.62c4.27,6.39,14.67.39,10.36-6.05-16.41-24.53-13-54.7-5.23-81.63,2.13-7.44-9.45-10.62-11.57-3.19Z" transform="translate(-89.75 -47.5)"/><path class="cls-6" d="M277.65,124.17c8.48,25.27,13.09,54-3.09,77.28-4.42,6.36,6,12.36,10.36,6.06,17.94-25.82,13.74-58.39,4.31-86.53-2.45-7.29-14-4.16-11.58,3.19Z" transform="translate(-89.75 -47.5)"/><path class="cls-6" d="M108.28,119.91c.66,10.39-5.1,19.64-7.51,29.53A108.8,108.8,0,0,0,98,182.15c.5,7.67,12.5,7.73,12,0a97.94,97.94,0,0,1,3.31-33.08c2.8-9.89,7.67-18.58,7-29.16-.49-7.67-12.49-7.73-12,0Z" transform="translate(-89.75 -47.5)"/><path class="cls-6" d="M105.52,118.91a87,87,0,0,1-3,14.08c-2.19,7.43,9.39,10.6,11.57,3.19a105.62,105.62,0,0,0,3.45-17.27c.39-3.23-3-6-6-6-3.57,0-5.61,2.77-6,6Z" transform="translate(-89.75 -47.5)"/><path class="cls-6" d="M263,122.45c4.16,2.92,6.12,9.85,8.12,14.29a110.81,110.81,0,0,1,6.41,17.74l11-4.62c-2.94-5.8-5.58-12-9.4-17.28a30.29,30.29,0,0,0-5.59-6.05c-1.24-1-6.53-3.34-6.69-5.11-.69-7.63-12.7-7.7-12,0,.76,8.31,6.42,10.07,11.91,15.06s8.2,13.13,11.41,19.43,12.63,1.83,11-4.62a134.66,134.66,0,0,0-8.39-22.3c-3-6.51-5.62-12.67-11.66-16.9-6.33-4.45-12.34,6-6.05,10.36Z" transform="translate(-89.75 -47.5)"/><path class="cls-6" d="M275.91,159.56c.79,1.81.84,4.48,1.22,6.41l1.49,7.58c.62,3.18,4.42,5,7.38,4.19,3.32-.91,4.82-4.19,4.19-7.38-1.09-5.56-1.66-11.65-3.92-16.86-1.29-3-5.65-3.65-8.21-2.15-3.07,1.79-3.45,5.22-2.15,8.21Z" transform="translate(-89.75 -47.5)"/><path class="cls-6" d="M91,185.5c0,7,1.54,14.1,2.72,21a214.66,214.66,0,0,0,4.58,21.3c3.76,13.56,9.59,26.24,18.7,37,5,5.92,13.43-2.61,8.48-8.48-8.08-9.6-12.83-21.29-16-33.31-1.59-6-2.81-12.06-3.88-18.15-1.12-6.35-2.61-12.92-2.57-19.38.06-7.72-11.94-7.73-12,0Z" transform="translate(-89.75 -47.5)"/><path class="cls-6" d="M283,180.39a94.79,94.79,0,0,1-1.51,21.33c-1.18,7-2.17,14.14-5.25,20.57-2.91,6.05-6.3,11.9-9.48,17.81-3,5.53-5.58,11.58-10,16.11-5.4,5.53,3.07,14,8.48,8.49,5-5.11,8.1-11.48,11.45-17.71,3.58-6.67,7.51-13.27,10.64-20.17s4.47-14.38,5.74-21.91c1.38-8.13,2.41-16.27,1.94-24.52-.43-7.68-12.43-7.73-12,0Z" transform="translate(-89.75 -47.5)"/></g></svg>